<?xml version="1.0" encoding="utf-8"?>
<!-- Generator: Adobe Illustrator 21.0.0, SVG Export Plug-In . SVG Version: 6.00 Build 0)  -->
<svg version="1.1" id="Layer_1" xmlns="http://www.w3.org/2000/svg" xmlns:xlink="http://www.w3.org/1999/xlink" x="0px" y="0px"
	 viewBox="0 0 331 221" style="enable-background:new 0 0 331 221;" xml:space="preserve">
<style type="text/css">
	.st0{fill:#13A3A6;}
	.st1{fill:#8FC732;}
	.st2{fill:#E31D3D;}
	.st3{fill:#F1DD3F;}
	.st4{fill:#5CB67B;}
	.st5{opacity:0.84;fill:#59247B;}
	.st6{fill:#EDEDED;}
	.st7{fill:none;stroke:#000000;stroke-width:10;stroke-miterlimit:10;}
</style>
<path class="st0" d="M265,150.3c0.4-1,0.1-2.4-1.2-2.9c-4.8-1.8-9.7-3.4-14.9-2.8c-2.1,0.3-4.6,0.8-6,2.2c-0.9,0.1-1.7,0.8-1.8,1.9
	c-0.7,9-2.7,17.6-5.9,26c-0.3,0.7-0.1,1.3,0.3,1.7c-0.2,0.4-0.2,0.8-0.2,1.2c-0.3,0.5-0.5,1.1-0.7,1.6c-0.8,2.4,3,3.5,3.9,1.1
	c0.2-0.6,0.5-1.1,0.8-1.5c0,1.2,1,2.5,2.5,2c1.2-0.3,2.3-0.6,3.5-0.8c0.3,0.4,0.8,0.6,1.4,0.6c3.6,0.1,7.2,0.3,10.9,0.4
	c2.6,0.1,2.6-3.9,0-4c-0.6,0-1.3,0-1.9-0.1c0-0.3-0.2-0.6-0.3-0.9c0.3,0,0.5-0.1,0.8-0.1c1.1-0.2,1.7-1.5,1.4-2.5
	c-0.3-0.9-1-1.4-1.9-1.4c0.2-0.1,0.5-0.1,0.7-0.2c1.4-0.4,1.6-1.8,1.2-2.8c0.7-1,0.3-2.5-0.7-3.1c-0.2-0.5-0.6-1-1.1-1.2
	c0.5-0.3,0.8-0.8,1-1.3c0.6,0,1.1-0.1,1.7-0.1c1.8-0.1,2.3-2.1,1.6-3.2c0.8-0.4,1-1.3,0.8-2.1c0.7-0.7,0.9-1.9,0.3-2.8
	c1.3-0.4,2.6-0.8,3.9-1.2C267,153.5,266.6,150.7,265,150.3z M242.7,164.3c0-0.1,0.1-0.3,0.1-0.4c0.3-0.1,0.7-0.2,1-0.4
	c0.4-0.4,1-0.7,1.5-1.2c0,0.2,0,0.3,0,0.5C244.4,163.3,243.5,163.8,242.7,164.3z M251.8,154.2c0,0.1,0,0.2-0.1,0.4
	c-0.9,0.1-1.8,0.3-2.8,0.4C249.9,154.7,250.9,154.4,251.8,154.2z M251.4,165.6c0.3-0.2,0.6-0.3,0.9-0.5c0.4-0.1,0.8-0.2,1.1-0.2
	c0.1,0.1,0.2,0.1,0.3,0.1C253,165.2,252.2,165.4,251.4,165.6z"/>
<path class="st0" d="M268.2,157.3c-1.6-2-4.5,0.9-2.8,2.8c2.8,3.4,4.4,13.2-2.8,11.5c-2.5-0.6-3.6,3.3-1.1,3.9
	c4.7,1.1,8.6-0.7,9.9-5.5C272.6,165.4,271.1,160.8,268.2,157.3z"/>
<path class="st0" d="M298.9,90.7c-4.4-9.3-15.3-15-23.2-20.9c-2.1-1.5-4.1,1.9-2,3.5c7.4,5.5,17.7,10.8,21.8,19.5
	C296.5,95,300,93,298.9,90.7z"/>
<path class="st0" d="M243.8,122.4c-0.3-1.3-1.2-2.1-2.2-2.8c-1.1-0.8-2.2-1.5-3.4-2.2c0,0-0.1,0-0.1-0.1c0-0.1,0-0.1,0-0.2
	c0.1-1.1-1-2-2-2c-1.2,0-1.9,0.9-2,2c-0.3,3-1.2,8.1,3.3,8.3c0.1,0,0.3,0,0.4,0c0.1,0.2,0.3,0.4,0.5,0.6c0.5,0.5,1.1,0.7,1.9,0.8
	c1,0.1,1.9-0.9,2-1.8C243.3,124.8,244,123.4,243.8,122.4z"/>
<path class="st0" d="M249.2,127.1c-1.4,0-2,1.2-1.9,2.2c-0.3,0.7-0.1,1.6,0.4,2.2c1.2,1.5,2.6,2.7,4.3,3.6c1.5,0.8,2.8-0.2,3-1.7
	C255.4,130,252.6,127.1,249.2,127.1z"/>
<path class="st1" d="M254.8,62.4c-8.4-2.7-12.3-15-14.7-22.5c-0.1-0.3-0.2-0.5-0.4-0.7c0.6-1.3-0.5-3.3-2.3-2.9
	c-8.9,2.3-17.3,8.1-26.5,8.9c-1.3,0.1-1.9,1.2-1.9,2.2c0,0,0,0,0,0c-0.7,1.3-1,2.7-1.1,4.1c-0.1,1.3,0,2.6-0.8,3.7
	c-0.6,0.8-0.4,1.5,0,2.1c-0.3,0.5-0.6,1-0.9,1.5c-0.6,1-0.3,1.9,0.4,2.4c-0.8,0-1.5,0.4-1.8,1.4c-1.6,5-2.9,10.1-4,15.3
	c-0.2,0.7,0.1,1.3,0.5,1.8c-0.2,0.3-0.4,0.6-0.4,1.1c-0.2,2.2,2,3.5,3.8,4.4c-1,1.1-0.5,3.4,1.4,3.4c4.3,0.1,8.5,0.2,12.8,0.2
	c0.2,0.3,0.6,0.4,1,0.5c1.2,0.2,2.4,0.3,3.6,0.5c0.8,0.9,2.1,0.8,3.3,0.5c4.2,0.6,8.5,1.2,12.7,1.7c2.6,0.3,2.5-3.7,0-4
	c-0.1,0-0.1,0-0.2,0c0.5-0.2,1-0.4,1.4-0.7c0.9-0.6,1.1-1.5,0.8-2.4c0.4,0,0.7-0.2,0.9-0.7c0.4-1.7,0.9-3.4,1.3-5
	c0.3-0.5,0.6-1.1,0.7-1.6c0.3,0.2,0.8,0.2,1.1-0.2c0,0,0-0.1,0.1-0.1c0.3,0,0.5-0.2,0.7-0.5c0.2-0.3,0.3-0.7,0.4-1
	c0.6-0.8,1.2-1.5,1.8-2.3c0.7-1,1.8-2,1.2-3.2c0,0,0,0,0,0l2.6-4.6c0.4,0.2,0.8,0.3,1.2,0.5C256.1,67.1,257.2,63.2,254.8,62.4z
	 M215.8,68.7c-0.7,1.6-1.1,3.2-1.3,4.8c-0.5-0.1-1.1,0.1-1.6,0.5c0,0,0,0,0,0c-0.1-1.6,0.1-3.1,0.6-4.7c0.5-1.7,0.9-3.2,0.8-5
	c0-0.1,0-0.2-0.1-0.3c0,0,0-0.1,0-0.1c0.4-1.2-1.5-1.8-1.9-0.5c-0.8,2.5-2.1,4.9-2.8,7.5c-1.4,0.7-2.6,1.6-3.6,2.8
	c0.8-3.3,1.7-6.6,2.7-9.9c0.3-0.9,0-1.5-0.6-2c0.2,0,0.3,0,0.5-0.1c0.3,0.2,0.8,0.2,1.1-0.2c1-0.9,1.3-2.2,1.9-3.3
	c0.6-1,1.3-1.8,2.2-2.6c0.2,0.9,0.6,1.7,1,2.4c0.9,1.8,2.2,3.4,3.1,5.2C217,65,216.6,66.8,215.8,68.7z M224.8,77.1
	c-0.3-0.3-0.8-0.3-1.1-0.1c-0.3,0-0.5,0-0.8,0.1c-1,0.4-1.8,0.9-2.7,1.5c-0.3-1.1-0.6-2.1-0.9-3.2c-0.1-0.5-0.4-0.9-0.8-1.1
	c0-1.2,0.2-2.3,0.8-3.5c0.7-1.8,1.2-4.5,2.4-6c0,0,0-0.1,0.1-0.1c0.4-0.1,0.8-0.4,1-0.9c0.9-1.7,1.8-3.5,2.7-5.2
	c0.4,1.6,0.7,3.1,0.9,4.7c0.1,0.7,0.5,1.1,0.9,1.3c-0.3,0.9,0.1,1.7,0.7,2.2c-0.1,0.1-0.2,0.2-0.2,0.4
	C226.6,70.4,225.7,73.7,224.8,77.1z M245.3,70.5c-0.4,1.3,0,2.7-0.1,4c-0.1,0.3-0.2,0.5-0.3,0.8c-0.1,0.2-0.3,0.4-0.4,0.5
	c-0.4-0.3-1.1-0.3-1.4,0c-0.6,0.6-1.5,0.9-2.4,0.8c-0.8,0-1.5-0.6-2.2-0.5c-0.7,0.1-1.1,0.8-1,1.5c0,0.1,0,0.1,0.1,0.2
	c-0.1,0.2-0.2,0.5-0.3,0.7c-0.1,0.2-0.1,0.3-0.2,0.5c-0.2,0.1-0.5,0.1-0.7,0.2c-0.5,0.2-0.8,0.7-0.7,1.2c0.2,1,1.4,1.4,2.2,0.9
	c0.3-0.2,0.5-0.4,0.7-0.7c0.8-0.2,1.6-0.3,2.5-0.4c-0.1,0.4,0,0.7,0.3,1c-0.2,0.8-0.4,1.7-0.7,2.5c0,0,0,0,0,0
	c-0.5-0.2-1.1-0.3-1.8,0.1c-0.6,0.4-1.2,0.6-1.9,0.7c-0.1-0.4-0.4-0.7-0.9-0.7c-0.8,0-1.7-0.1-2.5-0.1c-0.1-1.1-0.6-2.2-0.2-3.4
	c0.3-1.1-1.2-1.7-1.8-0.8c-0.2,0.4-0.5,0.7-0.8,1c-0.7-0.1-1.5,0.1-2,0.9c-0.3,0.5-0.8,1-1.3,1.4c-0.2-0.5-0.5-1.1-0.8-1.6
	c-0.1-0.7-0.1-1.4-0.2-2.1c0-0.1,0-0.1-0.1-0.2c0.8-3.4,1.8-6.8,2.9-10.2c0.3,0.1,0.6,0,0.9-0.3c1.2-1.4,2.3-2.8,3.5-4.2
	c0.2,0.2,0.3,0.3,0.5,0.4c-0.3,0.5-0.6,1-0.7,1.5c-0.2,1.3,1.7,1.8,1.9,0.5c0.1-1,1.5-1.9,2-2.8c0.7-1,1.2-2.1,1.7-3.1
	c0.1-0.2,0.2-0.4,0.2-0.5c0.3,0.5,0.5,1.2,0.6,1.8c0.2,1.2,0.1,2.5,0.3,3.7c0,0,0,0,0,0c-0.1,0.5-0.1,1,0,1.5
	c-0.2,0-0.4,0.1-0.5,0.3c-2,2.2-3.1,4.8-4.7,7.3c-0.7,1.1,1,2.1,1.7,1c1.5-2.4,2.5-4.8,4.3-6.9c0,0,0.1-0.1,0.1-0.1
	c0.2,0.1,0.3,0.2,0.5,0.4c0.6,0.4,1.3,0.5,2,0.6c0.5,0.1,1.3,0,1.9,0.1C245.4,70.2,245.3,70.3,245.3,70.5z"/>
<path class="st1" d="M241.7,72.3c-1.3,0-1.3,2,0,2C242.9,74.3,243,72.3,241.7,72.3z"/>
<path class="st1" d="M224.4,66.5c-0.2-0.6-0.8-0.8-1.3-0.6c-0.4,0-0.9,0.2-1,0.7c-0.3,1.2-2.8,8.2,0.6,7.7c1.3-0.2,1.4-1.9,1.6-2.9
	C224.5,69.8,224.8,68.1,224.4,66.5z"/>
<path class="st1" d="M230.9,71.9c-0.8,0.4-1.4,1.1-1.6,2c-0.1,0.4-0.1,0.9-0.3,1.4c-0.2,0.5-0.5,0.9-0.7,1.3
	c-0.2,0.5,0.2,1.1,0.7,1.2c0.6,0.2,1-0.2,1.2-0.7c0,0,0,0,0,0c2.3,0.3,2-2.8,2.1-4.3C232.5,72,231.5,71.5,230.9,71.9z"/>
<path class="st2" d="M157.7,149.8c-3.7-3.9-8.9-8.7-14.3-10.8c1.6-2.5,3.2-4.9,5-7.3c1.7-2.2,3.5-4.8,6.3-5.7
	c2.4-0.8,1.4-4.7-1.1-3.9c-6.4,2.1-10.5,9.7-13.9,15.1c-0.2,0.3-0.2,0.5-0.3,0.7c-2.3-0.1-3.3,3.5-0.8,3.9
	c6.1,0.9,12.1,6.5,16.2,10.8C156.6,154.5,159.4,151.6,157.7,149.8z"/>
<path class="st2" d="M176.9,124.1c-5.5,8.1-10.6,16.3-11.4,26.3c-0.2,2.6,3.8,2.5,4,0c0.8-9.2,5.9-16.9,10.9-24.3
	C181.8,124,178.4,122,176.9,124.1z"/>
<path class="st2" d="M202.2,139.6c-3.5-5-7.3-9.8-11.3-14.4c-1.7-1.9-4.5,0.9-2.8,2.8c3.6,4.2,7.1,8.6,10.3,13.1
	c-2.5,1.9-6.1,2.5-8.7,4.4c-2.5,1.9-4.5,4.2-6.1,6.9c-1.3,2.2,2.2,4.2,3.5,2c1.7-2.9,4-5.4,7-7c2.3-1.3,4.9-1.8,7-3.4
	c0.5,0.2,1.1,0.2,1.6-0.2l0.6-0.5C205,142.1,203.9,139.5,202.2,139.6z"/>
<path class="st2" d="M270.9,106.7c-0.4-1.2-0.6-2.4-0.7-3.6c0.4-1.6,0.8-3.1,1.2-4.7c0.8-2.5-3.1-3.5-3.9-1.1c0,0.1,0,0.2-0.1,0.2
	c-0.1,0-0.3,0.1-0.4,0.1c-2.7,1.2-5.5,0.7-7.8-1c-0.6-0.4-1.3-0.4-1.8-0.1c-0.3-0.4-0.5-0.7-0.6-1c-1.3-2.2-4.8-0.2-3.5,2
	c1.2,2,2.4,3.9,3.5,6c0.6,1.1,1.1,2.3,1.5,3.4c0.1,0.4,0.4,1.7,0.7,2.5c-2.3-0.6-3.2,3.1-0.8,3.9c3.6,1.3,8.4,0.5,12.2,0.6
	c1,0,2.1-0.9,2-2C272.2,110.1,271.5,108.5,270.9,106.7z"/>
<path class="st3" d="M202.4,23.1c-9.7-4.6-19-7.3-29.8-6.6c-10.9,0.7-22.5,2.2-32.8,5.9c-0.8,0.3-1.2,0.9-1.3,1.5
	c-0.3,0.7-0.3,1.5,0.3,2.2c0.7,0.8,1.4,1.6,2,2.5c-0.9,0.5-1.5,1.5-0.7,2.6c9.8,13.8,12.3,30.5,13,47c0,0.2,0.1,0.5,0.1,0.6
	c0,2.3,0.1,4.6,0.2,6.8c0.1,1.5,1.5,2.1,2.6,1.9c0.1,0,0.1,0,0.2,0c1.6,0.2,2.9,0.1,4.4-0.6c0.9-0.5,1.3-1.9,0.7-2.7
	c-0.4-0.6-0.9-0.9-1.5-0.9c0-0.5,0.1-1,0.1-1.2c0-1.1,0-2.2,0.1-3.2l0.1-3.4c0.8,0.1,1.7-0.3,1.9-1.4c0,0,0-0.1,0.1-0.1
	c0.3-0.3,0.6-0.5,0.8-0.8c0.5-0.5,1-0.9,1.5-1.4c0.1-0.1,0.3-0.3,0.4-0.4c0.1,0,0.2,0,0.3,0.1c-0.3,0.4-0.4,0.9-0.2,1.5
	c0.4,1.3,0.2,2.5-0.5,3.6c-1.4,2.2,2.1,4.2,3.5,2c1.2-2,1.6-4.4,0.9-6.7c-0.2-0.6-0.6-1-1-1.2c0.2-0.1,0.3-0.3,0.4-0.5
	c0.6-1,0.9-2.1,0.8-3.2c0-0.3-0.1-0.7-0.3-1c0.4-1.2,0.9-2.4,1.3-3.6c0.8-2.2,1.8-4.3,1.9-6.7c0-0.2,0-0.4-0.1-0.5
	c1.8,0.2,3.5,0.8,5.1,1.9c0,0,0.1,0,0.1,0.1c-0.1,0.2-0.2,0.5-0.2,0.7c0,0.2-0.1,0.3-0.1,0.4c-0.2,0.2-0.4,0.5-0.5,1
	c-0.5,2.3-2.5,8.9-1.9,13.1c-0.6,0.4-1.1,1.2-0.9,2.1c0.2,1.1-0.3,2.5-0.5,3.6c-0.2,1.4-0.1,2.8-0.1,4.1c0,0.1,0,0.1,0,0.2
	c-0.2,0.1-0.4,0.3-0.6,0.4c0,0-0.1,0-0.1,0c-2.5,0.4-1.5,4.3,1.1,3.9c1.2-0.2,2.3-0.3,3.5-0.4c0.5,0.2,1.2,0.2,1.7,0
	c1,0,2,0.1,3,0.2c0.6,0.1,1-0.1,1.4-0.3c0.4,0.6,1.2,1.1,2.1,1c0.7-0.1,1.3-0.3,1.9-0.5c0.3,0.2,0.7,0.4,1.2,0.4
	c2.4,0.3,4.8,0.3,7.2,0.2c0.2,0,0.5-0.1,0.7-0.2c1.2,0.3,2.6-0.3,2.6-1.8c-0.1-2.1-0.5-4.2-1.3-6.1c-0.2-0.6-0.7-1.1-1.3-1.3
	c0.1-0.3,0.1-0.6,0-0.9c-0.1-0.3-0.1-0.6-0.2-0.9c0.6-4.1,0.4-8.2,0.2-12.4c0-0.5-0.2-0.9-0.5-1.2c0.2-1.4,0.2-2.4-0.1-3.7
	c0-0.9-0.1-1.8-0.1-2.6c0.1-0.2,0.2-0.5,0.2-0.8c0.1-1,0.1-2-0.1-2.9c-0.1-0.5-0.2-0.8-0.4-1.1c-0.1-0.9-0.2-1.8-0.2-2.7
	c0.1-0.8,0.1-1.6,0-2.5c-0.1-0.6-0.4-1.1-0.7-1.4c-0.1-0.9-0.2-1.9-0.3-2.8c0-0.1,0-0.3-0.1-0.4c0.9-2.2,1.4-4.5,0.6-6
	c-0.5-0.8-1.1-1.2-1.9-1.4c0.6-0.3,1.1-0.5,1.6-0.9c1.1-0.7,1.2-2,0.5-2.9c0.4,0.2,0.7,0.4,1.1,0.7c0,0,0,0,0,0
	c0.6,0.4,1.3,0.5,2,0.2c0,0,0,0,0,0c0.5-0.2,0.8-0.7,0.9-1.2c1-0.6,1.6-2,0.4-3c-1.3-1.1-2.8-2.1-4.3-2.9c1.9,0.7,3.9,1.5,5.8,2.5
	C202.7,27.7,204.7,24.2,202.4,23.1z M191,79.2c-2.3,1.5-4,3.7-7,4.2c-0.1,0-0.2,0-0.2,0.1c-0.2-0.4-0.6-0.6-1.2-0.7
	c-1.7-0.2-3.3-0.3-4.9-0.3c-0.2-0.1-0.4-0.1-0.6-0.2c0-1.6-0.1-3.2,0.3-4.8c0.1-0.4,0.2-0.9,0.2-1.3c0.5,0.1,0.9,0,1.2-0.2
	c0.2,0.3,0.4,0.5,0.7,0.6c0,0.1,0.1,0.1,0.1,0.2c-0.4-0.7,0.1,0.6,0.2,0.8c0.2,0.5,0.6,0.8,1,1.1c0.8,0.5,1.8,0.2,2.4-0.3
	c1.8-1.5,2.7-4.7,1.6-6.8c-1.1-2.1-4.5-3.4-4.7-5.8c-0.1-0.5-0.3-1-0.6-1.3c0.3-1.4,0.6-2.8,0.8-4.1c0-0.2,0-0.3,0-0.5
	c0.2-0.2,0.4-0.5,0.5-0.9c0.3-1.4,2.1-1.9,3.3-2.5c1.2-0.6,2.7-1.8,4.1-1c0.5,0.3,1,0.3,1.5,0.2c-0.2,2.2-0.2,4.4,0.2,6.6
	c-0.2,0.2-0.4,0.4-0.6,0.6c-0.6-0.3-1.2-0.4-1.9-0.5c-1.1-0.1-2,1-2,2c0,1.1,0.9,1.9,2,2c0.4,0,0.6,0.4,0.8,0.8
	c0.3,0.8,1.3,1.1,2.1,0.9c0.3,2.7,0.8,5.4,1.4,8.1C191.5,77.2,191.3,78.2,191,79.2z"/>
<path class="st4" d="M150.3,79.5c0.1-1-0.6-1.6-1.4-1.8c0-0.2-0.1-0.4-0.1-0.7c0.4-0.3,0.6-0.8,0.6-1.5l0-0.1
	c0.1-0.3,0.2-0.6,0.1-0.9c-0.3-2.9-0.7-5.9-1.1-8.8l-0.6-6.4c-0.1-0.6-0.4-1.1-0.8-1.4c-0.1-0.3-0.1-0.6-0.2-0.9
	c0-0.2,0-0.5,0.1-0.7c0.1-0.7-0.2-1.2-0.7-1.5c-0.3-1.1-0.6-2.2-1-3.3c-0.8-2.2-2.6-5-2.9-7.3c0-0.3-0.1-0.6-0.3-0.9
	c-0.2-1.1-1.2-1.8-2.3-1.6c-0.2-0.5-0.6-0.8-1.1-0.9c0.5-1.5-1.5-3.1-3.1-2.2c-0.1-0.3-0.3-0.5-0.6-0.7c-3.4-2.6-7-4.7-11-6.4
	c-2.7-1.1-5.9-2.6-8.9-1.9c-0.4,0.1-0.8,0.3-1,0.7c-0.8,0-1.6,0-2.2,0.2c-0.3-0.1-0.6-0.2-1-0.2c-0.2,0-0.3,0-0.5,0.1
	c0.2-1.3-0.8-2.8-2.4-2.3c-6.2,2.1-11.2,5.5-15.2,10c-5.2,4-8.9,9.9-9.9,16.6c-0.1,0.7,0.1,1.3,0.6,1.8c-1.2,5-1.3,9.9,0.6,14.8
	c2.3,5.8,6.4,11.3,10.5,16c-0.1,0.6,0,1.2,0.5,1.8c1.7,2,3.5,3.6,5.7,5c0.6,0.4,1.2,0.4,1.7,0.2c2.4,3.4,5.3,3.9,9.7,2
	c2.7-1.2,5.2-2.3,7.9-3.2c0.6,0.4,1.3,0.6,2.1,0.2c1-0.5,2.1-1,3.1-1.5c2.8-0.6,5.5-1.1,8.2-2.5c0.2-0.1,0.3-0.2,0.5-0.3
	c0.3,0.1,0.6,0,1-0.1c1.8-0.7,3.4-1.5,5.1-2.3c2.6-0.5,5.2-0.8,8-0.8c1.4,0,2-1.1,1.9-2.2C150.1,81.9,150.2,81.1,150.3,79.5z
	 M111.1,71.5c-0.4-0.7-0.8-1.5-1.2-2.3c0.2-0.1,0.4-0.2,0.6-0.4c0.8,0.8,1.8,1.6,2.8,2.3C112.4,71.1,111.7,71.2,111.1,71.5z
	 M120.5,68.6c-0.8,0.4-1.9,0.5-3.2,0.2c-2.1-0.5-4.1-2.6-5.5-4.4c0.2-0.1,0.5-0.2,0.7-0.5c1.4-1.5,2.5-3.4,4-4.8
	c0.4,0.5,1.1,0.7,1.9,0.5c0.2-0.1,0.4-0.1,0.6-0.1c0.4,0.5,1.1,0.8,2,0.6c0,0,0,0,0,0c0.1,0.1,0.2,0.2,0.3,0.2
	c0,0.2,0.1,0.3,0.2,0.5C122.8,63.4,122,66.2,120.5,68.6z M142.1,74.4c0.2-0.2,0.4-0.5,0.6-0.7c0.4,0.4,0.8,0.6,1.3,0.6
	c0,0,0.1,0.1,0.1,0.1c0,0.2,0,0.5,0.1,0.7C143.7,74.5,143,74,142.1,74.4z M143,79.1c0.4-0.4,0.7-0.9,1.1-1.3
	c0.1-0.1,0.2-0.3,0.3-0.5c0,0.4,0.1,0.8,0.1,1.2C144,78.8,143.5,79,143,79.1z"/>
<path class="st5" d="M110.8,131.7c-2.3-2.3-4.5-1.3-6.7,0.5c-2,1.6-3.9,3.5-6.1,4.8c-3.9,2.3-8.1,1.6-12-0.3c-0.8-0.4-1.5-0.2-2,0.2
	c-1.5-1.5-3-3-4.9-4.1c-3-1.7-6.5-1.2-9.7-0.7c-0.2,0-0.4,0.1-0.6,0.2c-0.2-0.5-0.7-0.9-1.2-1.1c-0.5-0.2-1-0.4-1.4-0.6
	c0.1-0.2,0.2-0.4,0.4-0.5c0.7-0.5,1.5-1,2.3-1.4c1.3-0.6,2.8-0.7,4.1-1.3c2.6,0.6,5.3,0.8,7.9,1.4c0.9,0.2,1.8,0.5,2.7,0.7
	c-0.1,0.7,0.2,1.4,1,1.8c3.9,1.8,8.7,4.8,12.9,2.2c1.8-1.1,2.7-3,3.1-4.9c0.2-1.1,0.3-2.2-0.1-3.2c-0.3-0.7-1.7-1.8-1.6-2.5
	c0.1-2.4-3.2-2.5-3.9-0.5c-0.7,1.9-4.1,3-5.5,4.7c-3-0.3-6.5-1.8-9.1-2.4c-1.5-0.3-3-0.5-4.5-0.7c0.3-1.2-0.3-2.5-1.9-2.4
	c-0.6,0-1.1,0.1-1.7,0.2c-0.1-0.1-0.3-0.2-0.4-0.3c0-0.9-0.6-1.8-1.4-2.1c-2.7-0.8-5.5-1.3-8.3-1.3c-1.7-1.6-3.1-3.5-4.1-5.6
	c0.2-0.3,0.3-0.7,0.2-1.1c0-0.2,0-0.4-0.1-0.6c0.6,0,1.3-0.4,1.7-0.9c1.4,0,2.8,0,4.2,0.1c0.5,1.4,2.7,2.1,3.6,0.4
	c0.4-0.6,0.6-1.3,0.9-1.9c1.1,0.1,2.2-0.5,2.3-1.9c0.1-2.7,2.6-5.1,1.9-7.8c-0.1-0.3-0.2-0.6-0.3-0.8c0-0.4-0.2-0.8-0.6-1.1
	c-0.8-0.7-1.7-1.4-2.5-2.1c0.2-0.3,0.4-0.7,0.4-1.2c0.1-1.1,0-2-0.4-3c-0.2-0.5-0.7-1.3-0.6-1.8c0.4-0.5,0.8-1.1,1.3-1.6
	c0.6,0.2,1.2,0.4,1.7,0.7c2.8,1.5,5.4,3.4,7.4,5.7c1.6,1.7,4-0.4,3.2-2.2c0.2-0.1,0.4-0.2,0.6-0.4c2.9,0.2,5.7,0.7,8.5,1.4
	c0.6,0.1,1.1,0,1.4-0.2c2.3,1.8,4.4,3.9,6.7,5.6c0,0.1,0,0.3,0,0.5c0.3,1.6,0.6,3.2,1.2,4.7c0.5,1.2,1.8,2.7,1.4,4
	c-0.6,2.5,3.3,3.6,3.9,1.1c0.4-1.8,0-3.3-0.8-4.9c-0.8-1.7-1.3-3.3-1.7-5.1c0.5-0.9,0.4-2-0.7-2.7c-3.4-2.1-6-4.9-9.2-7.2
	c0.1-0.7-0.1-1.5-0.8-2c-3.8-2.9-7.6-5.4-12.3-5.9c-0.7-0.1-1.2,0.1-1.5,0.5c-2.9-1-5.9-1.4-9-1.4c-0.8,0-1.3,0.4-1.6,0.9
	c-0.9,0.3-1.8,0.6-2.6,1c-0.2,0-0.4,0-0.6,0.1c-0.9,0.3-1.7,0.6-2.5,1.1c-0.8-0.3-1.8-0.1-2.3,0.8c-0.3,0.4-0.5,0.8-0.7,1.2
	c-0.7-0.6-1.8-0.8-2.6,0.1c-1.9,2-3.4,4.2-4.5,6.6c-2.3,2.6-3.1,6-3.3,9.5c-0.7,0.1-1.3,0.5-1.5,1.4c-3.4,11.9,3.7,22.3,12.5,29.6
	c0.3,0.3,0.6,0.4,1,0.4c0,0.1,0.1,0.1,0.1,0.2c0.5,0.5,1,0.9,1.6,1.3c5.2,5.1,12.5,8.1,19.2,10.3c1,0.3,1.8-0.1,2.2-0.9
	c0.1,0,0.2,0,0.3,0c0.5,0.3,1,0.5,1.5,0.7c1.4,0.6,2.6-0.3,3-1.4c2.5,0.6,5,0.7,7.5,0.1c0.2-0.1,1-0.5,2.1-1.2
	c0.4,0.7,1.2,1.3,2.2,1.1c3.4-0.7,6.1-2.3,8.2-5c0.3-0.4,0.5-0.9,0.5-1.3c0.4-0.4,0.8-0.8,1.2-1.2
	C111.6,133.8,111.5,132.4,110.8,131.7z"/>
<path class="st6" d="M260,186c-0.6-0.1-1.2-0.2-1.7-0.3c-0.4-0.6-1.1-1.1-2-1.5c-0.9-0.4-1.7,0-2.1,0.7c-7.5-1.6-14.9-4-22.7-4.2
	c-2.5-0.1-5.1,0-7.6,0.2c-5.3-0.6-10.6-0.9-15.9-0.5c-5.1-0.5-10.2-0.8-15.3-0.6c-0.7,0-1.2,0.4-1.6,0.8c-0.2,0-0.3,0-0.4,0
	c-0.7,0-1.4-0.1-2.1-0.1c0.4-1.1-0.2-2.7-1.8-2.9c-20.4-2.4-41.2-4.6-61.4,0.1c0-0.9-0.1-1.9-0.1-2.8c-0.1-2-0.4-3.9-0.7-5.8
	c-0.1-22.5-4.1-45-12.3-66c0.3,0.1,0.6,0.1,0.9,0c0.6-0.2,1.2-0.3,1.8-0.5c0.2,1,1.1,1.8,2.4,1.4c4.9-1.7,9.8-3.1,14.7-4.5
	c-0.3,1.3,0.8,2.9,2.4,2.4c12.4-3.2,25.7-5.9,39-7.1c-0.2,1.1,0.4,2.4,1.9,2.4c18.2,0.1,36.5,0.4,53.7,6.7c0.5,0.2,1,0.2,1.4,0
	c-0.1,0.1-0.1,0.3-0.2,0.4c-1.5,2.4-2.4,5.4-3.3,7.7c-2.8,6.8-5,13.8-6.6,21c-3.3,14-4.9,28.4-6.5,42.7c-0.3,2.6,3.7,2.5,4,0
	c0-0.3,0.1-0.7,0.1-1c0.5,1.9,3.8,1.7,3.9-0.7c0.6-13.5,2.7-26.7,6.2-39.7c0.1-0.3,0.1-0.6,0.1-0.8c1.7-5.2,3.3-10.5,4.9-15.7
	c2-6.3,3.8-13.8,8.8-18.4c0.1,0,0.1,0,0.2,0c2.6,0.3,2.5-3.7,0-4c-8-0.8-15.9-2-23.7-3.7c-5.7-1.8-11.6-3.3-17.7-3.5
	c-0.3-0.3-0.7-0.5-1.3-0.5c-8.6-0.3-17.2-0.1-25.8,0.6c0-0.4-0.1-0.8-0.4-1.2c0.4-1.2-0.2-2.7-1.8-2.5c-20.5,1.9-40.6,6.3-60,13.2
	c-1.1-1.2-3.6-0.8-3.5,1.3c0,0,0,0,0,0c-0.2,0.1-0.4,0.1-0.6,0.2c-2.3,0.9-1.4,4.4,0.8,3.9c0,0.1,0.1,0.2,0.1,0.3
	c1.8,18.7,8.3,36.8,7.6,55.7c-0.1,1.6,1.5,2.2,2.7,1.8c-0.2,4.6-0.5,9.3-1,13.9c-0.1,1.4,1,2,2,1.9c-0.2,1.2-0.4,2.4-0.7,3.5
	c-0.3,1.4,0.9,2.9,2.5,2.5c0.1,0,0.1,0,0.2-0.1c0.2,0.7,0.5,1.1,0.9,1.5c-0.8,0.2-1.6,0.3-2.4,0.5c-16.3,2.7-32.6,5-49,7
	c-2.5,0.3-2.6,4.3,0,4c0.1,0,0.1,0,0.2,0c-0.2,0.1-0.5,0.1-0.7,0.2c-2.4,0.6-1.5,4.2,0.8,3.9c-0.7,1.3,0.4,3.4,2.3,3
	c14.4-3.6,28.7-7.5,43-11.7c0.4,0.4,1,0.6,1.8,0.5c11.3-2.3,22.8-4.4,34.4-5.7c-0.1,1.1,0.5,2.2,1.9,2c7-0.9,14.1-1.6,21.2-2
	c-0.6,1.2-0.1,3.1,1.7,2.9c22.6-2.4,45.2-0.6,67,5.4c1.1,0.3,1.9-0.3,2.3-1.1c3.3,0.5,6.8,0.1,9.6-1.8c0.1-0.1,0.2-0.1,0.3-0.2
	c1.2-0.4,2.5-0.9,3.7-1.5C261.9,189,261.6,186.3,260,186z M232.2,101c-0.3,0.4-0.5,0.8-0.7,1.2c0-0.6-0.3-1.3-0.9-1.7
	C231.2,100.7,231.7,100.9,232.2,101z M223.4,97.9c1.1,0.4,2.2,0.8,3.3,1.2c-1.1-0.4-2.2-0.7-3.4-1C223.4,98,223.4,97.9,223.4,97.9z
	 M151.5,179.2c-0.1,0-0.2,0-0.4,0c-5,0.8-10,1.7-15,2.6c-0.4-0.3-1-0.4-1.6-0.2c-1.4,0.4-2.7,0.8-4.1,1.2c-0.5,0.1-1.1,0.2-1.6,0.3
	c-0.2-0.8-0.9-1.6-2-1.7c8.6-2,17.4-2.6,26.2-2.6C152.6,179,152.1,179.1,151.5,179.2z M159.9,181.2c0.4-0.6,0.4-1.4,0-2
	c5.1,0.2,10.2,0.7,15.3,1.2C170.2,180.4,165,180.7,159.9,181.2z"/>
<path class="st6" d="M96.3,172c-2.8-5.9-7.9-11-13.1-15.4c-1.1-1.4-2.2-2.9-3.3-4.3c0,0,0.1,0,0.1,0c2.4-0.9,1.3-4.8-1.1-3.9
	c-6.4,2.5-13.2,5.3-17.1,11.4c-3.7,5.7-3.1,12.3,0.8,17.8c0.6,0.9,1.4,1.8,2.1,2.6c1.1,3.8,3.1,7.1,7.1,8.8c1.5,0.7,2.9-0.6,3-1.8
	c1.1,0.4,2.3,0.6,3.4,0.7c1.3,0.1,2.5,0,3.6-0.3c1.8,0.3,3.7,0.1,5.4-0.9c0.9-0.6,1.1-1.5,0.8-2.3c2.2-1.7,4.1-3.9,5.8-6
	c0.3,1.8-0.1,3.3-1.7,3.8c-2.5,0.6-1.4,4.5,1.1,3.9C99.6,184.5,98.3,176.3,96.3,172z M71.1,158c-0.1-0.2-0.2-0.4-0.4-0.6
	c0-0.1,0.1-0.1,0.1-0.2c0.1-0.1,0.2-0.3,0.3-0.5c0.5-0.3,1-0.7,1.5-1C72.1,156.5,71.6,157.2,71.1,158z M78.9,180.3
	c-0.4,0.1-0.8,0.4-1,0.6c-1.7-1.8-3.2-4.2-4.1-6.3c0.6,0.9,1.4,1.7,2.2,2.4c0.6,0.5,1.5,0.7,2.2,0.4c0.1,0.2,0.1,0.5,0.2,0.7
	c0.2,0.9,1,1.3,1.7,1.4C79.8,179.9,79.3,180.2,78.9,180.3z M81.7,183.6c-0.1,0-0.1-0.1-0.2-0.1c0.7-0.4,1.3-0.9,1.9-1.5
	c0.1,0.2,0.3,0.4,0.6,0.6C83.3,183,82.5,183.3,81.7,183.6z M84.2,171.4c-0.1,0.7-0.4,1.7-0.7,2.7c-0.2-1.9-0.9-3.9-1.6-5.6
	c-0.3-1.8-0.8-3.5-1.3-4.9c1,1,2,2.2,2.7,3.4c0.6,1,0.9,2.1,1.2,3.1C84.3,170.6,84.2,171,84.2,171.4z M91.4,175.4
	c-1.1,1.4-2.4,3-3.8,4.4c0.8-3.2,1.3-6.5,0.8-9.8c0-0.5,0.1-1,0-1.5c0-0.3,0-0.6-0.1-0.9c1.2,1.3,2.3,2.7,3.2,4.2
	c0.3,0.5,0.9,1.6,1.4,2.9C92.5,174.6,91.9,174.8,91.4,175.4z"/>
<g>
	<g>
		<g>
			<g>
				<path d="M180.3,120.1c-2.4,3.5-4.5,7.1-6.2,10.8c-4.7,6.7-8.3,14.3-10.6,22.4c1.4-8.3,4.1-16.4,8.2-23.9
					C174.2,126,177.2,122.9,180.3,120.1z"/>
			</g>
		</g>
	</g>
	<g>
		<g>
			<g>
				<path d="M182.5,122.4c-1.7,3.3-3.2,6.7-4.6,10.1c-3.9,6.2-7.2,12.8-9.8,19.7c1.7-7.2,4.1-14.3,7.3-21.1
					C177.6,128.1,180,125.2,182.5,122.4z"/>
			</g>
		</g>
	</g>
	<g>
		<g>
			<g>
				<path d="M183.6,123c-0.6,0.1-1.3,0.2-1.8,0.4c-0.4-0.8-1-1.5-1.8-2.2c1-0.3,2.1-0.4,3.2-0.3C183.4,121.6,183.5,122.3,183.6,123z
					"/>
			</g>
		</g>
	</g>
	<g>
		<g>
			<g>
				<path d="M169,150.9c-0.4,0.8-0.8,1.5-1.3,2.2c-1.6,0.2-3.1,0.1-4.5-0.1c1.3-0.7,2.4-1.6,3.4-2.5
					C167.4,150.7,168.2,150.8,169,150.9z"/>
			</g>
		</g>
	</g>
	<g>
		<g>
			<g>
				<path d="M187.2,129.7c-0.2-0.9-0.4-1.9-0.5-2.9c1.1-1.5,2.3-2.8,3.6-3.9c-0.5,1.7-0.8,3.3-1,4.9
					C188.6,128.4,187.9,129.1,187.2,129.7z"/>
			</g>
		</g>
	</g>
	<g>
		<g>
			<g>
				<path d="M202.5,140.6c-1.9-1.4-3.8-2.9-5.5-4.5c-2.4-4.1-4.3-8.4-5.6-12.9c2.2,4.1,4.8,7.8,7.9,11.2
					C200.2,136.6,201.3,138.6,202.5,140.6z"/>
			</g>
		</g>
	</g>
	<g>
		<g>
			<g>
				<polygon points="198,141.5 193.6,138.2 188.1,128.8 195.8,136.4 				"/>
			</g>
		</g>
	</g>
	<g>
		<g>
			<g>
				<path d="M197.3,140.9c-1.8,1.3-3.5,2.8-4.9,4.4c-3.7,2.1-7.1,4.9-9.9,8.4c2-4,4.8-7.6,8.2-10.7
					C192.9,142.1,195.1,141.4,197.3,140.9z"/>
			</g>
		</g>
	</g>
	<g>
		<g>
			<g>
				<path d="M202.2,143.4c-1.7,1.4-3.3,2.9-4.8,4.4c-3.7,1.9-7.3,4.3-10.6,7.2c2.6-3.5,5.6-6.7,9-9.5
					C198,144.6,200.1,143.9,202.2,143.4z"/>
			</g>
		</g>
	</g>
	<g>
		<g>
			<g>
				<path d="M201,139.1c0.8-0.3,1.9-0.2,2.8,0.5c0.3,1.1,0.1,2.2-0.4,2.9c-0.5,0.7-1.3,1.1-2.1,1.2c0.6-0.5,0.8-1.1,0.8-1.7
					c0-0.6-0.4-0.9-0.7-1C201.6,140.5,201.5,139.7,201,139.1z"/>
			</g>
		</g>
	</g>
	<g>
		<g>
			<g>
				<path d="M188.2,154.4c-0.7,0.6-1.4,1.2-2.1,1.7c-0.8-0.2-1.6-0.4-2.4-0.7c-0.4-0.1-0.7-0.3-1.2-0.4c-0.2-0.1-0.4-0.2-0.6-0.5
					c-0.1-0.2-0.1-0.5,0-0.6c0,0.2,0.1,0.3,0.3,0.4c0.1,0.1,0.3,0,0.4,0c0.3-0.1,0.7-0.2,1.1-0.3c0.7-0.2,1.4-0.5,2.1-0.7
					C186.6,153.7,187.4,154.1,188.2,154.4z"/>
			</g>
		</g>
	</g>
	<g>
		<g>
			<g>
				<path d="M156.8,125.5c-1.5,1.7-3,3.4-4.2,5.2c-3.5,2.5-6.8,5.5-9.7,8.8c2.1-3.9,4.7-7.6,7.8-10.9
					C152.7,127.3,154.8,126.3,156.8,125.5z"/>
			</g>
		</g>
	</g>
	<g>
		<g>
			<g>
				<path d="M156.3,126c-0.4-0.6-0.9-1.2-1.3-1.7c0.5-1.1,1-2.2,1.4-3.3c0.5,1.1,1,2.2,1.5,3.4C157.4,124.9,156.9,125.5,156.3,126z"
					/>
			</g>
		</g>
	</g>
	<g>
		<g>
			<g>
				<path d="M157.5,119.7c-2.3,2.1-4.4,4.3-6.4,6.7c-4.9,3.6-9.3,7.9-13.1,12.8c3-5.4,6.8-10.4,11.2-14.9
					C151.9,122.5,154.7,121.1,157.5,119.7z"/>
			</g>
		</g>
	</g>
	<g>
		<g>
			<g>
				<path d="M153.1,154.4c-1.4-1.9-3-3.6-4.8-4.9c-2.5-3.7-6-6.8-10.2-8.8c4.5,1.2,8.9,3.6,12.4,7
					C151.7,149.8,152.6,152.1,153.1,154.4z"/>
			</g>
		</g>
	</g>
	<g>
		<g>
			<g>
				<path d="M158.3,152.7c-0.5,0.6-1,1.3-1.6,1.9c-1.4-0.2-2.8-0.5-4.1-0.9c1.3-0.6,2.5-1.2,3.6-1.9
					C156.8,152.1,157.6,152.4,158.3,152.7z"/>
			</g>
		</g>
	</g>
	<g>
		<g>
			<g>
				<path d="M157.8,151.2c-1.6-1.2-3.2-2.4-4.9-3.4c-2.3-3.1-5-5.9-7.9-8.5c3.5,1.8,6.9,4,10,6.6C156.1,147.6,157,149.4,157.8,151.2
					z"/>
			</g>
		</g>
	</g>
</g>
<g>
	<g>
		<g>
			<g>
				<path d="M204,21.4c-1.3,7.1-2.2,14.2-2.7,21.4c-2.5,14.1-3.3,28.5-2.6,42.9c-1.6-14.3-1.7-28.8-0.2-43.3
					C199.9,35.2,201.8,28.2,204,21.4z"/>
			</g>
		</g>
	</g>
	<g>
		<g>
			<g>
				<path d="M135.6,25.9l0.6-1.8l0.1-0.2l0.1,0.2c4.3,5.8,7.8,12.3,10.5,19.1c2.3,7.6,3.7,15.4,4.7,23.2c0.9,7.8,1.4,15.7,1.9,23.5
					c-1-7.8-1.9-15.6-3.3-23.3c-1.4-7.7-3.3-15.3-5.9-22.5c-1.8-6.9-4.4-13.6-8-19.9l0.2,0L135.6,25.9z"/>
			</g>
		</g>
	</g>
	<g>
		<g>
			<g>
				<path d="M204,24.4c-6.7-4.1-14.3-6.1-21.9-6.5c-3.8-0.6-7.6-0.8-11.4-0.7c-3.8,0.1-7.7,0.5-11.5,1.1c-7.7,1.2-15.2,3.1-22.8,5.1
					c7.4-2.4,14.8-4.8,22.5-6.5c3.8-0.8,7.7-1.5,11.6-1.8c3.9-0.3,7.9-0.4,11.9,0C190.3,16.4,197.9,19.5,204,24.4z"/>
			</g>
		</g>
	</g>
	<g>
		<g>
			<g>
				<path d="M184.4,76.6c0.7-0.5,1-1.3,1-2c0-0.7-0.2-1.4-0.6-2c-0.8-1.2-2.1-2-3.4-3c-0.6-0.6-1.1-1.4-1.6-2.2
					c-0.5-0.8-0.7-1.7-0.9-2.7c-0.3-1.8,0-3.7,0.9-5.2c1.7-3.2,5.5-4.7,8.6-3.8c-3.2-0.4-6.4,1.7-7.4,4.4c-0.5,1.4-0.5,2.9-0.1,4.2
					c0.4,1.4,1.2,2.3,2.4,3.3c0.9,1.2,2.2,2.6,2.7,4.4c0.3,0.9,0.3,1.9,0,2.7C185.8,75.6,185.1,76.3,184.4,76.6z"/>
			</g>
		</g>
	</g>
	<g>
		<g>
			<g>
				<path d="M179.2,80c0.1,1.2,1.1,2.1,2.1,2.4c1,0.3,2.1,0,3.1-0.5c1.9-1.1,3.5-2.8,4.4-4.7c0.9-1.3,1.5-2.8,1.5-4.3
					c0-1.6-0.6-3.2-1.8-4.2c-0.6-0.5-1.3-0.9-2.1-1.3c-0.8-0.4-1.8-1.1-2.2-2.2c-0.2-0.5-0.2-1.2,0-1.8c0.2-0.6,0.8-1,1.3-1.1
					c1-0.3,2-0.2,3,0.1l-0.4,0.2l2.2-6.3l-1.5,6.4l-0.1,0.3l-0.3-0.1c-0.8-0.2-1.7-0.2-2.4,0.1c-0.7,0.3-0.9,1-0.6,1.6
					c0.3,0.6,0.9,1,1.7,1.3c0.8,0.3,1.8,0.7,2.6,1.3c1.7,1.3,2.7,3.3,2.9,5.4c0.3,2.1-0.3,4.3-1.4,6c-0.8,1.1-1.8,2-2.9,2.7
					c-1.1,0.7-2.2,1.4-3.4,1.8c-1.2,0.4-2.7,0.5-3.9-0.1C179.9,82.5,179,81.2,179.2,80z"/>
			</g>
		</g>
	</g>
	<g>
		<g>
			<g>
				<path d="M181,84.2c-1.1,0.4-2.5-0.1-3.4-0.9c-1-0.9-1.6-2-2.1-3.2c-0.1-1.1-0.2-2.4,0.6-3.7c0.4-0.6,1-1,1.7-1.2
					c0.7-0.2,1.6-0.1,2.2,0.4l0.4,0.4l-0.1,0.4c-0.2,0.6-0.3,1.1-0.2,1.6c0,0.4,0.3,0.9,0.7,1c0.4,0.2,0.9-0.2,1.2-0.7
					c0.4-0.5,0.8-1.1,1.4-1.3c-0.6,0.3-0.8,0.9-1.1,1.5c-0.1,0.3-0.3,0.6-0.6,0.9c-0.3,0.3-0.7,0.4-1.1,0.4
					c-0.9-0.1-1.5-0.8-1.8-1.5c-0.3-0.8-0.2-1.5-0.2-2.1l0.3,0.8c-0.2-0.1-0.4,0-0.6,0.1c-0.2,0.1-0.4,0.4-0.5,0.6
					c-0.2,0.5-0.1,1.2,0.2,2c0,1,0.1,2,0.5,2.9C179.1,83.2,179.9,84,181,84.2z"/>
			</g>
		</g>
	</g>
	<g>
		<g>
			<g>
				<polygon points="177.5,57.7 175,58.7 170.7,56.6 175.4,55.9 				"/>
			</g>
		</g>
	</g>
	<g>
		<g>
			<g>
				<path d="M173.7,82.3c-0.9-2.6-1.5-5.3-1.9-8.1c0.6-5.5,2.3-10.9,4.7-15.6c-1.6,5.2-2.2,10.5-1.9,15.7
					C174.1,76.9,173.8,79.5,173.7,82.3z"/>
			</g>
		</g>
	</g>
	<g>
		<g>
			<g>
				<path d="M169,79.1c-0.7-2.3-1.3-4.6-1.7-7c0.7-4.8,2.1-9.4,4.1-13.6c-1.1,4.5-1.6,9.2-1.3,13.7C169.6,74.4,169.3,76.7,169,79.1z
					"/>
			</g>
		</g>
	</g>
	<g>
		<g>
			<g>
				<path d="M162.3,74.2l3.1-2.1l1.7-1.1l-0.5,2.5c-0.1,0.5-0.2,1-0.2,1.5c-0.4,0.7-0.7,1.4-1,2.2c-0.3,0.8-0.5,1.6-0.4,2
					c0,0.2,0.2,0.3,0.5,0.4c0.3,0.1,0.7,0,1-0.2c0.7-0.4,1.1-1.2,1.4-2c-0.2,0.8-0.3,1.8-1,2.5c-0.4,0.4-0.9,0.6-1.4,0.7
					c-0.5,0.1-1.3-0.2-1.7-0.7c-0.4-0.6-0.5-1.2-0.5-1.7c0-0.5,0-0.9,0-1.4c0.1-0.9,0.2-1.9,0.4-2.8c0.3-0.5,0.7-1,1.1-1.4l1.2,1.4
					L162.3,74.2z"/>
			</g>
		</g>
	</g>
	<g>
		<g>
			<g>
				<path d="M173.8,77.6c0,3.2-1.5,6.5-4.4,8.7c-0.8,0.4-1.7,0.7-2.6,0.8c-0.9,0.1-2,0.1-2.9-0.3c-1-0.4-1.7-1.1-2.2-1.9
					c-0.5-0.8-0.8-1.6-0.9-2.4c-0.7-3.2-0.3-6.6,0.8-9.5c-0.7,3.1-0.5,6.3,0.5,9.1c0.5,1.4,1.4,2.5,2.5,2.7c1.1,0.2,2.4-0.3,3.5-1
					C170.5,82.9,172.9,80.6,173.8,77.6z"/>
			</g>
		</g>
	</g>
</g>
<g>
	<g>
		<g>
			<g>
				<path d="M84.1,67c-2.3-1.6-4.6-3.1-6.9-4.5c-3.6-3.9-7.9-7.4-11.9-11c4.6,2.9,9.3,5.6,13.8,8.9C80.8,62.5,82.5,64.8,84.1,67z"/>
			</g>
		</g>
	</g>
	<g>
		<g>
			<g>
				<path d="M87.2,81.8c-3-2.7-6-5.3-9.1-7.7c-5.2-5.9-10.9-11.4-17-16.5c6.7,4.3,13,9.1,19,14.5C82.6,75.3,84.9,78.5,87.2,81.8z"/>
			</g>
		</g>
	</g>
	<g>
		<g>
			<g>
				<polygon points="85.1,73 77.3,68.2 64.4,55.3 79.1,66 				"/>
			</g>
		</g>
	</g>
	<g>
		<g>
			<g>
				<path d="M50.6,42.8c1.4-2,3.9-3.5,6.7-3.8c1.4,0.2,2.7,0.7,3.9,1.4c1.1,0.8,2.1,1.8,2.7,2.9c1.4,2.2,1.7,4.9,1,7.2
					c0.2-2.4-0.7-4.8-2.2-6.4c-0.7-0.8-1.7-1.4-2.6-1.8c-1-0.4-2-0.5-3-0.5C55.1,41.3,52.6,41.5,50.6,42.8z"/>
			</g>
		</g>
	</g>
	<g>
		<g>
			<g>
				<path d="M46.2,49.6c3.1,1.5,6.4,2.2,9.6,2c1.5,0.3,2.8,0.2,3.6-0.7c0.3-0.4,0.4-0.9,0.2-1.5c-0.2-0.6-0.7-1.2-1.2-1.8
					c-2.3-2.2-5.7-3.5-9.1-3.1c3.3-0.9,7.1-0.2,10,2c0.7,0.5,1.4,1.2,1.9,2.2c0.5,0.9,0.6,2.3-0.1,3.4c-0.6,1-1.6,1.7-2.6,2
					c-1,0.3-2.1,0.4-3,0.3C51.9,53.6,48.7,51.9,46.2,49.6z"/>
			</g>
		</g>
	</g>
	<g>
		<g>
			<g>
				<path d="M62.5,56.9c-2,1.5-4.1,2.9-6.9,3.4c-1.4-0.1-2.8-0.5-4-1.2c-1.2-0.7-2.2-1.7-2.9-2.8c-1.5-2.2-2.1-4.6-2.8-6.9
					c1.1,2.2,2.2,4.4,3.8,6c0.8,0.8,1.8,1.4,2.7,1.8c1,0.3,2,0.4,3.1,0.3C57.6,58,60.1,57.6,62.5,56.9z"/>
			</g>
		</g>
	</g>
	<g>
		<g>
			<path class="st7" d="M82.7,80.3"/>
		</g>
	</g>
	<g>
		<g>
			<g>
				<path d="M84.5,90.5c0.8,0,1.6,0,2.4-0.1c0.8,1.1,1.8,2.1,2.7,3.1c-1.4-0.2-2.8-0.3-4.2-0.7C85,92.1,84.7,91.3,84.5,90.5z"/>
			</g>
		</g>
	</g>
</g>
<g>
	<g>
		<g>
			<g>
				<path d="M96.5,121.2c-0.6,1.6-1.9,3-3.3,4c-1.5,1-3.2,1.7-5,2.1c-3.7,0.1-7.1-0.9-10.2-2.4c-3.1-1.5-5.8-3.7-7.9-6.3
					c2.5,2.3,5.4,3.9,8.5,5c3.1,1,6.3,1.5,9.4,0.9c1.5,0.1,3.1-0.1,4.6-0.6C94,123.4,95.4,122.6,96.5,121.2z"/>
			</g>
		</g>
	</g>
	<g>
		<g>
			<g>
				<path d="M78.3,93.6c0.5-1,1.4-1.7,2.5-2.2c1-0.5,2.1-0.8,3.3-1c2.3-0.3,4.6-0.1,6.8,0.4c2.1,0.9,4.1,2,5.9,3.4
					c1.8,1.4,3.3,3.1,4.5,5.1c1.1,2,1.7,4.3,1.5,6.5c-0.2,2.2-1.4,4.4-3.2,5.5c1.7-1.4,2.6-3.5,2.5-5.5c0-2.1-0.9-4.1-2-5.7
					c-2.4-3.3-6.2-5.5-10.1-6.6c-1.8-0.9-3.8-1.5-5.8-1.7c-1-0.1-2.1,0-3.1,0.2C80,92.4,79,92.8,78.3,93.6z"/>
			</g>
		</g>
	</g>
	<g>
		<g>
			<g>
				<polygon points="97.9,117.1 98.3,119.6 95.3,122.7 95.7,118.4 				"/>
			</g>
		</g>
	</g>
	<g>
		<g>
			<g>
				<path d="M68.5,86.3c1.5-0.1,3.2-0.1,4.8,0.1c2.7,1.7,4.9,4,6.5,6.6c-2.3-2-5-3.3-7.7-4C71,88,69.8,87.1,68.5,86.3z"/>
			</g>
		</g>
	</g>
	<g>
		<g>
			<g>
				<path d="M69.6,85.7c-0.3,1.7,0.2,3.1,1,4.3c0.2,2.8,1.9,5.6,4.2,7.8c-1.4-0.7-2.8-1.6-4-2.8c-1.2-1.2-2.2-2.6-2.9-4.3
					c0-0.9,0.1-1.9,0.4-2.7C68.5,87.1,69,86.3,69.6,85.7z"/>
			</g>
		</g>
	</g>
	<g>
		<g>
			<g>
				<path d="M76.6,95.1c-0.5,1.8-1,3.7-1.4,5.5c-2,3.1-3.9,6.3-5.5,9.7c0.7-3.7,1.7-7.3,2.9-11C73.9,97.9,75.2,96.5,76.6,95.1z"/>
			</g>
		</g>
	</g>
	<g>
		<g>
			<g>
				<path d="M56.2,113.2c1-1.3,2.4-2.5,3.9-3.3c3.5-0.3,6.7,0.5,9.6,1.8c-3.1-0.4-6.3-0.1-9,1C59.3,112.6,57.7,112.7,56.2,113.2z"/>
			</g>
		</g>
	</g>
	<g>
		<g>
			<g>
				<path d="M57.2,112.9c1.6,0.7,3.2,1.2,4.8,1.5c2.6,1.9,5.5,3.4,8.8,4.3c-3.4,0.1-6.9-0.5-10.2-1.8
					C59.4,115.7,58.2,114.3,57.2,112.9z"/>
			</g>
		</g>
	</g>
	<g>
		<g>
			<g>
				<path d="M100.7,125.8c-0.9-0.3-1.9-0.8-2.8-1.4c-0.6-1.9-0.8-3.9-0.3-5.7c0.5,1.8,1.5,3.1,2.7,4.2
					C100.4,123.9,100.5,124.8,100.7,125.8z"/>
			</g>
		</g>
	</g>
	<g>
		<g>
			<g>
				<path d="M108,110.3c-1,0.3-2,0.6-2.9,1.1c-0.8-0.2-1.7-0.4-2.6-0.3c-0.9,0-1.8,0.3-2.5,1c0.4-0.9,1.1-1.8,2.1-2.3
					c0.9-0.6,2-0.9,3.1-1.2C106.2,109.1,107.1,109.7,108,110.3z"/>
			</g>
		</g>
	</g>
	<g>
		<g>
			<g>
				<path d="M68.2,129.7c0.6-0.9,1.5-1.7,2.6-2.1c1.1-0.5,2.2-0.7,3.4-0.8c2.3-0.2,4.8,0.3,6.9,1.3c2,1.3,3.6,2.8,5.3,4
					c1.7,1.3,3.5,2.3,5.5,2.5c2,0.3,4.2-0.2,5.8-1.5c1.7-1.3,2.7-3.3,3.6-5.3c-0.7,2-1.5,4.2-3.1,5.8c-1.6,1.6-4,2.4-6.4,2.4
					c-2.4,0-4.6-1-6.6-2.2c-2-1.1-3.7-2.4-5.6-3.3c-1.6-1.2-3.5-2.1-5.6-2.3C72.1,127.9,69.8,128.1,68.2,129.7z"/>
			</g>
		</g>
	</g>
	<g>
		<g>
			<g>
				<path d="M102.6,134c-1.5,1.8-3.1,3.7-5.4,4.9c-2.3,1.2-5,1.5-7.7,1.1c-1.3-0.4-2.5-1-3.5-1.8c-1.1-0.7-2-1.6-2.9-2.4
					c-1.7-1.6-3.4-3.3-5.5-4c-1-0.4-2.1-0.5-3.2-0.3c-1.1,0.2-2.2,0.6-3.3,1c-0.6,0.2-1.2,0.3-1.9,0.3c-0.6,0-1.3-0.2-1.8-0.7
					c-0.2-0.2-0.4-0.5-0.4-0.9c0-0.4,0.2-0.7,0.4-0.9c0.5-0.4,1.1-0.6,1.7-0.7c-0.6,0.2-1.1,0.4-1.5,0.8c-0.2,0.2-0.3,0.5-0.3,0.7
					c0,0.2,0.2,0.5,0.4,0.7c0.8,0.7,2.2,0.5,3.1,0.1c1.1-0.5,2.2-1.1,3.4-1.4c1.2-0.3,2.6-0.3,3.8,0c2.6,0.6,4.6,2.3,6.4,3.7
					c1.9,1.5,3.7,2.7,5.8,3.1c2,0.8,4.3,1,6.4,0.4C98.8,137,100.7,135.5,102.6,134z"/>
			</g>
		</g>
	</g>
	<g>
		<g>
			<g>
				<path d="M104.1,127.5c0.7,0.9,1.3,1.9,1.7,3.2c-0.6,2.4-2.3,4.3-4.2,5.2c1.3-1.7,1.7-3.7,1.3-5.4
					C103.5,129.6,103.9,128.6,104.1,127.5z"/>
			</g>
		</g>
	</g>
	<g>
		<g>
			<g>
				<path d="M109.7,130.9c-0.9,0.3-1.8,0.4-2.8,0.5c-1.3-1.2-2.3-2.6-2.9-4.1c1.3,0.9,2.8,1.4,4.2,1.5
					C108.6,129.5,109.1,130.2,109.7,130.9z"/>
			</g>
		</g>
	</g>
	<g>
		<g>
			<g>
				<path d="M71.6,79.5c-3.7,0.1-7.4,1.1-10.5,2.8c-3.2,1.7-5.8,4.2-7.6,7.2c-2.1,2.8-3.5,6.2-4.4,9.6c-0.9,3.5-1.2,7.1-0.7,10.7
					c0.9,7.2,4.7,14,10,19.2c-5.6-4.9-9.9-11.5-11.4-19c-0.7-3.7-0.7-7.6,0-11.4c0.7-3.8,2-7.5,4.1-10.8c2.4-3.1,5.7-5.6,9.3-6.9
					C64.1,79.6,67.9,79.2,71.6,79.5z"/>
			</g>
		</g>
	</g>
	<g>
		<g>
			<g>
				<path d="M69.9,79c2.3-0.6,4.7-1,7.1-1.1c4.7,1.1,9.1,2.9,13.2,5.1c-4.5-1.4-9.1-2.2-13.6-2.3C74.5,79.9,72.2,79.3,69.9,79z"/>
			</g>
		</g>
	</g>
	<g>
		<g>
			<g>
				<path d="M109.7,136.3c-2.1,2.6-5,4.6-8.2,5.9c-1.6,0.7-3.2,1.2-4.9,1.6c-1.7,0.4-3.4,0.7-5.1,0.8c-6.9-0.1-13.7-2-19.7-5
					c-6-3-11.5-7.1-15.9-12.2c4.7,4.7,10.4,8.4,16.5,10.9c6.1,2.5,12.6,3.9,19,3.5c1.6,0.1,3.2,0.1,4.8-0.1c1.6-0.1,3.2-0.4,4.8-0.9
					C104.3,140,107.3,138.5,109.7,136.3z"/>
			</g>
		</g>
	</g>
	<g>
		<g>
			<g>
				<path d="M111.2,130.3c0.6,0.7,1.1,1.6,1.4,2.6c-0.7,1.8-2,3.3-3.5,4.1c0.8-1.5,1-3.1,0.7-4.5C110.3,132,110.8,131.2,111.2,130.3
					z"/>
			</g>
		</g>
	</g>
</g>
<g>
	<g>
		<g>
			<g>
				<path d="M241.1,33c0.8,3.5,1.8,7,3.3,10.2c1.7,6.8,4.9,13.3,9.4,19c-5-5.2-9-11.4-11.5-18.3C241.5,40.2,241.1,36.6,241.1,33z"/>
			</g>
		</g>
	</g>
	<g>
		<g>
			<g>
				<path d="M244.6,29.2c-3,2.7-6.3,5.3-9.8,7.5c-7.5,3.5-15.6,5.7-23.7,6.5c8-1.6,15.7-4.5,22.6-8.5
					C237.5,33.2,241.1,31.4,244.6,29.2z"/>
			</g>
		</g>
	</g>
	<g>
		<g>
			<g>
				<path d="M198.9,83c1.4-4.2,2.7-8.4,3.5-12.6c2.9-8.2,4.6-16.8,5.3-25.5c0.1,8.8-0.9,17.6-3.1,26.2C203,75.1,201.1,79.1,198.9,83
					z"/>
			</g>
		</g>
	</g>
	<g>
		<g>
			<g>
				<path d="M241.2,94.3c-0.6-0.8-0.9-1.9-1-2.9c-0.1-1.1,0.1-2.1,0.3-3.2c0.5-2.1,1.2-4,1.8-5.9c3.8-7.3,8.6-14.1,14.1-20.1
					c-5,6.5-9.1,13.5-12.1,21c-1,1.7-2,3.5-2.8,5.3c-0.4,0.9-0.7,1.8-0.9,2.8C240.7,92.3,240.8,93.4,241.2,94.3z"/>
			</g>
		</g>
	</g>
	<g>
		<g>
			<g>
				<path d="M203.3,85.8c-0.7-0.3-1.3-0.6-2-0.9c-0.4-1.2-0.8-2.4-1.4-3.6c1.1,0.7,2.2,1.5,3.2,2.4
					C203.2,84.3,203.3,85.1,203.3,85.8z"/>
			</g>
		</g>
	</g>
	<g>
		<g>
			<g>
				<path d="M206.5,73.1c0.4-1.3,0.6-2.5,0.8-3.8c0.9-2.4,1.5-4.9,1.7-7.5c0.1,2.6-0.1,5.2-0.7,7.8C207.8,70.8,207.2,72,206.5,73.1z
					"/>
			</g>
		</g>
	</g>
	<g>
		<g>
			<g>
				<path d="M211.3,69.7c-0.5,0.4-1,0.7-1.5,1.2c-1.1,0.3-2.2,0.8-3.2,1.5c0.8-1,1.7-1.9,2.8-2.6C210,69.7,210.6,69.7,211.3,69.7z"
					/>
			</g>
		</g>
	</g>
	<g>
		<g>
			<g>
				<path d="M210.6,69.8c-0.1-0.7-0.1-1.3-0.1-2c0.5-1.2,1.1-2.3,1.8-3.4c-0.3,1.2-0.5,2.5-0.7,3.7
					C211.3,68.7,210.9,69.2,210.6,69.8z"/>
			</g>
		</g>
	</g>
	<g>
		<g>
			<g>
				<path d="M214,61.4c-0.2,0.5-0.3,0.9-0.3,1.4c-0.6,0.6-1.1,1.3-1.5,2.1c0-0.9,0.2-1.8,0.5-2.8C213.2,61.8,213.6,61.6,214,61.4z"
					/>
			</g>
		</g>
	</g>
	<g>
		<g>
			<g>
				<polygon points="215.2,64.5 214.3,63.8 213.8,61.6 215.3,63.3 				"/>
			</g>
		</g>
	</g>
	<g>
		<g>
			<g>
				<polygon points="213.9,69.7 213.7,69.9 213.6,70.1 213.6,69.8 213.5,68.1 215,64.5 214.6,68.4 213.8,69.9 213.6,69.8 				"/>
			</g>
		</g>
	</g>
	<g>
		<g>
			<g>
				<polygon points="214.9,75.7 214.7,75.9 214.7,76 214.6,75.9 213.7,74.2 213.3,69.9 214.8,73.9 214.8,75.8 214.7,75.8 				"/>
			</g>
		</g>
	</g>
	<g>
		<g>
			<g>
				<path d="M214.1,54.4c-0.1,0.9-0.2,1.9-0.5,2.8c-1.1,1.6-2.5,2.9-4.1,3.8c1.4-1.2,2.5-2.7,3.1-4.4
					C213.1,56,213.6,55.2,214.1,54.4z"/>
			</g>
		</g>
	</g>
	<g>
		<g>
			<g>
				<path d="M218.1,64c-0.5,0-1-0.4-1.4-0.8c-0.4-0.4-0.6-0.9-0.9-1.3c-0.6-2-1.2-4-1.6-6c0.8,1.9,1.7,3.7,2.6,5.5
					c0.1,0.5,0.2,1,0.4,1.5C217.4,63.3,217.7,63.8,218.1,64z"/>
			</g>
		</g>
	</g>
	<g>
		<g>
			<g>
				<path d="M214.5,76c0-1.4,0-2.9,0.2-4.4c0.8-2.8,1.9-5.5,3.1-8.1c-0.9,2.7-1.6,5.5-2,8.3C215.3,73.2,214.9,74.6,214.5,76z"/>
			</g>
		</g>
	</g>
	<g>
		<g>
			<g>
				<path d="M218.3,74.6c0.3-1.2,0.6-2.4,0.7-3.6c0.9-2.2,1.5-4.6,1.9-7c0,2.4-0.2,4.9-0.8,7.3C219.6,72.5,218.9,73.6,218.3,74.6z"
					/>
			</g>
		</g>
	</g>
	<g>
		<g>
			<g>
				<path d="M225.3,75.9c-0.1-1.1-0.2-2.3-0.1-3.5c0.6-2.2,1.6-4.3,2.8-6.2c-0.9,2.1-1.4,4.3-1.7,6.4
					C225.8,73.7,225.5,74.8,225.3,75.9z"/>
			</g>
		</g>
	</g>
	<g>
		<g>
			<g>
				<path d="M226.4,59.3c-0.3,0.8-0.7,1.5-1.1,2.3c-1.3,1.1-2.6,2.1-4,2.9c1.2-1.1,2.3-2.3,3.2-3.6
					C225.1,60.3,225.8,59.8,226.4,59.3z"/>
			</g>
		</g>
	</g>
	<g>
		<g>
			<g>
				<path d="M227.1,67.2l-0.1,0.1l0,0l0-0.1c-0.4-0.6-0.8-1.2-1.2-1.9c-0.2-1.6-0.2-3.2,0.1-4.7c0.1,1.6,0.4,3.1,1,4.5
					c0,0.7,0,1.4,0.1,2.2l-0.1,0L227.1,67.2z"/>
			</g>
		</g>
	</g>
	<g>
		<g>
			<g>
				<path d="M220.7,79.4l-0.2,0.1l0,0l0-0.1c-0.2-0.6-0.5-1.2-0.8-1.8c-0.1-1.3-0.5-2.7-1.1-3.9c0.9,1.1,1.7,2.3,2.2,3.7
					c0,0.7-0.1,1.4-0.2,2l-0.1,0L220.7,79.4z"/>
			</g>
		</g>
	</g>
	<g>
		<g>
			<g>
				<path d="M225.8,74.8c-0.6,0.5-1.1,1-1.6,1.6c-1.3,0.6-2.6,1.4-3.8,2.4c0.9-1.2,2-2.3,3.1-3.3C224.3,75.2,225.1,75,225.8,74.8z"
					/>
			</g>
		</g>
	</g>
	<g>
		<g>
			<g>
				<path d="M221,72.1c-0.1-0.6-0.1-1.3-0.1-1.9c0.5-1.1,1.1-2.2,1.8-3.2c-0.4,1.2-0.6,2.3-0.7,3.5C221.6,71,221.3,71.5,221,72.1z"
					/>
			</g>
		</g>
	</g>
	<g>
		<g>
			<g>
				<path d="M224.1,64.8l-0.3,1.2l-1.6,1.1l0,0c0,0,0,0.1,0.1,0.1c0,0.1-0.2,0.1-0.2-0.1l0,0l0,0l0.9-1.8L224.1,64.8z"/>
			</g>
		</g>
	</g>
	<g>
		<g>
			<g>
				<path d="M225.5,69.1c-0.4-0.4-0.7-0.8-1-1.2c-0.1-1-0.2-1.9-0.2-2.9l0-0.1l0.1,0l0.2,0.1l-0.2-0.1l0.1,0
					c0.4,0.9,0.8,1.7,1.2,2.5C225.5,68,225.5,68.5,225.5,69.1z"/>
			</g>
		</g>
	</g>
	<g>
		<g>
			<g>
				<polygon points="223.2,74.3 223.4,72.2 225.3,68.7 224.4,72.6 				"/>
			</g>
		</g>
	</g>
	<g>
		<g>
			<g>
				<polygon points="221.6,75.2 220.8,74 221,71.4 221.9,73.8 				"/>
			</g>
		</g>
	</g>
	<g>
		<g>
			<g>
				<path d="M223.8,73.3c-0.1,0.3-0.3,0.7-0.3,1c-0.5,0.2-1.1,0.5-1.6,1c0.2-0.6,0.4-1.2,0.8-1.8C223.1,73.3,223.5,73.3,223.8,73.3z
					"/>
			</g>
		</g>
	</g>
	<g>
		<g>
			<g>
				<polygon points="229.7,69.1 231,67 234.8,64 231.8,67.8 				"/>
			</g>
		</g>
	</g>
	<g>
		<g>
			<g>
				<path d="M233.8,69.7l-0.3-1.9l0.5-1.8l0.3-0.9l0.1-0.4c0-0.1,0-0.2,0.1-0.2c0.1-0.1,0.2,0,0.2,0.1c0-0.1-0.1-0.1-0.1,0
					c0,0,0,0.1,0,0.2l0,0.5l0,0.9l0.1,1.8L233.8,69.7z"/>
			</g>
		</g>
	</g>
	<g>
		<g>
			<g>
				<path d="M239.2,60.2c-0.3,1.2-0.7,2.3-1.2,3.5c-1.3,1.9-2.7,3.7-4.3,5.4l0,0l0.3-0.2l-0.3,0.3l-0.2,0.2l0.1-0.2
					c1.3-1.9,2.4-3.9,3.4-5.9C237.8,62.2,238.5,61.2,239.2,60.2z"/>
			</g>
		</g>
	</g>
	<g>
		<g>
			<g>
				<polygon points="239.3,67.8 238.8,65.4 239.6,60.8 239.6,60.8 239.6,60.8 239.8,61 239.6,60.9 239.6,60.8 240,65.4 				"/>
			</g>
		</g>
	</g>
	<g>
		<g>
			<g>
				<path d="M233.3,78.8c0.3-1.3,0.7-2.6,1.1-3.9c1.4-2.3,3-4.5,4.7-6.5c-1.5,2.2-2.7,4.6-3.7,7C234.6,76.4,233.9,77.6,233.3,78.8z"
					/>
			</g>
		</g>
	</g>
	<g>
		<g>
			<g>
				<path d="M226.2,76.5c0.3-0.9,0.5-1.8,0.7-2.6c0.9-1.5,1.7-3.1,2.4-4.8c-0.4,1.8-0.8,3.5-1.4,5.2
					C227.4,75.1,226.8,75.8,226.2,76.5z"/>
			</g>
		</g>
	</g>
	<g>
		<g>
			<g>
				<path d="M227.1,82.6c-0.1-0.7-0.2-1.5-0.4-2.2c0.1-1.4,0-2.9-0.3-4.3c0.7,1.3,1.2,2.7,1.5,4.2C227.6,81.1,227.4,81.9,227.1,82.6
					z"/>
			</g>
		</g>
	</g>
	<g>
		<g>
			<g>
				<path d="M233.8,78.5c-0.8,0.5-1.5,1-2.2,1.6c-1.6,0.6-3.1,1.3-4.5,2.3l0-0.1l0.3,0l-0.3,0l-0.1,0l0.1-0.1c1.2-1.2,2.6-2.3,4-3.2
					C232,78.8,232.9,78.6,233.8,78.5z"/>
			</g>
		</g>
	</g>
	<g>
		<g>
			<g>
				<path d="M230.4,72.3c0-0.4,0-0.8,0.1-1.2c0.6-0.5,1.2-0.8,1.8-1.1c-0.4,0.6-0.7,1.2-0.9,1.8C231.1,71.9,230.8,72.1,230.4,72.3z"
					/>
			</g>
		</g>
	</g>
	<g>
		<g>
			<g>
				<path d="M232.6,74.3c-0.4-0.4-0.7-0.9-1-1.4c0-1.1,0.2-2.2,0.6-3.1c0,1,0.2,2,0.5,2.9C232.7,73.2,232.6,73.7,232.6,74.3z"/>
			</g>
		</g>
	</g>
	<g>
		<g>
			<g>
				<polygon points="228.5,76.5 228.6,74.8 230.4,72.2 229.7,75.3 				"/>
			</g>
		</g>
	</g>
	<g>
		<g>
			<g>
				<path d="M228.6,79.8c-0.1-0.4-0.2-0.9-0.3-1.3c0.3-0.7,0.5-1.5,0.7-2.3c0.2,0.8,0.4,1.6,0.4,2.5
					C229.1,79.1,228.9,79.4,228.6,79.8z"/>
			</g>
		</g>
	</g>
	<g>
		<g>
			<g>
				<path d="M232.4,76.5c-0.5,0.3-0.8,0.7-1.1,1.1c-0.9,0.3-1.8,0.9-2.4,1.7c0.3-1,1-2,1.9-2.7C231.3,76.5,231.8,76.5,232.4,76.5z"
					/>
			</g>
		</g>
	</g>
	<g>
		<g>
			<g>
				<path d="M231.7,76.7c-0.1-0.4-0.2-0.8-0.3-1.2c0.4-0.6,0.9-1.2,1.5-1.6c-0.2,0.7-0.4,1.3-0.4,2
					C232.2,76.2,231.9,76.4,231.7,76.7z"/>
			</g>
		</g>
	</g>
	<g>
		<g>
			<g>
				<path d="M234.1,79.2c0.5-1,0.9-2.1,1.4-3.2c1.3-1.8,2.6-3.7,3.8-5.7c-0.8,2.1-1.8,4.2-2.8,6.3C235.6,77.6,234.9,78.4,234.1,79.2
					z"/>
			</g>
		</g>
	</g>
	<g>
		<g>
			<g>
				<path d="M235.7,79.8l0,0.2l-0.1,0c0.3-0.6,0.5-1.1,0.7-1.7c0.9-0.9,1.8-1.9,2.6-2.9c-0.5,1.2-1.1,2.4-1.7,3.6
					c-0.5,0.4-1,0.7-1.5,1.1l-0.2,0.1l0.1-0.1L235.7,79.8z"/>
			</g>
		</g>
	</g>
	<g>
		<g>
			<g>
				<polygon points="241.6,77.1 240.3,76.8 239,75.3 238.5,74.8 239.1,75.1 239.5,75.4 239,75.3 239.1,75.1 241,75.9 				"/>
			</g>
		</g>
	</g>
	<g>
		<g>
			<g>
				<polygon points="244.6,75.9 243.5,76.8 240.8,77.1 243.2,75.8 				"/>
			</g>
		</g>
	</g>
	<g>
		<g>
			<g>
				<path d="M244.3,76.4c0-0.8-0.1-1.6-0.1-2.4c0.5-1.5,0.9-3,1.2-4.5c0,1.6,0,3.1-0.1,4.7C245,75,244.7,75.7,244.3,76.4z"/>
			</g>
		</g>
	</g>
	<g>
		<g>
			<g>
				<path d="M246.2,68.9c-0.7,0.3-1.5,0.6-2.2,0.9c-1.5,0.1-3,0.2-4.6,0.5l0,0l0.1,0l-0.1,0l-0.1,0l0.1,0c1.4-0.6,2.9-1.1,4.4-1.5
					C244.6,68.8,245.4,68.8,246.2,68.9z"/>
			</g>
		</g>
	</g>
	<g>
		<g>
			<g>
				<path d="M234.1,84.2c-0.3-0.5-0.5-1-0.8-1.6c0.1-1.1,0.2-2.3,0.4-3.4c0.2,1.1,0.4,2.2,0.7,3.2C234.3,83.1,234.2,83.6,234.1,84.2
					z"/>
			</g>
		</g>
	</g>
	<g>
		<g>
			<g>
				<path d="M241.7,83.2l0.2,0l0,0.1c-0.9,0.2-1.7,0.4-2.6,0.6c-0.9-0.1-1.8-0.1-2.8-0.1c-0.5,0-0.9,0-1.4,0c-0.4,0-0.9,0.2-1.2,0.6
					c0.2-0.5,0.7-0.7,1.1-0.8c0.5-0.1,0.9-0.2,1.4-0.3c0.9-0.2,1.8-0.4,2.8-0.5c0.9,0.1,1.8,0.3,2.6,0.5l0,0.1L241.7,83.2z"/>
			</g>
		</g>
	</g>
	<g>
		<g>
			<g>
				<polygon points="240.4,83 240.4,83.2 240.2,83.2 240.2,82.1 241.7,80.3 241.2,82.6 240.4,83.3 240.2,83.2 				"/>
			</g>
		</g>
	</g>
	<g>
		<g>
			<g>
				<path d="M236.3,81.6c-0.3,0-0.6,0-0.9-0.1c-0.2-0.6-0.1-1.2,0.1-1.6c0.2,0.5,0.5,0.8,0.8,0.9C236.2,81.1,236.2,81.4,236.3,81.6z
					"/>
			</g>
		</g>
	</g>
	<g>
		<g>
			<g>
				<path d="M241.6,80.9c-0.6,0.1-1.2,0.2-1.8,0.4c-1.1-0.2-2.3,0-3.4,0.3c1-0.7,2.1-1.2,3.4-1.5C240.5,80.4,241.1,80.6,241.6,80.9z
					"/>
			</g>
		</g>
	</g>
	<g>
		<g>
			<g>
				<path d="M242.8,71.4c0.2,1.2,0.3,2.3,0.2,3.5l-0.1,0.3l-0.2,0.9l-0.6-0.6l-2.2-2l-0.3-0.3l0.4-0.2l3.3-1.5l-3.1,2l0-0.5l2.5,1.7
					l-0.9,0.3l0-0.3C242.3,73.7,242.6,72.6,242.8,71.4z"/>
			</g>
		</g>
	</g>
</g>
<g>
	<g>
		<g>
			<g>
				<path d="M72.2,149.9c3.8-1.2,7.7-2.2,11.7-2.5c4-0.3,8.2,0.3,11.7,2.4c3.6,2.1,6.1,5.7,7.4,9.6c1.3,3.9,1.4,8.3,0.2,12.3
					c-1.3,4-4.1,7.4-7.4,9.9c-3.3,2.5-7.2,4.1-11.2,4.8c-4,0.7-8.2,0.5-12.1-0.5c-3.9-1.1-7.6-3.2-10.3-6.3
					c-5.4-6.2-6-15.9-1.5-22.7c4.6-6.7,13.8-9.6,21.3-6.9c-7.6-2.5-16.5,0.6-20.8,7.2c-4.3,6.6-3.4,15.9,1.8,21.6
					c2.6,2.8,6.1,4.7,9.9,5.6c3.7,0.9,7.7,1,11.4,0.2c3.7-0.8,7.4-2.4,10.3-4.7c2.9-2.4,5.4-5.5,6.4-9c1.2-3.5,1.4-7.5,0.4-11.1
					c-1-3.6-3.2-7.1-6.4-9.1c-3.2-2.1-7.2-2.9-11.1-2.8C79.9,148.1,76,148.9,72.2,149.9z"/>
			</g>
		</g>
	</g>
	<g>
		<g>
			<g>
				<path d="M90.5,180.2c-2.2,1-4.8,1.2-7.3,0.9c-2.5-0.3-4.9-0.9-7.3-2c-4.4-2.6-7.9-6.5-9.8-11.1c-1.9-4.6-2.4-9.7-1.3-14.4
					c-0.7,4.8,0.2,9.7,2.3,13.9c2.2,4.2,5.7,7.6,9.9,9.6c1.9,1.3,4.1,2.2,6.4,2.8C85.7,180.6,88.1,180.8,90.5,180.2z"/>
			</g>
		</g>
	</g>
	<g>
		<g>
			<g>
				<path d="M99.9,177c-1.4-5.1-4.1-9.7-7.7-13.2c-6.2-8-17.3-11.9-27.6-10c5.1-1.3,10.5-1.3,15.7,0.2c2.6,0.7,5,1.8,7.4,3.2
					c2.3,1.4,4.4,3.1,6.3,5.1C97.2,166.6,99.3,171.8,99.9,177z"/>
			</g>
		</g>
	</g>
	<g>
		<g>
			<g>
				<polygon points="95.2,178.3 84.3,171.1 64.7,153.9 85.8,169.3 				"/>
			</g>
		</g>
	</g>
	<g>
		<g>
			<g>
				<path d="M95,148.4c-4.9,1.9-9.5,4.4-13.5,7.6c-8.7,5.4-15.7,13.7-19.7,23.5c3.2-10,9.7-19,18.4-25.3
					C84.8,151.4,89.9,149.5,95,148.4z"/>
			</g>
		</g>
	</g>
	<g>
		<g>
			<g>
				<path d="M99.8,156.6c-1.5,4.5-3.7,8.8-6.7,12.7c-6.7,7.1-15.5,11.9-24.8,13.7c9.2-2.5,17.3-7.9,23.1-15.2
					C94.8,164.6,97.6,160.8,99.8,156.6z"/>
			</g>
		</g>
	</g>
</g>
<g>
	<g>
		<g>
			<g>
				<path d="M315.9,94.1c-7.7,3.7-14.7,8.6-21.1,14.2c-6.7,5.2-12.9,11.1-18.7,17.3c-5.8,6.2-11.3,12.8-16.7,19.4
					c5.2-6.8,10.3-13.6,15.9-20.2c5.5-6.5,11.5-12.8,18.1-18.3C300.4,101.4,307.9,97.1,315.9,94.1z"/>
			</g>
		</g>
	</g>
	<g>
		<g>
			<g>
				<path d="M310.6,94.9c-1.2-3.3-2.7-6.4-4.4-9.3c-1.8-2.9-3.8-5.7-6-8.3c-2-2.7-4.3-5.2-6.8-7.6c-2.5-2.3-5.2-4.4-8.1-6.3
					c-2.9-1.9-6-3.4-9.2-4.7c-1.6-0.6-3.2-1.3-4.9-1.6c-1.7-0.4-3.4-0.5-5.1-0.1c1.7-0.5,3.5-0.5,5.2-0.2c1.7,0.3,3.4,0.8,5,1.4
					c3.3,1.1,6.5,2.5,9.5,4.2c3,1.7,6,3.7,8.6,6c2.7,2.3,5.2,4.7,7.5,7.5c2,2.9,3.8,6,5.3,9.1C308.7,88.3,309.8,91.6,310.6,94.9z"/>
			</g>
		</g>
	</g>
	<g>
		<g>
			<g>
				<path d="M240.3,102.3c3.7-4.4,7-9,9.9-13.8c6.8-9,12-19.2,15.5-30c-2.8,11-7.4,21.7-13.6,31.3
					C248.5,94.4,244.5,98.5,240.3,102.3z"/>
			</g>
		</g>
	</g>
	<g>
		<g>
			<g>
				<path d="M264.6,143.6c-4.1-0.5-8.1-1.3-12.1-2.7c-7.5-3.6-14.1-8.8-19.5-14.9c5.9,5.6,12.9,10,20.4,12.8
					C257,140.8,260.7,142.3,264.6,143.6z"/>
			</g>
		</g>
	</g>
	<g>
		<g>
			<g>
				<path d="M299.2,91.7c-2.1-3.5-4.5-6.7-7.4-9.4C287,76,280.4,71,273,68c7.7,2.3,14.9,6.8,20.5,12.8
					C295.9,84.2,297.8,87.9,299.2,91.7z"/>
			</g>
		</g>
	</g>
	<g>
		<g>
			<g>
				<path d="M270.1,74.7c-0.5-0.8-1-1.6-1.3-2.5c0.4-1.8,1.1-3.5,2.1-4.9c-0.3,1.7-0.2,3.4,0.2,5C270.7,72.9,270.4,73.8,270.1,74.7z
					"/>
			</g>
		</g>
	</g>
	<g>
		<g>
			<g>
				<path d="M296.5,95.1c-2.2-3-4.8-5.7-7.6-8.1c-4.8-5.5-11-9.9-17.9-12.6c7.2,2,14,5.8,19.5,11C293,88.4,294.9,91.7,296.5,95.1z"
					/>
			</g>
		</g>
	</g>
	<g>
		<g>
			<g>
				<path d="M296.3,96.2c0.1-0.9,0.1-1.7,0.3-2.6c1.2-1.1,2.5-2.1,3.8-3c-0.8,1.4-1.4,2.8-1.9,4.2C297.8,95.3,297.1,95.7,296.3,96.2
					z"/>
			</g>
		</g>
	</g>
	<g>
		<g>
			<g>
				<path d="M271.7,96.1c1.2-1.9,2.4-3.7,3.6-5.6c3.3-2.9,6.7-5.6,10.1-8.3c-3,3.2-5.8,6.5-8.5,9.8
					C275.2,93.4,273.4,94.8,271.7,96.1z"/>
			</g>
		</g>
	</g>
	<g>
		<g>
			<g>
				<path d="M238.8,116c1.9-1.6,3.7-3.2,5.3-4.9c4-2.5,7.8-5.5,11.3-8.8c-2.9,3.8-6.3,7.4-10,10.6C243.3,114.1,241,115.1,238.8,116z
					"/>
			</g>
		</g>
	</g>
	<g>
		<g>
			<g>
				<path d="M246.4,125.6c-1.7-0.9-3.4-1.9-5-3.1c-2.4-3.1-4.2-6.6-5.4-10.2c1.9,3.3,4.3,6.2,7,8.7
					C244,122.6,245.1,124.1,246.4,125.6z"/>
			</g>
		</g>
	</g>
	<g>
		<g>
			<g>
				<path d="M241.9,129.1c-1.5-0.4-3-0.9-4.5-1.6c-2.2-2.3-3.9-5-5-7.8c1.8,2.5,4,4.5,6.4,6C239.8,127,240.8,128.1,241.9,129.1z"/>
			</g>
		</g>
	</g>
	<g>
		<g>
			<g>
				<polygon points="240.3,127 240.8,125 244.1,123.6 242.3,126.7 				"/>
			</g>
		</g>
	</g>
	<g>
		<g>
			<g>
				<path d="M252,129.3c-0.6,0-1.1,0-1.8-0.2c-0.4-1-0.4-2.3,0.2-3c0.2,0.9,0.9,1.3,1.6,1.6C251.9,128.2,251.9,128.7,252,129.3z"/>
			</g>
		</g>
	</g>
	<g>
		<g>
			<g>
				<path d="M245.3,131.2c0-0.9,0.1-1.8,0.3-2.7c1.3-1.2,2.7-2.1,4.1-2.8c-1,1.3-1.7,2.7-2.2,4.1C246.7,130.2,246,130.7,245.3,131.2
					z"/>
			</g>
		</g>
	</g>
	<g>
		<g>
			<g>
				<path d="M251.9,134.8c-0.8-0.1-1.7-0.2-2.6-0.4c-1-1.3-1.9-2.6-2.8-3.9c1.3,0.8,2.7,1.5,4.1,2.1
					C251.1,133.3,251.5,134,251.9,134.8z"/>
			</g>
		</g>
	</g>
	<g>
		<g>
			<g>
				<path d="M257.5,114.5c-0.3-2.2-0.8-4.4-1.5-6.5c-0.3-4.3-1.4-8.6-3.4-12.7c2.6,3.6,4.6,7.8,5.6,12.3
					C258.3,110,258,112.3,257.5,114.5z"/>
			</g>
		</g>
	</g>
	<g>
		<g>
			<g>
				<path d="M276.5,115c-2.2-0.3-4.4-0.4-6.5-0.4c-4.1-1.1-8.5-1.5-12.8-1.4c4.3-0.9,8.7-1.2,13.2-0.9
					C272.5,113.1,274.5,114,276.5,115z"/>
			</g>
		</g>
	</g>
	<g>
		<g>
			<g>
				<path d="M272.4,96.4c-2.3,0.9-4.7,1.6-7.3,1.9c-4.6-0.4-9.1-1.7-13-3.9l0.1-0.2l1,0.7l-1.1-0.6l0.1-0.2
					c4.2,1.5,8.6,2.1,12.9,1.8C267.5,96.5,269.9,96.6,272.4,96.4z"/>
			</g>
		</g>
	</g>
	<g>
		<g>
			<g>
				<path d="M276.4,116.9c-2.2-1.3-4.1-3.4-5.4-5.9c-0.8-2.6-0.9-5.3-0.7-7.9c0.2-2.6,0.6-5.1,1-7.7c-0.1,2.6-0.1,5.1,0.1,7.6
					c0.2,2.5,0.7,5,1.7,7.2C273.6,112.6,274.7,115,276.4,116.9z"/>
			</g>
		</g>
	</g>
</g>
<g>
	<g>
		<g>
			<g>
				<path d="M106.4,98.3c-6-4.3-11.7-9.2-16.3-15.1c-2.3-3-4.3-6.1-5.9-9.6c-1.6-3.4-2.7-7.2-3.2-10.9c-0.4-3.8-0.2-7.7,0.6-11.4
					c0.4-1.9,1-3.7,1.8-5.5c0.4-0.9,0.8-1.8,1.4-2.6c0.3-0.4,0.5-0.8,0.8-1.2l0.9-1.2c0.3-0.4,0.6-0.8,1-1.1l1-1
					c0.7-0.6,1.4-1.3,2.1-1.9c1.4-1.3,2.8-2.4,4.3-3.6c3-2.3,6.2-4.3,9.7-5.7c3.5-1.4,7.3-2.1,11.1-1.9c1.9,0,3.7,0.3,5.6,0.6
					c1.8,0.4,3.6,0.9,5.4,1.5c7,2.5,13.2,7,18.2,12.5c-5.1-5.3-11.4-9.5-18.4-11.8c-6.9-2.3-14.7-2.4-21.3,0.5
					c-3.3,1.4-6.3,3.5-9.2,5.8c-1.4,1.2-2.8,2.4-4.1,3.6c-0.7,0.6-1.3,1.3-2,1.9l-0.9,1c-0.3,0.3-0.6,0.6-0.8,1l-0.8,1.1
					c-0.2,0.4-0.4,0.8-0.7,1.1c-0.5,0.7-0.8,1.6-1.2,2.4c-0.6,1.6-1.2,3.3-1.4,5.1c-0.7,3.5-0.7,7.1-0.2,10.6
					c0.2,3.6,1.1,7.1,2.4,10.4c1.3,3.4,3.1,6.6,5.1,9.6C95.4,88.4,100.7,93.7,106.4,98.3z"/>
			</g>
		</g>
	</g>
	<g>
		<g>
			<g>
				<path d="M113.6,61.1c0.9-1.4,2.8-2.2,4.7-2c1,0.1,1.9,0.5,2.7,1.3c0.8,0.7,1.3,1.8,1.5,2.8c0.1,2.1-0.9,4.3-2.8,5.4
					c-1.9,1-4.2,0.6-5.7-0.5c-0.8-0.6-1.4-1.4-1.7-2.3c-0.3-0.9-0.3-1.9,0-2.7c0.5-1.7,2-3.1,3.6-3.3c-1.6,0.5-2.7,2-2.9,3.5
					c-0.1,0.8,0,1.5,0.3,2.2c0.3,0.6,0.8,1.2,1.5,1.5c1.2,0.7,2.8,0.6,3.8-0.1c0.9-0.7,1.4-2.1,1.1-3.2c0.1-0.6-0.1-1.2-0.3-1.7
					c-0.3-0.5-0.8-1-1.5-1.3C116.7,59.9,114.9,60,113.6,61.1z"/>
			</g>
		</g>
	</g>
	<g>
		<g>
			<g>
				<path d="M123.1,58.5c3-5,4.4-10.9,4-16.6c0-0.7-0.1-1.4-0.3-1.9c-0.3-0.5-0.4-0.5-0.7-0.4c-0.3,0.1-0.8,0.7-1.3,1.2l-1.4,1.6
					c-1.8,2.2-3.5,4.5-5,6.9c-1.7,2.3-3.2,4.8-4.5,7.3c-0.6,1.3-1.3,2.5-1.9,3.9l-0.9,2l-0.8,2c-2.1,5.4-3.3,11-3.9,16.8
					c-0.1,1.4-0.2,2.9-0.3,4.3l0,2.2c0,0.7,0,1.4,0.1,2.1c0.2,1.3,0.8,2.7,2,2.9c1.2,0.3,2.3-0.8,3.1-2c0.7-1.2,1.4-2.5,2-3.8
					c0.6-1.3,1.2-2.6,1.8-4c1.1-2.7,2.1-5.4,3-8.2c-0.8,2.8-1.7,5.6-2.7,8.3c-0.5,1.4-1.1,2.7-1.6,4.1c-0.6,1.3-1.1,2.7-1.9,4
					c-0.4,0.6-0.9,1.3-1.5,1.8c-0.6,0.5-1.5,0.9-2.4,0.7c-0.4-0.1-0.8-0.2-1.2-0.5c-0.4-0.3-0.6-0.6-0.9-0.9
					c-0.4-0.7-0.7-1.5-0.8-2.2c-0.4-3-0.3-5.9-0.2-8.9c0.3-5.9,1.4-11.8,3.3-17.4l0.7-2.1l0.8-2.1c0.5-1.4,1.2-2.7,1.8-4.1
					c1.3-2.7,2.7-5.3,4.4-7.7c1.8-2.4,3.7-4.6,5.8-6.8l1.6-1.5c0.5-0.5,1-1.1,2.1-1.5c0.5-0.2,1.2-0.2,1.8,0.2
					c0.6,0.3,0.8,0.9,1,1.3c0.3,0.9,0.3,1.7,0.3,2.4C128.4,47.8,126.5,53.7,123.1,58.5z"/>
			</g>
		</g>
	</g>
	<g>
		<g>
			<g>
				<path d="M127.2,68.8c2.7,1,5.2,2.7,7.2,4.9c1,1.1,1.9,2.3,2.6,3.6c0.3,0.7,0.7,1.3,0.9,2c0.3,0.7,0.5,1.4,0.6,2.2
					c0.1,0.8,0.1,1.7-0.3,2.6c-0.4,0.9-1.3,1.5-2.2,1.8c-0.9,0.2-1.8,0.2-2.6,0c-0.8-0.2-1.5-0.4-2.3-0.7c-2.7-1.2-5.3-2.5-7.9-3.9
					c-9.9-6.4-18.4-14.8-24.9-24.5c-1.6-2.5-3.1-4.9-4.5-7.6c-0.6-1.3-1.1-2.9-0.9-4.5c0.1-0.8,0.4-1.5,0.9-2.2
					c0.5-0.6,1.1-1.1,1.8-1.5c2.8-1.4,6.2-0.7,8.4,1.4c2.2,2,3.5,4.7,4.7,7.3c-1.3-2.6-2.7-5.2-4.9-7c-1.1-0.9-2.4-1.6-3.8-1.7
					c-1.4-0.2-2.8,0-4,0.7c-0.6,0.3-1.1,0.8-1.5,1.3c-0.4,0.6-0.6,1.2-0.6,1.8c-0.1,1.3,0.4,2.7,1,3.9c1.3,2.5,3,4.9,4.7,7.2
					c6.8,9.3,15.4,17.1,25.2,22.9c2.3,1.6,4.8,3.1,7.3,4.4c1.2,0.6,2.5,1.1,3.5,0.9c0.5-0.1,0.9-0.4,1.2-0.8c0.3-0.4,0.4-1,0.3-1.7
					c0-0.6-0.2-1.3-0.4-2c-0.2-0.7-0.4-1.3-0.7-2c-0.6-1.3-1.3-2.5-2.2-3.6C132.1,71.8,129.8,70,127.2,68.8z"/>
			</g>
		</g>
	</g>
	<g>
		<g>
			<g>
				<path d="M128.3,65.4c2.5,0,5.1,0,7.4-0.7c1.2-0.3,2.3-0.9,3.2-1.6c0.9-0.7,1.6-1.7,2-2.8c0.2-0.5,0.3-1.1,0.4-1.6
					c0-0.5,0-1.1-0.1-1.6c-0.2-0.5-0.4-0.9-0.7-1.3c-0.3-0.4-0.7-0.7-1.2-0.9c-1.8-0.9-4.3-0.7-6.6-0.3c-9.9,0.9-19.8,2.9-29.6,4.9
					c-2.4,0.5-4.8,1.2-7,2.3c-1.1,0.6-2.1,1.2-3,2c-0.9,0.8-1.6,1.8-1.7,2.9c-0.2,1.1,0.5,2.3,1.5,2.9c1,0.6,2.3,0.8,3.5,0.8
					c1.2,0,2.5-0.2,3.7-0.3c1.2-0.1,2.6,0,3.7,0.6c-1.2-0.5-2.4-0.5-3.7-0.4c-1.2,0.1-2.5,0.4-3.7,0.5c-1.3,0.1-2.6-0.1-3.8-0.7
					c-1.2-0.6-2.1-2-1.9-3.4c0.1-1.4,0.9-2.6,1.8-3.5c0.9-0.9,2-1.7,3.1-2.3c2.2-1.3,4.7-2.1,7.1-2.8c9.8-2.5,19.5-4.9,29.6-6.4
					c1.3-0.1,2.6-0.1,4,0c1.4,0.2,2.8,0.5,4.1,1.3c0.6,0.4,1.2,0.9,1.6,1.6c0.4,0.6,0.7,1.4,0.9,2.1c0.3,1.5-0.1,2.9-0.7,4.2
					c-0.6,1.2-1.5,2.3-2.7,3c-1.1,0.8-2.4,1.2-3.6,1.4C133.3,65.9,130.8,65.7,128.3,65.4z"/>
			</g>
		</g>
	</g>
</g>
<g>
	<g>
		<g>
			<g>
				<path d="M240.8,147.5c0,3.8-0.1,7.6-0.5,11.4c-1.6,7.5-4,14.7-7,21.6c2.5-7.1,4.4-14.5,5.4-21.9
					C239.5,155,240.2,151.3,240.8,147.5z"/>
			</g>
		</g>
	</g>
	<g>
		<g>
			<g>
				<path d="M270.3,148.9c-2.8-1.8-6-3.1-9.2-3.8c-3.1-1.1-6.4-1.7-9.7-1.6c-1.7,0-3.3,0.2-4.9,0.7c-1.6,0.5-3.1,1.4-4,2.8
					c0.8-1.5,2.2-2.6,3.8-3.2c1.6-0.7,3.3-1,5-1.1c3.4-0.3,6.9,0,10.2,0.8C264.9,144.8,267.8,146.6,270.3,148.9z"/>
			</g>
		</g>
	</g>
	<g>
		<g>
			<g>
				<path d="M270,147.6c-1.9,3.6-3.5,7.4-4.7,11.2c-3.4,7.3-5.5,15.2-6.5,23.3c0.4-8.1,2.1-16.3,5-24
					C265.6,154.5,267.7,151,270,147.6z"/>
			</g>
		</g>
	</g>
	<g>
		<g>
			<g>
				<path d="M252.7,169.4c-2.3,1.2-4.5,2.4-6.6,3.8c-4.6,2-8.9,4.6-13,7.7c3.7-3.5,7.7-6.7,12.2-9.2
					C247.7,170.8,250.2,170,252.7,169.4z"/>
			</g>
		</g>
	</g>
	<g>
		<g>
			<g>
				<path d="M251.3,162.3c-2,0.7-3.8,1.7-5.5,2.9c-3.7,1.7-7,4.5-9.3,8c1.8-3.8,4.8-7.2,8.5-9.5C247,163,249.2,162.5,251.3,162.3z"
					/>
			</g>
		</g>
	</g>
	<g>
		<g>
			<g>
				<path d="M252.9,152.5c-1.8,0.9-3.5,2-5.1,3.2c-3.6,1.7-6.8,4-9.6,6.9c2.3-3.3,5.3-6.2,8.8-8.4
					C248.9,153.5,250.9,152.9,252.9,152.5z"/>
			</g>
		</g>
	</g>
	<g>
		<g>
			<g>
				<path d="M250.6,145.5c-1.4,0.5-2.7,1.2-3.8,2.1c-2.6,0.9-5,2.7-6.8,5c1.3-2.6,3.4-5,6-6.6C247.5,145.7,249.1,145.5,250.6,145.5z
					"/>
			</g>
		</g>
	</g>
	<g>
		<g>
			<g>
				<path d="M236.5,167.3c0.5-1.6,1.1-3.2,2.1-4.7c2.5-2.4,5.7-4,8.9-4.6c-3.1,1.1-5.8,3.2-7.7,5.7
					C238.6,164.7,237.4,165.9,236.5,167.3z"/>
			</g>
		</g>
	</g>
	<g>
		<g>
			<g>
				<path d="M239.4,156.3c0.2-1.2,0.7-2.4,1.3-3.6c1.9-1.7,4.2-2.9,6.6-3.3c-2.2,1-4,2.5-5.3,4.4
					C241.1,154.5,240.2,155.3,239.4,156.3z"/>
			</g>
		</g>
	</g>
	<g>
		<g>
			<g>
				<path d="M233.2,179.8c0.6-1.7,1.3-3.4,2.3-5c2.5-2.7,5.6-4.9,8.8-6.4c-3,2-5.6,4.5-7.5,7.4C235.4,177,234.3,178.3,233.2,179.8z"
					/>
			</g>
		</g>
	</g>
	<g>
		<g>
			<g>
				<path d="M242.4,161.7c-0.8,1-1.4,2-2.1,3.1c-1.7,1.4-3.2,3-4.6,4.8l-0.1-0.1l0.4-0.4l-0.3,0.5l-0.1-0.1c0.9-2.1,2.1-4.1,3.5-5.9
					C240.2,162.9,241.3,162.3,242.4,161.7z"/>
			</g>
		</g>
	</g>
	<g>
		<g>
			<g>
				<path d="M259.7,175.2c-0.5,0.8-0.1,1.9,0.5,2.4c0.7,0.5,1.6,0.5,2.4,0.3c1.6-0.5,2.6-2.2,3.8-3.6c1.3-1.3,2.5-2.6,3.3-4.1
					c0.9-1.5,1.4-3.2,1.5-4.9c0.3-3.5-0.8-7.2-3.3-9.9l0,0l-0.5,0.4l0.4-0.5l0,0l0,0c2.7,2.5,4.2,6.2,4.1,10c0,1.9-0.4,3.8-1.3,5.5
					c-0.8,1.7-2,3.2-3.2,4.6c-0.7,0.6-1.4,1.3-2.2,1.9c-0.8,0.6-1.7,1.2-2.7,1.3c-1,0.2-2.2,0-2.9-0.8
					C259.3,177.1,259.1,175.9,259.7,175.2z"/>
			</g>
		</g>
	</g>
	<g>
		<g>
			<g>
				<path d="M262.7,171c0,0.5,0.6,0.6,0.8,0.4c0.3-0.2,0.5-0.5,0.7-0.9c0.4-0.7,0.7-1.4,0.9-2.2c1.5-2.5,1.7-6,0.3-8.9l0,0l-0.5,0
					l0.5-0.1l0,0l0,0c1.9,2.6,2.4,6.3,1.1,9.6c-0.5,0.8-1.1,1.5-1.8,2.1c-0.3,0.3-0.7,0.6-1.2,0.7
					C263.1,171.9,262.5,171.5,262.7,171z"/>
			</g>
		</g>
	</g>
	<g>
		<g>
			<g>
				<path d="M264.3,170.7c0.1,0.5-0.1,1.2-0.6,1.8c-0.7,0.2-1.4,0-1.9-0.4c-0.5-0.4-0.7-0.9-0.7-1.4c0.3,0.4,0.7,0.6,1.1,0.6
					c0.4,0,0.7-0.2,0.8-0.4C263.3,171.1,263.9,171.1,264.3,170.7z"/>
			</g>
		</g>
	</g>
	<g>
		<g>
			<g>
				<path d="M263.6,115c-1.5,0.6-3,1.2-4.3,2.1c-1.3,0.8-2.5,1.9-3.2,3.1c-0.9,1.1-1.4,2.5-1.4,4c0,1.5,0.3,3.1,0.6,4.6
					c0.3,1.6,0.5,3.2,0.4,4.8c-0.1,1.6-0.8,3.3-2.1,4.2c1.2-1.1,1.7-2.7,1.7-4.3c0-1.6-0.3-3.1-0.8-4.6c-0.4-1.5-0.9-3.1-1-4.8
					c-0.2-1.7,0.3-3.6,1.3-5c1.2-1.3,2.7-2.2,4.2-2.8C260.5,115.7,262,115.3,263.6,115z"/>
			</g>
		</g>
	</g>
	<g>
		<g>
			<g>
				<path d="M253.8,134.3c2.5,1.3,5.8-0.5,6-2.8c0.4-1.1,0.3-2.4,0.2-3.8c-0.1-1.4-0.3-2.8-0.1-4.3c0.4-2.9,2.1-5.5,4.5-6.9
					c-2.2,1.7-3.5,4.4-3.7,7c-0.1,1.3,0.2,2.6,0.5,4c0.3,1.4,0.6,2.9,0.2,4.5c-0.3,0.8-0.8,1.5-1.4,2c-0.6,0.5-1.3,0.9-2.1,1.1
					C256.5,135.4,254.9,135.2,253.8,134.3z"/>
			</g>
		</g>
	</g>
	<g>
		<g>
			<g>
				<path d="M262.6,137.4c0.8-0.4,1.3-1.1,1.5-1.9c0.2-0.8,0.3-1.6,0.2-2.4c-0.2-1.6-0.9-3.1-1.2-4.9c0-0.9,0.1-1.9,0.6-2.8
					c0.4-0.9,1.1-1.5,1.7-2.1c0.6-0.6,1.1-1.2,1.5-1.8c0.4-0.6,0.7-1.4,0.8-2.2c0.2-1.6-0.1-3.2-0.7-4.7c-0.6-1.5-1.6-2.9-2.5-4.3
					c1,1.3,2.1,2.6,2.9,4.2c0.8,1.5,1.3,3.2,1.2,5c0,0.9-0.3,1.8-0.7,2.6c-0.4,0.8-1,1.5-1.5,2.1c-0.5,0.6-1,1.3-1.3,1.9
					c-0.3,0.6-0.3,1.4-0.2,2.1c-0.1,1.5,0.4,3.2,0.3,5c0,0.9-0.2,1.8-0.6,2.6C264.1,136.5,263.4,137.2,262.6,137.4z"/>
			</g>
		</g>
	</g>
	<g>
		<g>
			<g>
				<path d="M262.9,112.4c0.8-0.2,1.8,0,2.6,0.4c0.8,0.4,1.5,1,2.2,1.6c1.3,1.3,2.4,2.5,3.4,4.1c0.4,0.8,0.7,1.8,0.8,2.7
					c0.1,1-0.1,2-0.5,2.9c-0.9,1.7-2.3,2.8-2.8,4.3c-0.6,1.5-0.8,3.3-1.4,5c-0.3,0.8-0.8,1.6-1.4,2.2c-0.6,0.6-1.4,1.1-2.3,1.1
					c0.9-0.1,1.6-0.6,2.2-1.2c0.5-0.6,0.9-1.4,1.2-2.2c0.5-1.6,0.4-3.4,1-5.1c0.5-1.8,1.9-3.1,2.5-4.5c0.6-1.4,0.2-3-0.6-4.3
					c-0.6-1.5-1.6-3-2.5-4.3c-0.5-0.7-1.1-1.3-1.7-1.8C264.6,112.7,263.7,112.4,262.9,112.4z"/>
			</g>
		</g>
	</g>
	<g>
		<g>
			<g>
				<path d="M257.3,184.5c-2.5-1.1-5.1-1.9-7.7-2.3c-5-1.7-10.5-2.1-15.9-1.1c5.2-1.5,10.9-1.8,16.3-0.6
					C252.6,181.6,255,182.9,257.3,184.5z"/>
			</g>
		</g>
	</g>
</g>
<g>
	<g>
		<g>
			<g>
				<path d="M103.7,99.5c3.8,8.1,7.2,16.5,9.9,25.2c4.2,17.6,5.8,35.8,5.1,53.8c-0.2-18-2.8-35.9-7.8-53
					C109.1,116.6,106.6,108,103.7,99.5z"/>
			</g>
		</g>
	</g>
	<g>
		<g>
			<g>
				<path d="M220.8,178.1c0.6-9.6,1.6-19.2,3.3-28.7c4.6-18.8,11.4-36.9,20-54.1c-7.7,17.6-13.6,35.9-17.2,54.7
					C224.3,159.2,222.3,168.6,220.8,178.1z"/>
			</g>
		</g>
	</g>
	<g>
		<g>
			<g>
				<polygon points="101.3,100 107,98 109.8,96.9 112.7,96 118.4,94.2 124.2,92.6 127.1,91.8 130.1,91.1 135.9,89.8 141.8,88.6 
					144.8,88 147.8,87.6 153.8,86.9 159.8,86.4 162.8,86.2 165.8,86.1 171.8,85.8 177.8,85.8 180.8,85.8 183.9,85.9 189.9,86.1 
					195.9,86.5 198.9,86.8 201.9,87.1 207.8,87.7 213.8,88.6 216.8,89 219.7,89.6 225.6,90.7 231.5,92 234.4,92.6 237.3,93.4 
					243.1,94.9 237.3,93.6 234.3,92.9 231.4,92.3 225.5,91.2 219.6,90.3 216.6,89.8 213.7,89.5 207.7,88.8 201.8,88.3 198.8,88.1 
					195.8,88 189.8,87.7 183.8,87.7 180.8,87.7 177.9,87.8 171.9,88 165.9,88.4 163,88.6 160,88.9 154.1,89.5 148.2,90.4 
					145.2,90.7 142.2,91.1 136.3,91.9 130.4,92.9 127.5,93.4 124.5,94 118.7,95.3 112.9,96.7 110,97.5 107.1,98.3 				"/>
			</g>
		</g>
	</g>
	<g>
		<g>
			<g>
				<path d="M116.7,104.5c12.3-2.4,24.7-4.8,37.2-6.6c12.6-1.1,25.2-1.6,37.8-0.9c12.6,0.7,25.1,2.6,37.2,6.1
					c-12.2-3.1-24.7-4.5-37.2-4.7c-12.5-0.2-25,0.8-37.4,2.3C141.6,101.6,129.1,103.1,116.7,104.5z"/>
			</g>
		</g>
	</g>
	<g>
		<g>
			<g>
				<path d="M124.7,176.5c0.3-8.1,0-16.1-1.1-24c-0.7-15.9-4.2-31.8-10.3-46.8c7,14.5,11.5,30.3,13.1,46.5
					C126.6,160.4,125.9,168.5,124.7,176.5z"/>
			</g>
		</g>
	</g>
	<g>
		<g>
			<g>
				<path d="M215.9,175.5c-1.1-8.2-1.6-16.6-1.3-25c2-16.7,7.2-32.9,15-47.6c-6.9,15.1-11.1,31.4-12.2,47.8
					C216.1,158.9,215.7,167.2,215.9,175.5z"/>
			</g>
		</g>
	</g>
	<g>
		<g>
			<g>
				<path d="M124.8,178.2c10-1.9,20.2-3.4,30.4-4.4c20.5-0.6,41,0.8,61.1,4.1c-20.3-2.3-40.7-2.8-61-1.3
					C145.1,176.7,135,177.2,124.8,178.2z"/>
			</g>
		</g>
	</g>
	<g>
		<g>
			<g>
				<path d="M259.6,184.9l-8.1-1.3l-4-0.6l-4.1-0.5l-8.1-0.9l-8.1-0.6l-4.1-0.3l-4.1-0.2l-8.1-0.3l-8.1-0.1l-4.1,0l-4.1,0.1
					l-8.1-0.1l-8.1,0.1l-4.1,0.1l-4.1,0.2l-8.1,0.3c-10.8,0.6-21.7,1.4-32.5,2.6c-21.7,2.1-43.2,5.2-64.8,8.2
					c21.5-3.5,43-7,64.6-9.6c10.8-1.4,21.7-2.4,32.5-3.3l8.2-0.5l4.1-0.3l4.1-0.2l8.2-0.3l8.2-0.1l4.1,0.1l4.1,0.2l8.2,0.4l8.2,0.7
					l4.1,0.3l4.1,0.5l8.1,1l8.1,1.3l4,0.6l4,0.8L259.6,184.9z"/>
			</g>
		</g>
	</g>
	<g>
		<g>
			<g>
				<polygon points="79.9,201.4 86.9,199.4 90.3,198.4 93.9,197.5 100.9,195.6 108,194 111.5,193.2 115.1,192.5 122.2,191.1 
					129.4,189.9 132.9,189.3 136.5,188.8 143.8,188.1 151,187.6 154.7,187.3 158.3,187.2 165.5,186.9 172.8,186.8 176.4,186.7 
					180.1,186.8 187.3,186.9 194.6,187.3 198.2,187.4 201.8,187.7 209.1,188.2 216.3,189 219.9,189.4 223.5,189.8 230.7,190.8 
					237.8,192 241.4,192.6 244.9,193.3 252.1,194.6 244.9,193.4 241.3,192.8 237.8,192.3 230.6,191.3 223.4,190.5 219.8,190.2 
					216.2,189.9 209,189.3 201.8,188.9 198.1,188.7 194.5,188.7 187.3,188.5 180.1,188.6 176.5,188.6 172.8,188.7 165.6,189 
					158.4,189.5 154.8,189.7 151.2,190.1 144,190.7 136.9,191.6 133.3,192 129.7,192.4 122.5,193.2 115.4,194.3 111.8,194.8 
					108.2,195.4 101.1,196.7 94,198.1 90.5,198.9 87,199.7 				"/>
			</g>
		</g>
	</g>
	<g>
		<g>
			<g>
				<path d="M83.1,201.9c-1.4,0.4-2.7,1.2-4,1.9c-1.3,0.7-2.6,1.5-4.4,1.9c-1.7,0-3.4-0.3-4.9-1.4c-0.7-0.5-1.3-1.3-1.7-2.1
					c-0.4-0.8-0.4-1.7-0.4-2.5c0-1.6,0.3-3,0.5-4.5l0.6-4.4l0.2,4.4c0.1,1.5,0,3,0.2,4.3c0.2,1.4,0.8,2.4,1.9,2.9
					c1,0.5,2.3,0.6,3.5,0.4C77,203.1,80.1,201.8,83.1,201.9z"/>
			</g>
		</g>
	</g>
	<g>
		<g>
			<g>
				<path d="M262.2,185.1c-0.1,2.1-0.7,4.4-2.1,6.4c-1.8,1.5-4,2.4-6.2,2.7c-2.2,0.3-4.4,0-6.4-0.9c4.1,0.8,8.4-0.9,10.6-3.8
					C259.8,188.5,261.3,187,262.2,185.1z"/>
			</g>
		</g>
	</g>
</g>
</svg>
