<?xml version="1.0" encoding="utf-8"?>
<!-- Generator: Adobe Illustrator 19.0.0, SVG Export Plug-In . SVG Version: 6.00 Build 0)  -->
<svg version="1.1" id="Layer_1" xmlns="http://www.w3.org/2000/svg" xmlns:xlink="http://www.w3.org/1999/xlink" x="0px" y="0px"
	 viewBox="0 0 80 80" style="enable-background:new 0 0 80 80;" xml:space="preserve">
<style type="text/css">
	.st0{fill-rule:evenodd;clip-rule:evenodd;fill:#13818A;}
	.st1{fill:none;stroke:#13818A;stroke-width:2;stroke-miterlimit:10;}
</style>
<g id="XMLID_618_">
	<path id="XMLID_462_" class="st0" d="M40.2,7.8C22.2,7.8,7.7,22.4,7.7,40.3c0,14.3,9.3,26.5,22.2,30.8c1.6,0.3,2.2-0.7,2.2-1.6
		c0-0.8,0-2.8,0-5.5c-9,2-10.9-4.4-10.9-4.4c-1.5-3.8-3.6-4.8-3.6-4.8c-2.9-2,0.2-2,0.2-2c3.3,0.2,5,3.3,5,3.3
		c2.9,5,7.6,3.5,9.5,2.7c0.3-2.1,1.1-3.5,2.1-4.3c-7.2-0.8-14.8-3.6-14.8-16.1c0-3.5,1.3-6.4,3.3-8.7c-0.3-0.8-1.4-4.1,0.3-8.6
		c0,0,2.7-0.9,8.9,3.3c2.6-0.7,5.4-1.1,8.1-1.1c2.8,0,5.5,0.4,8.1,1.1c6.2-4.2,8.9-3.3,8.9-3.3c1.8,4.5,0.7,7.8,0.3,8.6
		c2.1,2.3,3.3,5.2,3.3,8.7c0,12.5-7.6,15.2-14.8,16c1.2,1,2.2,3,2.2,6c0,4.3,0,7.8,0,8.9c0,0.9,0.6,1.9,2.2,1.6
		c12.9-4.3,22.2-16.5,22.2-30.8C72.6,22.4,58.1,7.8,40.2,7.8z"/>
	<path id="XMLID_461_" class="st1" d="M40,78C19,78,2,61,2,40S19,2,40,2c21,0,38,17,38,38S61,78,40,78z"/>
</g>
</svg>
