<?xml version="1.0" encoding="utf-8"?>
<!-- Generator: Adobe Illustrator 19.0.0, SVG Export Plug-In . SVG Version: 6.00 Build 0)  -->
<svg version="1.1" id="Layer_1" xmlns="http://www.w3.org/2000/svg" xmlns:xlink="http://www.w3.org/1999/xlink" x="0px" y="0px"
	 viewBox="0 0 80 80" style="enable-background:new 0 0 80 80;" xml:space="preserve">
<style type="text/css">
	.st0{fill:none;stroke:#13818A;stroke-width:2;stroke-miterlimit:10;}
	.st1{fill:#13818A;}
	.st2{fill:#FFFFFF;}
</style>
<g id="XMLID_362_">
	<g id="XMLID_371_">
		<path id="XMLID_373_" class="st0" d="M40,78C19,78,2,61,2,40C2,19,19,2,40,2c21,0,38,17,38,38C78,61,61,78,40,78z"/>
		<circle id="XMLID_372_" class="st1" cx="40" cy="40" r="32.6"/>
	</g>
	<g id="XMLID_363_">
		<path id="XMLID_368_" class="st2" d="M40,25.2c5,0,5.6,0,7.6,0.1c1.8,0.1,2.8,0.4,3.5,0.6c0.9,0.3,1.5,0.8,2.2,1.4
			c0.7,0.7,1.1,1.3,1.4,2.2c0.3,0.7,0.6,1.7,0.6,3.5c0.1,2,0.1,2.6,0.1,7.6c0,5,0,5.6-0.1,7.6c-0.1,1.8-0.4,2.8-0.6,3.5
			c-0.3,0.9-0.8,1.5-1.4,2.2c-0.7,0.7-1.3,1.1-2.2,1.4c-0.7,0.3-1.7,0.6-3.5,0.6c-2,0.1-2.6,0.1-7.6,0.1c-5,0-5.6,0-7.6-0.1
			c-1.8-0.1-2.8-0.4-3.5-0.6C28,55,27.4,54.6,26.7,54c-0.7-0.7-1.1-1.3-1.4-2.2c-0.3-0.7-0.6-1.7-0.6-3.5c-0.1-2-0.1-2.6-0.1-7.6
			c0-5,0-5.6,0.1-7.6c0.1-1.8,0.4-2.8,0.6-3.5c0.3-0.9,0.8-1.5,1.4-2.2c0.7-0.7,1.3-1.1,2.2-1.4c0.7-0.3,1.7-0.6,3.5-0.6
			C34.4,25.2,35,25.2,40,25.2 M40,21.8c-5.1,0-5.8,0-7.8,0.1c-2,0.1-3.4,0.4-4.6,0.9c-1.2,0.5-2.3,1.1-3.3,2.2c-1,1-1.7,2.1-2.2,3.3
			c-0.5,1.2-0.8,2.6-0.9,4.6c-0.1,2-0.1,2.7-0.1,7.8c0,5.1,0,5.8,0.1,7.8c0.1,2,0.4,3.4,0.9,4.6c0.5,1.2,1.1,2.3,2.2,3.3
			c1,1,2.1,1.7,3.3,2.2c1.2,0.5,2.6,0.8,4.6,0.9c2,0.1,2.7,0.1,7.8,0.1c5.1,0,5.8,0,7.8-0.1c2-0.1,3.4-0.4,4.6-0.9
			c1.2-0.5,2.3-1.1,3.3-2.2c1-1,1.7-2.1,2.2-3.3c0.5-1.2,0.8-2.6,0.9-4.6c0.1-2,0.1-2.7,0.1-7.8c0-5.1,0-5.8-0.1-7.8
			c-0.1-2-0.4-3.4-0.9-4.6c-0.5-1.2-1.1-2.3-2.2-3.3c-1-1-2.1-1.7-3.3-2.2c-1.2-0.5-2.6-0.8-4.6-0.9C45.8,21.9,45.2,21.8,40,21.8"/>
		<path id="XMLID_365_" class="st2" d="M40,31c-5.3,0-9.7,4.3-9.7,9.7c0,5.3,4.3,9.7,9.7,9.7s9.7-4.3,9.7-9.7
			C49.7,35.3,45.4,31,40,31 M40,47c-3.5,0-6.3-2.8-6.3-6.3c0-3.5,2.8-6.3,6.3-6.3c3.5,0,6.3,2.8,6.3,6.3C46.3,44.2,43.5,47,40,47"/>
		<path id="XMLID_364_" class="st2" d="M52.4,30.6c0,1.2-1,2.3-2.3,2.3c-1.2,0-2.3-1-2.3-2.3c0-1.2,1-2.3,2.3-2.3
			C51.3,28.4,52.4,29.4,52.4,30.6"/>
	</g>
</g>
</svg>
