<?xml version="1.0" encoding="utf-8"?>
<!-- Generator: Adobe Illustrator 19.0.0, SVG Export Plug-In . SVG Version: 6.00 Build 0)  -->
<svg version="1.1" id="Layer_1" xmlns="http://www.w3.org/2000/svg" xmlns:xlink="http://www.w3.org/1999/xlink" x="0px" y="0px"
	 viewBox="0 0 80 80" style="enable-background:new 0 0 80 80;" xml:space="preserve">
<style type="text/css">
	.st0{fill:none;stroke:#13818A;stroke-width:2;stroke-miterlimit:10;}
	.st1{fill:#13818A;}
	.st2{fill:#FFFFFF;}
</style>
<g id="XMLID_413_">
	<g id="XMLID_419_">
		<path id="XMLID_421_" class="st0" d="M40,78C19,78,2,61,2,40S19,2,40,2c21,0,38,17,38,38S61,78,40,78z"/>
		<circle id="XMLID_420_" class="st1" cx="40" cy="40" r="32.6"/>
	</g>
	<g id="XMLID_414_">
		<g id="XMLID_416_">
			<rect id="XMLID_418_" x="24.6" y="33.3" class="st2" width="7.1" height="23"/>
			<ellipse id="XMLID_417_" class="st2" cx="28.1" cy="26.1" rx="4.2" ry="4.2"/>
		</g>
		<path id="XMLID_415_" class="st2" d="M43,44.3c0-3.2,1.5-5.2,4.3-5.2c2.6,0,3.9,1.8,3.9,5.2c0,3.3,0,12.1,0,12.1h7.1
			c0,0,0-8.4,0-14.6c0-6.2-3.5-9.1-8.4-9.1c-4.9,0-6.9,3.8-6.9,3.8v-3.1h-6.8v23H43C43,56.3,43,47.8,43,44.3z"/>
	</g>
</g>
</svg>
