<?xml version="1.0" encoding="utf-8"?>
<!-- Generator: Adobe Illustrator 19.0.0, SVG Export Plug-In . SVG Version: 6.00 Build 0)  -->
<svg version="1.1" id="Layer_1" xmlns="http://www.w3.org/2000/svg" xmlns:xlink="http://www.w3.org/1999/xlink" x="0px" y="0px"
	 viewBox="0 0 48 80" style="enable-background:new 0 0 48 80;" xml:space="preserve">
<style type="text/css">
	.st0{fill:#E3003A;}
</style>
<g id="XMLID_175_">
	<path id="XMLID_400_" class="st0" d="M31.1,49.7c0.3,3.8-3.1,6.8-6.9,6.8c-0.3,0-0.5,0-0.7,0c-3.4,0.2-6.2,0.9-8.4,2.1
		c-2.1,1.1-3.6,2.6-4.5,4.6c-0.8,1.7-1.1,3.7-0.8,5.8c0.3,1.8,0.9,3.7,2,5C15.2,77.1,20,79,25.1,79c10.4,0,19.2-8.4,19.2-19
		c0-7.5-1.5-13.7-6.6-21.2c-1-1.4-1.8-3-2.5-4.6c-0.3-0.6-0.5-1.2-0.7-1.9l0,0c-1-2.8-1.5-5.8-1.5-8.9c0-9.4,4.7-17.6,11.9-22.5
		C33.2,2.9,24.4,12,24.4,26.5c0,6.2,1.6,11.9,4.4,16.7c0.9,1.5,1.6,3,2,4.3C30.9,48,31.1,49.2,31.1,49.7z"/>
	<path id="XMLID_176_" class="st0" d="M5.7,61.4c0.1,1.4,0.8,4.2,1.5,6.1c0-1.7,0.4-3.4,1.1-4.9c1.1-2.4,3-4.3,5.6-5.7
		c1.6-0.8,3.4-1.5,5.4-1.9c-1-1-1.8-2.4-2-3.9c-0.1-0.5-0.1-1-0.1-1.5c0.1-1.2,0.2-2.2,0.4-3.1c0.7-1.9,1.1-4,1.1-6.2
		c0-9.7-7.5-17.6-17-18.2c5.8,3.1,9.7,9.5,9.7,16.5c0,2.9-0.7,5.4-1.9,8.4h0c-1.5,3-3.7,6.4-4.1,11.9C5.5,60.1,5.6,60.8,5.7,61.4z"
		/>
</g>
</svg>
