<?xml version="1.0" encoding="utf-8"?>
<!-- Generator: Adobe Illustrator 19.0.0, SVG Export Plug-In . SVG Version: 6.00 Build 0)  -->
<svg version="1.1" id="Layer_1" xmlns="http://www.w3.org/2000/svg" xmlns:xlink="http://www.w3.org/1999/xlink" x="0px" y="0px"
	 viewBox="0 0 80 80" style="enable-background:new 0 0 80 80;" xml:space="preserve">
<style type="text/css">
	.st0{fill:none;stroke:#13818A;stroke-width:2;stroke-miterlimit:10;}
	.st1{fill:#13818A;}
	.st2{fill:#FFFFFF;}
</style>
<g id="XMLID_318_">
	<g id="XMLID_320_">
		<path id="XMLID_322_" class="st0" d="M40,78C19,78,2,61,2,40C2,19,19,2,40,2s38,17,38,38C78,61,61,78,40,78z"/>
		<circle id="XMLID_321_" class="st1" cx="40" cy="40" r="32.6"/>
	</g>
	<path id="XMLID_319_" class="st2" d="M30,45.3c0.5,0.2,1,0,1.2-0.6c0.1-0.4,0.4-1.5,0.5-1.9c0.2-0.6,0.1-0.8-0.3-1.3
		c-0.9-1.1-1.5-2.6-1.5-4.6c0-5.9,4.4-11.2,11.5-11.2c6.3,0,9.8,3.8,9.8,9c0,6.8-3,12.5-7.4,12.5c-2.5,0-4.3-2-3.7-4.5
		c0.7-3,2.1-6.2,2.1-8.3c0-1.9-1-3.5-3.2-3.5c-2.5,0-4.5,2.6-4.5,6.1c0,2.2,0.7,3.7,0.7,3.7s-2.6,10.9-3,12.8
		c-0.9,3.8-0.1,8.4-0.1,8.9c0,0.3,0.4,0.3,0.6,0.1c0.2-0.3,3.2-4,4.2-7.7c0.3-1,1.7-6.4,1.7-6.4c0.8,1.6,3.2,2.9,5.7,2.9
		c7.5,0,12.7-6.9,12.7-16.1c0-7-5.9-13.4-14.8-13.4c-11.1,0-16.8,8-16.8,14.7C25.2,40.4,26.8,43.9,30,45.3z"/>
</g>
</svg>
