<?xml version="1.0" encoding="UTF-8" standalone="no"?>
<svg width="78px" height="77px" viewBox="0 0 78 77" version="1.1" xmlns="http://www.w3.org/2000/svg" xmlns:xlink="http://www.w3.org/1999/xlink" xmlns:sketch="http://www.bohemiancoding.com/sketch/ns">
    <!-- Generator: Sketch 3.3.3 (12081) - http://www.bohemiancoding.com/sketch -->
    <title>resume icon</title>
    <desc>Created with Sketch.</desc>
    <defs></defs>
    <g id="Page-1" stroke="none" stroke-width="1" fill="none" fill-rule="evenodd" sketch:type="MSPage">
        <g id="iPhone-6-Plus" sketch:type="MSArtboardGroup" transform="translate(-1.000000, -1.000000)">
            <g id="resume-icon" sketch:type="MSLayerGroup" transform="translate(2.000000, 2.000000)">
                <path d="M37.8835687,74.9746678 C17.0446442,74.9746678 0.0904541016,58.1577175 0.0904541016,37.4874789 C0.0904541016,16.8172402 17.0446442,0.000289916992 37.8835687,0.000289916992 C58.7224932,0.000289916992 75.6766834,16.8172402 75.6766834,37.4874789 C75.6766834,58.1577175 58.7224932,74.9746678 37.8835687,74.9746678 L37.8835687,74.9746678 Z" id="Stroke-1-Copy" stroke="#13818A" stroke-width="2" sketch:type="MSShapeGroup"></path>
                <path d="M37.8835687,69.655433 C19.9726161,69.655433 5.45409271,55.2534469 5.45409271,37.4874789 C5.45409271,19.7224973 19.9726161,5.32051123 37.8835687,5.32051123 C55.7945214,5.32051123 70.3140393,19.7224973 70.3140393,37.4874789 C70.3140393,55.2534469 55.7945214,69.655433 37.8835687,69.655433 Z" id="Fill-2-Copy-2" fill="#13818A" sketch:type="MSShapeGroup"></path>
                <g id="resume" transform="translate(20.187500, 12.500000)" stroke="#13818A" stroke-width="2" sketch:type="MSShapeGroup">
                    <path d="M0,3.19350262 C0,1.53967322 1.34596872,0.198979592 3.00044883,0.198979592 L24.0750903,0.198979592 L34.0718168,0.198979592 C35.7272572,0.198979592 37.0692568,1.53641501 37.0692568,3.19350262 L37.0692568,46.255477 C37.0692568,47.9093064 35.7280426,49.25 34.0671239,49.25 L3.0021329,49.25 C1.34410068,49.25 0,47.9125646 0,46.255477 L0,3.19350262 Z" id="Rectangle-78" fill="#FFFFFF"></path>
                    <path d="M6.87816161,25.3305933 L30.7256652,25.3305933" id="Line-Copy" stroke-linecap="square"></path>
                    <path d="M6.87816161,32.1887755 L30.7256652,32.1887755" id="Line-Copy-3" stroke-linecap="square"></path>
                    <path d="M6.87816161,39.2875317 L30.7256652,39.2875317" id="Line-Copy-4" stroke-linecap="square"></path>
                    <path d="M21.7119932,16.0319904 L30.714527,16.0319904" id="Line-Copy-2" stroke-linecap="square"></path>
                    <path d="M21.7119932,10.3606799 L30.714527,10.3606799" id="Line-Copy-5" stroke-linecap="square"></path>
                    <path d="M15.3885331,17.2126707 C15.3885331,14.6984757 13.3737172,12.6603179 10.8883158,12.6603179 C8.40291438,12.6603179 6.38809844,14.6984757 6.38809844,17.2126707 C6.38809844,19.7268657 15.3885331,19.7268657 15.3885331,17.2126707 Z" id="Oval-1-Copy"></path>
                    <ellipse id="Oval-1" fill="#FFFFFF" cx="10.8883158" cy="10.209051" rx="3.11553509" ry="3.15162885"></ellipse>
                </g>
            </g>
        </g>
    </g>
</svg>