<?xml version="1.0" encoding="utf-8"?>
<!-- Generator: Adobe Illustrator 21.0.0, SVG Export Plug-In . SVG Version: 6.00 Build 0)  -->
<svg version="1.1" xmlns="http://www.w3.org/2000/svg" xmlns:xlink="http://www.w3.org/1999/xlink" x="0px" y="0px"
	 viewBox="0 0 150 150" style="enable-background:new 0 0 150 150;" xml:space="preserve">
<style type="text/css">
	.st0{fill:#E5843C;}
</style>
<g id="Layer_2">
	<path class="st0" d="M87.2,119.4c-1.4-3.3-2.5-6.7-3.1-10.2c0.4-0.7,0.5-1.6,0.1-2.6c-4.6-11.7-7.7-23.9-9-36.4
		c-0.1-0.9-0.5-1.7-1-2.2c0.3-0.5,0.5-1.1,0.4-1.9c-0.3-5-0.3-11.4-2.8-16c-2.5-4.5-8-5.7-12.8-6.1c-1.9-0.2-3,1-3.3,2.5
		c-1,0.8-1.6,2-1.4,3.5c1.5,10,2.2,20.1,2.2,30.2c-0.3,1.1-0.5,2.3-0.5,3.5c0,0.7,0.2,1.3,0.5,1.8c-0.1,3.8-0.2,7.5-0.5,11.3
		c-0.1,1.7,0.7,2.7,1.9,3.2c-0.6,4.6-0.7,9.3-1,14c-0.5,2.4-0.9,4.9-1.4,7.3c0,0.3-0.1,0.5-0.1,0.8c-2.5,3.8,3.7,7.3,6.2,3.6
		c1.1-1.5,1.9-3.2,2.6-4.9c0.7-0.6,1.2-1.4,1.3-2.6c0.1-1.4,0.1-2.9,0.2-4.3c0-0.1,0-0.2,0-0.3c0.1-2.4,0.3-4.9,0.5-7.3
		c0.2-1.7,0.1-3.8,1.3-5.1c0.9-1,2.3-1.2,3.6-1.2c0.1,0.3,0.3,0.6,0.5,0.8c1.8,2.4,3.1,4.9,3.9,7.7c0.9,4.1,1.2,8.3,1,12.4
		c-0.2,0.6-0.3,1.3-0.1,1.9c0,0.1,0,0.1,0,0.2c-0.4,3.9,4.7,4.5,6.5,1.8c0.6-0.3,1.2-0.5,1.8-0.6C86.4,123.3,88,121.2,87.2,119.4z
		 M63.7,94.8c-0.2-0.1-0.3-0.2-0.5-0.3c0.3-4.7,0.4-9.4,0.4-14.1c0.6-2.2,1.4-4.4,1.4-6.8c0,0,0-0.1,0-0.1c0-0.1,0-0.1,0-0.1
		c0.2-4.1,1.2-7.8,1.8-11.8c0.1-0.5,0.1-0.9,0.2-1.4c0.2,2,0.4,3.9,0.5,5.9c0.1,0.9,0.4,1.7,0.9,2.2c-0.3,0.5-0.4,1.1-0.3,1.9
		c0.8,7.6,2.2,15.1,4.1,22.4C69.1,92.5,66.1,93.1,63.7,94.8z"/>
	<path class="st0" d="M98.9,59.6c0,0.1,0-0.8,0-0.9c0-0.1,0-0.3,0-0.4c0,0.1,0,0,0-0.2c0-0.1,0.4-1.2,0.2-0.8
		c0.8-1.8,0.5-3.9-1.3-4.9c-1.8-1.1-3.7-0.3-4.9,1.3c-0.1,0.1-0.1,0.2-0.2,0.3c-0.4,0.5-0.5,1-0.5,1.6c-0.7,2.2-0.7,4.5,0,6.8
		c0.6,1.8,2.5,3,4.4,2.5c1.8-0.5,3.1-2.6,2.5-4.4C99,60.2,98.9,59.9,98.9,59.6z"/>
	<path class="st0" d="M106.2,114.2l-1-3.2c0.1-0.5,0.2-1,0-1.6c-1.5-8.4-0.4-17-1.7-25.4c-0.6-4-3-8.7-7.7-6
		c-2.2,1.3-2.1,3.8-0.8,5.4c0.4,7.6,0.6,15.3,0.6,22.9c0,0.5,0.1,1,0.3,1.4c-0.1,3.4-0.1,6.8-0.2,10.3c-0.1,3.1,3.1,4.1,5.3,3
		c2.4,0.6,4.8,0.3,5.7-2.4C107.3,117.1,106.7,115.7,106.2,114.2z"/>
	<path class="st0" d="M130.4,127.8c-5.6-12.5-8.8-25.8-9.7-39.4c0-0.6-0.2-1.1-0.5-1.6c-0.7-10.3-0.5-20.6,0.4-30.9
		c0.7-0.6,1.3-1.5,1.3-2.7c0.5-12.9,2.5-25.5,5.8-38c0-0.1,0-0.3,0.1-0.4c0.6-1.8,0.1-4.1-2.2-5c-6.6-2.6-13.3-4.8-20.5-4.4
		c-0.4,0-0.7,0.1-1,0.2C96.3,4.3,88.4,3.5,80.4,3c-0.9-0.1-1.6,0.2-2.2,0.6c-2.4,0.1-4.8,0.3-7.2,0.5c-0.8-0.7-1.9-1.1-3.2-0.6
		c-7.3,2.4-14.8,2.5-22.2,3.9c-0.6-0.2-1.4-0.3-2.3,0.1c-3.1,1.2-6.3,2.3-9.5,3.3C31,11.5,28,12,25.5,13.1c-0.9,0.3-1.8,0.7-2.6,1.1
		c-4.3,2.4-3.1,6.2-1.1,9.8c0,0.4,0,0.9,0.1,1.4c5.9,20.2,9.5,40.9,10.7,61.9c0.1,1.7,1.1,2.8,2.4,3.2c0.1,2.8,0.1,5.7,0.1,8.5
		c0,0.9,0.3,1.7,0.8,2.2c-0.1,11.5,0.1,23,0.6,34.5c0.1,2.3,1.9,3.4,3.7,3.5c0.3,0.7,0.8,1.3,1.5,1.6c0.5,0.4,1.2,0.7,2.1,0.8
		c0.4,0,0.8,0.1,1.2,0.1c0.3,1,1,1.9,2.5,2.2c4,0.8,8,1.4,12.1,1.9c0.6,0.8,1.5,1.3,2.7,1.3c6.3,0.2,14.3,1.8,20.4-0.7
		c0.3,0,0.5,0,0.8,0c0.7,0.4,1.5,0.6,2.5,0.5c13.3-2.1,25.8-7.7,38.2-12.9c1.2,0.4,2.7,0.1,3.7-0.8
		C129.7,132.6,131.6,130.3,130.4,127.8z M95.3,137.2c-0.6-0.3-1.3-0.4-2-0.4c-0.2,0-0.5,0-0.8,0c-4,0.4-8,1-12,2
		c-0.3,0.1-0.6,0.2-0.8,0.3c-2.4-0.1-4.8-0.5-7.2-0.9c-0.4-0.2-0.9-0.2-1.3-0.2c-1.4-0.3-2.9-0.5-4.3-0.8c-6.5-1.2-13.1-2-19.6-2.7
		c0.7-14.4-0.1-28.8-2.3-43.1c0-0.3-0.1-0.6-0.2-0.8c-0.2-16.7-2.6-33.2-7.3-49.2c-1.3-6.9-3.1-13.7-5.7-20.4
		c-0.3-0.7-0.7-1.2-1.2-1.6c0.2,0,0.3,0,0.5-0.1c1.9-0.4,3.7-1,5.6-1.7c3.4-1.2,6.6-2.7,10.2-3.6c5.9-1.4,11.9-1.4,17.9-2.5
		c0.4,0.2,1,0.2,1.6,0.2c5.7-0.6,11.5-1.5,17.3-0.9c5.1,0.5,9.9,1.8,15.1,1.8c0.1,0.1,0.2,0.1,0.4,0.2c3.8,1.5,7.7,2.9,11.5,4.4
		c2.3,0.9,4.4,1.9,6.6,2.2c-1.2,7.3-2,14.6-2.4,21.9c-3.2,17.8-4.3,35.9-3,54c0.1,1.8,1.4,2.9,2.8,3.3c0,0.2,0,0.3,0.1,0.5
		c-0.8,10.1,3.5,18.9,6.4,28.4C112.4,131.1,104,134.7,95.3,137.2z"/>
</g>
<g id="Layer_1">
	<g>
		<g>
			<g>
				<g>
					<polygon points="124.5,8.5 119.9,7.7 117.6,7.3 115.2,7 110.6,6.3 105.9,5.9 103.6,5.6 101.3,5.5 96.6,5.3 91.9,5.2 89.6,5.2 
						87.3,5.2 82.6,5 78,4.9 75.7,4.9 73.3,5 68.7,5.1 64,5.4 61.7,5.6 59.4,5.8 54.7,6.3 50.1,7 47.8,7.4 45.5,7.8 40.9,8.7 
						36.3,9.8 34.1,10.3 31.8,10.9 27.3,12.2 22.8,13.7 20.6,14.4 18.4,15.2 14,16.8 18.3,15 20.5,14 22.7,13.2 27.1,11.5 31.5,10 
						33.8,9.2 36,8.6 40.6,7.3 45.1,6.1 47.4,5.6 49.8,5.1 54.4,4.1 59.1,3.4 61.4,3 63.7,2.7 68.5,2.1 73.2,1.7 75.6,1.5 77.9,1.4 
						82.7,1.3 87.4,1.3 89.8,1.4 92.2,1.7 96.9,2.3 101.6,3 103.9,3.4 106.2,3.9 110.9,4.8 115.4,6 117.7,6.6 120,7.2 					"/>
				</g>
			</g>
		</g>
		<g>
			<g>
				<g>
					<path d="M132.8,133.5c-9.9,4.4-19.8,8.7-30.2,12.2c-5.3,1.3-10.7,2.2-16.1,2.8c-5.4,0.6-10.9,0.8-16.4,0.4
						c-10.9-0.6-21.7-3.4-31-8.9c9.6,4.9,20.4,7,31.1,6.9c5.3,0,10.7-0.5,15.9-1.4c5.2-0.9,10.4-2.2,15.5-3.7
						C112,139.8,122.4,136.6,132.8,133.5z"/>
				</g>
			</g>
		</g>
		<g>
			<g>
				<g>
					<polygon points="129.3,126.3 127.9,121.6 127.1,119.3 126.5,116.9 125.1,112.1 124,107.3 123.4,104.9 122.9,102.5 121.9,97.6 
						121.1,92.8 120.7,90.3 120.3,87.9 120,82.9 119.9,77.9 119.8,75.5 119.8,73 119.9,68 120.1,63.1 120.2,60.6 120.3,58.2 
						120.7,53.2 121.2,48.3 121.5,45.9 121.8,43.4 122.5,38.5 123.4,33.7 123.8,31.3 124.3,28.8 125.3,24 126.5,19.2 127.1,16.8 
						127.8,14.5 129.1,9.8 128,14.5 127.5,16.9 127,19.3 126.1,24.2 125.3,29 124.9,31.4 124.6,33.9 124,38.7 123.6,43.6 123.3,46 
						123.2,48.5 122.9,53.4 122.8,58.3 122.8,60.7 122.8,63.2 122.8,68 123.1,72.9 123.2,75.4 123.4,77.8 123.7,82.6 124.3,87.5 
						124.4,89.9 124.5,92.4 124.9,97.2 125.4,102.1 125.6,104.5 125.9,107 126.6,111.8 127.4,116.7 127.9,119.1 128.4,121.5 					
						"/>
				</g>
			</g>
		</g>
		<g>
			<g>
				<g>
					<path d="M35.4,135.6c0.1-13.2-0.6-26.4-2.2-39.4c-1.1-26.2-5.6-52.3-13.3-77.6c8.9,24.8,14.8,50.9,17.2,77.3
						C37.5,109.2,36.8,122.4,35.4,135.6z"/>
				</g>
			</g>
		</g>
		<g>
			<g>
				<g>
					<polygon points="118.4,19.4 114.7,18.4 112.8,17.9 110.9,17.5 107.1,16.6 103.3,16 101.3,15.7 99.4,15.4 95.6,14.9 91.7,14.6 
						89.8,14.5 87.9,14.4 84.1,13.9 80.2,13.6 78.3,13.5 76.4,13.4 72.5,13.3 68.7,13.3 66.7,13.3 64.8,13.4 60.9,13.6 57.1,14 
						55.1,14.2 53.2,14.5 49.4,15.1 45.6,15.8 43.7,16.2 41.8,16.6 38,17.5 34.3,18.6 32.4,19.2 30.5,19.8 26.9,21.1 30.5,19.6 
						32.3,18.8 34.1,18.2 37.8,16.8 41.5,15.7 43.4,15.1 45.3,14.6 49.1,13.6 52.9,12.8 54.9,12.4 56.8,12.1 60.7,11.4 64.6,11 
						66.6,10.7 68.5,10.6 72.5,10.3 76.4,10.2 78.4,10.1 80.4,10.2 84.3,10.2 88.3,10.5 90.2,10.8 92.2,11.2 96.1,12 99.9,13 
						101.8,13.5 103.7,14 107.5,15.2 111.2,16.5 113,17.2 114.8,17.9 					"/>
				</g>
			</g>
		</g>
		<g>
			<g>
				<g>
					<path d="M115.7,118c-2.5-10.8-4.5-21.8-5.7-33c-0.5-22.4,1.8-44.7,6.6-66.4c-3.5,21.9-4.4,44.2-2.6,66.2
						C113.9,95.9,114.5,107,115.7,118z"/>
				</g>
			</g>
		</g>
		<g>
			<g>
				<g>
					<polygon points="120,127.1 117.2,128.7 115.9,129.5 114.5,130.2 111.6,131.6 108.8,132.9 107.3,133.6 105.8,134.2 102.9,135.3 
						99.8,136.3 98.3,136.9 96.8,137.3 93.6,137.8 90.5,138.2 88.9,138.4 87.3,138.5 84.1,138.7 80.9,138.8 79.3,138.8 77.8,138.8 
						74.6,138.7 71.4,138.5 69.8,138.3 68.3,138.2 65.1,137.8 62,137.3 60.5,137 58.9,136.7 55.9,136 52.8,135.2 51.3,134.8 
						49.8,134.3 46.8,133.3 49.9,134.1 51.4,134.4 52.9,134.7 56,135.3 59.1,135.7 60.6,135.9 62.2,136 65.3,136.3 68.4,136.4 
						70,136.5 71.5,136.5 74.6,136.4 77.7,136.3 79.2,136.2 80.8,136 83.9,135.7 86.9,135.3 88.4,135 90,134.7 93,134.2 96,133.4 
						97.5,133.2 99,133 102.1,132.5 105.1,131.8 106.6,131.5 108.1,131.1 111.1,130.2 114.1,129.3 115.6,128.8 117,128.3 					"/>
				</g>
			</g>
		</g>
		<g>
			<g>
				<g>
					<path d="M49.2,129.8c-0.7-12.4-1.9-24.7-3.7-36.9c-1.6-24.6-5.6-49-11.8-73c7.4,23.6,12.8,47.9,15.7,72.6
						C50,105,49.9,117.4,49.2,129.8z"/>
				</g>
			</g>
		</g>
		<g>
			<g>
				<g>
					<path d="M74,127.5c0.2-3.8,0.1-7.7-0.3-11.5c-0.2-1.9-0.5-3.8-0.8-5.6c-0.2-0.9-0.3-1.9-0.5-2.8l-0.3-1.4l-0.2-0.7
						c-0.1-0.2-0.1-0.4-0.2-0.6c-0.1-0.8-0.3-1.6-0.6-2.1c-0.3-0.5-0.5-0.7-0.9-0.8c-0.3-0.1-0.8,0.1-1.3,0.5
						c-0.5,0.4-0.8,0.9-1,1.7c-0.4,1.5-0.2,3.5-0.4,5.5c-0.1,2-0.4,3.9-0.8,5.8c-0.4,1.9-0.9,3.8-1.5,5.7c-0.6,1.9-1.5,3.8-3,5.2
						c-0.8,0.7-1.7,1.2-2.7,1.4c-1,0.2-2,0.1-3-0.2c-1.9-0.6-3.5-1.7-5.1-2.8c1.6,1,3.3,1.9,5.2,2.3c0.9,0.2,1.8,0.2,2.7-0.1
						c0.9-0.2,1.6-0.7,2.2-1.4c1.2-1.3,1.9-3.1,2.3-4.9c0.4-1.8,0.8-3.7,1-5.6c0.2-1.9,0.3-3.7,0.3-5.6c0-0.9,0-1.8-0.1-2.8
						c0-1-0.1-2,0.1-3.2c0.2-1.1,0.7-2.4,1.6-3.4c0.4-0.5,1-0.9,1.6-1.2c0.6-0.3,1.4-0.5,2.2-0.5c0.8,0,1.6,0.3,2.2,0.7
						c0.7,0.4,1.2,1,1.5,1.5c0.7,1.1,1.1,2.2,1.3,3.3c0,0.3,0.1,0.5,0.1,0.8l0,0.7l0.1,1.5c0,1,0.1,2,0.1,2.9c0,2-0.1,3.9-0.2,5.9
						C75.4,119.9,74.8,123.8,74,127.5z"/>
				</g>
			</g>
		</g>
		<g>
			<g>
				<g>
					<path d="M87,119.5l0.8,3l-0.4,0.1c-3.3-9.4-6.4-18.9-9.2-28.5c-1.1-5.4-2.2-10.8-3.1-16.2l-1.4-8.1c-0.2-1.3-0.5-2.8-0.6-4.2
						c-0.1-1.4-0.2-2.8-0.3-4.1c-0.2-2.7-0.4-5.4-0.9-8.1c-0.5-2.6-1.2-5.3-2.8-7.4c-0.8-1-1.9-1.8-3.1-2.3
						c-1.2-0.5-2.6-0.7-3.9-0.8c-2.7-0.2-5.5,0.1-8.2,0.5c2.7-0.5,5.4-1,8.2-1c1.4,0,2.8,0.2,4.2,0.6c1.4,0.4,2.7,1.2,3.6,2.3
						c1.9,2.2,2.8,5,3.5,7.7c0.7,2.7,1,5.5,1.4,8.2c0.2,1.4,0.4,2.7,0.6,4.1c0.2,1.3,0.5,2.6,0.8,4l1.9,8c1.3,5.3,2.7,10.6,4.1,15.9
						c1.7,9.8,3.6,19.6,5.7,29.3l-0.4,0.1L87,119.5z"/>
				</g>
			</g>
		</g>
		<g>
			<g>
				<g>
					<path d="M86.6,123.6c-1,1.1-2,2.1-3.2,3.1c-2.8,0-5.5-0.3-8.1-0.9c2.6-0.7,4.9-1.7,7.1-3C83.8,123.1,85.2,123.4,86.6,123.6z"/>
				</g>
			</g>
		</g>
		<g>
			<g>
				<g>
					<path d="M54.4,127.2c0.3-8.9,0.4-17.8,0-26.6c1.3-17.6,1-35.4-0.7-53.1c3,17.5,4.6,35.4,4.6,53.3
						C57.4,109.6,56.1,118.4,54.4,127.2z"/>
				</g>
			</g>
		</g>
		<g>
			<g>
				<g>
					<path d="M72.1,92.6c-1.9-2.3-2.9-5.3-3.5-8.2c-0.6-3-0.8-5.9-1.2-8.7c0.1-3-0.2-5.9-1.2-8.5l2.7-0.3c-2.4,8-3.7,16.5-3.8,25
						c-0.9-8.5-0.5-17.2,1-25.7l0.7-4l2,3.7c0.8,1.5,1.5,3.1,1.9,4.8c0.4,1.6,0.6,3.3,0.8,4.9c-0.2,3-0.7,5.9-0.8,8.7
						C70.5,87,70.8,89.9,72.1,92.6z"/>
				</g>
			</g>
		</g>
		<g>
			<g>
				<g>
					<polygon points="69.9,91.8 67.8,94.2 63.8,93.2 62.7,93 63.4,92.5 64.4,91.8 64.1,93 63.7,92.3 67.2,90.2 					"/>
				</g>
			</g>
		</g>
		<g>
			<g>
				<g>
					<path d="M93.1,53.3c0.2-0.5,0.6-1,1.2-1.3c0.6-0.3,1.2-0.4,1.8-0.3c0.6,0,1.3,0.2,1.9,0.6c0.3,0.2,0.6,0.4,0.8,0.7
						c0.2,0.2,0.4,0.5,0.6,0.8c0.7,1.1,1.1,2.4,1.2,3.7c0.2,1.2,0.3,2.4,0.2,3.7c-0.3,1.2-0.7,2.5-1.7,3.7c-0.9,1.2-2.7,2.1-4.3,1.9
						c-1.6-0.1-2.9-1-3.8-2c-0.9-1.1-1.3-2.4-1.4-3.7c-0.1-1.2,0-2.4,0.3-3.6c0.3-1.1,0.7-2.3,1.4-3.3c0.4-0.5,0.8-0.9,1.3-1.2
						c0.5-0.3,1.1-0.5,1.7-0.6c1.1-0.2,2.4,0.2,3.1,1.1c-0.8-0.8-2-0.9-3-0.6c-1,0.3-1.8,1-2.2,1.9c-0.5,0.9-0.7,1.9-0.8,2.9
						c-0.1,1,0,2.1,0.2,3c0.2,0.9,0.7,1.8,1.3,2.3c0.6,0.5,1.4,0.8,2,0.8c0.6-0.1,1-0.4,1.4-1c0.3-0.6,0.5-1.5,0.6-2.4
						c0.3-0.9,0.6-2,0.7-2.9c0.2-1,0.2-1.9,0-2.8c-0.1-0.2-0.1-0.4-0.2-0.6c-0.1-0.2-0.2-0.4-0.3-0.5c-0.3-0.3-0.7-0.6-1.1-0.8
						C95,52.4,93.8,52.4,93.1,53.3z"/>
				</g>
			</g>
		</g>
		<g>
			<g>
				<g>
					<path d="M106.6,120.7c-1.4-5.6-2.6-11.4-3.5-17.2c0-2.9,0.2-5.8,0.3-8.8c0.1-1.5,0.2-2.9,0.3-4.4c0.1-1.4,0.2-2.8,0.2-4.2
						c0-1.4-0.2-2.7-0.7-3.9c-0.5-1.2-1.3-2.4-2.4-3.1c-1.1-0.8-2.5-1.1-3.8-0.7c-1.3,0.3-2.6,1.3-3,2.7c0.2-1.5,1.4-2.7,2.9-3.2
						c1.4-0.6,3.1-0.4,4.5,0.4c2.8,1.5,4.2,4.8,4.6,7.7c0.2,1.5,0.3,3,0.3,4.5c0.1,1.4,0.1,2.9,0.2,4.3c0.2,2.9,0.4,5.7,0.7,8.6
						C106.7,109.1,106.5,114.9,106.6,120.7z"/>
				</g>
			</g>
		</g>
		<g>
			<g>
				<g>
					<path d="M95.2,117.4c-0.3-4.1-0.7-8.1-1.4-12.1c0.7-7.9,0.8-16,0.2-24.1c1.9,7.9,3.2,15.9,3.8,24.1
						C97.1,109.4,96.2,113.5,95.2,117.4z"/>
				</g>
			</g>
		</g>
		<g>
			<g>
				<g>
					<polygon points="106.7,120.6 102.8,122.8 94.7,121.3 102.6,118.9 					"/>
				</g>
			</g>
		</g>
	</g>
</g>
</svg>
