<?xml version="1.0" encoding="utf-8"?>
<!-- Generator: Adobe Illustrator 21.0.0, SVG Export Plug-In . SVG Version: 6.00 Build 0)  -->
<svg version="1.1" xmlns="http://www.w3.org/2000/svg" xmlns:xlink="http://www.w3.org/1999/xlink" x="0px" y="0px"
	 viewBox="0 0 150 150" style="enable-background:new 0 0 150 150;" xml:space="preserve">
<style type="text/css">
	.st0{fill:#2246E8;}
	.st1{fill:#797A7C;}
</style>
<g id="Layer_2">
	<path class="st0" d="M127.9,47c0-1-0.5-2-1.7-2.7c-4-2.1-8.2-3.9-12.5-5.3c-0.7-0.2-1.3-0.2-1.9-0.1c-2.5-1.3-5.2-2.2-8-2.6
		c-1-0.1-1.8,0.1-2.5,0.5c-3.1-0.8-6.2-1.5-9.4-2c-2.2-0.3-3.9,0.8-4.9,2.4c-20.2-1-40,4.9-58.8,13.1c-0.7,0.3-1.2,0.7-1.5,1.1
		c-0.2,0-0.5,0-0.7,0c-1.8,0.1-3.4,1.5-3.4,3.4c0,1.6,1.2,3.1,2.8,3.4c0.2,0.3,0.4,0.6,0.6,0.8c4.7,4.8,8.5,10.3,11.3,16.3
		c0.9,3.6,1.6,7.2,2.2,10.9c0.2,1.1,0.6,1.9,1.3,2.4c0.2,1.5,0.5,3,0.8,4.5c-0.2,0.7-0.2,1.4,0,2.2c2.5,9.9,4,19.9,4.5,30.1
		c0,0.4,0.1,0.8,0.2,1.2c0.1,0.8,0.3,1.4,0.6,2c-0.8,2.8,1.5,6.9,5.5,6.3c7.9-1.1,20.1,0.4,26.9,5c0.4,0.3,0.9,0.5,1.3,0.6
		c0.2,0.2,0.4,0.4,0.5,0.6c0.1,0.1,0.2,0.2,0.2,0.2c0,0.1,0.1,0.1,0.2,0.3c1,1.4,2.6,2.3,4.3,2.3c1.5,0.7,3.3,0.6,4.8-1
		c2.7-3,5.5-6,8.2-8.9c2.2-2.3,4.6-6.1,7.8-6.8c1.3-0.3,2.2-1,2.7-1.8c0.8-0.7,1.4-1.8,1.4-3.2c0.1-5.1,0.5-10.2,0.9-15.3
		c0.8-0.5,1.5-1.4,1.7-2.7c2.8-16.8,7.2-33.3,13.1-49.2c0.8-0.6,1.4-1.5,1.6-2.5C129.2,50.8,129.1,48.6,127.9,47z M115.8,58.5
		c-0.1,0.1-0.2,0.2-0.3,0.3c-1.7,1.9-3.1,4-4.1,6.3c-0.4,0.9-0.6,1.8-0.5,2.7c0,0.1-0.1,0.1-0.1,0.2c-3,5.6-4,11.6-4.7,17.7
		c-0.3,0.4-0.5,1-0.6,1.6c-1.8,10.1-2.9,20.2-3.4,30.4c-4.2,1.7-7.6,5.7-10.5,9c-0.8,1-1.3,2.1-1.3,3.3c-1.1,1.2-2.3,2.5-3.4,3.7
		c-1.7-1.8-3.5-3.5-5.6-5c-1.2-0.8-2.8-0.8-4.1-0.2c-6-2.2-13-3.1-19.5-3c-0.5-5.6-1.2-11.2-2.3-16.8c-0.1-0.6-0.3-1.1-0.6-1.5
		c-0.1-1.1-0.2-2.1-0.2-3.2c0.5,0.2,1,0.4,1.7,0.3c3.9-0.2,7.8-0.4,11.7-0.6c0.3,0.2,0.7,0.5,1.1,0.6v7.7c0,3.9,4,5.2,6.7,3.9
		c0.1,0.1,0.2,0.2,0.3,0.3c0.6,0.7,1.2,1.3,2,1.8c1.4,0.8,2.8,0.9,4.4,0.6c1.1-0.2,2.2-1.2,2.7-2.1c0.1-0.2,0.2-0.5,0.3-0.7
		c1.9,0,3.7-1,4.4-3c1.7-0.7,2.7-2.2,2.9-4.2c0.2-2,0.5-3.9,1.2-6.1c0.2-0.7,0.2-1.5,0-2.3c0-0.1,0.1-0.1,0.1-0.2
		c2.4-3.4-1.6-7.7-5.2-6.7c-1.3,0.4-2.4,0.9-3.4,1.8c-5,0.1-10,0.1-14.9,0.2c-1.5,0-2.6,0.6-3.3,1.5c-3.7,0.2-7.4,0.4-11.1,0.6
		c-0.9,0-1.6,0.4-2.1,0.9c-0.3-3.5-0.7-6.9-1.1-10.4c1.2-0.9,2.3-1.7,3.5-2.6c0.4-0.3,0.7-0.6,0.9-0.9C67.4,82.4,77.7,82,88,83.6
		c1.3,0.2,2.5-0.1,3.4-0.7c2.2-0.1,4.4-1.5,4.4-4.4c0-5.2,6.5-13.5-1-16.5c-6.9-2.7-16.2-1.5-23.1,0.6c-0.6,0.2-1.1,0.5-1.6,0.8
		c-3.8-0.1-7.5,0.7-10.9,2.7c-0.6,0.4-1.1,0.8-1.5,1.3c-4.1,1-8.1,2.1-12.1,3.4c-1-3.9-2.2-7.8-3.5-11.6c0,0,0,0,0-0.1
		c5-2.2,10.2-4.1,15.5-5.6c2.4-0.7,3.4-2.7,3.2-4.6c12.7-2.9,25.8-3.6,38.9-0.7c1.6,0.4,3-0.1,3.9-0.9c4.8,1.7,9.4,4,13.8,6.8
		C116.8,55.5,116.3,57,115.8,58.5z"/>
	<path class="st1" d="M56.4,21.7c-2,0.1-4.1,0.4-6.1,0.8c0.1-2.1,0-4.2-0.2-6.2c1.7-0.6,3.6-1,5.1-1.6c4.2-1.4,2.4-8-1.8-6.6
		c-3,1-6.6,1.7-9.3,3.5c-1.5,1-2.2,3-1.2,4.7c0.1,0.2,0.3,0.4,0.4,0.5c0.2,2.4,0.3,4.7,0.1,7.1c-0.1,1.1,0.5,2.1,1.4,2.7
		c0.1,2,1.7,4,4.2,3.3c2.4-0.7,4.9-1.2,7.4-1.3C60.8,28.3,60.8,21.5,56.4,21.7z"/>
	<path class="st1" d="M82.3,12C82.1,10.5,81,9.2,79,9.2c-1,0-2.1,0-3.1,0c0.5-0.1,1-0.2,1.6-0.3c0,0,0.9-0.1,0.8-0.1
		c0.1,0,1.1,0,0.7,0c1.8,0.3,3.8-0.4,4.2-2.4c0.4-1.6-0.5-3.9-2.4-4.2c-2.6-0.4-4.9,0-7.4,0.6C72.6,2.9,72,3.4,71.5,4
		c-0.3-0.1-0.6-0.1-0.9-0.1c-1.8,0.1-3.5,1.5-3.4,3.4c0.1,1.3,0,2.6-0.1,3.9c-0.1,0.6,0.1,1.2,0.4,1.7c0.1,1.7,1.6,3.5,3.4,3.3
		c1.7-0.2,3.3-0.2,5-0.3c-0.2,1.1-0.3,2.3-0.5,3.4c-1.3,0-2.7,0-4-0.1c-1.9,0-3.4,1.6-3.4,3.4c0,1.9,1.6,3.4,3.4,3.4
		c2,0,4.1,0.1,6.1,0.1c1.3,0,2.4-0.7,3-1.8c0.7-0.4,1.2-1.1,1.3-1.9c0.3-2.3,0.4-4.9,1-7.1c0.4-0.9,0.4-1.9-0.2-2.9
		C82.6,12.4,82.5,12.2,82.3,12z"/>
	<path class="st1" d="M99.2,9.7c1.8-0.3,3.6-0.1,5.3,0.4c4.3,1.2,6.1-5.5,1.8-6.6c-3-0.8-5.9-0.9-9-0.4c-0.1,0-0.3,0.1-0.4,0.1
		c0,0-0.1,0-0.1,0c-1.8-0.4-3.7,0.5-4.2,2.4c-0.2,0.8-0.4,1.6-0.7,2.4c-0.3,0.9-0.3,0.9-0.8,1.8c-0.8,1.6-0.5,3.8,1.2,4.7
		c1.3,0.7,3,0.6,4.1-0.4c0.4,0.3,0.9,0.5,1.4,0.6c0.9,0.1,1.7,0.2,2.6,0.4c-0.5,1.6-1,3.1-1.7,4.6c-1.1-0.2-2.2-0.4-3.3-0.6
		c-1.8-0.3-3.7,0.5-4.2,2.4c-0.4,1.6,0.6,3.9,2.4,4.2c2.2,0.3,4.4,0.7,6.5,1.3c2.4,0.6,4.1-1.2,4.2-3.2c1.1-2.5,2.1-5,2.9-7.6
		c0.4-1.4,0-2.5-0.8-3.2c-0.2-0.4-0.5-0.7-0.9-0.9c-2.3-1-4.7-1.7-7.2-2c0-0.1,0.1-0.2,0.1-0.3C98.8,9.8,99,9.8,99.2,9.7z"/>
</g>
<g id="Layer_1">
	<g>
		<g>
			<g>
				<g>
					<path d="M55.3,7.7c-1.1,0.9-2.2,1.8-3.4,2.7c-2.8,0.6-5.6,1-8.4,1.1c2.7-0.9,5.2-2,7.6-3.3C52.4,8.1,53.8,7.9,55.3,7.7z"/>
				</g>
			</g>
		</g>
		<g>
			<g>
				<g>
					<path d="M43.8,10.4c0.3,2.2,0.6,4.3,1,6.4c-0.3,4.2-0.2,8.5,0.2,12.8c-1.2-4.1-2-8.4-2.5-12.7C42.9,14.6,43.3,12.5,43.8,10.4z"
						/>
				</g>
			</g>
		</g>
		<g>
			<g>
				<g>
					<polygon points="45.8,31 50.4,28.4 60.5,26.5 51.1,30.6 					"/>
				</g>
			</g>
		</g>
		<g>
			<g>
				<g>
					<polygon points="51.3,22.8 53.9,21 59.9,20.6 54.4,23.2 					"/>
				</g>
			</g>
		</g>
		<g>
			<g>
				<g>
					<polygon points="60.5,20.3 61.7,22.1 60.7,25.9 59.4,22.2 					"/>
				</g>
			</g>
		</g>
		<g>
			<g>
				<g>
					<polygon points="49.8,15.5 51.3,18.1 50.9,23.8 49.1,18.4 					"/>
				</g>
			</g>
		</g>
		<g>
			<g>
				<g>
					<polygon points="50.4,15.8 52.7,14 58.2,13.6 53.3,16.2 					"/>
				</g>
			</g>
		</g>
		<g>
			<g>
				<g>
					<polygon points="56.2,7.1 57.8,9 57.8,13.7 55.6,9.6 					"/>
				</g>
			</g>
		</g>
		<g>
			<g>
				<g>
					<polygon points="66.3,4.7 67.5,9 66.5,17.6 65.3,9 					"/>
				</g>
			</g>
		</g>
		<g>
			<g>
				<g>
					<polygon points="66.8,15.7 70.2,14.1 77.6,14.3 70.5,16.3 					"/>
				</g>
			</g>
		</g>
		<g>
			<g>
				<g>
					<polygon points="75.7,14.6 75.8,14.3 75.9,14 75.9,14.4 76.8,18.7 76.8,18.8 76.6,19.8 75.9,19.9 66.7,20.3 75.5,17.7 
						74.6,18.7 74.6,18.6 75.8,14.4 75.9,14.4 					"/>
				</g>
			</g>
		</g>
		<g>
			<g>
				<g>
					<path d="M67.4,20.5c0.6,0.6,1.1,1.1,1.7,1.7c0,1.5,0,3-0.1,4.5c-0.6-1.3-1.3-2.6-2.1-3.9C67.1,22.1,67.2,21.3,67.4,20.5z"/>
				</g>
			</g>
		</g>
		<g>
			<g>
				<g>
					<path d="M69,26.7c1.4-0.7,2.9-1.3,4.4-1.9c3.2,0,6.3,0.4,9.3,1.1c-3.1,0.1-6.2,0.5-9.1,1.2C72.1,26.9,70.6,26.7,69,26.7z"/>
				</g>
			</g>
		</g>
		<g>
			<g>
				<g>
					<path d="M82.3,3.1l0.5,2.4L83,6.7l0.1,0.6c0,0.2,0.1,0.5,0,0.9c-0.2,0.4-0.7,0.6-0.9,0.6C81.9,9,81.7,9,81.5,9l-1.2,0.1
						l-2.5,0.3l-1.2-0.1c-0.4,0-0.8-0.1-1,0c-0.2,0-0.3,0.1-0.3,0.1c0.1,0-0.2,0-0.2,0l0.1,0l0,0c0,0,0,0,0,0c0,0,0,0,0.1-0.1
						c0,0,0,0,0,0c0.1,0.1,0.4,0.1,0.7,0.1l1.2,0l2.5-0.1l1.2,0c0.4,0,0.9,0,1.4,0.2c0.5,0.1,1,0.6,1.1,1.1c0.1,0.5,0,0.9,0,1.3
						L83,16.9L82.6,12c0-0.4,0-0.8-0.2-1.1c-0.1-0.3-0.3-0.4-0.6-0.5c-0.6-0.1-1.5,0.1-2.3,0.2l-2.5,0.3L75.9,11
						c-0.5,0-1,0.1-1.7-0.2c-0.3-0.2-0.7-0.5-0.8-1c-0.1-0.5-0.1-0.9,0.1-1.3c0.3-0.7,1-1.1,1.6-1.2c0.6-0.1,1-0.1,1.4-0.2l1.2-0.1
						l2.5,0.3l1.2,0.1L82,7.6c0.1,0,0.1,0,0.1,0.1c0,0.1,0.1-0.1,0.1-0.3l0-0.6l0-1.2L82.3,3.1z"/>
				</g>
			</g>
		</g>
		<g>
			<g>
				<g>
					<polygon points="83,13.7 84.2,17.8 83.2,26.2 81.9,17.9 					"/>
				</g>
			</g>
		</g>
		<g>
			<g>
				<g>
					<path d="M66.2,5.4c1.6-1.2,3.3-2.3,5.2-3.1c4-0.6,8.1-0.3,11.8,0.8c-3.9-0.4-7.7,0.1-11.2,1.4C70,4.6,68.1,4.9,66.2,5.4z"/>
				</g>
			</g>
		</g>
		<g>
			<g>
				<g>
					<polygon points="92.3,3.3 92.7,7.7 90.1,16 90.5,7.3 					"/>
				</g>
			</g>
		</g>
		<g>
			<g>
				<g>
					<polygon points="90.7,14.2 94.4,13.3 101.6,14.8 94.3,15.5 					"/>
				</g>
			</g>
		</g>
		<g>
			<g>
				<g>
					<polygon points="99.7,14.8 99.8,14.5 99.9,14.3 99.9,14.6 100,19 100,19.1 99.6,20.1 98.9,20 89.8,18.7 98.9,17.8 97.8,18.6 
						97.8,18.5 99.8,14.6 99.9,14.6 					"/>
				</g>
			</g>
		</g>
		<g>
			<g>
				<g>
					<path d="M90.4,19c0.5,0.7,0.9,1.3,1.3,2c-0.3,1.5-0.6,2.9-0.9,4.4c-0.4-1.4-0.8-2.8-1.3-4.2C89.8,20.5,90.1,19.8,90.4,19z"/>
				</g>
			</g>
		</g>
		<g>
			<g>
				<g>
					<path d="M90.8,25.4c1.5-0.4,3.1-0.7,4.7-1c3.1,0.6,6.1,1.6,9,2.8c-3.1-0.5-6.1-0.7-9.2-0.6C93.9,26.2,92.4,25.8,90.8,25.4z"/>
				</g>
			</g>
		</g>
		<g>
			<g>
				<g>
					<path d="M108.4,4.7l0,2.5l0,1.2l0,0.6c0,0.2,0,0.5-0.2,0.9c-0.3,0.4-0.8,0.5-1,0.5c-0.3,0-0.5,0-0.7,0l-1.2-0.1l-2.5-0.2
						l-1.2-0.3c-0.4-0.1-0.8-0.2-1-0.2c-0.2,0-0.3,0-0.4,0c0.1,0-0.2-0.1-0.2,0l0.1,0l0,0c0,0,0,0,0,0c0,0,0,0,0.1-0.1c0,0,0,0,0,0
						c0,0.1,0.4,0.2,0.7,0.3L102,10l2.4,0.4l1.2,0.2c0.4,0.1,0.9,0.2,1.3,0.4c0.5,0.2,0.8,0.8,0.8,1.3c0,0.5-0.1,0.9-0.2,1.3
						l-1.1,4.8l0.5-4.9c0-0.4,0.1-0.8,0.1-1.1c0-0.3-0.2-0.5-0.5-0.6c-0.6-0.2-1.5-0.2-2.3-0.2l-2.5-0.1l-1.2-0.1
						c-0.5,0-1-0.1-1.6-0.5c-0.3-0.2-0.6-0.6-0.6-1.1c-0.1-0.5,0.1-0.9,0.3-1.2c0.4-0.6,1.2-0.9,1.8-0.9c0.6,0,1,0.1,1.4,0.1
						l1.2,0.2l2.4,0.7l1.2,0.4l0.5,0.2c0.1,0,0.1,0,0.1,0.1c0,0.1,0.1-0.1,0.1-0.3l0.1-0.6l0.3-1.2L108.4,4.7z"/>
				</g>
			</g>
		</g>
		<g>
			<g>
				<g>
					<polygon points="107,15.3 107.4,19.6 104.9,27.6 105.2,19.2 					"/>
				</g>
			</g>
		</g>
		<g>
			<g>
				<g>
					<path d="M92.1,4c1.8-0.9,3.7-1.6,5.7-2.1c4.1,0.1,8,1.2,11.4,3c-3.7-1.1-7.6-1.3-11.3-0.7C96,3.9,94,3.8,92.1,4z"/>
				</g>
			</g>
		</g>
		<g>
			<g>
				<g>
					<path d="M20.4,53.9c11.3-5.4,22.7-10.7,34.8-14.8c6.1-1.6,12.4-2.8,18.7-3.6c6.3-0.7,12.7-1,19-0.6c12.6,0.7,25.2,4,35.9,10.6
						c-11.1-6-23.6-8.6-36-8.6c-6.2-0.1-12.4,0.6-18.5,1.6c-6.1,1.1-12.1,2.6-18,4.5C44.1,45.6,32.2,49.7,20.4,53.9z"/>
				</g>
			</g>
		</g>
		<g>
			<g>
				<g>
					<path d="M111.5,125.8c-0.6-9.3-0.6-18.7,0.3-28.1c3.6-18.5,10.3-36.3,19.4-52.5C123.3,62,118,80,115.8,98.3
						C113.6,107.2,112.3,116.5,111.5,125.8z"/>
				</g>
			</g>
		</g>
		<g>
			<g>
				<g>
					<path d="M21.9,54.8c6.4,6.5,11.5,14.2,15.5,22.5c3.1,8.7,5,17.6,6.4,26.6c1.3,9,2,18,2.8,27c-1.4-8.9-2.8-17.9-4.7-26.6
						c-1.9-8.8-4.5-17.4-8.1-25.5C31.1,70.3,27.2,62.1,21.9,54.8z"/>
				</g>
			</g>
		</g>
		<g>
			<g>
				<g>
					<path d="M45.5,134.1c5.6-1.1,11.5-1.6,17.4-1.1c11.5,2.7,22,8.3,30.4,16.1c-9.2-6.7-20.1-10.9-31.1-12.2
						C56.8,135.2,51.2,134.3,45.5,134.1z"/>
				</g>
			</g>
		</g>
		<g>
			<g>
				<g>
					<path d="M88.3,146.2c1.4-3.7,3.3-7.3,5.6-10.7c6-5.4,13.1-9.5,20.5-11.8c-6.9,3.6-13,8.6-17.6,14.5
						C93.7,140.6,90.9,143.3,88.3,146.2z"/>
				</g>
			</g>
		</g>
		<g>
			<g>
				<g>
					<path d="M86.7,135.9c0.1-3,0.6-6,1.6-9c3.7-5,8.7-8.8,14.2-10.8c-4.8,3.3-8.6,7.8-10.7,12.8C89.7,130.9,88.1,133.2,86.7,135.9z
						"/>
				</g>
			</g>
		</g>
		<g>
			<g>
				<g>
					<path d="M101.7,115.6c-0.8-7.5-1-15.3-0.3-22.9c3.2-15.1,9.4-29.4,17.9-41.9c-7.4,13.2-12.1,27.8-13.9,42.6
						C103.4,100.5,102.2,108,101.7,115.6z"/>
				</g>
			</g>
		</g>
		<g>
			<g>
				<g>
					<polygon points="41.4,60.2 44.2,58.3 45.5,57.4 47,56.5 49.8,54.8 52.8,53.3 54.3,52.5 55.8,51.8 58.9,50.4 62.1,49.2 
						63.7,48.6 65.3,48.1 68.6,47.4 71.9,46.9 73.6,46.7 75.3,46.5 78.6,46.2 82,46.1 83.7,46 85.4,46 88.7,46.1 92.1,46.3 
						93.7,46.5 95.4,46.7 98.7,47.1 102,47.7 103.6,48 105.3,48.4 108.5,49.2 111.7,50.2 113.3,50.7 114.8,51.3 117.9,52.5 
						114.7,51.5 113.2,51.1 111.5,50.7 108.3,50 105.1,49.4 103.4,49.1 101.8,48.9 98.5,48.6 95.3,48.4 93.6,48.3 92,48.3 
						88.7,48.3 85.4,48.5 83.8,48.6 82.2,48.8 78.9,49.2 75.7,49.7 74.1,50 72.5,50.3 69.4,51 66.2,51.9 64.6,52.2 63,52.5 
						59.9,53.2 56.7,54.1 55.1,54.6 53.6,55.1 50.5,56.2 47.4,57.4 45.9,58.1 44.4,58.8 					"/>
				</g>
			</g>
		</g>
		<g>
			<g>
				<g>
					<path d="M42,60c1.7,3,2.9,6.4,3.6,9.9L44,69c2.4-1.3,4.9-2.5,7.4-3.7C63.5,62,76,60.5,88.4,60.8c-12.3,1-24.4,3.9-35.7,8.3
						c-2.6,0.6-5.2,1.2-7.8,2l-1.6,0.4l0-1.4C43.4,66.8,43,63.3,42,60z"/>
				</g>
			</g>
		</g>
		<g>
			<g>
				<g>
					<path d="M81,60.2l15-2.6l5,0.1l2.5,0.1l-0.9,2.1c-3.1,7.6-5.3,15.8-6.3,24.1c-0.1-8.4,1-16.9,3.2-25.2L101,61l-4.9,0.5L81,60.2
						z"/>
				</g>
			</g>
		</g>
		<g>
			<g>
				<g>
					<path d="M93.1,83.6l-24.4,3.9l-6.3,0.2c-1,0-2.1,0.1-3.1,0.1c-1,0.1-1.9,0.2-2.6,0.5c-0.7,0.3-1.2,0.8-1.6,1.5
						c-0.4,0.7-0.5,1.6-0.5,2.5c0,1.8,0.9,3.7,1.8,5.5l-1-0.5l24-2l-23.8,4L55,99.3l-0.4-0.6c-1-1.8-2.2-3.8-2.5-6.3
						c-0.1-1.2,0-2.5,0.5-3.7c0.5-1.2,1.5-2.4,2.7-3c1.2-0.7,2.4-0.9,3.5-1.1c1.1-0.2,2.1-0.3,3.2-0.4l6.3-0.7L93.1,83.6z"/>
				</g>
			</g>
		</g>
		<g>
			<g>
				<g>
					<path d="M75.5,96.3c3.6-1.4,7.3-2.5,11.1-3.5c2.9,0,5.8,0.2,8.6,0.5l1.7,0.2l-0.6,1.4c-1.7,4.3-2.6,8.9-2.5,13.7
						c-0.9-4.7-0.9-9.6,0.1-14.4l1.2,1.6c-2.8,0.2-5.6,0.5-8.3,1C83.2,96.4,79.4,96.2,75.5,96.3z"/>
				</g>
			</g>
		</g>
		<g>
			<g>
				<g>
					<path d="M94.2,109.7c-3.3,3.4-6.2,7.1-8.7,10.9c-0.6,0.5-1.1,1.1-1.6,1.6l-1.7,1.7l-1.2-1.8c-1-1.6-2.4-2.9-4.1-3.9
						c-0.8-0.5-1.7-0.9-2.7-1.2c-0.5-0.2-0.9-0.3-1.4-0.4c-0.5-0.1-1.1-0.2-1.7-0.3c-0.6-0.2-1.3-0.5-1.8-1.1
						c-0.4-0.6-0.6-1.2-0.7-1.8c-0.2-1.1-0.2-2.2-0.4-3.2l-0.7-6.4l1.6,6.2c0.3,1,0.5,2.1,0.8,3.1c0.2,0.5,0.4,0.9,0.6,1.1
						c0.3,0.2,0.6,0.3,1,0.4c0.8,0.1,2.1,0,3.2,0.3c1.1,0.2,2.3,0.5,3.4,1c2.2,0.9,4.2,2.3,5.8,4.1l-2.8-0.1c0.5-0.7,1-1.3,1.5-1.9
						C86.2,114.8,90.1,112.1,94.2,109.7z"/>
				</g>
			</g>
		</g>
		<g>
			<g>
				<g>
					<path d="M66.1,104.2l-5,1.7l-2.5,0.8c-0.4,0.1-0.8,0.3-1,0.4c0,0-0.1,0.1-0.1,0.1c0,0,0,0.1,0,0c-0.1-0.1-0.1-0.1-0.1-0.2
						c-0.1-0.1-0.1-0.1-0.1-0.1l0,0l0,0l0,0c0,0-0.1,0,0.1,0l0,0l0,0l0,0c0,0,0,0,0,0c0,0,0.3,0.1,0.5,0.1c0,0,0,0.1,0,0.2
						c0,0.2,0.1,0.5,0.2,0.9c0.2,0.9,0.5,1.7,0.7,2.6c0.4,1.8,0.7,3.5,0.8,5.3c0.3,3.5,0.2,7.1-0.3,10.5c-0.1-3.5-0.7-6.9-1.6-10.2
						c-0.5-1.6-1.1-3.2-1.7-4.8c-0.3-0.8-0.7-1.5-1.1-2.3c-0.2-0.4-0.4-0.9-0.6-1.6c-0.1-0.6-0.2-1.5,0.2-2.5
						c0.3-0.4,0.7-0.8,1.1-1.1c0.4-0.2,0.8-0.4,1.1-0.4c0.7-0.1,1.2-0.1,1.6,0l2.6,0.1L66.1,104.2z"/>
				</g>
			</g>
		</g>
		<g>
			<g>
				<g>
					<path d="M59.9,126.2c3.2-1.3,6.8-2.1,10.5-2.2c7.1,1.6,13.4,5.6,17.8,10.9c-5.3-4.4-11.9-6.8-18.3-7
						C66.8,126.8,63.4,126.3,59.9,126.2z"/>
				</g>
			</g>
		</g>
	</g>
</g>
</svg>
