<?xml version="1.0" encoding="utf-8"?>
<!-- Generator: Adobe Illustrator 21.0.0, SVG Export Plug-In . SVG Version: 6.00 Build 0)  -->
<svg version="1.1" xmlns="http://www.w3.org/2000/svg" xmlns:xlink="http://www.w3.org/1999/xlink" x="0px" y="0px"
	 viewBox="0 0 150 150" style="enable-background:new 0 0 150 150;" xml:space="preserve">
<style type="text/css">
	.st0{fill:#F78343;}
	.st1{fill:#FBA12C;}
</style>
<g id="Layer_2">
	<path class="st0" d="M79.5,61.4c-0.1-0.3-0.2-0.5-0.4-0.7c-0.1-0.5-0.2-0.9-0.3-1.4c-0.3-1.7-0.6-3.5-1-5.2
		c-1.6-7-4.7-12.9-8.2-19.2c-0.5-1-1.4-1.3-2.2-1.2c-1.6-2.7-3.4-5.3-5.6-7.5c-4.2-4.1-9.9-4.4-15.1-6.5c-0.7-0.3-1.3-0.2-1.8,0
		c-1.9-0.6-3.9-1-6.2-0.8c-0.3-0.2-0.7-0.3-1.1-0.4c-3.2-0.3-6.3-0.3-9.4,0c-0.4-0.3-0.9-0.5-1.5-0.5c-4.6-0.1-9.2,0.2-13.7,0.8
		c-3.1,0.4-6.9,0.6-9.2,3.1c-1.8,2,0.6,4.9,2.5,4.1c0.1,1,0.8,1.9,1.8,2.3c-0.1,1.1,0.8,2.2,1.9,2.6c-1.9,1.7,0.4,5.2,3,3.8
		c10.8-5.8,26.6-1.8,36.4,6c1.5,2.2,3,4.2,4.7,6.1c5.1,7.8,6.7,16.6,7.2,25.8c-0.4,3.2-0.7,6.3-0.9,9.5c-1.9-0.1-3.7,2.4-1.9,4.1
		c4.5,4.3,9.3,8.1,14.4,11.5c2.2,1.5,4.2-1.3,3.3-3.2c0.3-0.3,0.6-0.7,0.7-1.2c0.1-0.5,0.2-1,0.3-1.4c0.8-0.3,1.5-1,1.6-2.1
		c0.1-1.3,0.1-2.6,0.1-3.9c0.7-0.2,1.2-0.7,1.5-1.6c0.3-1.1,0.4-2.3,0.5-3.4c0.2-0.3,0.4-0.6,0.4-1.1C82.2,73.5,81.7,67.4,79.5,61.4
		z"/>
	<path class="st0" d="M130.5,19c-0.3-0.4-0.8-0.8-1.3-1c-1.3-0.4-2.5-0.8-3.6-1.3c-0.1-0.1-0.3-0.1-0.4-0.2
		c-0.1-0.9-0.5-1.8-1.6-2.3c-2.9-1.2-6-2-9.1-2.6c-4.5-2.1-9.2-3.2-14.1-3.6c-1.8-0.6-3.6-1-5.5-1.3C86.4,5.5,77.6,4.9,69,5.5
		c-0.1,0-0.2,0-0.3,0c-0.1,0-0.2-0.1-0.3-0.1c-2.9-1.1-4.2,3.6-1.3,4.7c2.4,0.9,4.8,2,7.2,3.3c-1.6,1.7,0.2,4.7,2.4,4
		c-0.1,1.6,1.7,3.4,3.7,2.6c0.1-0.1,0.3-0.1,0.4-0.1c0.5,0.9,0.9,1.9,1.4,2.8c0.4,0.8,1.1,1.2,1.8,1.2c0.5,0.5,1.3,0.8,2.2,0.6
		c9.4-2,18.8-2,27.9-0.1c0.2,0.1,0.4,0.1,0.6,0.2c4,2.5,7.5,6.3,9.5,10.5c0.4,0.9,0.8,1.8,1.1,2.8c0,0.1,0,0.3,0,0.4
		c-0.2,7.1-4,10.7-9.2,14.8c-0.1,0.1-0.2,0.2-0.2,0.2c-2.9,1.1-6,1.4-9.4,0.9c-1.1-0.2-2,0.4-2.5,1.1c-1.9-1.3-5,0.9-3.5,3.2
		c4.8,7.1,9.4,14.3,14.5,21.2c1.8,2.5,6,0.1,4.2-2.4c-0.2-0.3-0.4-0.6-0.6-0.8c5-1.4,9-3.9,12.5-7.2c0.2-0.1,0.4-0.1,0.5-0.2
		c6.1-3.5,10.8-11,12.5-18.4c0.9,0,1.7-0.5,1.9-1.7C148.1,35.6,141.5,23.9,130.5,19z"/>
	<path class="st1" d="M74.4,100.5c0-1.4-0.9-2.7-2.6-3.4c-0.2-0.1-0.3-0.1-0.5-0.1c-1.7-2.1-3.7-3.9-5.8-5.6
		c-1.9-1.5-4.2-3.9-6.6-4.4c-2.7-0.5-4,2.9-2.3,4.3c-2.8,5.3-6.4,9.9-10.6,13.9c-0.5-0.1-1.1,0-1.7,0.4c-5.5,3.6-11.2,6.6-17.3,8.9
		c-1.1,0.4-1.6,1.4-1.6,2.4c0,0.1,0,0.1-0.1,0.2c-1,5.4-2.5,10.5-4.6,15.5c-1.1,2.6,2.5,3.8,4.2,2.1c0.1,0,0.2-0.1,0.3-0.1
		c1-0.5,2.1-1,3.1-1.6c0.6,1,1.9,1.7,3.2,0.9c2.1-1.2,4.2-2.4,6.3-3.5c0.6,1,1.9,1.7,3.3,0.9c3.2-1.8,6.4-3.7,9.2-6
		c0.6,0.2,1.2,0.1,1.8-0.3c6.8-4.6,13.5-9.5,17.1-16.9c1.2-1.4,2.4-2.8,3.5-4.2c0.5-0.1,0.9-0.3,1.2-0.6
		C74.7,102.4,74.8,101.4,74.4,100.5z"/>
	<path class="st1" d="M133.7,99.3c0-1.5-1.2-2.3-2.4-2.3c-0.9-3.9-2.7-7.5-5.4-10.5c-0.6-0.7-1.4-0.9-2-0.7c-1-0.9-1.9-2-2.8-3
		c0,0,0-0.1,0-0.1c-0.2-0.8-0.7-1.3-1.3-1.6c-1-1.3-2.1-2.6-3.2-3.7c-1-1-2.1-1.9-3.2-2.7c-1.1-1.6-2.1-3.1-3.2-4.7
		c-0.5-0.8-0.9-1.7-1.4-2.5c-0.2-0.3-0.4-0.6-0.6-0.9c-0.6-1.1-1.2-2.2-1.8-3.4c-0.1-0.3-0.1-0.5-0.3-0.7c-0.2-0.2-0.3-0.5-0.5-0.7
		c-0.2-0.4-0.5-0.8-0.7-1.2c-0.5-0.9-0.8-1.8-1.1-2.8c-0.2-0.8-0.6-1.6-1.4-2.1c-0.2-0.1-0.4-0.2-0.6-0.3c-0.5-0.7-1.2-0.9-1.9-0.7
		c-0.6-0.4-1.4-0.5-2.1-0.2c-0.6-0.2-1.1-0.3-1.7-0.4c-0.3,0-0.6,0-0.9,0.1c-1.5-0.2-3.3,1-3,3c1.6,8.5,2.2,16.2-2,24
		c-0.2,0.4-0.3,0.8-0.3,1.2c-0.4,1.2,0,2.6,1.6,2.9c4.7,0.7,8.2,1.9,11.8,5.1c3.1,2.8,6.1,5.7,8.2,9.4c0.1,0.2,0.3,0.4,0.5,0.6
		c0.4,4.6,0.7,10.7-0.6,15.9c-4.7,3.5-9.6,6.4-14.9,8.6c-0.5-0.4-1.2-0.6-1.9-0.4c-2.5,0.4-5.1,0.6-7.7,0.7
		c-0.4-0.4-0.9-0.7-1.5-0.7c-3.2-0.4-6.9-1-10.3-0.4c-2.3,0.1-4.9,0.9-6.9,1.8c-1.6,0.8-2.9,2-4,3.4c-3.4,1.8-6.3,4.4-8.1,8.3
		c-1,2.3,1.6,4.4,3.3,3.5c0.6,0.3,1.3,0.4,1.9,0.2c0.3,0.1,0.6,0.2,0.9,0.3c1.2,0.1,2.5,0.2,3.8,0.3c0.1,1.1,0.9,2.1,2.3,2.1
		c3.7,0,7.6,0,11.6-0.2c9.1,0.9,18.4-0.6,26.6-4.3c6.1-1.7,11.9-3.6,15.9-9.1c0.4-0.5,0.5-1,0.4-1.4c0.8-0.8,1.6-1.5,2.3-2.4
		c0.3-0.4,0.5-0.8,0.6-1.2C131.5,118.1,133.9,109.9,133.7,99.3z"/>
	<path class="st0" d="M113.4,69.2c-3.9-4.5-7.2-9.5-10.7-14.3c-0.9-1.3-3,0-2.1,1.2c3.6,5,7.1,10.1,11.1,14.8
		C112.7,72.1,114.4,70.3,113.4,69.2z"/>
</g>
<g id="Layer_1">
	<g>
		<g>
			<g>
				<g>
					<path d="M4.2,20.6l-1,0.8l0.2-0.6c1.4,1.2,2.8,2.4,4.1,3.6c1.7,4.1,3.1,8.3,4.2,12.6c-2.4-3.7-4.9-7.2-7.6-10.5
						c-0.4-1.7-0.9-3.5-1.4-5.2l-0.2-0.6l0.3,0L4.2,20.6z"/>
				</g>
			</g>
		</g>
		<g>
			<g>
				<g>
					<path d="M13.1,35c8.5-3,18.4-2.8,27.2,0.7c4.2,2.2,8,5.2,11.1,8.7c3,3.6,5.4,7.7,6.9,12.1c3.1,8.7,3,18.5-0.3,26.8
						c2.7-8.6,2.1-18.1-1.5-26.1c-1.7-4.1-4.3-7.7-7.3-10.8c-3.1-3-6.7-5.5-10.6-7.1C31.2,35,22,33.3,13.1,35z"/>
				</g>
			</g>
		</g>
		<g>
			<g>
				<g>
					<path d="M60.4,79.7c-1.9,8.4-6.1,16.4-12.1,23c-6.5,5.9-14.4,10.2-22.9,12.2l0.7-0.8c-1.9,8.6-6,16.7-11.7,23.1
						c5.2-6.9,8.6-15.1,9.7-23.5l0.1-0.6l0.6-0.2c7.9-2.6,15-7.2,20.6-13.1C51.9,94.5,57.2,87.6,60.4,79.7z"/>
				</g>
			</g>
		</g>
		<g>
			<g>
				<g>
					<path d="M19,135.8c5.1-1.2,10-2.8,14.6-5c9.8-2.4,19.2-6.9,27.5-13.2c-7.4,7.3-16.3,13.2-26.3,17
						C29.5,135.6,24.2,135.9,19,135.8z"/>
				</g>
			</g>
		</g>
		<g>
			<g>
				<g>
					<path d="M66.2,28.9C74,37,79.8,47.3,82.6,58.6c1,5.7,1.1,11.5,0.5,17.3c-0.7,5.7-2,11.3-4.1,16.6
						c-4.1,10.6-11.1,20.1-19.8,27.1c8.3-7.6,14.6-17.2,17.9-27.8c1.8-5.3,2.7-10.7,3-16.2c0.2-5.5-0.2-11-1.5-16.3
						C77.3,48.5,73,37.9,66.2,28.9z"/>
				</g>
			</g>
		</g>
		<g>
			<g>
				<g>
					<path d="M4.2,20.9c7.6-2.1,15.3-4.2,23.3-5.3c4-0.1,8.1,0.1,12.1,0.7c4,0.6,8,1.6,11.7,3.1c7.5,2.9,14.3,7.8,18.5,14.6
						C65,27.6,58,23.4,50.6,21.2c-3.7-1.1-7.5-1.7-11.4-2c-3.8-0.2-7.7-0.1-11.6,0.3C19.9,19.3,12,20.1,4.2,20.9z"/>
				</g>
			</g>
		</g>
		<g>
			<g>
				<g>
					<path d="M55.1,7.8c3.9-0.5,8-0.3,12,0.7c7.2,3.8,12.8,10.3,15.4,17.5c-3.8-6.7-10.1-11.7-17-13.9C62.5,10.1,59,8.6,55.1,7.8z"
						/>
				</g>
			</g>
		</g>
		<g>
			<g>
				<g>
					<path d="M82.9,24.3c4.7,0.4,9.3-0.2,13.9-0.5c4.7-0.4,9.5-0.5,14.4,0.6c2.4,0.8,4.6,2,6.7,3.6c2,1.6,3.7,3.6,4.8,5.9
						c1.1,2.3,1.8,4.9,1.4,7.5c-0.1,1.3-0.5,2.5-1,3.7c-0.5,1.2-1.2,2.2-2,3.2c-3.2,3.8-7.9,6-12.6,6.5c-4.7,0.6-9.4,0-14-0.5
						c4.6,0.2,9.3,0.5,13.8-0.5c2.2-0.5,4.4-1.2,6.3-2.3c1.9-1.1,3.6-2.6,4.9-4.4c0.6-0.9,1.1-1.8,1.5-2.8c0.4-1,0.6-2,0.6-3.1
						c0.1-2.1-0.5-4.1-1.6-5.9c-1.1-1.8-2.6-3.3-4.3-4.6c-1.7-1.2-3.7-2-5.8-2.6c-4-1.6-8.6-2.2-13.2-2.4
						C92.2,25.5,87.4,25.3,82.9,24.3z"/>
				</g>
			</g>
		</g>
		<g>
			<g>
				<g>
					<path d="M91.4,55.8c1.4,3.1,2.6,6.5,3.2,10.1C94,73,91.5,79.7,87.8,85.4c2.6-6.3,3.5-13.1,2.9-19.5
						C91.3,62.6,91.6,59.3,91.4,55.8z"/>
				</g>
			</g>
		</g>
		<g>
			<g>
				<g>
					<path d="M89.8,85.4c4.3,0.4,8.7,1.6,12.6,3.9c3.9,2.3,7.4,5.7,9.4,10.1c1.6,4.5,1.6,9.5,0,14c-0.8,2.2-2.1,4.3-3.8,6
						c-1.7,1.7-3.6,3-5.7,3.9c-4.2,1.9-8.8,2.4-13.1,2c-4.4-0.3-8.7-1.3-12.9-2.3c4.3,0.7,8.6,1.3,12.9,1.3c4.3,0,8.6-0.8,12.2-2.8
						c1.8-1,3.5-2.3,4.8-3.8c1.3-1.5,2.2-3.3,2.8-5.2c1.1-3.8,0.7-8-0.8-11.6c-1-3.8-3.6-7.2-6.8-9.9C98.1,88.2,94.1,86.4,89.8,85.4
						z"/>
				</g>
			</g>
		</g>
		<g>
			<g>
				<g>
					<path d="M74.3,122.8c-8.5,3.1-15.9,8.6-21.1,15.5c-0.3,0.3-0.5,0.6-0.5,0.7c0,0,0,0,0,0l0,0l-0.1,0l-0.1,0l0,0c0,0,0.2,0,0.1,0
						l0,0l0,0l0,0c-0.1,0-0.1,0-0.1,0c0,0,0.1,0,0.1,0l0.1,0l0,0c0,0,0.2,0.2,0.5,0.4c0.3,0.2,0.8,0.3,1.2,0.4l6.6,1.2
						c4.4,0.8,8.9,1.5,13.3,2.2c8.9,1.3,17.9,2.4,26.9,3.3c-9-0.2-18.1-0.6-27.1-1.3c-4.5-0.3-9-0.7-13.5-1.2l-6.8-0.7
						c-0.6-0.1-1.3-0.2-2-0.5c-0.7-0.3-1.5-0.6-2.2-1.5c-0.7-0.9-0.9-2.2-0.6-3.3c0.3-1,0.8-1.7,1.2-2.2
						C57,129,65.4,124.6,74.3,122.8z"/>
				</g>
			</g>
		</g>
		<g>
			<g>
				<g>
					<path d="M119.1,79.9c4.1,3.6,8.2,7.5,11.5,12c3.3,4.5,5.9,9.9,6.4,15.9c0,5.9-1.7,11.7-4.6,16.6c-2.9,5-6.9,9.2-11.6,12.4
						c-4.7,3.2-9.9,5.3-15.3,6.7c-5.4,1.4-10.9,2-16.4,2c5.5-0.4,10.9-1.3,16.1-2.9c5.2-1.7,10.1-4.1,14.4-7.4
						c4.3-3.3,7.7-7.5,10.1-12.2c2.4-4.7,3.6-9.9,3.3-15c0.2-5.1-1.5-10.3-4.1-15C126.2,88.3,122.7,84,119.1,79.9z"/>
				</g>
			</g>
		</g>
		<g>
			<g>
				<g>
					<path d="M117.6,76.5c7.8-2.2,15-6.5,20.3-12.4c1.3-1.5,2.5-3.1,3.5-4.7c0.5-0.8,1-1.7,1.4-2.6c0.4-0.9,0.8-1.7,1.1-2.7
						c1.4-3.6,1.9-7.5,1.8-11.3c0.1-1.9-0.1-3.8-0.4-5.7c-0.3-1.9-0.9-3.7-1.6-5.4c-0.8-1.7-1.7-3.4-2.8-4.9c-1.2-1.5-2.5-2.9-4-4.1
						c-6-5-13.8-7.8-21.3-10.4C100.2,7.3,84,4.8,67.7,5.1C84,4.2,100.4,6,116.1,10.5c3.9,1.2,7.8,2.4,11.6,3.9c3.8,1.5,7.6,3.4,11,6
						c1.7,1.3,3.3,2.8,4.6,4.4c1.4,1.7,2.5,3.5,3.5,5.5c0.9,2,1.6,4,2.1,6.1c0.4,2.1,0.7,4.3,0.7,6.4c-0.2,4.3-1.2,8.6-3,12.4
						c-0.4,1-1,1.9-1.5,2.8c-0.6,0.9-1.1,1.8-1.8,2.6c-1.2,1.7-2.6,3.3-4.1,4.7C133.2,71.3,125.5,75,117.6,76.5z"/>
				</g>
			</g>
		</g>
	</g>
</g>
</svg>
