<?xml version="1.0" encoding="utf-8"?>
<!-- Generator: Adobe Illustrator 21.0.0, SVG Export Plug-In . SVG Version: 6.00 Build 0)  -->
<svg version="1.1" xmlns="http://www.w3.org/2000/svg" xmlns:xlink="http://www.w3.org/1999/xlink" x="0px" y="0px"
	 viewBox="0 0 80 80" style="enable-background:new 0 0 80 80;" xml:space="preserve">
<style type="text/css">
	.st0{fill:#59247B;}
</style>
<g id="Layer_2">
	<path class="st0" d="M76.8,43.1c0.4-4.7-0.4-9.5-2.4-14.1c-0.1-0.2-0.2-0.4-0.4-0.5c-0.6-1.9-1.4-3.8-2.2-5.6c0.1-0.3,0-0.7-0.2-1
		c-2.6-4.5-6.2-8.3-10.6-11c-0.2-0.4-0.4-0.8-0.7-1.2c-0.4-0.8-1.2-0.9-1.8-0.6c0,0-0.1,0-0.1-0.1c-1.2-0.7-2.4-1.3-3.7-1.9
		c-0.1,0-0.1,0-0.2-0.1c-1.9-1.3-3.9-2.2-6.1-1.6c-4.3-1.5-8.9-1.8-13.6-1.5C27.8,4.5,22.4,8.6,17.4,13c-1.3,0.9-2.7,1.8-3.9,2.8
		c-0.4,0.3-0.5,0.6-0.5,1c-2.4,2.2-4.4,4.7-5.9,7.6c-3.6,7.1-3.2,15.2-2.2,22.8c0.1,0.5,0.3,0.8,0.6,1c0.2,1.6,0.5,3.1,1,4.6
		c0.9,3.7,2.3,7.5,4.8,9.8c0.5,0.8,1.1,1.6,1.6,2.4c-0.2,0.5-0.1,1,0.4,1.4c0.7,0.6,1.3,1.2,2,1.7c3.6,4.2,7.8,8,12.8,10
		c0.2,0.1,0.5,0.1,0.7,0.1c0.6,0.1,1.3-0.1,1.6-0.7c1.1-1.7,1.4-3.8,0.8-5.8c-0.1-0.2-0.2-0.4-0.3-0.6c0.4-1-0.4-2.4-1.7-2
		c-0.2,0.1-0.4,0.1-0.6,0.2c-0.2,0-0.3,0-0.5,0.1c-0.5,0.1-1.1,0.2-1.6,0.3c-0.1-0.1-0.3-0.1-0.4-0.1c-0.8-0.1-1.4-0.4-2-0.6
		c-0.1,0-0.1-0.1-0.2-0.1c-2.7-1.2-3.8-3.4-5.5-6.1c-0.7-1.1-4.2-3.4-5.7-5.4c1.2-2.6,2.9-3.3,5.1-1.9c1.2,0.8,2,1.9,2.5,3.3
		c0.4,0.8,0.6,1.6,1,2.4c0.9,1.4,2.1,2.3,3.7,2.8c0.7,0.2,1.6,0.4,2.5,0.4c0.5,0.2,1.1,0.2,1.6-0.1c1.4-0.2,2.5-0.9,2.6-2.4
		c0.4-0.4,0.9-0.8,1.6-1.1c1.1-0.4,1.6-2.2,0.4-2.7c-1.6-0.7-3.4-0.8-5.1-1.4c-1.8-0.7-3.4-2.2-5-3.3c-0.2-0.1-0.4-0.2-0.6-0.3
		c-0.1-0.2-0.2-0.4-0.3-0.6c-3.2-3.8-4.7-8.2-5.1-12.8c0.3-2.3,0.7-4.5,1.1-6.8c0.7-0.9,1.6-1.6,1.9-3c0.5-2,0.3-4.2,0.3-6.2
		c0-0.8-0.5-1.2-1.1-1.4c0.3-1,0.5-2.1,0.9-3.1c0.6,0,1.2,0,1.8,0c1.3,0,2.6,0.1,3.8,0.5c0.5,0.4,1.1,0.5,1.7,0.7
		c0.6,0.3,1.3,0.6,1.8,0.8c0.2,0.3,0.5,0.5,0.9,0.6c0.3,1.4,2.3,1.6,2.8,0.6c1,0.1,2-0.4,2.8-1c0,0,0.1-0.1,0.1-0.1
		c4.4-0.1,8.6,0.3,13.1,0.2c0.5,0.5,1.4,0.6,2.1,0.1c2.7-2.2,5.9-3.3,9.2-4.3c0.8,2.3,1.3,4.7,1.5,7.2c0,0.1,0,0.2,0,0.2
		c-0.2,1.1-0.5,2.3-0.9,3.4c-0.3,1,0.3,1.6,1.1,1.8c1.1,3.2,3,6.1,3.2,9.7c0.3,4.1-0.9,7.9-3.2,11.3c-2.9,3.8-7.3,6.1-12.2,6.3
		c-0.2,0-0.4,0.1-0.6,0.1c-1.2-1.3-3.6,0.2-2.5,1.7c1.6,2.2,3.4,4.1,3.7,6.9c0.3,2.1,0.2,4.2,0.4,6.3c-0.1,1.4-0.2,3.2,1,4
		c0.3,0.2,0.7,0.3,1.1,0.3c0.6,0.2,1.3,0.2,2.1-0.4c0.6-0.2,1.2-0.4,1.6-0.6c3.8-1.8,6.9-5.6,9.8-8.9c0.4,0.1,0.9,0,1.2-0.4
		c2.3-2.5,4-5.4,5.1-8.7c0-0.1,0.1-0.2,0.1-0.3c1.7-3.1,2.8-6.4,3-10.1c0-0.1,0-0.2,0-0.3c0,0,0-0.1,0-0.1c0.4-0.2,0.6-0.6,0.6-1.2
		C76.9,44.6,76.9,43.9,76.8,43.1z"/>
</g>
<g id="Layer_1">
	<g>
		<g>
			<g>
				<g>
					<path d="M20.9,28.8c-1-2.4-1.7-4.9-2.1-7.6c0.1-0.8,0.3-1.6,0.5-2.4l0.4-1.7l1.3,0.3c4.4,1.1,8.3,3.2,11.5,6.1
						c-3.7-2-7.9-3.1-11.8-3l1.7-1.3c0,0.7,0,1.5,0.1,2.2C21.7,23.8,21.1,26.2,20.9,28.8z"/>
				</g>
			</g>
		</g>
		<g>
			<g>
				<g>
					<path d="M32.5,23c1.9-1.5,4.1-2.8,6.6-3.7c5.1,0,10.1,1.5,14,4.2c-4.5-1.6-9.3-1.7-13.5-0.6C37.3,22.5,34.9,22.5,32.5,23z"/>
				</g>
			</g>
		</g>
		<g>
			<g>
				<g>
					<path d="M51.9,22c1.3-2,3.2-3.8,5.5-5.2c1.1-0.2,2.1-0.3,3.2-0.2l1.5,0l0,1.2c0.1,3.9-0.3,7.7-1.3,11.2c0-3.7-0.5-7.4-1.6-10.8
						l1.6,1.2c-0.8,0.2-1.7,0.5-2.4,0.9C56.3,20.3,54.1,20.8,51.9,22z"/>
				</g>
			</g>
		</g>
		<g>
			<g>
				<g>
					<path d="M61.3,29.5c3.2,3,5.2,7.5,5.5,12.3c-0.3,2.4-1.1,4.7-2.3,6.7c-1.2,2-2.8,3.8-4.6,5.2c-3.6,2.8-8.2,4.1-12.6,3.7
						c4.4-0.2,8.5-2.1,11.4-5.1c1.5-1.5,2.6-3.2,3.4-5c0.7-1.9,1.1-3.8,1.1-5.8C64,37.7,63.5,33.3,61.3,29.5z"/>
				</g>
			</g>
		</g>
		<g>
			<g>
				<g>
					<path d="M20.3,29.6c-1.6,4.3-1.6,8.8-0.3,12.8c0.2,2,0.8,4.1,1.6,6c0.9,1.9,2.2,3.6,3.7,5.1c3.1,3,7.3,5,11.8,5.5
						c-4.5,0.2-9.2-1.2-13-4.1c-1.9-1.4-3.6-3.1-4.9-5.2c-1.3-2-2.3-4.3-2.9-6.7C16.1,38,17.6,33.2,20.3,29.6z"/>
				</g>
			</g>
		</g>
		<g>
			<g>
				<g>
					<path d="M34.4,58.5c-0.2,1-0.2,2,0,2.9c-1.3,0.8-2.5,2-3.4,3.6c-0.3-1.7-0.3-3.7,0.3-5.6C32.3,59,33.4,58.7,34.4,58.5z"/>
				</g>
			</g>
		</g>
		<g>
			<g>
				<g>
					<path d="M31.3,63.7c-1.3,1.4-3.4,2.1-5.5,2c-1.1,0-2.1-0.3-3.2-0.8c-1-0.5-2-1.3-2.7-2.1c-1.1-2-1.4-3.7-2.3-5
						c-0.4-0.6-0.9-1.1-1.5-1.4c-0.6-0.3-1.3-0.4-1.8-0.1c-0.5,0.2-0.9,0.9-0.9,1.5c0,0.3,0.1,0.6,0.4,0.8c0.2,0.2,0.6,0.4,1.1,0.5
						c2,0.6,3.4,2.4,3.4,4.3c-0.4-1.8-1.9-3.2-3.6-3.4c-0.5-0.1-1-0.2-1.5-0.5c-0.5-0.3-0.9-0.9-1.1-1.5c-0.3-1.2,0.1-2.5,1.3-3.3
						c1.1-0.7,2.4-0.8,3.5-0.5c0.6,0.2,1.1,0.4,1.6,0.8c0.5,0.3,0.9,0.7,1.3,1.1c1.5,1.6,2.2,3.5,3.2,4.7c0.3,0.7,0.6,1.3,1.2,1.8
						c0.5,0.5,1.2,1,2,1.3C27.7,64.5,29.6,64.5,31.3,63.7z"/>
				</g>
			</g>
		</g>
		<g>
			<g>
				<g>
					<path d="M17.7,61c1.1,1.7,2.6,3,4.2,3.8c1.8,2.8,5.5,4.7,9.4,4.4c-3.6,1.5-8.5,1-12.1-1.9C18.1,65.3,17.6,63.1,17.7,61z"/>
				</g>
			</g>
		</g>
		<g>
			<g>
				<g>
					<path d="M30.9,69.7l1.8,6.9c0,0.3-0.1,0.7-0.3,1.2c-0.2,0.5-0.5,1.1-1,1.5c-0.5,0.4-1.3,0.6-1.8,0.6c-0.6,0-1-0.2-1.3-0.4
						c-0.4-0.2-0.6-0.4-0.9-0.5l-0.7-0.5l-1.4-1l-5.6-4.1l6.4,2.5l1.6,0.6l0.8,0.3c0.2,0.1,0.5,0.1,0.6,0.2c0.2,0,0.3,0,0.3,0
						c0,0-0.1-0.1-0.2,0c-0.1,0.1-0.2,0.1-0.2,0.1c0-0.1,0-0.2-0.1-0.5L30.9,69.7z"/>
				</g>
			</g>
		</g>
		<g>
			<g>
				<g>
					<path d="M19.2,70.9l-1.8-1.1l-0.9-0.6l-0.8-0.6l-1.6-1.3l-1.5-1.4L11.9,65l-0.7-0.8l-1.4-1.6L8.6,61l-0.6-0.9l-0.6-0.9
						l-1.1-1.8l-1-1.9l-0.5-0.9l-0.4-1l-0.8-2l-0.6-2l-0.3-1l-0.2-1L2,45.5l-0.3-2.1l-0.2-1.1l-0.1-1.1l-0.1-2.1l0-2.1l0-1.1
						l0.1-1.1l0.2-2.1l0.4-2.1l0.2-1.1l0.3-1l0.6-2.1l0.8-2l0.4-1l0.5-1l1-1.9l1.2-1.8l0.6-0.9l0.7-0.9l1.3-1.7l1.5-1.6l0.7-0.8
						L13,12l1.7-1.4l1.8-1.3l0.9-0.6l0.9-0.6L20.1,7L22,6l1-0.5l1-0.4l2-0.8l2.1-0.7l1-0.3l1.1-0.2l2.1-0.5l2.1-0.3l1.1-0.2l1.1-0.1
						L38.8,2L40.9,2l1.1,0l1.1,0.1l2.2,0.3l2.1,0.5l1.1,0.2l1,0.3l2.1,0.7l2,0.8l1,0.4l1,0.5l1.9,1L59.2,8l0.9,0.6L61,9.2l1.7,1.3
						l1.6,1.4l0.8,0.7l0.7,0.8l1.5,1.5l1.4,1.6l0.7,0.8l0.6,0.9l1.2,1.7l1.1,1.8l0.5,0.9l0.5,1l1,1.9l0.8,2l0.4,1l0.3,1l0.6,2
						l0.5,2.1l0.2,1l0.1,1.1l0.3,2.1l0.1,2.1l0,1.1l-0.1,1.1l-0.1,2.1l-0.3,2.1l-0.2,1l-0.2,1l-0.5,2.1l-0.6,2l-0.3,1l-0.4,1l-0.8,2
						l-0.9,1.9l-0.5,0.9l-0.5,0.9L71.2,62L70,63.7l-0.6,0.9l-0.7,0.8L67.4,67l-1.4,1.5l-0.7,0.8L64.4,70l-1.6,1.4l-1.7,1.3l-0.8,0.6
						l-0.9,0.6L57.8,75l-1.8,1L55,76.5l-1,0.4l-1.9,0.8l1.9-0.9l0.9-0.4l0.9-0.5l1.8-1l1.7-1.2l0.9-0.6l0.8-0.7l1.6-1.3l1.5-1.4
						l0.8-0.7l0.7-0.8l1.4-1.5l1.3-1.6l0.6-0.8l0.6-0.9l1.1-1.7l1-1.8l0.5-0.9l0.4-0.9l0.9-1.9l0.7-1.9l0.4-1l0.3-1l0.6-2l0.4-2
						l0.2-1l0.1-1l0.2-2l0.1-2l0-1l-0.1-1l-0.1-2l-0.3-2l-0.2-1l-0.2-1L75,32l-0.7-1.9l-0.3-1l-0.4-0.9l-0.8-1.9l-1-1.8l-0.5-0.9
						l-0.5-0.9L69.7,21l-1.2-1.6l-0.6-0.8l-0.7-0.8l-1.3-1.5l-1.5-1.4l-0.7-0.7l-0.8-0.6l-1.6-1.3l-1.7-1.2l-0.8-0.6L58,10l-1.7-1
						l-1.8-0.9l-0.9-0.4l-0.9-0.4l-1.9-0.7L48.7,6l-1-0.3l-1-0.2l-2-0.4c-10.6-1.4-21.7,2.4-29.4,9.6l-0.8,0.6L14,16.1l-1.4,1.4
						L11.2,19l-0.7,0.8L10,20.5l-1.2,1.6l-1,1.7l-0.5,0.9l-0.4,0.9L6,27.4l-0.7,1.9l-0.3,0.9l-0.3,1l-0.5,1.9l-0.3,2l-0.2,1l-0.1,1
						l-0.2,2l0,2l0,1l0.1,1l0.2,2l0.3,2l0.2,1l0.3,1l0.5,2l0.7,1.9l0.3,1L6.4,55l0.8,1.9l1,1.8l0.5,0.9l0.6,0.9l1.1,1.7l1.3,1.6
						l0.6,0.8l0.7,0.8l1.4,1.5l1.6,1.4l0.8,0.7l0.8,0.6L19.2,70.9z"/>
				</g>
			</g>
		</g>
		<g>
			<g>
				<g>
					<path d="M46.7,58.3c2.6,1.9,4.7,4.7,5.8,8.1c0.1,1.7,0,3.5-0.4,5.1c-0.3,1.5-0.7,2.9-0.2,3.9c0.2,0.5,0.7,0.9,1.3,1
						c0.6,0.2,1.4,0.1,2.1,0c1.4-0.3,2.9-1.2,4.4-1.4c-1.5,0.5-2.6,1.6-4.1,2.3c-0.8,0.3-1.6,0.6-2.6,0.5c-0.9,0-2-0.5-2.6-1.3
						c-0.7-0.8-0.9-1.9-1-2.7c-0.1-0.9-0.1-1.7,0-2.5c0.1-1.5-0.1-2.9-0.5-4.2C49.1,64.1,48.4,61,46.7,58.3z"/>
				</g>
			</g>
		</g>
	</g>
</g>
</svg>
