<?xml version="1.0" encoding="utf-8"?>
<!-- Generator: Adobe Illustrator 21.0.0, SVG Export Plug-In . SVG Version: 6.00 Build 0)  -->
<svg version="1.1" xmlns="http://www.w3.org/2000/svg" xmlns:xlink="http://www.w3.org/1999/xlink" x="0px" y="0px"
	 viewBox="0 0 80 80" style="enable-background:new 0 0 80 80;" xml:space="preserve">
<style type="text/css">
	.st0{fill:#F6A600;}
	.st1{fill:#F70000;}
	.st2{fill:#8A3EC6;}
</style>
<g id="Layer_2">
	<path class="st0" d="M29,63.7c1.6,0.1,3.3,0.1,4.9,0C29.6,59.5,25,55.6,20,52.3c0.8,4.2,2.2,9.9,6.4,11.2c0.2,0.1,0.4,0.2,0.5,0.3
		c0.6,0,1.1,0.1,1.7,0.1C28.7,63.8,28.8,63.7,29,63.7z"/>
	<path class="st0" d="M44.3,76c-2.3-3.2-4.8-6.3-7.4-9.1c-3.9-1.3-8-0.8-12-1.3c0,0,0,0,0,0c-0.1,0-0.3,0-0.5,0
		c-2.2-0.5-3.6-2-4.5-3.9c-2-2.7-2.7-6.4-3.2-9.7c0-0.2,0-0.4,0.1-0.5c-0.1-0.5-0.1-0.9-0.2-1.4c-3.5-2.2-7.2-4.1-11-5.8
		c-1.2-0.5-2.3,0.5-2.3,1.4c-0.3,0.3-0.5,0.8-0.3,1.4c0.1,0.4,0.3,0.9,0.4,1.3c-0.4,0.4-0.5,1-0.1,1.6c2.9,4.8,4.6,10.4,8.1,14.9
		c2.7,3.4,6.4,5.5,10.2,7.5c2.6,2.2,5.1,3.5,6.9,3.3c1.2,0.4,2.5,0.7,3.7,1.1c1.4,0.4,3,1.1,4.4,1.1c0,0,0.1,0,0.1,0
		c0.9,0.4,1.7-0.1,2.1-0.7c0.1,0,0.2,0.1,0.3,0.1c0.4,0.2,1,0.3,1.5,0c0.1-0.1,0.2-0.1,0.3-0.2c0.1-0.1,0.3-0.2,0.4-0.3
		c0.2,0.2,0.3,0.4,0.5,0.6C42.8,79,45.4,77.6,44.3,76z"/>
	<path class="st1" d="M48.3,40.6c0-0.1,0-0.1,0-0.2c-1.7-2.4-4.1-4.3-7-4.7c0,0,0,0,0,0c-0.1,0.1-0.3,0.3-0.5,0.3
		c-2,0.3-4.3,0.4-5.8,1.9c-0.1,0.1-0.3,0.2-0.4,0.2c0,0.3-0.1,0.5-0.3,0.8c-2,3.9-1.3,6.8,0.5,10.7c0.1,0.1,0.1,0.3,0.1,0.4
		c1,1.2,2.1,1.7,4.1,1.6c1.2,0,1.9,0.6,2.2,1.4c0.2,0,0.4-0.1,0.6-0.1c1.9-1.2,3.7-2.6,5.7-3.7c0.1,0,0.1,0,0.2-0.1
		C48.9,46.4,48.3,43.5,48.3,40.6z"/>
	<path class="st1" d="M58.8,46.4c-4.1-4.6-8.4-9-12.6-13.3c-2.8-2.9-5.6-5.7-8.7-8.3c-0.7,0-1.4,0-2.1,0c0,0-0.1,0-0.1,0
		c-0.9-0.1-1.9-0.2-2.9-0.2c-1.5,0.2-3,0.4-4.6,0.6c-0.1,0-0.2,0-0.2,0c0,0.8-0.3,1.5-1.3,2c-4.7,2.2-4.5,7.4-4.5,11.9
		c0,0.5-0.1,0.9-0.3,1.2c-0.3,3.4-1.3,6.6-1.9,9.9c0,0.1,0,0.2,0,0.3c0,0.1,0,0.3,0,0.4c0,0,0,0,0,0c0.2,0.7,0.3,1.6,0.5,2.5
		c4.4,3.4,8.6,6.8,12.6,10.6c4.8-0.1,9.6-0.6,14.3-0.1c0.2,0,0.4,0.1,0.5,0.2c0.3,0,0.6,0,1,0c0.4-0.6,1-1,2-1c0.6,0,1.3,0,1.9,0
		c1.1-1,2.3-1.7,3.7-1.9c0-0.1,0.1-0.2,0.1-0.4c0.3-1.1,1-1.7,1.9-1.8c0-0.1,0-0.2,0-0.3C58.5,54.5,58.7,50.4,58.8,46.4z M50.3,42.5
		c0.1,2.8,0.2,5.6-1.3,8.1c0.1,0.3,0.1,0.6-0.2,0.9c-2,2-3.9,4.1-6.8,4.5c-0.3,0-0.6,0-0.8-0.2C41,55.9,40.8,56,40.6,56
		c-0.4,0.4-0.9,0.6-1.6,0.6c-4.4,0.1-7.4-2-9.5-5.8c-0.3-0.5-0.4-1.1-0.3-1.6c-0.6-1.6-1.2-3.3-1.3-5.1c-0.2-2.8,0.8-5.4,2-7.8
		c0.4-0.8,1.1-1.2,1.8-1.2c0-0.3,0.2-0.5,0.5-0.6c2.1-1,4.5-1.6,6.8-1.2c0.2,0,0.3,0.1,0.4,0.2c1.1,0,2.1,0.1,3.2,0.3
		c0.3,0.1,0.5,0.2,0.6,0.4c3.4,1.1,6,3.8,7.8,6.9C51.5,41.8,51,42.4,50.3,42.5z"/>
	<path class="st1" d="M69.8,60.3c-0.1-0.5-0.4-1-0.9-1.2c-1.7-2.4-3.5-4.8-5.4-7.1c-0.1,2.2-0.2,4.4-0.4,6.6c-0.1,1.3-1,2.1-2,2.3
		c0.1,0.3,0.1,0.7,0,1.1c-0.7,3.2-2.9,4.7-5.5,5.4c-0.2,0.1-0.5,0.2-0.7,0.3c-0.4,0.1-0.8,0.2-1.1,0.1c-1.1,0.1-2.2,0.2-3.3,0.2
		c-1.2,0-2-0.7-2.3-1.6c-3.2,0.2-6.4,0.3-9.7,0.2c-0.1,0-0.1,0-0.1,0c-0.2,0.4-0.6,0.7-1.1,0.5c-0.6-0.2-1.2-0.4-1.9-0.5
		c2.7,2.8,5.2,5.7,7.5,8.9c0.2,0.3,0.5,0.5,0.7,0.6c0.1,0.6,0.6,1.1,1.4,1c1.9-0.1,3.8-0.5,5.6-1.1c0.2-0.1,0.4-0.2,0.5-0.3
		c0.1,0,0.2-0.1,0.3-0.2c3.6-2.5,7.3-5,10.8-7.5c2.4-1.7,5.1-3.4,6.7-6C69.8,61.7,70.2,61,69.8,60.3z"/>
	<path class="st1" d="M18.4,12.9c-0.8-0.6-1.7-0.3-2.2,0.2c-0.3,0.1-0.6,0.3-0.9,0.6C9.1,23.1,4,33,2.7,44.3c-0.2,1.7,2,1.9,2.8,0.7
		c3.7,1.7,7.5,3.5,11.1,5.5c-0.4-3.7-0.5-7.6,0.4-11.1c0-0.1,0-0.3,0-0.4c0-6.3,0.5-13.1,7-16.2c1.1-0.5,2.1-0.2,2.8,0.4
		c1.8-0.7,3.7-0.7,5.6-0.6c0.7-0.1,1.4-0.2,2.1-0.3C29.3,18.6,23.3,16.7,18.4,12.9z"/>
	<path class="st2" d="M75.8,36.7c-0.3-3.2-1.2-6.2-2.4-9.2c-0.3-1.5-0.6-3-1-4.5c-0.2-0.8-0.8-1.1-1.3-1.1c0-0.1-0.1-0.1-0.1-0.2
		c-0.8-2-1.6-4-2.6-5.9c-0.4-0.8-1.2-0.9-1.8-0.6c-0.2-0.1-0.3-0.1-0.5-0.1c-1.5-2.3-3.4-4.3-5.6-6.2c-0.7-0.6-1.5-0.4-2.1,0
		c-0.8-0.8-1.6-1.6-2.3-2.5c-0.8-1-2.1-0.7-2.7,0.1c-2.7-1.7-5.6-2.9-8.8-2.6c-0.4,0-0.7,0.2-1,0.4c-1.7-0.4-3.3-0.8-5-1.2
		c-0.9-0.2-1.6,0.4-1.8,1.1c-1.6,0-3.1,0.1-4.7,0.3c-0.3-0.1-0.6,0-0.9,0.1c-4.6,0.8-8.9,2.8-12.5,6.2c-0.1,0-0.1,0.1-0.1,0.1
		c-0.1,0.1-0.3,0.3-0.4,0.4c-1.2,1.2,0.2,2.9,1.5,2.5c4.2,3.6,9.2,5.8,14.1,8.2c1.5-0.2,3.1-0.4,4.6-0.4c0.2,0,0.4,0.1,0.5,0.1
		c1.9-0.2,3.9-0.4,5.8-0.4c0,0,0,0,0,0c0,0,0,0,0,0c0.5,0,1,0,1.5,0.1c0.7-0.2,1.5-0.4,2.3-0.6c0.4-0.3,0.9-0.5,1.5-0.6
		c8-0.3,13.8,7.8,14.8,15.1c0.1,0.9-0.2,1.7-0.8,2.2c-0.1,4.9-0.2,9.8-0.5,14.8c1.4,1.7,2.8,3.5,4.2,5.2c0.3,0.4,0.6,0.5,1,0.6
		c0.1,0.2,0.2,0.3,0.3,0.4c0.6,1.1,2.7,0.9,2.9-0.7c0-0.1,0-0.3,0-0.4c0.2-0.4,0.4-0.9,0.5-1.3c0.6-0.1,1.2-0.6,1.2-1.4
		c0.1-1.4,0.3-2.9,0.6-4.3c0.2-0.6,0.4-1.1,0.6-1.7c0.1-0.4,0.1-0.8-0.1-1.1C75.4,44.3,76.1,40.5,75.8,36.7z"/>
	<path class="st2" d="M49.9,25.6c-0.9,0-1.5-0.3-1.9-0.8c-3.7,0-7.4,0.1-11.2,0c7.8,7,15.1,14.4,21.9,22.2c0.1-3.8,0.2-7.6,0.2-11.3
		c0-0.5,0.1-0.9,0.3-1.3C58,30,54.8,25.4,49.9,25.6z M55.1,33.6c-0.1,0.5-0.6,1.3-1.1,1.5c-1,0.4-2,0.6-3,0
		c-0.3-0.1-0.5-0.4-0.7-0.6c-1.2-0.6-1.4-2.3-0.8-3.4c0.3-0.5,0.9-1,1.5-1.1c0.1,0,0.2,0,0.2,0c0.1-0.1,0.3-0.1,0.4-0.1
		c1-0.2,1.7,0.1,2.3,0.5c0.2,0.2,0.4,0.3,0.5,0.5c0.2,0.2,0.3,0.5,0.5,0.7C55.2,32.2,55.3,32.9,55.1,33.6z"/>
</g>
<g id="Layer_1">
	<g>
		<g>
			<g>
				<g>
					<path d="M41.9,35.7c-3.1-0.1-5.9,1.6-7.3,3.9c-1.4,2.3-1.1,5.3,0.3,7.3c0.5,1.1,1.2,2.1,2.2,2.7c1,0.7,2.3,1,3.5,1.1
						c2.6,0.1,5.2-1.2,6.4-3.7c0.6-1.2,0.9-2.6,0.8-4c-0.1-1.4-0.6-2.8-1.5-3.9c-1.8-2.3-4.9-3.5-7.9-2.9c2.9-0.9,6.4,0,8.6,2.3
						c1.1,1.1,1.9,2.7,2.2,4.3c0.3,1.6,0.1,3.3-0.5,4.9c-0.6,1.6-1.7,3-3.1,4c-1.4,1-3.2,1.6-4.9,1.7c-1.8,0.1-3.6-0.2-5.2-1.1
						c-1.7-0.9-3-2.2-3.9-3.9c-0.7-1.7-0.9-3.6-0.7-5.3c0.3-1.8,1-3.5,2.2-4.7C35.4,36,38.9,35,41.9,35.7z"/>
				</g>
			</g>
		</g>
		<g>
			<g>
				<g>
					<path d="M51.4,29.5c-1,0.8-1.6,1.9-1.5,2.8c0.1,0.9,0.8,1.4,1.4,1.5c0.2,0.2,0.3,0.4,0.6,0.5c0.3,0.1,0.6,0.1,1,0
						c0.7-0.2,1.3-0.8,1.4-1.7c0.1-0.9-0.3-1.9-1.2-2.5c-0.9-0.6-2.1-0.7-3.3-0.2c1-0.7,2.4-1,3.6-0.6c1.3,0.4,2.4,1.7,2.6,3.2
						c0.1,0.7,0.1,1.6-0.2,2.4c-0.3,0.8-0.9,1.4-1.6,1.9c-0.7,0.5-1.5,0.8-2.5,0.9c-0.9,0.1-1.9-0.2-2.7-0.7
						c-0.7-0.7-1.1-1.5-1.2-2.4c-0.2-0.9,0-1.8,0.3-2.5C48.9,30.4,50.2,29.7,51.4,29.5z"/>
				</g>
			</g>
		</g>
		<g>
			<g>
				<g>
					<path d="M28.3,46.2c-1.9-3.9-0.7-9.2,3-12.1c1.8-1.5,4-2.5,6.4-2.8c2.4-0.3,4.9,0,7.1,1c2.1,1.2,4,2.9,5.3,4.9
						c1.3,2,2,4.5,2,6.9c0,2.4-0.6,4.7-1.8,6.8c-1.1,2-2.9,3.8-4.9,4.8c-4.1,2.1-9.3,1.9-12.9-0.7c-3.6-2.6-5.5-7.3-4.7-11.5
						c-0.5,4.3,1.7,8.6,5.2,10.8c3.5,2.2,8.1,2,11.5-0.1c3.4-2,5.2-6.1,4.9-9.9c-0.2-3.8-2.8-7.1-6.2-8.6c-1.6-1-3.4-1.5-5.3-1.5
						c-1.9,0-3.8,0.5-5.5,1.5C29,37.5,27,42.1,28.3,46.2z"/>
				</g>
			</g>
		</g>
		<g>
			<g>
				<g>
					<path d="M21.1,42.8c0.6-2.3,0.5-4.5,0.4-6.9c-0.1-2.3-0.1-4.9,1-7.5c0.7-1.2,1.8-2.3,3.1-3c1.2-0.7,2.6-1,3.8-1.2
						c2.6-0.3,4.8,0,7.1,0l13.9,0.5l-13.8,1.3C34.4,26.4,32,26.5,30,27c-1,0.3-1.9,0.6-2.6,1.2c-0.7,0.5-1.2,1.2-1.6,2.1
						c-1.2,1.5-1.9,3.6-2.4,5.9C22.9,38.4,22.4,40.8,21.1,42.8z"/>
				</g>
			</g>
		</g>
		<g>
			<g>
				<g>
					<path d="M45.7,26.5c2.1-0.7,4.1-1.4,6.5-1.5c1.2,0,2.4,0.1,3.6,0.6c1.2,0.4,2.4,1.2,3.3,2.3c0.8,1.3,1,2.7,1.1,3.9
						c0,1.2-0.1,2.4-0.2,3.4l-0.7,6.4l-1.3,12.9l-0.5-13l-0.3-6.5c0-1.1-0.1-2.1-0.2-3c-0.2-0.9-0.5-1.6-0.9-2.1
						c-0.5-1.4-2.2-2.6-4.1-3.1C50.1,26.4,47.9,26.4,45.7,26.5z"/>
				</g>
			</g>
		</g>
		<g>
			<g>
				<g>
					<path d="M22.2,39.5c-0.7,3.9-1.4,7.8-0.9,11.5c0.2,1.9,0.7,3.6,1.6,5.2c0.8,1.6,2,2.9,3.3,3.8c1.2,1.1,2.7,1.7,4.5,2
						c1.7,0.3,3.7,0.4,5.6,0.4c3.9,0.1,7.8,0.1,11.7-0.1c1.9-0.1,3.8-0.3,5.6-0.9c1.7-0.6,3.2-1.7,4.2-3.3c1-1.6,1.4-3.5,1.6-5.4
						c0.2-1.9,0.2-3.9,0.1-5.9c0.3,1.9,0.5,3.9,0.4,5.9c-0.1,2-0.3,4-1.3,5.8c-0.5,0.9-1.1,1.8-1.9,2.5c-0.8,0.7-1.7,1.3-2.6,1.7
						c-1.9,0.8-4,1.2-5.9,1.4c-3.9,0.5-7.8,0.9-11.8,1.1c-2,0.1-4,0.2-6.1,0c-1.1-0.1-2.2-0.3-3.2-0.7c-1.1-0.4-2.1-0.9-3.1-1.6
						c-1.7-1.6-2.9-3.6-3.6-5.6c-0.7-2-0.9-4.2-0.9-6.2C19.6,47,20.9,43.2,22.2,39.5z"/>
				</g>
			</g>
		</g>
		<g>
			<g>
				<g>
					<path d="M16.5,39.7c-0.3-2-0.7-4-0.8-6.1c-0.1-2.1,0.2-4.4,1.1-6.5c0.6-1,1.4-1.9,2.3-2.6c0.9-0.8,2-1.3,3-1.8
						c2.1-0.8,4.3-1,6.3-1.1c4.1,0,8.1,0,12.2,0c-4,0.6-8,1.2-12,1.8c-1.9,0.4-3.8,0.8-5.4,1.7c-1.5,0.9-2.6,2.1-3.3,3.7
						c-1.1,1.3-1.9,3.1-2.4,4.9C17,35.7,16.8,37.7,16.5,39.7z"/>
				</g>
			</g>
		</g>
		<g>
			<g>
				<g>
					<path d="M38.3,20.4c5.4,0.8,10.4-1.6,16.5-1.1c1.5,0.4,2.9,0.9,4.2,1.7c1.3,0.8,2.5,2,3.3,3.2c1.7,2.6,2.3,5.5,2.6,8.2
						c0.6,5.5-0.1,11.1-2.1,16.1c1.4-5.2,1.4-10.7,0.3-15.8c-0.6-2.6-1.5-5-3-6.8c-1.5-1.8-3.7-2.7-6.1-3
						C49.5,21.3,43.5,22.4,38.3,20.4z"/>
				</g>
			</g>
		</g>
		<g>
			<g>
				<g>
					<path d="M39.1,66.8c5.1,0,10.3-0.1,14.8-1.6c1.1-0.1,2.2-0.4,3.1-0.8c0.9-0.5,1.8-1.1,2.5-1.9c1.4-1.7,2.3-4,2.8-6.4
						c0.5-2.4,0.7-5,1.1-7.5c0.4-2.5,1-5.1,2.4-7.3c-1.1,2.3-1.4,4.8-1.5,7.3c-0.1,2.5,0.1,5-0.2,7.7c-0.2,2.6-0.8,5.3-2.4,7.8
						c-0.8,1.2-1.9,2.3-3.1,3.1c-1.3,0.8-2.7,1.3-4,1.6C49.1,69.1,44.1,67.9,39.1,66.8z"/>
				</g>
			</g>
		</g>
		<g>
			<g>
				<g>
					<path d="M16.4,37.2c1.1,5.1,0.6,10.7,1.6,15.5c0,2.4,0.4,4.8,1.3,7c0.9,2.2,2.5,4,4.7,5c2.2,1,4.8,1.4,7.4,1.7
						c2.6,0.4,5.3,0.9,7.5,2.4c-2.3-1.2-5-1.3-7.5-1.4c-2.6-0.1-5.3,0-8-0.9c-1.3-0.4-2.6-1.2-3.7-2.1c-1.1-0.9-2-2.1-2.7-3.3
						c-1.4-2.5-2.2-5.2-2.6-8C14.6,47.3,16.3,42.5,16.4,37.2z"/>
				</g>
			</g>
		</g>
		<g>
			<g>
				<g>
					<path d="M3.9,42.2C2.7,27.4,11.5,12.3,25.2,5.7c3.4-1.7,7.1-2.7,10.9-3.2c3.8-0.5,7.6-0.3,11.4,0.4C55,4.3,62.2,7.8,67.8,13.1
						c2.7,2.7,5.1,5.9,6.8,9.4c1.7,3.5,2.9,7.2,3.5,11c1.1,7.6,0,15.5-3,22.5c-1.5,3.5-3.6,6.8-6.1,9.7c-2.5,2.9-5.5,5.3-8.8,7.2
						c-6.6,3.9-14.2,5.7-21.8,5.4c-7.5-0.3-15.1-2.6-21.1-7.2c-3-2.2-5.7-4.9-7.9-7.9c-2.2-3-4.1-6.3-5.4-9.8
						c-2.7-7-3.1-14.8-1.3-22c0.9-3.6,2.3-7.1,4.1-10.3c1.8-3.2,4.2-6.1,6.8-8.7C11,15.1,8.8,18,7,21.3C5.3,24.5,3.9,28,3.1,31.6
						c-1.6,7.2-1,14.8,1.7,21.5c1.3,3.4,3.2,6.6,5.4,9.4c2.2,2.9,4.9,5.4,7.8,7.5c5.9,4.2,13.1,6.3,20.3,6.5
						c7.2,0.1,14.5-1.8,20.5-5.5c3-1.9,5.8-4.2,8.1-6.9c2.3-2.7,4.1-5.8,5.5-9.1c2.7-6.6,3.6-13.9,2.4-20.9c-0.6-3.5-1.7-6.9-3.4-10
						c-1.6-3.1-3.8-5.9-6.3-8.3c-4.9-5-11.4-8.6-18.3-10.2c-3.5-0.8-7.1-1.1-10.6-0.8C32.8,5.1,29.2,5.9,26,7.4
						C12.7,13,3.3,27.4,3.9,42.2z"/>
				</g>
			</g>
		</g>
	</g>
</g>
</svg>
