<?xml version="1.0" encoding="utf-8"?>
<!-- Generator: Adobe Illustrator 21.0.0, SVG Export Plug-In . SVG Version: 6.00 Build 0)  -->
<svg version="1.1" xmlns="http://www.w3.org/2000/svg" xmlns:xlink="http://www.w3.org/1999/xlink" x="0px" y="0px"
	 viewBox="0 0 150 150" style="enable-background:new 0 0 150 150;" xml:space="preserve">
<style type="text/css">
	.st0{fill:#F1DD3F;}
</style>
<g id="Layer_2">
	<path class="st0" d="M135.4,15.2C115.9,8.7,95.2,3,74.5,2.5c-20-0.5-40.2,4.3-58.7,11.4c-4.7,1.8-3.9,8.4-0.2,9.5
		c2,6.9,6,12.6,9.7,18.8c4.4,7.4,7.2,15.4,9.1,23.7c3.9,17.1,4.4,34.7,8.6,51.7c-0.2,7.2-0.1,14.3,0.3,21.5c0.2,4.2,4.9,5.6,7.6,4
		c16.6,3.6,33.1,4.4,49.3,1.5c0.9,0.4,2,0.4,3.2-0.1c1.7-0.7,3.4-1.2,5.1-1.8c2.8-0.7,5.5-1.6,8.3-2.5c1.2,0.8,2.6,1,4.2,0.3
		c2.9,1.2,6.7-0.1,6.6-3.9c0.9-0.8,1.6-1.8,2-3.3c1.3-4.1,0.6-9.3,0.6-13.5c0-1.6-0.7-2.7-1.6-3.5c0.1-0.5,0.2-1,0.1-1.5
		c-2.4-30.3-0.3-60.5,6.2-90.2C139.3,24,140.5,16.8,135.4,15.2z M75.7,135.7c-0.4,0.3-0.7,0.5-1,0.8c-5.1-0.2-10.3-0.8-15.5-1.7
		c0-0.5,0-1-0.1-1.5c-1.6-6.4-2.3-12.8-2.1-19.2c0.1-0.1,0.3-0.1,0.4-0.2c4-1.8,8-3.8,11.9-5.8c-0.4,0.3-0.7,0.7-0.8,1.2l-2.8,8.2
		c-0.6,1.9-1.4,4-0.2,5.8c1.1,1.7,3.5,1.9,5.1,0.8c2.6-1.9,1.1-4.3,1.8-6.8c0.3-1-0.1-1.8-0.7-2.4c0.5-1.4,1-2.8,1.5-4.3
		c0.7-2.1-1.4-3.3-3.1-2.8c0,0,0.1,0,0.1-0.1c2.6-1.3,2.9-3.8,1.9-5.8c0.1-0.2,0.3-0.5,0.4-0.8c1.7-4.7,1.7-9.8,2.9-14.7
		c0.6-2.2,1.3-4.4,2.1-6.5c0.5,0.2,1,0.3,1.5,0.4c2.7,0.2,5.4,0.4,8.1,0.6c0.3,0,0.6,0,0.9,0c-3.1,8.3-4.6,16.9-4.5,25.8
		c0,1,0.3,1.8,0.7,2.5c-1.1,1.1-1.8,2.4-1.6,4.2c0.1,1.1,0.7,2.1,1.5,2.9c-1.2,4.3-2.2,8.7-3.2,13c-0.2,0.6-0.4,1.2-0.4,1.8
		c-0.1,0.3-0.1,0.5-0.2,0.8L75.7,135.7z M117.4,121.2c-3.6,3.6-7.6,6.7-12,9.3c-1.5,0.9-2.2,2.2-2.3,3.6c-0.5,0.1-0.9,0.2-1.4,0.3
		c-0.6-0.3-1.3-0.6-2.2-0.6c-3.8-0.2-7.6-2-9.9-5.1c-0.8-1.1-1.8-1.9-3-2.2c0.7-2.9,1.4-5.8,2.2-8.7c1.6,0,3.2-0.5,4.5-1.3
		c0,0.5,0,1-0.1,1.5c-0.4,2.6,0.6,5.1,3.4,5.9c2.3,0.6,5.5-0.8,5.9-3.4c0.1-0.7,0.2-1.4,0.3-2.1c0,0,0,0,0.1-0.1
		c2.2-2.1,2.9-5.4,1.8-8.2c-0.9-2.2-2.7-3.7-4.8-4.3c-1.2-1.8-2.4-3.5-3-5.6c-0.5-1.8-1.7-2.9-3.1-3.2c0.6-4.4,1.7-8.6,3.3-12.9
		c0.4-0.2,0.7-0.5,1.1-0.9c3.4-3.8,7.2-5.2,12-6.8c1.1-0.3,2.4-0.7,3.6-1.2c0,5-0.5,10-1.5,15c-1.2-0.1-2.5-0.1-3.8,0.2
		c-2.3,0.5-3.8,3-3.4,5.3c0.3,2.4,2.3,4.1,4.7,4.2c0.7,0,1.5,0.1,2.2,0.1c0,0,0,0,0.1,0c0.1,0.1,0.3,0.2,0.4,0.4c0,0,0,0,0,0
		c0,0,0,0.1,0.1,0.1c0,0,0,0,0,0.1c0,0,0,0,0,0c0.5,1.6,1.9,2.9,3.5,3.4c1,2.1,1.5,4.2,1.5,6.6c0,1,0.3,1.9,0.8,2.5
		c-0.7,0.8-1.2,1.8-1.2,3.2C117.3,118,117.4,119.6,117.4,121.2z"/>
</g>
<g id="Layer_1">
	<g>
		<g>
			<g>
				<g>
					<polygon points="141.2,12.3 140.2,17.9 139.6,20.7 139.1,23.5 138.2,29.1 137.3,34.7 136.9,37.5 136.6,40.3 135.9,45.9 
						135.3,51.5 135,54.4 134.8,57.2 133.9,62.8 133.2,68.4 132.9,71.2 132.6,74 132,79.6 131.6,85.3 131.4,88.1 131.2,90.9 
						130.9,96.6 130.7,102.2 130.6,105 130.6,107.9 130.5,113.5 130.6,119.2 130.6,122 130.7,124.9 130.9,130.5 131.3,136.2 
						131.4,139 131.7,141.9 132.1,147.5 131.4,141.9 131.1,139.1 130.8,136.3 130.2,130.6 129.8,124.9 129.5,122.1 129.4,119.3 
						129.1,113.6 128.9,107.9 128.8,105 128.7,102.2 128.7,96.5 128.7,90.8 128.8,88 128.9,85.1 129.1,79.4 129.4,73.7 129.6,70.9 
						129.8,68 130.2,62.4 130.8,56.7 131.3,53.9 131.8,51.1 132.9,45.5 134.1,39.9 134.7,37.1 135.4,34.3 136.7,28.8 138.2,23.3 
						138.9,20.5 139.7,17.8 					"/>
				</g>
			</g>
		</g>
		<g>
			<g>
				<g>
					<path d="M9.5,21l1.3-3.4l0.1-0.3l0.2,0.2c4.1,5.6,7.7,11.6,11,17.8c3.2,6.2,6.1,12.6,8.6,19.2c4.5,14.6,7.3,29.5,9.3,44.5
						c1.9,15,3,30.1,4.1,45.1c-1.7-15-3.5-30-6-44.8C35.5,84.6,32,69.9,27,55.8c-1.9-6.6-4.2-13.1-6.8-19.5
						c-2.7-6.4-5.8-12.6-9.3-18.5l0.3,0L9.5,21z"/>
				</g>
			</g>
		</g>
		<g>
			<g>
				<g>
					<path d="M141.2,18.1C128.5,10,113.8,5.9,99.1,4.8C91.8,3.8,84.4,3.5,77,3.7C69.6,4,62.1,4.8,54.8,6C40,8.4,25.5,12.3,11,16.1
						c14.3-4.5,28.6-9,43.4-12.1c7.4-1.6,14.8-2.7,22.4-3.3C84.4,0.2,92,0.1,99.6,0.9C114.6,3.3,129.3,8.9,141.2,18.1z"/>
				</g>
			</g>
		</g>
		<g>
			<g>
				<g>
					<polygon points="133.1,138.4 129.6,139.8 127.9,140.6 126.1,141.2 122.5,142.6 118.9,143.8 117.1,144.4 115.2,144.9 111.6,146 
						107.9,147 106,147.5 104.1,147.9 100.3,148.3 96.5,148.7 94.6,148.8 92.7,148.9 88.9,149.1 85,149.2 83.1,149.2 81.2,149.2 
						77.4,149.1 73.6,148.9 71.7,148.8 69.8,148.6 66,148.3 62.2,147.9 60.3,147.6 58.4,147.3 54.7,146.7 50.9,146 49.1,145.6 
						47.2,145.2 43.5,144.3 47.3,145 49.1,145.3 51,145.5 54.8,146 58.5,146.3 60.4,146.5 62.3,146.6 66.1,146.8 69.9,146.9 
						71.7,147 73.6,146.9 77.4,146.9 81.2,146.7 83,146.6 84.9,146.5 88.7,146.2 92.4,145.7 94.2,145.5 96.1,145.2 99.8,144.6 
						103.5,143.9 105.4,143.8 107.2,143.6 111,143.1 114.7,142.5 116.5,142.2 118.4,141.9 122.1,141.1 125.8,140.3 127.6,139.8 
						129.5,139.4 					"/>
				</g>
			</g>
		</g>
		<g>
			<g>
				<g>
					<path d="M103.4,118.6c1.3-0.9,2-2.4,2.1-3.8c0.1-1.5-0.3-2.8-1-4c-0.7-1.2-1.7-2.3-2.8-3.2c-1.1-1-2.3-1.9-3.6-2.9
						c-1.1-1.2-2.2-2.5-3-4.1c-0.9-1.5-1.4-3.2-1.7-4.9c-0.6-3.4-0.1-6.9,1.5-9.8c1.5-3,4.1-5.3,7-6.6c2.9-1.3,6.2-1.7,9.3-0.9
						c-3.1-0.4-6.2,0.3-8.8,1.8c-2.6,1.5-4.7,3.8-5.7,6.5c-1,2.7-1.1,5.7-0.4,8.4c0.4,1.3,1,2.6,1.7,3.7c0.8,1.1,1.8,2.1,2.9,3.1
						c1.9,2.3,4.3,4.8,5.4,8.1c0.3,0.8,0.4,1.7,0.5,2.5c0,0.9-0.1,1.7-0.3,2.5C106,116.6,104.9,118,103.4,118.6z"/>
				</g>
			</g>
		</g>
		<g>
			<g>
				<g>
					<path d="M93.4,125.2c0.1,1.2,0.6,2.2,1.3,3c0.7,0.8,1.7,1.4,2.7,1.7c2,0.7,4.2,0.1,6.1-0.8c1.9-1,3.6-2.4,5.2-3.9
						c1.5-1.5,2.9-3.2,3.8-5.1c1.8-2.6,2.9-5.7,2.8-8.8c-0.1-1.6-0.4-3.1-1-4.6c-0.6-1.4-1.5-2.8-2.7-3.8c-0.6-0.5-1.2-1-1.9-1.4
						c-0.7-0.4-1.5-0.8-2.3-1.2c-0.8-0.4-1.6-0.9-2.4-1.6c-0.8-0.7-1.4-1.5-1.8-2.5c-0.4-1-0.4-2.2,0-3.2c0.4-1,1.4-1.7,2.3-2.1
						c1.9-0.6,3.8-0.4,5.6,0.1l-0.6,0.3l4-12.1l-3.1,12.4l-0.1,0.4l-0.5-0.1c-1.6-0.4-3.4-0.4-4.8,0.2c-1.4,0.6-1.9,2.1-1.3,3.4
						c0.3,0.6,0.8,1.2,1.4,1.7c0.6,0.4,1.3,0.8,2.1,1.1c0.8,0.3,1.6,0.6,2.5,1c0.9,0.4,1.7,0.9,2.5,1.5c1.6,1.2,2.8,2.8,3.7,4.5
						c0.9,1.7,1.4,3.6,1.7,5.6c0.2,1.9,0.1,4-0.4,5.8c-0.5,1.9-1.2,3.7-2.2,5.4c-1.5,2-3.3,3.7-5.2,5.2c-2,1.4-4,2.7-6.4,3.4
						c-2.3,0.8-5,1-7.2-0.1c-1.1-0.5-2.1-1.3-2.7-2.3C93.7,127.6,93.3,126.4,93.4,125.2z"/>
				</g>
			</g>
		</g>
		<g>
			<g>
				<g>
					<path d="M97,133.3c-2.1,0.5-4.6-0.4-6.3-2c-1.8-1.7-2.8-3.9-3.6-6c-0.1-1-0.2-2.1-0.1-3.2c0.1-1.1,0.4-2.3,1.1-3.4
						c0.7-1.1,1.8-1.8,3-2.2c0.6-0.2,1.3-0.3,1.9-0.2c0.7,0.1,1.3,0.4,1.9,0.8l0.6,0.5l-0.1,0.6c-0.3,1.2-0.5,2.3-0.3,3.2
						c0.1,0.9,0.8,1.9,1.7,2.1c0.4,0.1,0.9,0.1,1.3-0.2c0.4-0.3,0.8-0.7,1.2-1.2c0.7-0.9,1.4-2.1,2.6-2.5c-1.1,0.6-1.6,1.8-2.1,2.8
						c-0.3,0.5-0.6,1.1-1.1,1.6c-0.5,0.5-1.3,0.8-2.1,0.7c-1.5-0.2-2.7-1.4-3.1-2.8c-0.4-1.4-0.3-2.8-0.2-4l0.4,1.1
						c-0.4-0.2-1-0.2-1.5,0.1c-0.5,0.3-1,0.8-1.2,1.3c-0.5,1.1-0.3,2.6,0.2,4.2c0.1,2,0.4,4,1.3,5.7C93.1,131.6,94.8,133.1,97,133.3
						z"/>
				</g>
			</g>
		</g>
		<g>
			<g>
				<g>
					<polygon points="90.1,82.2 85.5,83.5 77.1,80.1 86.1,79.5 					"/>
				</g>
			</g>
		</g>
		<g>
			<g>
				<g>
					<path d="M82.9,129.6c-1.4-5-2.5-10.2-3-15.5c0.9-10.6,3.8-20.8,8.4-30.1c-3.3,9.8-4.8,20.1-4.4,30.3
						C83.1,119.2,82.8,124.4,82.9,129.6z"/>
				</g>
			</g>
		</g>
		<g>
			<g>
				<g>
					<path d="M73.9,123.5c-1.1-4.4-2-8.9-2.4-13.5c1-9.1,3.5-18,7.2-26.2c-2.4,8.7-3.6,17.6-3.3,26.4
						C74.6,114.5,74.1,118.9,73.9,123.5z"/>
				</g>
			</g>
		</g>
		<g>
			<g>
				<g>
					<path d="M60.8,114l6.1-3.5l2.6-1.5l-0.9,3.4c-0.3,1-0.5,1.9-0.6,2.9c-0.7,1.4-1.3,2.9-1.8,4.4c-0.4,1.5-1,3.2-0.6,4.1
						c0.2,0.5,0.6,0.8,1.3,0.9c0.6,0.1,1.4-0.1,2-0.5c1.3-0.8,2-2.4,2.7-3.9c-0.4,1.6-0.7,3.4-2,4.7c-0.7,0.7-1.6,1.1-2.6,1.2
						c-0.5,0-1.1,0-1.6-0.2c-0.5-0.2-1-0.6-1.4-1.1c-0.7-1-0.8-2.1-0.8-3c0-1,0.1-1.8,0.2-2.7c0.2-1.7,0.5-3.5,1-5.2
						c0.6-1,1.2-1.9,1.9-2.7l1.7,1.9L60.8,114z"/>
				</g>
			</g>
		</g>
		<g>
			<g>
				<g>
					<path d="M83.1,120.5c-0.2,6.1-3.4,12.3-8.9,16.2c-1.5,0.8-3.1,1.4-4.8,1.6c-1.7,0.3-3.6,0.3-5.3-0.4c-1.8-0.6-3.2-2-4.1-3.4
						c-0.9-1.4-1.5-3-1.8-4.5c-1.4-6.1-0.9-12.5,1.3-18.1c-1.5,5.8-1.3,12.1,0.6,17.6c0.5,1.4,1.1,2.6,1.9,3.7c0.8,1,1.8,1.7,3,2
						c2.3,0.6,5-0.4,7.2-1.9C77.3,131.2,81.6,126.4,83.1,120.5z"/>
				</g>
			</g>
		</g>
	</g>
</g>
</svg>
