<?xml version="1.0" encoding="utf-8"?>
<!-- Generator: Adobe Illustrator 21.0.0, SVG Export Plug-In . SVG Version: 6.00 Build 0)  -->
<svg version="1.1" xmlns="http://www.w3.org/2000/svg" xmlns:xlink="http://www.w3.org/1999/xlink" x="0px" y="0px"
	 viewBox="0 0 80 80" style="enable-background:new 0 0 80 80;" xml:space="preserve">
<style type="text/css">
	.st0{fill:#0076B7;}
</style>
<g id="Layer_2">
	<path class="st0" d="M74.4,39.7c0-2.2-0.3-4.5-1-6.8c-1.6-5-4.4-9.7-7.6-14c-2.9-4.5-6.7-8.4-10.6-11.1c-1.3-0.9-2.5-0.9-3.6-0.3
		c-1.8-1-3.7-1.7-5.9-2.1C38.3,4,30,6.8,23,9.2c-1.5,0.5-2.3,1.6-2.6,2.7c-1.4,1-2.4,2.3-3.3,3.7c-0.6,0.2-1.3,0.6-1.8,1.2
		c-11,13.2-13.9,32.7-1,45.8c0,0.9,0.4,1.8,1.4,2.5c11.7,9.3,26.9,11.2,40,4.8c2.8-0.7,5.6-1.7,8.4-2.9c1.4-0.6,2-1.6,2.1-2.6
		C73.2,58.4,77.7,49.1,74.4,39.7z M29.3,35.4c-0.2,8.4-0.8,16.9-0.7,25.3c-1.9-0.1-3.9-0.1-5.8,0c-0.4-0.3-0.8-0.6-1.3-0.9
		c-0.1-0.6-0.3-1.2-0.7-1.7c0-0.2,0-0.4,0-0.6c0.7-1.1,0.9-2.5,0.3-4C21,53.4,21,53.3,21,53.2c0.1-5.9,0-11.9-0.4-17.8c0,0,0,0,0,0
		c2.7-0.7,5.9-0.7,8.7-0.4c0,0,0,0.1,0.1,0.1C29.3,35.1,29.3,35.2,29.3,35.4z M20.7,28.4c-0.1-0.2-0.3-0.4-0.4-0.5
		c0-0.1,0-0.2,0-0.3c0-0.6-0.2-1.2-0.4-1.6c0.6-0.8,1.1-1.7,1.7-2.5c0.2-0.3,0.4-0.6,0.6-1c1-0.4,2.1-0.6,3.2-0.6
		c0.5,0.2,1.1,0.2,1.7,0.2c0.6,0.1,1.2,0.3,1.7,0.6c0.5,0.9,1.3,1.8,2.2,2.6c0.1,0.2,0.1,0.4,0.2,0.6C28.1,29.5,23.9,34.8,20.7,28.4
		z M58.1,59.7c-0.6,0-1.3,0.2-1.9,0.7c-0.5,0.4-1.1,0.7-1.6,1c-1.1,0-2.2-0.1-3.3-0.1c-0.3-3.7-0.6-7.3-1.1-11
		c-0.3-2.1-0.1-5.6-2-7.1c-1.6-1.2-3.7-0.5-4.9,0.9c-1.4,1.7-1.7,3.9-1.6,6c-0.3,3.7-0.4,7.4-0.3,11.2c-1.5,0.5-2.8,0.8-4.5,0.1
		c-1-0.4-1.8-1-2.7-1.6c0.3-0.2,0.5-0.6,0.5-1.1c0.1-5.4,0.2-10.8,0.2-16.2c0-2.3-0.2-4.4-1-6.3c1.8-1.9,4.1-2.2,6.7-2.1
		c-0.4,1.1,0.3,2.6,1.7,2c3-1.1,7.4-3.8,10.6-2.1c0.3,0.2,0.6,0.2,0.9,0.2c0.1,0.2,0.2,0.5,0.4,0.7c2.8,3,4.4,6.7,5.7,10.5
		C58.8,50.1,58.2,54.9,58.1,59.7z"/>
</g>
<g id="Layer_1">
	<g>
		<g>
			<g>
				<g>
					<path d="M25.4,22.1c-2,0.1-3.6,1.6-4.1,3.1c-0.5,1.6,0.3,3,1.4,3.7c0.4,0.5,1,0.9,1.6,1.1c0.6,0.2,1.3,0.2,2-0.1
						c1.4-0.5,2.7-1.9,3.2-3.5c0.3-0.8,0.3-1.6,0-2.4c-0.3-0.7-1-1.4-1.8-1.7c-1.7-0.8-3.7-0.6-5.7-0.3c1.9-0.5,3.9-1.2,6-0.5
						c1,0.3,2,0.9,2.7,2c0.6,1,0.8,2.3,0.6,3.4c-0.4,2.3-1.7,4.3-3.9,5.6c-1.1,0.6-2.4,0.9-3.8,0.7c-1.3-0.2-2.6-0.8-3.6-1.7
						c-0.8-1-1.4-2.3-1.5-3.6c-0.1-1.3,0.3-2.6,1-3.6C21.1,22.4,23.5,21.5,25.4,22.1z"/>
				</g>
			</g>
		</g>
		<g>
			<g>
				<g>
					<path d="M20.9,35.9c0.8,3.7,1.6,7.4,2.3,11.1c-0.3,4.4-0.8,8.7-1.4,13.1l-0.5-0.8c2.7,1.1,5.9,1.5,8.9,0.9
						c-2.9,1-6.2,1.3-9.4,0.6l-0.5-0.1l0-0.7c-0.1-4.3-0.4-8.6-0.8-12.9C20.1,43.4,20.6,39.6,20.9,35.9z"/>
				</g>
			</g>
		</g>
		<g>
			<g>
				<g>
					<path d="M20.8,34.7c0.9,0.3,1.8,0.2,2.7-0.1c0.4-0.1,0.9-0.3,1.4-0.4c0.5-0.2,1-0.3,1.5-0.4c0.5-0.1,1.1-0.1,1.8,0
						c0.6,0.1,1.3,0.5,1.9,1c0.5,0.6,0.9,1.3,1.1,1.9c0.2,0.6,0.3,1.2,0.4,1.7L29,61.3l-1.2-22.9c0.2-0.9,0.2-1.5,0.1-1.9
						c-0.1-0.4-0.7-0.8-1.5-0.9c-0.8-0.2-1.8-0.1-2.8-0.1C22.7,35.5,21.6,35.3,20.8,34.7z"/>
				</g>
			</g>
		</g>
		<g>
			<g>
				<g>
					<path d="M34.1,35.7c1,2.6,1.8,5.3,2.6,8c-0.4,5.6-1.2,11-2.5,16.3c0.1-5.5-0.3-10.9-1.1-16.2C33.5,41.2,33.8,38.4,34.1,35.7z"
						/>
				</g>
			</g>
		</g>
		<g>
			<g>
				<g>
					<path d="M34.2,35.5c0.8-0.5,1.5-1,2.4-1.3c0.8-0.4,1.8-0.6,2.8-0.6c1.1,0.1,2.1,0.7,2.9,1.5c0.4,0.4,0.7,1,0.8,1.6
						c0.2,0.7,0.1,1.4-0.2,2.1l-2.4-1.3c0.6-1.4,1.5-2.6,2.7-3.6c2.5-1.5,5.4-1.9,8.2-1.3c2.7,0.7,4.9,2.4,6.4,4.5
						c1.5,2.1,2.3,4.7,2.2,7.2c0,2.5-0.8,4.9-2,7c0.9-2.2,1.3-4.6,1.1-6.9c-0.3-2.3-1.2-4.5-2.7-6.1c-1.5-1.6-3.5-2.7-5.5-2.9
						c-2-0.2-4.1,0.4-5.6,1.6c-0.9,0.4-1.7,1.1-2.4,1.9l-2.4-1.3c0.1-0.1,0.2-0.2,0.2-0.5c0-0.2,0-0.5-0.2-0.8
						c-0.3-0.6-0.8-1.1-1.4-1.3C37.7,34.4,35.9,34.9,34.2,35.5z"/>
				</g>
			</g>
		</g>
		<g>
			<g>
				<g>
					<path d="M59,45.7l1.7,7.7l-1,7.3l-0.1,0.9l-0.7,0c-2.8,0.1-5.5-0.3-8-1c2.7,0.1,5.3-0.3,7.8-0.9l-0.8,0.9L57,53.3L59,45.7z"/>
				</g>
			</g>
		</g>
		<g>
			<g>
				<g>
					<path d="M50.4,61.2l-1-7.2l-0.5-3.6c-0.2-1.2-0.3-2.4-0.6-3.5c0-1-0.1-1.9-0.5-2.6c-0.4-0.7-0.9-1.1-1.5-1.1
						c-0.7,0-1.6,0.4-2.2,1c-0.6,0.6-1,1.6-1.3,2.6c-0.3,1.1-0.4,2.2-0.5,3.4L42,53.9l-0.8,7l-0.1,0l0.2-0.6l-0.1,0.6l-0.1,0l-0.1-7
						l-0.1-3.5c0-1.2-0.1-2.4,0.1-3.6c0.1-1.3,0.4-2.6,1.3-3.8c0.9-1.2,2.1-2.1,3.8-2.3c0.8-0.1,1.8,0,2.5,0.4
						c0.8,0.4,1.4,1,1.9,1.6c1,1.3,1.3,2.8,1.5,4.1c0,1.3-0.2,2.5-0.4,3.7L51.2,54L50.4,61.2z"/>
				</g>
			</g>
		</g>
		<g>
			<g>
				<g>
					<path d="M34.7,53.4c0.6,1.4,1.2,2.9,2,4.1c-0.1,0.7-0.1,1.3-0.1,1.7c0.1,0.5,0,0.7,0.4,0.8c0.4,0.2,1.1-0.1,1.9-0.2
						c0.4-0.1,0.8,0,1.2,0.1c0.4,0.1,0.8,0.4,0.9,0.7c-0.6-0.5-1.3-0.3-1.8,0.1c-0.5,0.3-1.1,0.9-2.2,1.2c-0.5,0.1-1.2,0-1.8-0.3
						c-0.5-0.3-0.9-0.8-1.2-1.2c-0.6-0.9-0.8-1.8-1.1-2.5C33.5,56.3,34.1,54.8,34.7,53.4z"/>
				</g>
			</g>
		</g>
		<g>
			<g>
				<g>
					<path d="M5.9,37.8c0.1-3.5,0.8-6.9,2-10.2c0.3-0.8,0.6-1.7,1-2.4l1.1-2.4l1.3-2.3c0.4-0.8,1-1.4,1.5-2.2
						c2.1-2.8,4.6-5.3,7.4-7.5C23,8.8,26.2,7,29.5,5.8C36.1,3.1,43.7,3.1,50.6,5c3.5,1,6.8,2.5,9.8,4.4c0.7,0.5,1.5,0.9,2.3,1.5
						l2.2,1.7l2,1.8c0.7,0.6,1.3,1.3,1.9,2c2.3,2.8,4.3,5.9,5.8,9.2c1.4,3.4,2.3,6.9,2.7,10.6c0,0.9,0.2,1.8,0.1,2.7l-0.1,2.7
						L77,44.3c-0.1,0.9-0.3,1.8-0.5,2.7c-0.8,3.5-2,6.9-3.7,10.1c-1.7,3.2-3.8,6.1-6.3,8.7c-0.6,0.6-1.2,1.3-1.9,1.9l-2,1.8L60.5,71
						c-0.7,0.5-1.5,0.9-2.3,1.4c-3.1,1.8-6.5,3-10,3.8c-3.5,0.7-7.1,0.8-10.6,0.5c-0.9-0.1-1.8-0.1-2.6-0.3l-2.6-0.5l-2.6-0.7
						c-0.9-0.2-1.7-0.6-2.5-0.8c-3.3-1.2-6.5-2.9-9.3-4.9c-5.7-4.2-10.3-9.9-12.5-16.6C4.2,49.5,3.5,46,3.2,42.5
						c-0.2-3.5,0-7,0.7-10.4c0.2-0.8,0.3-1.7,0.6-2.5l0.7-2.5l0.9-2.4c0.3-0.8,0.7-1.6,1.1-2.4c1.6-3.1,3.6-6,5.9-8.5
						c-2.3,2.6-4.2,5.5-5.7,8.6c-0.3,0.8-0.8,1.6-1,2.4l-0.9,2.4l-0.7,2.5c-0.2,0.8-0.3,1.7-0.5,2.5c-0.6,3.4-0.8,6.9-0.5,10.3
						c0.3,3.4,1.1,6.8,2.3,10c2.3,6.5,6.9,11.9,12.4,15.8c2.8,1.9,5.9,3.4,9.1,4.5c0.8,0.2,1.6,0.6,2.4,0.8l2.5,0.6l2.5,0.4
						c0.8,0.2,1.7,0.2,2.5,0.2c3.4,0.2,6.8,0,10.1-0.7c3.3-0.8,6.4-2,9.3-3.7c0.7-0.5,1.4-0.8,2.1-1.4l2-1.5l1.9-1.7
						c0.6-0.5,1.2-1.2,1.7-1.8c2.2-2.5,4.1-5.3,5.7-8.2c1.5-3,2.6-6.2,3.2-9.4c0.1-0.8,0.3-1.6,0.4-2.5l0.2-2.5l0-2.5
						c0-0.8-0.1-1.6-0.2-2.5c-0.4-3.3-1.2-6.5-2.6-9.5c-1.4-3-3.3-5.7-5.4-8.2c-0.5-0.6-1-1.3-1.6-1.9l-1.8-1.7l-1.9-1.6
						c-0.6-0.6-1.3-1-2-1.5c-2.7-1.9-5.7-3.4-8.9-4.5c-6.3-2-13.3-2.3-19.7-0.1c-3.2,1.1-6.3,2.6-9.1,4.5c-2.8,2-5.3,4.3-7.5,7
						c-0.5,0.7-1.1,1.3-1.6,2l-1.4,2.1l-1.2,2.3C9,26.2,8.7,27,8.3,27.8C7,31,6.2,34.4,5.9,37.8z"/>
				</g>
			</g>
		</g>
	</g>
</g>
</svg>
