<?xml version="1.0" encoding="utf-8"?>
<!-- Generator: Adobe Illustrator 21.0.0, SVG Export Plug-In . SVG Version: 6.00 Build 0)  -->
<svg version="1.1" xmlns="http://www.w3.org/2000/svg" xmlns:xlink="http://www.w3.org/1999/xlink" x="0px" y="0px"
	 viewBox="0 0 150 150" style="enable-background:new 0 0 150 150;" xml:space="preserve">
<style type="text/css">
	.st0{fill:#8FC732;}
</style>
<g id="Layer_2">
	<path class="st0" d="M77.5,82.3c-1-2.9-1.9-5.8-2.9-8.6c-1.3-4-7.6-2.3-6.3,1.7c1,2.9,1.9,5.8,2.9,8.6C72.5,88,78.8,86.3,77.5,82.3
		z"/>
	<path class="st0" d="M122.9,91.5c-0.1-0.5-0.3-0.9-0.6-1.3c0,0,0-0.1,0-0.1c0-0.7-0.3-1.5-0.9-2.1c0.3-1.2,0.1-2.5,0.1-3.7
		c0-0.9,0-1.9-0.1-2.8c0.8-4.7,1.5-9.4,1.9-14.1c0-0.2,0-0.3,0-0.4c0.1-0.5,0.2-1,0-1.6c0.2-0.2,0.3-0.4,0.4-0.7
		c1.9-4.5,1.1-9.8,3.2-14.2c1.1-2.3-0.6-4.4-2.5-4.9c-0.6-0.8-1.7-1.4-2.7-1.4c0,0,0,0,0,0c-0.6-0.6-1.3-1.1-2.1-1.4
		c-1.7-0.7-3.3-1.2-5-1.7c-0.3-0.6-0.8-1.1-1.5-1.5c-9.6-5.8-18.8-12-27.6-18.9c-0.9-0.7-1.9-1-2.8-1c-1.1-2-2.1-4.2-2.9-6.3
		c-0.9-2.4-3.2-3.2-5.3-2.8c-1.9-1.4-4.9-1.6-6.8,0.8C62.5,18.3,57.2,25.4,50.2,31c-5.5,4.3-11.4,8.1-16.8,12.7
		c-1.9,1-3.7,1.9-5.6,2.8c-0.6,0.3-1.1,0.8-1.5,1.4c-2.7-0.7-5.5,2.9-3.2,5.5c2.7,2.9,3.9,7.5,5.6,11.1c0.7,1.5,1.4,3.1,2.1,4.6
		c-0.4,0.6-0.5,1.5-0.1,2.5c3,7.8,5.4,15.7,7.2,23.8c-0.5,0.7-0.8,1.6-0.6,2.6c0.6,3.7,0.9,7.3,0.9,11c0,1.1,0.4,1.9,1.1,2.4
		c0.8,2.8,4.5,4.5,6.7,2.6c1.5,0.1,3.2,1,4.6,1.7c0.3,0.7,1,1.3,1.9,1.8c4.7,2.2,9,5,12.6,8.7c3.1,3.2,5.2,7.7,9.2,9.8
		c0.2,0.1,0.4,0.2,0.6,0.3c-2.1,4.3,4.9,8,7.9,3.7c6.3-9,14.3-16.7,23.5-22.7c0.4-0.3,0.7-0.5,1-0.8c4.1-2.6,8.3-4.8,12.8-6.6
		c1.2-0.5,2-1.3,2.5-2.2c0.4-0.1,0.9-0.3,1.3-0.4c1.9-0.5,2.8-1.9,3-3.4c0.3-1.1,0.3-2.4-0.4-3.3C124.5,97.7,123.4,94.9,122.9,91.5z
		 M61,90.7c-1.7-1.4-3.8-3.3-6.1-3.3c-0.6-3.3-1.1-6.6-1.5-10c-0.5-4.1-7-4.2-6.5,0c0.4,3.6,1,7.1,1.6,10.7
		c-0.2,0.1-0.3,0.2-0.5,0.3c-1.5,1.3-2.8,2.8-4,4.4c-1.2-5.4-2.7-10.7-4.4-15.9c0.6-0.8,0.9-2,0.5-3.1c0.6-1.8,0.9-3.7,1.1-5.6
		c0.3-2.2,0.4-4.4,0.5-6.6c1.8,2.1,5.1,4.3,8.1,5.6c2.1,1.4,4.3,2.5,6.6,3.4c0.3,0.1,0.5,0.2,0.8,0.2c1.6,7,3.2,13.9,5,20.8
		C61.7,91.3,61.4,91,61,90.7z M80.9,86.2c-0.2,0.1-0.5,0.2-0.8,0.3c-2.3,1.2-3.7,3.5-5.1,5.6c-0.4,0.6-0.9,1.3-1.3,1.9
		c-1.8-1.5-3.5-3-5.2-4.6c-0.1-0.1-0.2-0.2-0.3-0.3c-1.5-5.9-2.9-11.8-4.3-17.7c0.5-0.4,0.8-0.9,1-1.6c0.9-3,2.1-5.8,3.6-8.4
		c0.7,0,1.3,0.2,2,0.4c2.8,3.7,5.7,7.4,8.6,11c0,0,0,0,0,0c0,4.4,1.3,8.7,2.5,12.9C81.3,85.9,81.1,86,80.9,86.2z M104.1,67.4
		c0.1,0,0.3-0.1,0.4-0.1c1.1-0.8,2.2-1.5,3.4-2.1c0.2-0.1,0.3-0.2,0.4-0.3c2.6-0.9,5.1-1.8,7.6-2.7c0.4,1.6,0.9,3.2,1.3,4.8
		c0.2,0.6,0.5,1.1,0.9,1.5c0,0,0,0,0,0c0,1.4,0.3,2.8,0.6,4.2c-0.4,0.3-0.8,0.6-1.3,0.9c-0.5,0.3-0.6,0.8-0.5,1.2
		c-1.1,0.6-2.1,1.2-3.1,1.9c-0.7-0.2-1.5-0.3-2.3-0.4c-0.9-0.3-1.9-0.5-2.9-0.4c-0.4,0-0.8,0.3-1,0.7c-0.4,0.1-0.8,0.4-0.8,1
		c-0.1,2.7-0.7,5.4-1.8,7.9c-0.5,1.1,1.1,1.7,1.8,1c0.4,0.2,0.7,0.6,1.2,0.6c0.6,0.1,1.2-0.1,1.3-0.8c0-0.1,0-0.2,0-0.4
		c2.2-1.6,4.5-3.1,7.1-3.7c0.4,1.3,0.6,2.6,0.7,3.9c0.1,0.5,0.4,0.9,0.8,1c-4.8,0.8-9.1,2.5-13,5.4c-0.5-0.8-1.1-1.5-1.8-2.1
		c0.1-1.2-0.6-2.4-1.6-3.1c0-0.8,0.1-1.6,0.2-2.4c0-0.1,0.1-0.2,0.1-0.4c0-0.1,0-0.2,0-0.3c0.1-2.2,0.3-4.4,0.5-6.5
		c0-0.1,0-0.2,0-0.3c0.2-0.2,0.4-0.4,0.5-0.8C102.9,73.4,103.4,70.4,104.1,67.4z M99.5,85.1c-0.3,0-0.6,0.2-0.8,0.5
		c-0.4,0.8-0.9,1.6-1.3,2.4c-2.1,2.3-4,4.6-5.9,7c-2.1-2.8-4.3-5.6-6.6-8.3c0.1-0.2,0.1-0.3,0-0.5c-0.7-4.2-1.2-8.4-1.4-12.6
		c0-0.2-0.1-0.3-0.1-0.4c0.9-0.9,1.4-2.2,1.1-3.6c0.5-0.3,0.9-0.7,1.3-1.3c1.1-2.1,2.2-4.3,3.5-6.3c0.6,1.3,1.2,2.6,1.8,3.9
		c0,0,0,0,0,0c0,0,0,0.1,0.1,0.1c0,0.2,0,0.5,0,0.7c0.1,1.4,2.2,1.4,2.2,0c-0.1-2.9,1.2-5.5,1.6-8.4c0-0.3,0-0.5-0.1-0.7
		c-0.1-0.9-0.2-1.9-0.2-2.8c0.2-0.9,0.4-1.8,0.6-2.7c0,0.1,0.1,0.2,0.1,0.2c0.8,1.2,1.5,2.4,2.2,3.6c1.6,2.5,3.2,5.1,4.8,7.6
		c-0.4,0-0.7,0.3-0.8,0.8c-1.2,6.6-2.2,13.1-1.9,19.9C99.6,84.4,99.6,84.8,99.5,85.1z"/>
	<path class="st0" d="M94.3,80.9c0.1-1.1,0.1-2.4-0.5-3c0,0,0,0,0,0c-0.1-0.2-0.3-0.3-0.6-0.3c-0.3-0.1-0.6-0.2-0.9-0.4
		c-0.3-0.2-0.7-0.7-1-1.2c0.1-0.5,0-1-0.2-1.4c-0.1-0.1-0.1-0.2-0.2-0.2c-0.1-0.7-0.8-1.4-1.6-0.9c-1,0.7-0.7,1.8-0.2,2.8
		c0,0,0,0.1,0,0.1c-0.1,0.3-0.2,0.7-0.3,1c-0.2,0.2-0.4,0.4-0.4,0.8c-0.1,1.6,0.2,3.3,0.6,4.9c0,0.1,0,0.3,0,0.4
		c0,0.1,0,0.1,0.1,0.2c0,0.2,0.1,0.4,0.1,0.6c0.1,0.3,0.2,0.5,0.4,0.6c0.2,0.4,0.3,0.8,0.5,1.2c0,0,0,0.1,0.1,0.1
		c-0.3,0.8,0.3,1.8,1.2,1.4c1-0.4,1.1-1.4,1.6-2.3c0.5-1,1.2-1.8,1.9-2.5C95.5,82,95,81.1,94.3,80.9z"/>
	<path class="st0" d="M113,71.4c0.1-0.3,0-0.7-0.3-1c0,0,0,0,0,0c0-0.4-0.1-0.8-0.1-1.2c0-1.3-2-1.4-2.1-0.2
		c-0.4,0.1-0.7,0.4-0.8,0.8c0,0.1-0.1,0.2-0.1,0.2c0,0-0.1,0-0.1,0c-0.6,0.1-0.9,0.8-0.8,1.3c0.2,0.6,0.8,0.9,1.3,0.8
		c0.3-0.1,0.6-0.1,0.8,0c0.2,0.4,0.4,0.7,0.7,0.9C112.6,73.6,113.5,72.3,113,71.4z"/>
</g>
<g id="Layer_1">
	<g>
		<g>
			<g>
				<g>
					<path d="M75.3,9.1c4.6,5.2,9.6,9.8,15.1,13.7c9.6,9.4,21.3,16.9,33.9,22.3C111.2,41,98.7,34.6,87.8,25.8
						C83,20.7,78.8,15.1,75.3,9.1z"/>
				</g>
			</g>
		</g>
		<g>
			<g>
				<g>
					<path d="M78.6,1c-3.8,6.7-8.2,13.1-13.2,19.1C54.1,30.8,41,39.3,27.1,45.7c13.3-7.7,25.4-17.2,35.6-28.4
						C68.4,12.4,73.8,7,78.6,1z"/>
				</g>
			</g>
		</g>
		<g>
			<g>
				<g>
					<path d="M38.1,115c-0.7-7.5-1.9-14.8-3.8-22c-1.7-14.6-6-29-12.3-42.6c7.5,12.9,13.1,27.1,16.2,41.9
						C38.8,100,38.7,107.6,38.1,115z"/>
				</g>
			</g>
		</g>
		<g>
			<g>
				<g>
					<path d="M128.1,103.1c-0.8-0.4-1.6-0.8-2.3-1.4c-0.7-0.6-1.3-1.3-1.8-2c-1-1.5-1.7-3.3-2.1-5c-0.5-1.8-0.6-3.6-0.9-5.3
						c-0.2-1.8-0.4-3.5-0.6-5.3c0.7-14.1,4-28,9.3-40.8c-4,13.3-5.9,27.2-5.3,40.9c-0.2,1.7-0.3,3.4-0.4,5.1
						c-0.1,1.7-0.2,3.4-0.1,5.1c0.1,1.7,0.4,3.3,1,4.9c0.3,0.8,0.8,1.5,1.3,2.2C126.7,102,127.4,102.6,128.1,103.1z"/>
				</g>
			</g>
		</g>
		<g>
			<g>
				<g>
					<path d="M80.3,149c-1.6-2.8-3.4-5.4-5.4-7.9c-2-2.4-4.1-4.8-6.5-6.8c-3.8-4.9-8.5-9.2-13.5-13c-5.1-3.8-10.6-7-16.5-9.6
						c6.1,2,12,4.6,17.6,7.9c5.5,3.4,10.8,7.3,15.4,12.1c2,2.7,3.6,5.5,5.2,8.4C78,142.9,79.2,146,80.3,149z"/>
				</g>
			</g>
		</g>
		<g>
			<g>
				<g>
					<path d="M132,103.8c-7,3.4-13.4,7.7-19.3,12.6c-6.5,4-12.6,8.8-18.4,13.9c-5.8,5.1-11.3,10.5-16.9,16
						c5-5.9,10.1-11.8,15.5-17.4c5.4-5.6,11.2-11,17.5-15.7C117.3,109.1,124.5,106,132,103.8z"/>
				</g>
			</g>
		</g>
		<g>
			<g>
				<g>
					<path d="M43.9,94.7c-0.4-2.2-1-4.4-1.7-6.4c-0.4-4.3-1.5-8.6-3.2-12.7c2.4,3.7,4.3,7.9,5.4,12.3C44.4,90.2,44.2,92.4,43.9,94.7
						z"/>
				</g>
			</g>
		</g>
		<g>
			<g>
				<g>
					<path d="M50.1,86.1C49.4,87,48.7,88,48.2,89c-1.8,1.2-3.4,2.7-4.8,4.5c0.7-2.2,1.8-4.2,3.2-6.1C47.8,86.8,48.9,86.4,50.1,86.1z
						"/>
				</g>
			</g>
		</g>
		<g>
			<g>
				<g>
					<path d="M49,86.8c-0.7-0.9-1.3-1.9-1.9-2.9c-0.1-2.2,0-4.4,0.3-6.5c0.5,2.1,1.1,4.1,1.9,6.1C49.2,84.5,49.1,85.6,49,86.8z"/>
				</g>
			</g>
		</g>
		<g>
			<g>
				<g>
					<path d="M48.2,71.5c0.1,0.8,0.2,1.6,0.5,2.3c-0.6,1.2-0.9,2.7-0.9,4.3c-0.8-1.3-1.3-2.9-1.3-4.6C47,72.7,47.6,72,48.2,71.5z"/>
				</g>
			</g>
		</g>
		<g>
			<g>
				<g>
					<polygon points="53.2,75.4 50.8,75.2 48,72 52.1,73.3 					"/>
				</g>
			</g>
		</g>
		<g>
			<g>
				<g>
					<polygon points="55.2,84.3 55,84.8 54.9,85.1 54.7,84.8 53.1,82.2 52.8,75.5 55.3,81.7 55,84.7 54.7,84.6 					"/>
				</g>
			</g>
		</g>
		<g>
			<g>
				<g>
					<polygon points="62.2,92.8 62,93.3 62,93.4 61.8,93.3 58.7,91.5 54.2,84.9 60.4,89.9 62,93.1 61.8,93.1 					"/>
				</g>
			</g>
		</g>
		<g>
			<g>
				<g>
					<path d="M42.2,60.7c0.7,1.5,1.2,3.1,1.4,4.8c-0.7,3.3-2.3,6.3-4.5,8.6c1.6-2.8,2.4-5.9,2.2-8.8C41.9,63.8,42.2,62.3,42.2,60.7z
						"/>
				</g>
			</g>
		</g>
		<g>
			<g>
				<g>
					<path d="M58.3,72.6c-1,0.3-2.1,0.2-3.1-0.1c-1-0.3-2-0.8-2.9-1.2c-3-2.7-5.8-5.5-8.4-8.4c3.2,2.4,6.4,4.6,9.8,6.6
						c0.7,0.7,1.3,1.5,2,2C56.4,72.1,57.3,72.6,58.3,72.6z"/>
				</g>
			</g>
		</g>
		<g>
			<g>
				<g>
					<path d="M61.7,93.5c-1.2-2.1-2.4-4.3-3.4-6.6c-0.9-4.9-1.3-9.8-1-14.7c0.5,4.9,1.6,9.6,3.2,14.1C60.8,88.7,61.2,91.1,61.7,93.5
						z"/>
				</g>
			</g>
		</g>
		<g>
			<g>
				<g>
					<path d="M67.7,88.9c-0.4-2.1-0.9-4.1-1.6-6c-0.2-4-1.1-8.1-2.5-12c2.1,3.6,3.7,7.5,4.7,11.6C68.2,84.7,68,86.8,67.7,88.9z"/>
				</g>
			</g>
		</g>
		<g>
			<g>
				<g>
					<path d="M82,85.9c-1.2-1.6-2.2-3.2-3.1-5c-0.7-3.9-0.7-7.9-0.1-11.6c0.1,3.8,0.9,7.6,2.3,11C81.2,82.1,81.5,84,82,85.9z"/>
				</g>
			</g>
		</g>
		<g>
			<g>
				<g>
					<path d="M69.9,59.7c0,1.5-0.1,3-0.3,4.4c-1.5,2.6-3.2,4.9-5.1,7c1.3-2.5,2.3-5.2,3-7.9C68.3,62.1,69.1,60.9,69.9,59.7z"/>
				</g>
			</g>
		</g>
		<g>
			<g>
				<g>
					<path d="M78,71.3l-0.1,0.3l0,0.1l-0.1,0c-1.2-0.5-2.5-1.1-3.7-1.9c-1.8-2.3-3.2-4.9-4-7.6c1.6,2.4,3.5,4.4,5.7,6
						c0.6,1.1,1.3,2.2,2.1,3.3l-0.1,0L78,71.3z"/>
				</g>
			</g>
		</g>
		<g>
			<g>
				<g>
					<path d="M76.4,94.5l-0.3,0.3l0,0L76,94.7c-1-0.8-2-1.5-3-2c-1.5-2.1-3.4-3.9-5.6-5.4c2.5,0.8,5,2.1,7.2,3.8
						c0.6,1.1,1.2,2.3,1.5,3.5l-0.1,0L76.4,94.5z"/>
				</g>
			</g>
		</g>
		<g>
			<g>
				<g>
					<path d="M82.1,83.9c-0.7,1.2-1.3,2.5-1.8,3.7c-1.9,1.8-3.6,3.9-5,6.2c0.7-2.6,1.8-5.2,3.3-7.6C79.7,85.4,80.9,84.6,82.1,83.9z"
						/>
				</g>
			</g>
		</g>
		<g>
			<g>
				<g>
					<path d="M70.5,83c-0.6-0.9-1.3-1.8-1.8-2.7c0-2.1,0.2-4.2,0.7-6.2c0.3,2,0.8,4,1.5,5.8C70.7,80.9,70.6,82,70.5,83z"/>
				</g>
			</g>
		</g>
		<g>
			<g>
				<g>
					<path d="M70.2,69.8l0.4,2.1l-2.1,2.7l0-0.1c0,0.1,0.2,0.2,0.3,0.1c-0.1,0.1-0.3,0.3-0.5,0.1l0,0l0-0.1l0.2-3.4L70.2,69.8z"/>
				</g>
			</g>
		</g>
		<g>
			<g>
				<g>
					<path d="M76.5,75.3c-1-0.3-1.9-0.6-2.9-0.9c-1.1-1.4-2.1-2.9-3-4.4l-0.1-0.2l0.2,0l0.4,0.1L70.7,70l0.1-0.1
						c1.4,1,2.9,2,4.4,2.8C75.6,73.6,76,74.5,76.5,75.3z"/>
				</g>
			</g>
		</g>
		<g>
			<g>
				<g>
					<polygon points="76.8,84.9 75.3,81.7 75.8,74.9 77.6,81.4 					"/>
				</g>
			</g>
		</g>
		<g>
			<g>
				<g>
					<polygon points="74.4,87.4 72.1,86.3 70,82 73.8,84.9 					"/>
				</g>
			</g>
		</g>
		<g>
			<g>
				<g>
					<path d="M77,82.9c0,0.7,0,1.3,0.1,1.9c-0.8,0.6-1.5,1.4-2.1,2.4c-0.2-1.1-0.1-2.3,0.1-3.5C75.8,83.4,76.4,83.1,77,82.9z"/>
				</g>
			</g>
		</g>
		<g>
			<g>
				<g>
					<path d="M84.6,72.5c0.3-1.4,0.6-2.8,0.8-4.3c1.5-2.3,3-4.7,4.4-7.2c-0.7,2.7-1.5,5.5-2.4,8.2C86.5,70.4,85.6,71.4,84.6,72.5z"
						/>
				</g>
			</g>
		</g>
		<g>
			<g>
				<g>
					<path d="M92.9,70.6l-2.2-2.5l-0.6-3.1l-0.3-1.6l-0.1-0.8c0-0.1-0.1-0.3,0-0.5c0.1-0.1,0.4-0.1,0.4,0.1c0-0.1-0.2-0.1-0.2,0
						c0,0.1,0,0.2,0.1,0.3l0.4,0.7l0.8,1.4l1.6,2.7L92.9,70.6z"/>
				</g>
			</g>
		</g>
		<g>
			<g>
				<g>
					<path d="M95,52.2c0.3,2.1,0.6,4.1,0.7,6.3c-0.8,3.9-2,7.6-3.5,11.2l-0.1-0.1l0.5-0.6l-0.4,0.6l-0.2,0.4l0.1-0.5
						c0.8-3.8,1.3-7.6,1.4-11.4C94.1,56.3,94.6,54.3,95,52.2z"/>
				</g>
			</g>
		</g>
		<g>
			<g>
				<g>
					<polygon points="101.6,63.9 98.8,60.5 96.3,52.9 96.2,52.8 96.3,52.8 96.8,53 96.3,53 96.4,52.9 100.8,59.6 					"/>
				</g>
			</g>
		</g>
		<g>
			<g>
				<g>
					<path d="M99.6,84.8c-0.5-2.2-1-4.5-1.2-6.8c0.6-4.6,1.7-9,3.4-13.2c-0.9,4.4-1.3,8.9-1.1,13.3C100.2,80.3,99.8,82.5,99.6,84.8z
						"/>
				</g>
			</g>
		</g>
		<g>
			<g>
				<g>
					<path d="M84.3,86.2c-0.3-1.5-0.6-3-0.9-4.5c0.4-3,0.6-6,0.5-9c0.8,2.9,1.4,5.9,1.8,9C85.3,83.2,84.8,84.7,84.3,86.2z"/>
				</g>
			</g>
		</g>
		<g>
			<g>
				<g>
					<path d="M91.1,94.9c-0.8-1.1-1.7-2.1-2.7-2.9c-1-2.3-2.5-4.5-4.3-6.4c2.3,1.3,4.5,3,6.2,5.2C90.8,92.1,91,93.5,91.1,94.9z"/>
				</g>
			</g>
		</g>
		<g>
			<g>
				<g>
					<path d="M100.5,84c-1.1,1.3-2,2.7-2.9,4.1c-2.4,1.9-4.6,4-6.6,6.5l-0.1-0.1l0.6-0.1L91,94.6l-0.2,0.1l0.1-0.2
						c1.4-2.8,3.1-5.5,5.1-8C97.5,85.6,99,84.7,100.5,84z"/>
				</g>
			</g>
		</g>
		<g>
			<g>
				<g>
					<path d="M88.7,76.9c-0.3-0.6-0.6-1.3-0.8-2c0.7-1.1,1.5-2.1,2.4-2.8c-0.3,1.2-0.4,2.3-0.3,3.4C89.6,75.9,89.2,76.3,88.7,76.9z"
						/>
				</g>
			</g>
		</g>
		<g>
			<g>
				<g>
					<path d="M94.5,78.4c-0.9-0.3-1.9-0.6-2.8-1.1c-1-1.7-1.6-3.6-1.7-5.5c0.8,1.6,2.1,3,3.4,4C93.7,76.6,94.1,77.5,94.5,78.4z"/>
				</g>
			</g>
		</g>
		<g>
			<g>
				<g>
					<polygon points="88.6,84.6 87.5,81.9 88.6,76.6 89.7,81.9 					"/>
				</g>
			</g>
		</g>
		<g>
			<g>
				<g>
					<path d="M91.6,89.6C91.1,89,90.5,88.4,90,88c-0.1-1.3-0.3-2.7-0.7-4.1c1.1,1,2,2.1,2.9,3.3C92,88,91.8,88.8,91.6,89.6z"/>
				</g>
			</g>
		</g>
		<g>
			<g>
				<g>
					<path d="M96,81.9c-0.6,0.8-1,1.7-1.3,2.6c-1.4,1-2.6,2.4-3.1,4.2c-0.2-1.9,0.3-4,1.4-5.8C94.1,82.5,95.1,82.1,96,81.9z"/>
				</g>
			</g>
		</g>
		<g>
			<g>
				<g>
					<path d="M94.9,82.8c-0.5-0.4-1-1-1.5-1.6c0.2-1.3,0.7-2.5,1.3-3.6c0.1,1.2,0.4,2.3,0.9,3.3C95.3,81.5,95.1,82.1,94.9,82.8z"/>
				</g>
			</g>
		</g>
		<g>
			<g>
				<g>
					<path d="M101.5,85c0-2,0-3.9,0-5.8c1-3.7,1.7-7.4,2.3-11.3c0.2,3.8,0.2,7.7,0,11.6C103.1,81.4,102.3,83.2,101.5,85z"/>
				</g>
			</g>
		</g>
		<g>
			<g>
				<g>
					<path d="M105.1,84.7l0.1,0.2l-0.2,0c0-1.1,0-2.1-0.1-3.2c0.9-2,1.8-4,2.5-6.2c0.1,2.2,0,4.5-0.3,6.8c-0.6,0.9-1.3,1.8-1.9,2.6
						l-0.2,0.2l0-0.2L105.1,84.7z"/>
				</g>
			</g>
		</g>
		<g>
			<g>
				<g>
					<polygon points="114.1,76.5 111.4,77.1 107.6,75.5 105.9,74.9 107.6,75.1 108.5,75.3 107.6,75.5 107.6,75.1 111.8,74.9 					
						"/>
				</g>
			</g>
		</g>
		<g>
			<g>
				<g>
					<polygon points="118.7,72.5 117.3,74.9 112.5,77 116,73.1 					"/>
				</g>
			</g>
		</g>
		<g>
			<g>
				<g>
					<path d="M118.6,73.5c-0.7-1.2-1.4-2.3-2.2-3.5c-0.4-2.6-1-5.2-1.6-7.8c1.4,2.3,2.6,4.7,3.8,7.2
						C118.6,70.7,118.6,72.1,118.6,73.5z"/>
				</g>
			</g>
		</g>
		<g>
			<g>
				<g>
					<path d="M115.7,60.7c-1.2,1-2.3,2.1-3.5,3.2c-2.8,1.1-5.5,2.4-8.2,3.7l0,0l0.2,0l-0.2,0.1l-0.2,0.1l0.2-0.1
						c2.3-1.9,4.7-3.8,7.1-5.6C112.7,61.5,114.2,61.1,115.7,60.7z"/>
				</g>
			</g>
		</g>
		<g>
			<g>
				<g>
					<path d="M105.8,92.6c-0.9-0.5-1.8-1.1-2.7-1.7c-0.9-1.9-1.6-3.7-2.2-5.6c1.3,1.5,2.7,3,4.1,4.3
						C105.2,90.6,105.5,91.6,105.8,92.6z"/>
				</g>
			</g>
		</g>
		<g>
			<g>
				<g>
					<path d="M119.5,85.8l0.4-0.2l0.1,0.2c-1.5,0.9-2.9,1.8-4.4,2.8c-1.8,0.5-3.5,1.1-5.2,1.7c-0.9,0.3-1.7,0.6-2.6,1
						c-0.4,0.2-0.8,0.4-1.2,0.6c-0.3,0.3-0.7,0.6-0.7,1.1c0-0.5,0.2-0.9,0.5-1.3c0.3-0.4,0.7-0.7,1.1-0.9c0.8-0.5,1.6-1,2.4-1.5
						c1.6-1,3.2-1.9,4.8-2.8c1.7-0.3,3.4-0.6,5.2-0.8l0.1,0.2L119.5,85.8z"/>
				</g>
			</g>
		</g>
		<g>
			<g>
				<g>
					<polygon points="116.8,86.4 117,86.7 116.6,86.7 115.8,85.1 117.1,81.3 118,85.2 117,86.7 116.6,86.7 					"/>
				</g>
			</g>
		</g>
		<g>
			<g>
				<g>
					<path d="M107.9,87.1c-0.5,0.3-1,0.6-1.7,0.7c-0.8-0.8-1.4-1.8-1.4-2.7c0.7,0.6,1.6,0.7,2.3,0.6
						C107.2,86.2,107.5,86.7,107.9,87.1z"/>
				</g>
			</g>
		</g>
		<g>
			<g>
				<g>
					<path d="M117.3,82.3c-1.1,0.6-2.1,1.3-2.9,2c-2.2,0.5-4.3,1.3-6.2,2.7c1.4-1.9,3.3-3.6,5.4-4.8
						C114.9,82.1,116.1,82.1,117.3,82.3z"/>
				</g>
			</g>
		</g>
		<g>
			<g>
				<g>
					<path d="M111.4,66.9c1.4,1.7,2.6,3.6,3.6,5.6l0,0.1l0.4,1.9l-1.7-0.5l-5.9-1.8l-1.1-0.3l0.7-0.7l5-4.5l-4.2,5.3l-0.3-1l6.1,0.7
						l-1.3,1.4l0-0.1C112.6,71.1,112.1,69,111.4,66.9z"/>
				</g>
			</g>
		</g>
	</g>
</g>
</svg>
