<?xml version="1.0" encoding="utf-8"?>
<!-- Generator: Adobe Illustrator 21.0.0, SVG Export Plug-In . SVG Version: 6.00 Build 0)  -->
<svg version="1.1" xmlns="http://www.w3.org/2000/svg" xmlns:xlink="http://www.w3.org/1999/xlink" x="0px" y="0px"
	 viewBox="0 0 80 80" style="enable-background:new 0 0 80 80;" xml:space="preserve">
<style type="text/css">
	.st0{fill:#E31D3D;}
</style>
<g id="Layer_2">
	<path class="st0" d="M75.2,32.5c0-0.2-0.1-0.4-0.2-0.5c0.2-0.4,0.3-0.9,0-1.4c-0.9-1.7-1.9-3.3-3-5c-2.2-6.6-7.8-13.3-13.7-15.5
		C54.1,7.1,49.1,5.3,44,3.7c-0.1-0.7-0.5-1.3-1.4-1.3c-1.9,0.1-3.9,0.4-5.9,0.8c-7.5-0.7-14.6,5-19.9,9.8c-2,1.8-3.6,3.8-4.8,6
		c-4.7,5.8-7.8,12.5-7.8,19.4C4.1,38.6,4,38.9,4,39.3c0.1,3.8,1.4,8.1,3.3,12c-0.5,0.4-0.8,1.1-0.4,1.9c6,10.5,15.4,18.1,26.8,21.9
		c0.9,0.3,1.6-0.3,1.8-1c6.9,1.2,15.7-0.3,22.2-3.9c0.4,0.6,1.1,1,1.9,0.4C71.8,62,77.9,47.2,75.2,32.5z M59.8,41.5
		c-1.1,2.9-2.6,5.6-4.5,7.9c-0.4,0.5-0.4,1-0.3,1.4c-3.5,2.4-8.1,3.3-12.8,1.9c0,0,0,0,0,0c-0.2-1.5-2.6-2-2.9-0.3
		c-1.1,6-4.2,11.2-9.2,14.7c-0.3,0.2-0.5,0.5-0.6,0.9c-0.1-0.1-0.3-0.2-0.5-0.2c0-7.4,1.3-14.6,3.8-21.6c0.8-1.4,1.7-2.8,2.6-4.2
		c0.5-0.7,0.2-1.4-0.3-1.8c-0.6-1.6-0.8-3.3-0.8-5c0,0,0,0,0,0c0-0.1,0.1-0.1,0.1-0.2c0.7-2,2-3.7,3.7-5c0.1-0.1,0.2-0.1,0.3-0.2
		c0.3-0.2,0.5-0.4,0.8-0.5c0.2-0.1,0.3-0.3,0.4-0.4c0.1,0.1,0.3,0.2,0.5,0.2c1.6,0.5,3.6,1.8,4.9,3.3c0,0.2,0,0.4,0,0.6
		c0.7,3.3-7.5,11.6-1.8,14.1c1.9,0.8,4.1-0.7,5.4-2c0.7-0.7,1.3-1.5,1.7-2.4c0.4-0.1,0.8-0.4,0.9-0.9c1.2-3.6,0.9-10.8-2.1-14.4
		c0.5-0.6,0.6-1.7-0.3-2.3c-4.6-3.4-11.5-1.2-15.3,2.3c-0.3,0.3-0.5,0.7-0.5,1c-1.4,1.2-2.3,2.8-3.1,4.5c-0.5,1.1,0.3,2.1,1.2,2.3
		c0,2.1,0.4,4.4,1.1,6.2c-0.5,0.7-1,1.5-1.4,2.3c-0.6,0-1.3,0.2-1.6,1c-0.3,0.8-0.6,1.6-0.9,2.4c-1.5-1.5-3-3.1-4.1-4.7
		c-0.5-1.9-0.7-3.9-0.8-5.8c2-5.8,4.6-12.1,9.2-16c0,0,0.1,0,0.1,0c3-1.7,6.1-3.1,9.4-3.5c0,0.1-0.1,0.1-0.1,0.2
		c-1.2,1.5,1.4,3,2.6,1.5c0.2-0.2,0.3-0.4,0.5-0.5c0.1,0.1,0.2,0.2,0.4,0.2c0.8,0.6,1.6,0.1,2-0.6c0.4,0.1,0.8,0.3,1.2,0.5
		c1.8,2.1,3.5,4.1,5.2,6.3c0.5,0.6,1.1,0.6,1.6,0.3c0.1,0.1,0.2,0.3,0.3,0.4c0.3,0.3,0.5,0.6,0.7,1c0.6,1.7,1.4,3.3,2.2,5.2
		C59.8,34.6,60.1,38,59.8,41.5z"/>
</g>
<g id="Layer_1">
	<g>
		<g>
			<g>
				<g>
					<path d="M38,50.4c0.1,4.4-1.1,9.1-3.7,13.1c-0.7,0.7-1.4,1.4-2.2,2l-2.7,2.3l0-3.3c-0.1-8.2,2.3-16.2,6.6-22.8
						c-3.3,7.1-4.4,15.1-3.3,22.6l-2.8-1.1c0.6-0.6,1.1-1.3,1.6-2C34.5,58.4,36.9,54.7,38,50.4z"/>
				</g>
			</g>
		</g>
		<g>
			<g>
				<g>
					<path d="M35.5,40.9c-0.9-2.1-1.6-4.5-1-7.1c0.3-1.3,0.9-2.5,2-3.6c1-1,2.5-1.8,4.3-1.7c1.7,0.3,3.1,1.2,4,2.7
						c0.4,0.7,0.7,1.6,0.6,2.5c0,0.8-0.3,1.6-0.7,2.3c-0.8,1.3-1.7,2.1-2.5,2.8c-0.8,0.8-1.5,1.5-1.8,2.4c-0.7,1.8-0.1,4.2,1.7,5.4
						c1.7,1.2,4.4,1.2,6.2-0.2c-1.6,1.7-4.4,2.2-6.7,1c-2.3-1.2-3.5-4-3-6.6c0.3-1.4,1.1-2.5,1.8-3.4c0.7-0.9,1.4-1.8,1.7-2.6
						c0.2-0.4,0.2-0.7,0.2-1c0-0.3-0.2-0.5-0.4-0.7c-0.4-0.5-1.1-0.8-1.7-0.8C39.8,32,39,32,38.2,32.5c-0.8,0.4-1.5,1.1-2,2
						C35.2,36.3,35.2,38.7,35.5,40.9z"/>
				</g>
			</g>
		</g>
		<g>
			<g>
				<g>
					<path d="M39.5,50.5c4.1,2.2,9,0.8,11.8-1.8c3.4-2,5.8-6,6.5-10.2c0.7-4.3,0-8.9-1.4-13.2c2,4.1,3.4,8.6,3.3,13.4
						c-0.1,2.4-0.6,4.8-1.6,7.1c-1,2.3-2.5,4.4-4.6,6c-2.3,1.3-4.9,1.8-7.4,1.6C43.6,53.1,41.2,52.1,39.5,50.5z"/>
				</g>
			</g>
		</g>
		<g>
			<g>
				<g>
					<path d="M48.5,46.8c0.6-2.1,1.2-4.2,1.6-6.3c0.4-2.1,0.5-4.1,0.1-6c0.1-1.9-0.2-3.8-1-5.5c-0.8-1.6-2.4-3-4.2-3.8
						c-1.8-0.8-3.9-1.1-6-0.9c-2.1,0.2-4.1,1-6,2c1.7-1.3,3.7-2.4,5.8-2.9c2.2-0.6,4.5-0.6,6.8,0c2.2,0.6,4.4,2,5.9,4
						c1.5,2,2.2,4.5,2.4,6.9c-0.3,2.4-1.1,4.7-2,6.7C50.8,43.2,49.7,45,48.5,46.8z"/>
				</g>
			</g>
		</g>
		<g>
			<g>
				<g>
					<path d="M56.7,26.4c-3.2-3.6-7.8-5.5-12.2-5.6c-2.1-0.5-4.3-0.6-6.5-0.2c-2.1,0.4-4.3,1.3-6.1,2.6c-3.8,2.5-6.6,6.7-7.5,11.5
						c0.2-4.8,2.5-9.6,6.3-12.9c1.9-1.7,4.1-3,6.6-3.8c2.5-0.8,5.2-1,7.8-0.7C50.2,18.6,54.4,22.1,56.7,26.4z"/>
				</g>
			</g>
		</g>
		<g>
			<g>
				<g>
					<path d="M24.3,33.6c-0.3,2.2,0.1,4.4,1,6.3c0.5,0.9,1.1,1.8,1.7,2.4c0.7,0.7,1.4,1,1.8,0.9c0.2,0.1,0.4,0.1,0.5,0.1
						c0.1,0,0.3-0.1,0.4-0.3c0.1-0.2,0.2-0.6,0.3-0.9c0-0.3,0-0.8-0.1-1.3c-0.2-0.9-0.7-2.1-0.8-3.3c-0.2-1.2-0.1-2.4,0.1-3.6
						c0.4-2.4,1.5-4.6,3.2-6.2c1.6-1.6,3.8-2.7,6-3.1c-2.1,0.7-4,2-5.3,3.7c-1.3,1.7-2,3.7-2,5.8c0,1,0.1,2,0.4,3
						c0.3,0.9,0.7,1.8,1.2,3c0.5,1.1,0.8,2.7,0.2,4.3c-0.3,0.8-0.9,1.6-1.8,2.1c-0.9,0.5-1.8,0.6-2.7,0.5c-0.9-0.2-1.6-0.7-2.2-1.2
						c-0.6-0.5-1-1.1-1.3-1.7c-0.6-1.1-1-2.3-1.2-3.5C23.1,38.1,23.3,35.6,24.3,33.6z"/>
				</g>
			</g>
		</g>
		<g>
			<g>
				<g>
					<path d="M45.1,3.3c-6.3-0.7-12.8,0.3-18.5,2.9C23.7,7.5,21,9,18.6,11c-2.5,1.9-4.7,4.1-6.6,6.6c-3.8,4.9-6,10.8-6.6,16.9
						c-0.6,6.1,0.4,12.3,2.8,17.8c2.1,5.7,5.8,10.7,10.5,14.5c2.4,1.9,5.1,3.4,7.9,4.5c2.8,1.2,5.8,2,8.8,2.4c3,0.4,6.1,0.5,9.2,0.2
						c3.1-0.3,6.1-1.1,8.9-2.1c0.7-0.3,1.4-0.5,2.1-0.9l2.1-1l2-1.2c0.7-0.4,1.2-0.9,1.9-1.3c2.4-1.9,4.6-4.1,6.5-6.5
						c3.7-5,6.3-10.8,7.2-17c1-6.1,0.3-12.6-2.1-18.4c-2.4-5.8-6.5-11-11.9-14.2c-5.4-3.2-12-4.5-18.3-3.1
						c6.2-1.6,12.9-0.5,18.5,2.7c5.6,3.1,9.9,8.3,12.5,14.2c2.7,5.9,3.5,12.5,2.6,18.9c-0.8,6.4-3.4,12.6-7.1,17.9
						c-1.9,2.6-4.2,5-6.7,7.1c-0.7,0.5-1.3,1-2,1.5l-2.1,1.3L56.5,73c-0.7,0.4-1.5,0.7-2.2,1c-3,1.2-6.2,2.1-9.5,2.5
						c-3.3,0.4-6.6,0.4-9.8,0c-3.3-0.4-6.5-1.2-9.6-2.4c-3.1-1.2-6-2.8-8.7-4.8c-5.3-4-9.5-9.5-12-15.7c-2.3-6.2-3-13-2.1-19.5
						c1-6.5,3.7-12.8,8-17.7c2.1-2.5,4.5-4.7,7.2-6.5c2.6-1.9,5.5-3.4,8.5-4.5C32.2,3,38.8,2.3,45.1,3.3z"/>
				</g>
			</g>
		</g>
	</g>
</g>
</svg>
