<?xml version="1.0" encoding="utf-8"?>
<!-- Generator: Adobe Illustrator 21.0.0, SVG Export Plug-In . SVG Version: 6.00 Build 0)  -->
<svg version="1.1" xmlns="http://www.w3.org/2000/svg" xmlns:xlink="http://www.w3.org/1999/xlink" x="0px" y="0px"
	 viewBox="0 0 150 150" style="enable-background:new 0 0 150 150;" xml:space="preserve">
<style type="text/css">
	.st0{fill:#A146CA;}
</style>
<g id="Layer_2">
	<path class="st0" d="M139.3,43.4c0-0.1,0-0.1-0.1-0.2c-0.3-2.6-1.2-5.3-2.8-8.1c0,0-0.1-0.1-0.1-0.1c-0.5-1.7-1-3.3-1.6-4.9
		c-1-3.8-2.4-7.4-4.8-10.2c-0.1-0.1-0.2-0.1-0.2-0.2c-0.3-0.5-0.6-1-0.8-1.5c-0.1-0.2-0.2-0.3-0.3-0.4c-3-5.5-7.4-9.8-14.1-11
		c-0.1,0-0.2,0-0.2,0c-2.7-1.4-5.6-2.5-8.6-3.4c-1.4-0.4-2.6,0.1-3.4,0.9c-0.9-0.1-1.8-0.2-2.8-0.1c-0.6-0.5-1.3-0.8-2.4-0.6
		c-8.9,1.1-17.7,2.5-26.5,4.6C70,8,69.2,8.2,68.3,8.4c-6.1-0.3-12.2,0-18.3,1c-6.1-0.2-12.3,0-18.3,0.8c-1.7,0.2-2.7,1.3-3.2,2.5
		c-1,0.1-1.9,0.2-2.9,0.4c-1.5,0.3-2.3,1.3-2.5,2.4c-2.1,0.3-3.6,1.9-5.1,3.4c-2,2-4.3,4.3-5.4,7c0,0.1,0,0.2-0.1,0.2
		c-0.9,0-1.9,0.6-2,1.7c-0.6,5.3,3.8,9.2,8.8,8.8c8,4,17.3-0.7,24.7-5.1c2.1,1.1,4.8,1.5,7.4,1.7c0,0,0.1,0.1,0.1,0.1
		c0.5,1.5,1.1,3,1.6,4.5c0.1,0.3,0.2,0.5,0.4,0.8c-0.3,8.1-0.4,16.3-0.2,24.4c-0.1,0.2-0.2,0.5-0.2,0.8c0,1.5,0.1,3.1,0.1,4.6
		c-0.9,12.3-1.3,24.6-1.3,37l-1.6,18.4c-0.2,0.3-0.4,0.7-0.5,1.1c-0.3,1.2-0.3,2.5-0.2,3.7c-0.1,0.1-0.1,0.1-0.2,0.2
		c-1.5,2.4,0.2,4.7,2.3,5.2c0,0,0,0,0.1,0c1.3,0.5,2.8-0.1,3.7,1c0.9,1.2,1.6,2.6,2.1,4c0.3,0.8,0.9,1.1,1.6,1.2
		c-0.5,1.1-1.4,2.1-2.5,2.8c-2,1.2-0.2,4.3,1.8,3.1c1.5-0.9,2.6-2.1,3.4-3.5c0.6-0.1,1.1-0.5,1.3-1.2c0.1-0.2,0.1-0.4,0.2-0.5
		c0.1-0.1,0.3-0.1,0.4-0.2c0.2-0.1,0.5-0.2,0.7-0.3c1.9-1.1,2.1-3.1,1.3-4.9c-0.1-0.2-0.2-0.5-0.3-0.7c0-0.2,0.1-0.5,0.1-0.8
		c-0.1-4.1-0.1-8.2-0.1-12.2c1,0.2,2.2-0.4,2.3-1.7c0.4-5.2-0.5-10.3-1-15.4c0.1-1.3,0.1-2.6,0.2-3.9c1.1-3.2,1-8.3,1.2-11
		c0.4-5.9,0.1-11.7-0.6-17.5c0.2-2.2,0.4-4.4,0.7-6.6c1.5-12,3.8-23.8,5.2-35.8c5.5-4.4,11.9-7.1,18.8-8.1c3.8,0.1,7.6,0.2,11.2,1.4
		c0.9,0.3,1.7,0.7,2.4,1.1c0.4,0.4,0.9,0.7,1.5,0.9c0,0,0,0,0,0c2.1,1.4,3.9,3,6,4.4c-0.5,0.8-0.5,1.9,0.5,2.5
		c1.1,0.7,2.2,1.3,3.2,2.2c0.1,3,0.4,6,1,9c0,0.1,0,0.1,0.1,0.2c-0.4,1.4-0.9,2.9-1.6,4.3c-2.2,3-4.9,5.9-8,5.9
		c-0.8,0-1.5,0.3-2.1,0.6c-1.3-0.6-2.4-0.2-3.3,0.6c-4.4-0.6-8.9-0.7-13.5-0.3c-0.9,0.1-1.4,0.7-1.6,1.4c-1.3,0.5-2.5,1.2-3.5,2.2
		c-0.2,0.2-0.5,0.5-0.8,0.8c-0.6-0.3-1.4-0.3-2.1,0.2c-3,2.5-4.1,6.2-3.4,9.6c0,0.8,0.1,1.6,0.4,2.5c0.2,0.6,0.6,0.9,1.1,1.1
		c0.5,0.7,1.1,1.4,1.7,2.1c0,0,0.1,0.1,0.1,0.1c0,0.6,0.4,1.1,0.9,1.5c1.5,1.1,3.3,1.8,5.2,2.2c0.4,0.1,0.8,0,1.2-0.1
		c5.3,2,11.9,2.9,17.2,1.6c0.6,0.2,1.2,0.2,1.9,0c0.1,0,0.2,0,0.3-0.1c0.4,0.3,0.9,0.4,1.4,0.3c2-0.4,3.8-1.3,5.4-2.4
		c1,1.1,2.6,1.6,4.3,0.8c7-3.5,12.4-7.4,15-14.2C138.8,58.3,140.4,50.9,139.3,43.4z M33.7,27.2c-0.9,0.9-2.9,2.9-4.3,2.5
		c-1.1-0.3-1.9,0.3-2.1,1.2c-0.7,0.2-1.5,0.3-2.2,0.5c-0.2,0-0.4,0.1-0.6,0.2c-1.3-0.2-2.7-0.3-4-0.1c-1.5-1.8-2.5-4.1-3.4-6.1
		c0.3-0.4,0.6-0.8,0.9-1.1c1.3-1.6,4-5.3,6.2-5.2c0.1,0,0.2,0,0.2,0c0.8,0.8,1.9,1.3,3.3,1c1.7-0.3,3.6-0.4,5.4-0.1
		c0.1,0.1,0.1,0.3,0.2,0.4c1.1,1.5,2,3.3,2.2,5.1C34.7,26.2,34,26.9,33.7,27.2z M105.2,71.2c-0.1,0.3-0.2,0.5-0.3,0.8
		c-0.9,0.5-1.9,1.1-2.7,1.8c-0.3,0.2-0.5,0.4-0.8,0.6c-6.5,0.2-12.9-0.6-18.4-4.6c-0.2-0.1-0.4-0.2-0.6-0.3
		c-0.1-0.3-0.2-0.5-0.3-0.8c0.3-3.6,4.7-8.1,7.4-9c3.8-1.3,8.4-0.9,12.6-1c0.2,0.8,0.7,1.6,1.5,2.2c1.2,0.8,2.8,2,3.1,3.5
		C107.2,66.4,105.9,69.6,105.2,71.2z"/>
</g>
<g id="Layer_1">
	<g>
		<g>
			<g>
				<g>
					<path d="M49,134.6c2.5-1.3,6.1-0.7,8.6,1.7c0.9,1.4,1.3,3.2,1.2,4.9c-0.2,1.7-0.9,3.2-1.9,4.3c-2,2.3-5.2,3.3-7.8,2.4
						c2.7,0.2,5.1-1.5,6.2-3.6c0.6-1,0.7-2.2,0.6-3.2c-0.2-1-0.7-1.9-1.4-2.5C53.9,136.6,51.8,134.7,49,134.6z"/>
				</g>
			</g>
		</g>
		<g>
			<g>
				<g>
					<path d="M51.5,147.3c1.7-0.3,3.4-0.7,5.1-1.3c1.6-0.6,3.2-1.3,4.4-2.3c1.2-1,2-2.3,2.4-3.8c0.4-1.5,0.4-3,0.3-4.7l2.4-41.8
						l0.8,21l0.4,10.5l0.2,5.2c0.1,1.8,0.2,3.5,0.2,5.3c-0.3,1.8-0.6,3.8-1.5,5.6c-0.9,1.8-2.3,3.4-4,4.3c-1.7,1-3.5,1.4-5.3,1.7
						C55.1,147.2,53.3,147.3,51.5,147.3z"/>
				</g>
			</g>
		</g>
		<g>
			<g>
				<g>
					<path d="M67.1,97.8l0.5-27.3l3.4-27c0.3-2.2,0.5-4.5,1-6.8c0.5-2.3,1.3-4.5,2.6-6.5c1.3-2,3.3-3.5,5.5-4.2
						c2.2-0.7,4.8-0.6,6.6,0.8c-1.9-1.3-4.4-1.2-6.4-0.4c-2.1,0.8-3.8,2.4-4.8,4.3c-1.1,1.9-1.6,4.1-1.9,6.3
						c-0.3,2.2-0.4,4.4-0.5,6.7l-1.4,27.2L67.1,97.8z"/>
				</g>
			</g>
		</g>
		<g>
			<g>
				<g>
					<path d="M83.9,24.6c4.8-1,9.7-1.8,14.8-1.5c5,0.3,10.2,1.8,14.5,5.2c2,1.9,3.6,4.1,4.5,6.7c0.9,2.6,1.2,5.4,0.8,8
						c-0.4,2.7-1.6,5.3-3.5,7.3c-1.9,2-4.4,3.2-6.9,3.7c-5.1,1.2-10,0.2-14.8,0.7c-2.4,0.2-4.7,0.8-6.8,2.1c-2,1.3-3.7,3.2-4.3,5.6
						c0.4-2.5,2-4.6,4-6c2-1.5,4.5-2.3,6.9-2.7c4.9-0.8,9.9-0.3,14.4-1.6c2.2-0.7,4.3-1.8,5.6-3.5c1.4-1.7,2.2-3.8,2.4-6
						c0.2-2.2-0.2-4.4-1-6.4c-0.9-1.9-2.3-3.7-4-5.1c-3.1-3.2-7.4-5.3-12.1-6.2C93.7,24.1,88.8,24.3,83.9,24.6z"/>
				</g>
			</g>
		</g>
		<g>
			<g>
				<g>
					<path d="M90.2,55.6c-3.2,1.3-6.5,2.7-8.9,5c-1.2,1.2-2.1,2.6-2.6,4.1c-0.5,1.5-0.5,3.1,0,4.5c0.5,1.4,1.4,2.7,2.6,3.8
						c1.2,1.1,2.6,1.9,4,2.6c1.4,0.7,3,1.2,4.6,1.7c0.8,0.3,1.6,0.4,2.4,0.6c0.8,0.2,1.6,0.3,2.4,0.4c6.4,1.5,13.2,1.5,19.7-0.2
						c6.4-1.7,12.5-5,17.1-9.9c4.6-4.9,7.6-11.3,8.7-18c1.1-6.7,0.3-13.8-3-20c3.5,6,4.8,13.2,3.9,20.1c-0.8,6.9-3.6,13.7-8.2,19.2
						c-4.6,5.4-10.9,9.3-17.7,11.5c-6.8,2.1-14.2,2.5-21.3,1.2c-0.9-0.2-1.8-0.4-2.6-0.7c-0.9-0.3-1.7-0.5-2.5-0.9
						c-0.8-0.4-1.7-0.7-2.5-1c-0.8-0.4-1.6-0.8-2.4-1.3c-1.6-1-3.1-2.1-4.3-3.5c-1.3-1.4-2.3-3.1-2.7-5c-0.5-1.9-0.2-3.9,0.6-5.6
						c0.8-1.7,2-3.1,3.4-4.3C83.5,57.6,86.9,56.6,90.2,55.6z"/>
				</g>
			</g>
		</g>
		<g>
			<g>
				<g>
					<path d="M37,8.8l40.3-5.1l10.1-0.5c3.4-0.2,6.8-0.4,10.2-0.4c3.4-0.1,6.9,0,10.3,0.5c3.4,0.5,6.9,1.4,10,3
						c3.1,1.6,6,3.7,8.3,6.3c2.3,2.5,4.2,5.4,5.8,8.5c3.2,6.1,5.1,12.6,6.8,19.1c-2.1-6.4-4.3-12.9-7.7-18.7c-1.7-2.9-3.7-5.6-6-7.9
						c-2.3-2.3-5.1-4.2-8.1-5.5c-6-2.6-12.8-2.8-19.4-2.3C94.4,6,91.1,6.3,87.7,6.7l-10.1,1L37,8.8z"/>
				</g>
			</g>
		</g>
		<g>
			<g>
				<g>
					<path d="M38.9,9.2c-8.1,1.6-15.7,5.5-21.7,10.9c-1.5,1.4-2.9,2.8-3.9,4.4c-1,1.6-1.6,3.4-1.4,5c0.2,1.6,1.2,2.9,2.6,3.9
						c1.4,1,3.2,1.6,5,2c3.7,0.9,7.7,1.1,11.5,0.4c1.9-0.3,3.8-0.9,5.6-1.6c1.8-0.7,3.6-1.8,5.8-2.5c2.2-0.7,4.8-0.9,7.1,0.2
						c1.2,0.5,2.2,1.5,2.8,2.6c0.6,1.2,0.8,2.4,0.9,3.5c0.1,1.1,0,2.2,0,3.2l0,3.1l-0.1,6.2l-0.5,49.6l-1.5-49.6l-0.2-6.2l-0.1-3.1
						c0-1,0-2.1-0.1-3c-0.1-0.9-0.3-1.8-0.7-2.4c-0.4-0.6-1-1.1-1.7-1.4c-0.7-0.3-1.6-0.4-2.4-0.4c-0.9,0-1.7,0.2-2.6,0.6
						c-1.8,0.6-3.5,1.7-5.5,2.6c-2,0.9-4.1,1.6-6.2,2.1c-4.3,0.9-8.8,1-13.1,0.1c-2.2-0.6-4.3-1.5-6.2-3.1c-0.9-0.8-1.8-1.7-2.4-2.8
						C9.4,32.3,9,31,9,29.8c-0.1-2.6,1-4.8,2.3-6.6c1.3-1.8,3-3.3,4.7-4.5C22.6,13.4,30.6,10.2,38.9,9.2z"/>
				</g>
			</g>
		</g>
		<g>
			<g>
				<g>
					<polygon points="51.5,96.7 52.6,109.9 48.9,135.9 48.7,109.6 					"/>
				</g>
			</g>
		</g>
		<g>
			<g>
				<g>
					<path d="M33.4,19c-2.7-0.2-5.4,0.2-7.8,1.3c-1.2,0.5-2.2,1.2-3.2,2c-1,0.8-1.8,1.7-2.2,2.6c-0.6,0.7-0.8,1.3-0.6,1.9
						c0.2,0.6,1,1.4,1.9,1.7c1,0.3,2.2,0.3,3.5,0.2c1.3-0.1,2.6-0.2,3.9-0.5c1.2-0.3,2.4-0.8,3.2-1.6c0.8-0.8,1.2-2,0.9-3.2
						c-0.2-1.2-1.1-2.3-2.3-2.7c-1.2-0.4-2.7-0.3-3.8,0.5c1-0.9,2.5-1.3,3.9-1c1.4,0.3,2.6,1.5,3.1,2.9c0.2,0.7,0.3,1.5,0.2,2.3
						c-0.2,0.8-0.5,1.5-1,2.1c-1,1.3-2.4,2-3.7,2.5c-1.4,0.5-2.8,0.8-4.1,1.1c-1.4,0.3-2.9,0.5-4.6,0.2c-1.7-0.3-3.4-1.2-4.4-3.1
						c-0.5-0.9-0.7-2-0.5-3.1c0.2-1,0.6-1.9,1.1-2.7c0.6-0.7,1.2-1.2,1.9-1.6c0.6-0.4,1.3-0.8,2-1.1c1.4-0.7,2.8-1.1,4.2-1.4
						C27.9,17.9,30.8,18.1,33.4,19z"/>
				</g>
			</g>
		</g>
		<g>
			<g>
				<g>
					<path d="M102.2,60.1c-3.8-0.5-7.8-1-11.3,0.1c-1.7,0.5-3.3,1.5-4.3,2.7c-1,1.2-1.6,2.8-1.5,4.2c-0.2,1.4,0.2,2.7,1.3,3.7
						c1.1,1.1,2.7,1.8,4.4,2.2c3.5,0.9,7.3,1,10.5-0.6c1.6-0.8,3-2,3.8-3.6c0.8-1.5,1.1-3.4,0.6-5.2c-0.5-1.7-1.7-3.3-3.5-3.9
						c-1.7-0.6-3.9-0.4-5.3,1c1.3-1.5,3.5-2,5.5-1.5c1,0.3,1.9,0.7,2.7,1.4c0.8,0.7,1.3,1.6,1.7,2.6c0.7,2,0.7,4.2-0.2,6.1
						c-0.9,1.9-2.4,3.5-4.2,4.7c-1.8,1.1-3.9,1.8-5.9,2c-2.1,0.2-4.1,0.1-6.2-0.2c-2.1-0.4-4.2-1-6.1-2.5c-0.9-0.8-1.7-1.8-2.3-2.9
						c-0.5-1.2-0.7-2.5-0.7-3.7c0.4-2.5,1.7-4.6,3.5-6c1.8-1.4,3.9-2.2,5.9-2.4C94.7,57.7,98.5,59,102.2,60.1z"/>
				</g>
			</g>
		</g>
	</g>
</g>
</svg>
