<?xml version="1.0" encoding="utf-8"?>
<!-- Generator: Adobe Illustrator 21.0.0, SVG Export Plug-In . SVG Version: 6.00 Build 0)  -->
<svg version="1.1" xmlns="http://www.w3.org/2000/svg" xmlns:xlink="http://www.w3.org/1999/xlink" x="0px" y="0px"
	 viewBox="0 0 80 80" style="enable-background:new 0 0 80 80;" xml:space="preserve">
<style type="text/css">
	.st0{fill:#13818A;}
	.st1{fill:none;stroke:#000000;stroke-width:7;stroke-miterlimit:10;}
</style>
<g id="Layer_2">
	<path class="st0" d="M67.1,20.8c-0.2-0.7-0.6-1.3-1-1.7c-0.1-1.9-1.6-3-3.2-3.2c-0.6-1.8-2.8-3.1-4.4-4.1c-1-0.7-2-1.2-3.1-1.6
		c-0.2-0.6-0.6-1.1-1.3-1.4c-1-0.4-2.1-0.6-3.1-0.8c-0.2-0.3-0.6-0.5-1-0.7c-1.4-0.4-2.8-0.8-4.2-1c-0.2-0.4-0.6-0.7-1.1-0.8
		c-10.2-2.5-18.8,2.6-27.1,8c-0.5,0.3-0.7,0.7-0.9,1.2c-0.7,0.1-1.4,0.4-2,1C5.5,23.7,4,37.8,6.8,49c-0.8,1-1,2.3-0.8,3.6
		c0.4,2.9,1.6,5.7,3.3,8.2c0.9,1.2,2.2,2,3.7,1.9c0.2,0,0.4,0,0.6,0c1.9,2.5,4.4,4.5,7.3,5.6c-0.2,0.7,0,1.6,0.9,2
		c4.5,2.4,9.8,3.3,14.8,4.2c4.4,0.8,8.6,1.1,13-0.2c0.1,0,0.1-0.1,0.2-0.1c0.6,0.2,1.3,0.1,2-0.4c1.5-1.3,3-2.5,4.7-3.4
		c0.2,0,0.4-0.1,0.5-0.1c0.4-0.1,0.8-0.3,1-0.7c0.3-0.2,0.7-0.3,1-0.5c0.7,0.5,1.6,0.5,2.3-0.3c0.4-0.5,0.7-1,1-1.5
		c0.9,0.5,2.1,0.5,2.8-0.6c2.1-2.9,3.6-6.3,4.4-9.8c0.1-0.5,0-0.9-0.1-1.3C75.1,44.3,70.6,32.9,67.1,20.8z M58.1,19.7
		c-0.8,12.1-1.2,24.3-0.9,36.4c0,1.3,0.6,2.2,1.3,2.9c0.4,2,0.2,4-0.8,5.9c-0.1,0.3-0.2,0.5-0.2,0.7c-0.7,0.3-1.3,0.6-2,0.9
		c-0.3-0.6-0.8-1.1-1.7-1.2c-8.3-0.7-16.5-0.4-24.7,0.9c-0.7-0.1-1.4-0.2-2.1-0.2c-2.4-1.3-4.5-2.9-6.5-4.8c0.4-0.6,0.6-1.3,0.6-2.2
		v-30c0-0.3,0-0.6-0.1-0.9c0.4-2.7,0.9-5.5,1.4-8.2c0.3-1.6-0.3-3-1.3-3.8c1.5-1,3.1-2,4.7-2.9c5.3,0.1,10.7,0.2,16,0.3
		c3,0.1,7.2,1,10.2-0.1c2.7,0.1,5.5,1.8,7.4,3.7C58.6,17.9,58.2,18.7,58.1,19.7z"/>
	<path class="st0" d="M36.2,29.8c-0.2-0.9-0.9-1.4-1.5-1.9c-0.3-0.7-0.9-1.2-1.6-1.6c0,0-0.1,0-0.1,0c1-0.6,1.7-1.6,1.7-2.8
		c0-0.6-0.2-1.2-0.6-1.7c-0.2-0.6-0.6-1.1-1.3-1.2c-1-0.1-1.8-0.1-2.7,0.4c-0.7,0.3-1.3,1-1.6,1.6c-0.5,1-0.6,2.1,0,3
		c0.4,0.7,1.2,1.1,1.9,1.2c-0.1,0.1-0.2,0.3-0.2,0.4c-0.3-0.1-0.7-0.1-1,0c-2,0.3-2.8,2.7-1.9,4.4c0.9,1.6,2.9,2.1,4.6,1.7
		c0.4-0.1,0.7-0.2,1-0.3c0.3,0.1,0.6,0.1,1,0C35.3,32.5,36.5,31.3,36.2,29.8z"/>
</g>
<g id="Layer_1">
	<g>
		<g>
			<g>
				<g>
					<path d="M27.3,40.9c3-0.3,6-0.6,9.1-0.9c6,0.5,12.1,1.1,18.1,1.8c-6-0.1-12.1,0-18.1,0.2C33.3,41.6,30.3,41.2,27.3,40.9z"/>
				</g>
			</g>
		</g>
		<g>
			<g>
				<g>
					<polygon points="52.2,48.7 42.7,49.6 23.8,48.5 42.7,47.6 					"/>
				</g>
			</g>
		</g>
		<g>
			<g>
				<g>
					<polygon points="25.5,57.8 35.9,56.7 56.6,57.5 35.9,58.7 					"/>
				</g>
			</g>
		</g>
		<g>
			<g>
				<g>
					<polygon points="51.3,30.8 47.4,31.7 39.5,30.4 47.4,29.7 					"/>
				</g>
			</g>
		</g>
		<g>
			<g>
				<g>
					<polygon points="53.5,24.2 48.7,25.3 39.1,24.5 48.7,23.3 					"/>
				</g>
			</g>
		</g>
		<g>
			<g>
				<g>
					<path d="M31.5,21.2c-1.3,0.1-2.1,1.2-2.2,2.3c-0.1,1,0.6,2,1.4,2.3c0.6,0.6,1.7,0.7,2.6,0.4c0.9-0.3,1.6-1.2,1.7-2.3
						c0.1-1.1-0.4-2.2-1.4-2.8c-1-0.6-2.3-0.7-3.4-0.1c1-0.7,2.4-0.9,3.7-0.3c1.2,0.5,2.1,1.9,2.1,3.3c0,0.7-0.1,1.4-0.5,2.1
						c-0.4,0.7-0.9,1.2-1.6,1.5c-1.3,0.7-3,0.8-4.4-0.1c-1.2-1.1-1.7-2.8-1.1-4.2C28.8,21.8,30.2,21,31.5,21.2z"/>
				</g>
			</g>
		</g>
		<g>
			<g>
				<path class="st1" d="M28.9,27.7"/>
			</g>
		</g>
		<g>
			<g>
				<g>
					<path d="M28.9,27.6c-1.4,0.6-1.7,2.2-1.2,3c-0.1,1,0.7,2.1,1.9,2.7c1.2,0.6,2.6,0.6,4,0.3c-1.3,0.6-2.8,1-4.3,0.6
						c-1.5-0.4-3.1-1.5-3.5-3.4C25.8,28.9,27.4,27.5,28.9,27.6z"/>
				</g>
			</g>
		</g>
		<g>
			<g>
				<g>
					<path d="M34.3,27.2c0.6,0.4,1.3,0.8,1.9,1.3c0.6,0.6,1.1,1.4,1.2,2.4c-0.1,0.5-0.2,1-0.5,1.4c-0.3,0.4-0.7,0.7-1.1,1
						c-0.8,0.4-1.7,0.4-2.4,0.4c-0.8,0-1.5-0.1-2.2-0.1c-0.7,0-1.4,0.1-2,0.6c0.5-0.6,1.2-0.9,1.9-1.1c0.7-0.2,1.5-0.2,2.2-0.4
						c0.7-0.1,1.3-0.4,1.7-0.7c0.4-0.4,0.5-0.8,0.5-1.2c0.2-0.5,0.2-1.1-0.1-1.7C35.1,28.5,34.7,27.9,34.3,27.2z"/>
				</g>
			</g>
		</g>
		<g>
			<g>
				<g>
					<path d="M21.8,26.7c0.2-1.7-0.4-3.3-0.9-4.9c-0.5-1.6-0.8-3.5-0.1-5.4c0.5-0.9,1.3-1.7,2.3-2.1c1-0.4,1.9-0.4,2.8-0.4
						c1.7,0,3.4,0,5.1,0.1c3.4,0.2,6.7,0.5,10,1.1c-3.3-0.2-6.7-0.3-10-0.1c-1.7,0.1-3.3,0.2-5,0.4c-0.8,0.1-1.6,0.2-2.2,0.5
						c-0.6,0.3-1,0.7-1.2,1.4c-0.4,0.5-0.6,1.3-0.7,2c-0.1,0.8-0.1,1.5,0,2.4C22,23.3,22.3,25,21.8,26.7z"/>
				</g>
			</g>
		</g>
		<g>
			<g>
				<g>
					<path d="M38.6,14.5l12.5-0.8l3.1,0.2c1,0.1,2.2,0,3.4,0.7c0.6,0.3,1.1,0.9,1.3,1.5c0.2,0.6,0.3,1.2,0.3,1.8
						C59.2,19,59,20,58.9,21l-1.3,12.4L57.9,21c0-1,0.1-2.1,0.1-3.1c0-1-0.4-1.7-1.1-2c-0.7-0.3-1.7-0.3-2.7-0.2l-3.1,0.1L38.6,14.5
						z"/>
				</g>
			</g>
		</g>
		<g>
			<g>
				<g>
					<path d="M57.7,27.1l1.2,15.8l-0.3,15.8l-0.1,3.9c0,0.7,0,1.4-0.3,2.1c-0.2,0.7-0.9,1.3-1.5,1.5c-1.4,0.4-2.8,0-4-0.5
						c-1.2-0.5-2.5-1-3.8-0.6c1.3-0.5,2.6,0,3.9,0.4c1.2,0.4,2.6,0.7,3.7,0.3c0.6-0.2,1-0.7,1.1-1.2c0.2-0.6,0.1-1.2,0.1-1.8
						l-0.2-3.9l-0.7-15.8L57.7,27.1z"/>
				</g>
			</g>
		</g>
		<g>
			<g>
				<g>
					<path d="M22.2,20.7c0.1,3.6,0.2,7.2,0.3,10.8c-0.7,7.1-1.1,14.3-1.2,21.5c-0.5-7.2-0.7-14.4-0.7-21.6
						C21,27.8,21.6,24.3,22.2,20.7z"/>
				</g>
			</g>
		</g>
		<g>
			<g>
				<g>
					<path d="M21.2,50.3c-0.2,1.6-0.3,3.1-0.3,4.7c0,1.5,0.2,3.1,0.8,4.3c0.3,1.4,0.9,2.7,1.9,3.7c1,1,2.3,1.6,3.8,1.6
						c1.5,0.1,3.1-0.1,4.7-0.2c1.6-0.1,3.3,0.2,4.5,1.3c-1.3-1-2.9-1-4.4-0.8c-1.5,0.2-3.1,0.6-4.7,0.7c-0.8,0-1.7,0-2.5-0.3
						c-0.8-0.2-1.6-0.7-2.3-1.2c-1.3-1.1-2.3-2.6-2.8-4.3C19.2,56.4,20.3,53.3,21.2,50.3z"/>
				</g>
			</g>
		</g>
		<g>
			<g>
				<g>
					<path d="M32.6,65.3c2.2-0.6,4.5-1.1,6.8-1.5c4.6,0.2,9.2,1,13.6,2.3c-4.5-0.6-9.1-0.7-13.5-0.3C37.2,65.5,34.9,65.4,32.6,65.3z
						"/>
				</g>
			</g>
		</g>
		<g>
			<g>
				<g>
					<path d="M34.7,8.3c-6.7-0.7-13.3,1.9-18.1,6.3c-4.9,4.4-7.9,10.6-9.2,16.9c-1.3,6.4-0.9,13,1.1,19.1c2,6.1,5.5,11.7,10.4,15.7
						c9.4,8.4,24.2,10.2,35.6,4.5c11.5-5.6,19-18.6,18.5-31.6c-0.5-13-9-25.4-20.9-30.8c-12-5.5-27-3.8-37.7,4.2
						c10.5-8.2,25.6-10.4,38-5C64.8,12.9,74,25.5,74.8,39.2c0.8,13.7-6.7,27.6-19.1,34.1c-6.2,3.2-13.3,4.5-20.2,3.8
						c-6.9-0.7-13.7-3.4-19.1-8c-5.2-4.7-8.8-11-10.6-17.7C4,44.8,3.9,37.7,5.6,31.1c1.7-6.6,5.1-12.8,10.4-17.2
						C21.1,9.6,28.1,7.3,34.7,8.3z"/>
				</g>
			</g>
		</g>
	</g>
</g>
</svg>
