<?xml version="1.0" encoding="utf-8"?>
<!-- Generator: Adobe Illustrator 21.0.0, SVG Export Plug-In . SVG Version: 6.00 Build 0)  -->
<svg version="1.1" xmlns="http://www.w3.org/2000/svg" xmlns:xlink="http://www.w3.org/1999/xlink" x="0px" y="0px"
	 viewBox="0 0 150 150" style="enable-background:new 0 0 150 150;" xml:space="preserve">
<style type="text/css">
	.st0{fill:#FFE892;}
	.st1{fill:#FEA100;}
	.st2{fill:#FECE00;}
	.st3{fill:#FFC000;}
	.st4{fill:#F56C00;}
</style>
<g id="Layer_2">
	<path class="st0" d="M87.7,45.4c-1.5-7.1-2.4-14.8-4.7-21.7c-0.5-1.4-1.1-2.5-2-3.4c-0.3-0.8-0.7-1.5-1.1-2.3
		c-0.1-1.1-1.1-2.1-2.4-1.7c-2.7,0.8-4.8,2.7-6.7,4.8c-3.8,2.5-7.3,6-9.9,9.5c-1.1,1.4-2.4,3-3.4,4.8c-0.5,0.6-1.1,1.1-1.6,1.7
		c-0.3,0.3-0.5,0.7-0.5,1c-1.1,1.5-2.1,3.1-3,4.8c-0.4,0.8-0.3,1.6,0.2,2.2c-0.3,0.7-0.6,1.3-0.9,2c-0.7,1.7,1.2,2.8,2.6,2.3
		c0,0.2,0.1,0.4,0.1,0.6c0.4-0.3,0.9-0.6,1.4-0.6c5.1-0.6,10.3-1.1,15.4-1.7c2.6-0.3,5.2-0.6,7.9-0.2c1.9,0.3,3.8,1.4,5.7,1.5
		c0.7,0,1.2,0.3,1.6,0.6C87.5,48.6,88,47,87.7,45.4z"/>
	<path class="st1" d="M95.2,48.9c4.8,1.3,9.8,1.7,14.6,3.2c4.8,1.4,9.4,3.4,14.4,4.4c0.5,0.1,0.8,0.3,1.1,0.5
		c-0.1-0.2-0.1-0.4-0.3-0.6c-1.7-2.4-3.4-4.8-5.1-7.2c-0.2-0.3-0.4-0.5-0.7-0.6c-1.2-5.4-2.4-10.7-3.6-16c-1-4.2-1.4-10.1-6.6-10.9
		c-4.9-0.8-7.5,4.2-9.5,7.8c-3.2,5.7-5.8,11.8-7.9,18c-0.5,1.5-0.2,2.7,0.6,3.5C92.5,49.6,93.6,48.5,95.2,48.9z"/>
	<path class="st1" d="M25.5,55.3c0.2-0.1,0.4-0.3,0.6-0.4c5.6-2.3,11.5-4.1,17-6.6c-1-6.6-2-13.1-3-19.7c0-0.2-0.1-0.4-0.2-0.6
		c0-0.1,0-0.2,0-0.4c0.2-2.6-3.8-2.5-4,0c0,0.5-0.1,0.9-0.1,1.4c-0.7,0.2-1.4,0.7-1.5,1.4c-0.2,1.2-0.5,2.4-0.8,3.6
		c-0.4,0.3-0.8,0.7-1.1,1.3c-1.1,2.3-2.3,4.5-3.4,6.7c-2.1,3.5-4.3,7-6.4,10.4c-1.2,1.9,1.2,3.6,2.8,2.7
		C25.4,55.2,25.5,55.3,25.5,55.3z"/>
	<path class="st2" d="M74.8,6.2c-0.3-0.3-0.6-0.4-1-0.5c-0.4-0.4-1-0.5-1.7-0.4C66.5,6.7,61.4,9.3,56.4,12c-0.6,0.3-0.8,0.7-1,1.2
		c-1.6,0.2-3.2,0.4-4.8,0.5c-2.5,1.3-4.7,3.2-7,4.9c-0.4,0.3-0.8,0.4-1.1,0.5c-0.1,0.4-0.2,0.9-0.1,1.4c0.6,5.3,0.6,10.5,0.3,15.9
		c-0.1,1.8,0.7,2.9,1.8,3.5c-0.1,1.8-0.3,3.6-0.5,5.4c-0.1,0.9,0.6,1.6,1.5,1.9c0.9,1.1,3,1.1,3.4-0.7c0.3-1.4,0.6-2.8,0.7-4.2
		c2-5.1,4.3-10.1,6.8-14.9c1.1-1.7,2.2-3.3,3.4-4.8c1.3-0.8,2.6-1.5,4-2.1c0.7,0.6,1.8,0.8,2.6-0.1c1.5-1.6,3.5-2.7,5.3-4
		c1.4-1.1,2.6-2.2,3.8-3.6c0.8-0.3,1.4-1,1.4-1.9C76.8,9,76.1,7.4,74.8,6.2z"/>
	<path class="st2" d="M112.7,13.1c-0.3-0.1-0.7-0.2-1-0.2c-0.2-0.1-0.5-0.2-0.7-0.2c-7.9-1.8-14.8-2.4-21.8-7.5
		c-0.8-0.6-1.5-0.4-2.1,0c-1.4-0.8-2.9-1.5-4.6-1.5c-0.7,0-1.2,0.3-1.5,0.7c-1.3,0.1-2.5,1.5-1.6,2.9c0.9,1.3,1.6,2.7,2.4,4
		c0.1,0.4,0.1,0.7,0.3,1.1c1.5,3.6,3.6,6.7,4.7,10.5c1.1,3.8,1.7,7.8,2.4,11.7c0.1,0.8,0.5,1.5,1,1.9c0.1,2.7,0,5.4-0.3,8.1
		c-0.3,2.5,3.7,2.5,4,0c0.2-1.2,0.3-2.5,0.3-3.7c0.5-0.2,0.8-0.7,1-1.2c0.3-1.1,0.7-2.1,1-3.2c0-0.1,0.1-0.3,0.1-0.4
		c0.4-0.4,0.7-0.9,0.9-1.5c0.6-2.1,1.2-4.6,2.3-6.8c1.5-1.5,3-3,4.5-4.4c1-0.4,1.8-1.2,2.3-2.1c1.7-1.5,3.4-3,5.1-4.4
		c0.1,0,0.2,0,0.3,0.1C114.2,17.6,115.2,13.7,112.7,13.1z"/>
	<path class="st3" d="M87.1,52.6c-4.2-0.7-8.3-0.8-12.4-0.3c-6.2-1-12.9-0.9-18.8-0.8c-0.9,0-1.5,0.5-1.8,1.2
		c-0.4-0.3-1-0.4-1.5-0.3c-0.5,0-1,0.3-1.4,0.6c-0.6,0.3-1.1,0.8-1,1.7c0.1,2.2,0.5,4.3,1.2,6.3c-0.7,0.9-0.9,2.1-0.5,3.2
		c4.6,11.6,7.2,23.5,7.7,36c0,0.8,0.2,1.4,0.5,1.9c0.5,4.9,0.7,9.7,0.6,14.6c0,0.4,0.1,0.7,0.2,1c0.3,3.3,0.4,6.6,0.2,9.9
		c-0.1,2.6,3.9,2.6,4,0c0.1-2.8,0.1-5.6-0.1-8.4c0.3-0.3,0.5-0.8,0.5-1.4c0-3.7,0.2-7.4,1-11.1c0.5-2.3,1.1-4.4,1.4-6.7
		c2.4-6.8,4-13.7,6-20.4c0.4-0.2,0.8-0.6,1-1.1c2.8-7.9,7-15,12.5-21.4c0.2-0.3,0.4-0.6,0.4-0.9C88.8,55.9,89.3,52.9,87.1,52.6z"/>
	<path class="st4" d="M60.3,131.5c-0.4-2.2-0.9-4.4-1.5-6.6c0.1-0.2,0.1-0.5,0.1-0.8c-0.2-6.5-1.1-12.9-2.7-19.2
		c-0.5-6.9-2.2-13.6-4.3-20.3c0.1-0.3,0.2-0.5,0.2-0.9c-0.4-9.5-1.6-19-3.7-28.3c-0.2-0.8-1.1-1.5-1.9-1.5c-6,0.5-12,1.3-17.9,2.3
		c-1,0.2-1.4,0.8-1.4,1.6c-0.4,0.4-0.5,1-0.2,1.7c1.6,4.3,3.6,8.5,5.9,12.5c0.3,0.6,0.8,0.8,1.3,0.9c6.8,11.8,13.2,23.4,14.2,37.6
		c0.1,1.9,1.3,3.2,2.7,3.7c0.7,2.9,1.7,5.7,3.2,8.3c0.9,3.3,1.7,6.6,2.4,10C56.9,135.1,60.7,134,60.3,131.5z"/>
	<path class="st4" d="M122.7,61c0.1-0.9-0.3-1.8-1.4-2c-7.2-1.7-14.5-2.9-21.8-3.5c-0.7-0.1-1.1,0.2-1.5,0.5c-0.1,0-0.2,0-0.3,0
		c-0.9-0.5-2.2-0.1-2.8,0.9c-0.8,0.4-1.6,1-2.2,1.8c-0.3,0.2-0.5,0.4-0.8,0.7c-1.1,1.2-1.9,2.7-2.8,4.1c0,0.1-0.1,0.1-0.1,0.2
		c-2.9,3.9-5.5,8.8-7.2,11.6c-9.2,15-15.1,31.7-18,49c-0.1,0.5-0.1,0.9,0,1.3c-0.4,3.3-0.9,6.5-1.3,9.8c-0.1,0.4,0,0.8,0.1,1.1
		c-0.2,1-0.3,2-0.4,3.1c-0.2,2.5,3.6,2.5,4,0.2c0.4-0.2,0.8-0.6,0.9-1.2c0.3-1.1,0.5-2.3,0.8-3.4c0,0,0.1-0.1,0.1-0.1
		c0.9,0.2,1.9-0.2,2.2-1.4c0.8-3.2,1.9-6.2,3.5-9.1c0.4-0.7,0.3-1.4,0-1.9c0.5-1.2,1.1-2.3,1.8-3.4c0.6-0.9,1.5-1.2,2.4-1.1
		c0.2-0.3,0.4-0.7,0.6-1c3.9-7.8,7.8-15.8,12.6-23.2c0.6,0,1.3-0.2,1.7-0.9c3.2-4.7,6.8-9,10.7-13c0.2-0.2,0.4-0.5,0.5-0.7
		c0.6,0.1,1.2,0,1.8-0.4c3.4-2.9,6.7-5.9,9.9-9.1c0.6-0.3,1-0.8,1.3-1.2c1.3-1.2,2.5-2.5,3.7-3.8c0,0,0.1-0.1,0.1-0.1
		C122.9,64.6,123.9,62.1,122.7,61z"/>
</g>
<g id="Layer_1">
	<g>
		<g>
			<g>
				<g>
					<polygon points="136.5,52.4 132.4,55.7 130.4,57.3 128.4,59 124.5,62.5 120.7,66 118.8,67.8 117,69.7 113.3,73.4 109.9,77.3 
						108.1,79.2 106.4,81.2 102.8,84.9 99.4,88.8 97.7,90.7 96,92.7 92.7,96.7 89.5,100.9 88,102.9 86.5,105.1 83.5,109.3 
						80.6,113.7 79.2,115.9 77.9,118.1 75.2,122.6 72.7,127.2 71.5,129.5 70.3,131.8 68,136.5 65.9,141.3 64.8,143.7 63.9,146.1 
						61.9,151 63.6,146 64.5,143.6 65.4,141.1 67.3,136.2 69.4,131.4 70.5,129 71.6,126.6 73.9,121.9 76.4,117.3 77.6,114.9 
						78.9,112.7 81.6,108.1 84.4,103.7 85.8,101.5 87.3,99.3 90.3,94.9 93.5,90.7 95.1,88.6 96.7,86.6 100.1,82.5 103.5,78.5 
						105.4,76.6 107.4,74.8 111.3,71.3 115.3,67.9 117.3,66.2 119.4,64.5 123.5,61.3 127.8,58.2 130,56.7 132.1,55.3 					"/>
				</g>
			</g>
		</g>
		<g>
			<g>
				<g>
					<polygon points="119.9,56.4 115.9,55.5 113.9,55.1 111.9,54.8 107.9,54.1 103.9,53.6 101.9,53.3 99.9,53.1 95.9,52.7 
						91.8,52.5 89.8,52.3 87.8,52.3 83.8,51.8 79.8,51.4 77.8,51.3 75.8,51.1 71.8,50.9 67.7,50.8 65.7,50.8 63.7,50.8 59.7,50.9 
						55.6,51.1 53.6,51.2 51.6,51.3 47.6,51.7 43.6,52.1 41.5,52.3 39.5,52.6 35.5,53.3 31.6,54 29.6,54.4 27.6,54.8 23.6,55.7 
						27.5,54.6 29.5,54 31.4,53.5 35.4,52.5 39.4,51.7 41.4,51.2 43.4,50.9 47.4,50.2 51.4,49.6 53.5,49.3 55.5,49.1 59.5,48.7 
						63.6,48.3 65.7,48.2 67.7,48.1 71.8,48 75.9,47.9 77.9,47.9 80,48 84.1,48.1 88.2,48.3 90.2,48.6 92.2,49 96.3,49.8 
						100.3,50.7 102.3,51.1 104.3,51.6 108.2,52.7 112.1,53.8 114.1,54.4 116,55.1 					"/>
				</g>
			</g>
		</g>
		<g>
			<g>
				<g>
					<path d="M37.6,22c-1,4.1-2.1,8.1-3.4,12.2c-4.4,7.2-9.3,13.9-14.7,20.2c4.3-7.1,8.1-14.4,11.2-22C33.1,29,35.4,25.5,37.6,22z"
						/>
				</g>
			</g>
		</g>
		<g>
			<g>
				<g>
					<path d="M84.1,0.9C79,3.2,73.9,5.6,68.9,8c-10.6,3-21.2,6.5-31.6,10.3c9.9-5,20-9.8,30.3-14.1C73.1,3.1,78.6,2,84.1,0.9z"/>
				</g>
			</g>
		</g>
		<g>
			<g>
				<g>
					<path d="M116.5,12.6c-3.8-0.3-7.6-0.6-11.3-1c-7-2.7-13.9-5.8-20.6-9c7.2,2.1,14.4,3.8,21.7,5.2C109.6,9.5,113,11.1,116.5,12.6
						z"/>
				</g>
			</g>
		</g>
		<g>
			<g>
				<g>
					<path d="M126.6,54.7l-1.2,1.7l-0.2,0.3l-0.3-0.3c-2.5-3.2-4.9-6.6-7-10.2c-3.2-9.2-4.9-18.8-5.1-28.3
						c1.6,9.4,4.6,18.4,8.8,26.7c1,3.9,2.3,7.7,3.9,11.5L125,56L126.6,54.7z"/>
				</g>
			</g>
		</g>
		<g>
			<g>
				<g>
					<path d="M43.1,48.6c-0.6-3.4-1.3-6.7-2.3-9.9c0.1-6.6-0.5-13.3-1.8-20c2.6,6.2,4.6,12.8,5.8,19.6
						C44.4,41.8,43.8,45.2,43.1,48.6z"/>
				</g>
			</g>
		</g>
		<g>
			<g>
				<g>
					<path d="M78.4,12.1c-4.6,2.9-8.8,6.3-12.3,10.3c-8.3,6.4-14.9,15.4-18.4,25.7c2.3-10.6,7.8-20.8,15.8-28.7
						C68.1,16.2,73.2,13.8,78.4,12.1z"/>
				</g>
			</g>
		</g>
		<g>
			<g>
				<g>
					<path d="M90.2,47.2c-1.3-4.9-2.9-9.8-4.6-14.5c-0.8-4.9-1.9-9.9-3.2-14.7c-0.7-2.4-1.3-4.9-2.2-7.2c-0.9-2.3-2-4.6-3.9-6.3
						c2.1,1.4,3.7,3.6,4.9,5.9c1.2,2.3,2.2,4.6,3.2,7c1.9,4.7,3.7,9.6,5.1,14.5C89.9,37,90.1,42.1,90.2,47.2z"/>
				</g>
			</g>
		</g>
		<g>
			<g>
				<g>
					<path d="M116.4,14.8c-3.6,2.8-6.7,6.1-9.3,9.6c-6.6,5.7-11.7,13.4-14.5,22c1.5-8.9,5.5-17.7,11.7-24.8
						C108.1,18.8,112.2,16.5,116.4,14.8z"/>
				</g>
			</g>
		</g>
		<g>
			<g>
				<g>
					<polygon points="93.6,50.8 91.4,54.3 90.3,56 89.3,57.8 87.3,61.3 85.4,64.9 84.4,66.7 83.6,68.6 81.8,72.3 80.2,76 79.4,77.9 
						78.7,79.8 76.9,83.4 75.2,87.1 74.4,88.9 73.7,90.8 72.2,94.6 70.8,98.4 70.1,100.3 69.5,102.3 68.3,106.2 67.2,110.1 
						66.7,112.1 66.2,114 65.3,118 64.5,122 64.1,124 63.8,126.1 63.2,130.1 62.7,134.2 62.5,136.2 62.4,138.2 62.1,142.3 
						62.1,138.2 62.1,136.2 62.2,134.1 62.5,130 62.8,125.9 63,123.9 63.3,121.8 63.8,117.8 64.5,113.7 64.8,111.7 65.3,109.6 
						66.1,105.6 67.1,101.6 67.6,99.6 68.2,97.6 69.3,93.6 70.6,89.7 71.3,87.7 72,85.8 73.5,81.9 75.1,78.1 76.1,76.3 77.1,74.5 
						79.2,70.9 81.4,67.4 82.5,65.6 83.7,63.9 86,60.5 88.5,57.2 89.7,55.6 91,54 					"/>
				</g>
			</g>
		</g>
		<g>
			<g>
				<g>
					<path d="M49.6,57.4c2.9,8.5,5.5,17.1,7.7,25.9c2.6,17.8,3.8,35.8,3.7,53.7c-1.3-17.9-3.8-35.6-7.6-53
						C52.4,75.1,51.1,66.3,49.6,57.4z"/>
				</g>
			</g>
		</g>
		<g>
			<g>
				<g>
					<path d="M61.4,145.3c-3.5-10.2-7.3-20.2-11.7-30c-6.8-20.3-15.5-39.9-26-58.7c11.6,18.1,21.6,37.3,29.7,57.3
						C56.6,124.3,59.2,134.8,61.4,145.3z"/>
				</g>
			</g>
		</g>
	</g>
</g>
</svg>
