<?xml version="1.0" encoding="utf-8"?>
<!-- Generator: Adobe Illustrator 21.0.0, SVG Export Plug-In . SVG Version: 6.00 Build 0)  -->
<svg version="1.1" xmlns="http://www.w3.org/2000/svg" xmlns:xlink="http://www.w3.org/1999/xlink" x="0px" y="0px"
	 viewBox="0 0 381 49" style="enable-background:new 0 0 381 49;" xml:space="preserve">
<style type="text/css">
	.st0{fill:#13818A;}
	.st1{fill:none;stroke:#000000;stroke-width:5;stroke-miterlimit:10;}
</style>
<g id="Layer_1">
	<path class="st0" d="M63.5,31.7c-0.1,0.1-0.2,0.1-0.3,0.2c-1-1.5-1.4-3.2-1.2-5.1c0,0,0,0,0-0.1c0.2-1.1,0.5-2.2,0.7-3.3
		c0.6-2.4,1-5.2,2.2-7.5c1.1-2-1.6-3.9-3-2.6c-1-0.5-2.4-0.2-2.8,1.2c0,0,0,0.1,0,0.1c-1.3-1-2.8-1.5-4.5-1.7c-0.2,0-0.3,0-0.5,0.1
		c-1.5,0-3.2,0.3-3.8,1.5c-0.5,0.1-0.9,0.4-1.2,0.9c-2.3,3.4-4.8,7.4-5.1,11.6c-0.4,0.7-0.8,1.3-1.3,2c0,0,0,0.1,0,0.1
		c-1,1.1-2,2.1-3.1,3.1c-0.3-0.1-0.6-0.2-1-0.2c-2.6,0.2-0.7-5.7-0.3-7.2c0.5-2.2,1.2-4.5,1.1-6.7c0-0.3,0-0.6-0.1-0.8
		c-0.1-0.5-0.2-0.9-0.4-1.4c-0.7-1.8-2.1-3.5-4.3-2.9c-0.5,0-1,0-1.5,0.2c-1,0.4-1.8,1.2-2.4,2c-0.1,0.1-0.1,0.2-0.1,0.2
		c-0.7,0.4-1.4,0.9-2.1,1.4c0.7-2.8,1.5-5.5,2.3-8.3c0.4-0.1,0.7-0.3,0.8-0.7C31.9,6.9,32.2,6,32.4,5c0-0.1,0-0.1,0-0.2
		c1-0.4,0.4-2.1-0.7-1.8c-0.9,0.2-1.9,0.2-2.8,0.1c-0.3,0-0.6,0.2-0.8,0.4c-1.8-0.6-3.6-1.1-5.5-1.7c0,0-0.1,0-0.1,0
		c-0.2-0.1-0.4-0.3-0.6-0.3c-2-0.7-4.1,0-6.1,0.3c-2.6,0.5-5.2,0.8-7.7,1.9C4.5,5.2,2.2,8,1.8,11.9c0,0.3,0,0.6,0.1,0.9
		c0,1.3,0.5,2.5,1.4,3.6c0.7,0.8,1.9-0.1,1.7-1c-0.1-0.6-0.2-1.3-0.1-1.9c0.5-0.3,0.9-0.8,1-1.6c0.3-3.4,3.8-4.7,6.7-5.4
		c0.6-0.2,1.5-0.4,2.5-0.6c-0.2,1.1-0.4,2.2-0.6,3.3c-0.1,0.1-0.3,0.3-0.3,0.5c-0.2,1.6-0.5,3.3-0.8,4.9c-0.7,3.4-1.3,6.8-1.8,10.2
		c-0.5,1.9-1,3.9-1.5,5.8c0,0,0,0.1,0,0.1c0,0,0,0,0,0c0,0,0,0,0,0.1c-0.4,1.2-0.8,2.4-1,3.6c-0.2,1.2,1.4,1.7,1.9,0.6
		c0.1,0,0.2,0,0.4,0c0.3-0.1,0.6-0.1,1-0.2c0.1,1.1,1.9,1.1,2-0.2c0-0.3,0.1-0.7,0.1-1c0.6-0.5,1-1.2,1.2-2.2c0.7-3,1.1-6.1,1.7-9.1
		c0.1-0.7-0.1-1.2-0.4-1.7c1.2-4.7,2.3-9.4,3.4-14.1c0-0.1,0-0.2,0-0.3C20.4,6,20.7,5.7,21,5.5c0,0,0,0,0,0c0.1,0.1,0.3,0.2,0.5,0.2
		c1.8,0.6,3.6,1.1,5.4,1.7c-1.8,7.1-4.2,14-4.6,21.3c-0.2,0.2-0.3,0.4-0.4,0.7c-0.2,1.6-0.5,3.2-1,4.8c-0.4,1.2,1.5,1.7,1.9,0.6
		c1.1,1.3,3.7,0.9,3.5-1.2c-0.3-4.1,0.2-8.1,1-12c0.2-0.1,0.3-0.2,0.4-0.4c0.1-0.1,0.1-0.2,0.2-0.4c0,0,0.1,0,0.1-0.1
		c1.1-1.2,2.3-2.3,3.5-3.4c0.3,0.5,0.8,0.8,1.6,0.7c1.8-0.2,2,0.1,1.9,2.1c-0.1,1.2-0.5,2.6-0.8,3.7c-0.5,2.2-1,4.5-1.1,6.7
		c-0.1,3.8,1.2,5.9,5.3,5.6c1.1-0.1,1.7-0.8,1.9-1.7c0.3,0.1,0.6,0.1,0.9-0.2c1.1-1,2-2.1,2.8-3.4c0,0,0.1,0,0.1,0
		c1.1,3.3,4.2,4,8,4.2c1,0,1.7-0.6,1.9-1.4c0.2,0,0.4-0.1,0.5-0.2c0.7-0.6,1.3-1.2,1.9-1.9c0.1,1.8,0.6,3.5,2,4.5
		c0.6,0.4,1.4,0.3,2,0l0.2-0.1c0.3-0.2,0.5-0.4,0.7-0.7c0.3,0.3,0.7,0.4,1.2,0.2c0.2-0.1,0.3-0.2,0.5-0.3c0.4-0.2,0.5-0.5,0.5-0.9
		c0.5-0.2,0.9-0.5,1.3-0.8c0.2-0.1,0.2-0.3,0.3-0.5C65.7,32.1,64.4,31,63.5,31.7z M56.8,26.1c-0.1,0.1-0.1,0.1-0.2,0.2
		c-0.7,0.9-1.3,1.9-1.9,2.9c-0.1,0.2-0.1,0.4-0.1,0.6c-0.4,0.5-0.9,1-1.3,1.4c-0.3-0.2-0.6-0.3-1-0.3c-0.8,0-1.6-0.1-2.3-0.3
		c-0.5-0.9-0.7-2.4-0.7-3.3c-0.1-1.3,0.1-2.6,0.5-3.9c0.1-0.2,0-0.4,0-0.6c0.3-0.9,0.7-1.7,1.2-2.6c0.2-0.4,0.3-0.7,0.3-1.1
		c0.4-0.6,0.8-1.2,1.2-1.8c0.2-0.3,0.3-0.6,0.3-0.9c0.3-0.2,0.6-0.4,0.9-0.5c0.9-0.3,1.9-0.3,2.8-0.1c0.2,0,0.4,0,0.6-0.1
		c0.2,0.1,0.5,0.3,0.7,0.5c0,0,0,0,0,0.1c0.2,0.2,0.4,0.5,0.5,0.8C57.7,20.1,57.2,23.1,56.8,26.1z"/>
	<path class="st0" d="M107.8,29.9c0-0.7,0-1.3,0-2c0.4-1.6,0.6-3.2,0.3-4.9c-0.3-2-1.2-2.8-3.1-3c-0.8-0.5-1.7-0.8-2.7-1
		c1.8-1.7,3.7-3.3,5.9-4.6c1.1-0.7,0.1-2.4-1-1.7c-2.8,1.8-5.3,3.9-7.6,6.3c-0.8,0.1-1.6,0.3-2.3,0.5c0.2-1.4,0.5-2.8,0.7-4.1
		c0-0.2,0-0.4-0.1-0.5c0,0,0,0,0,0c0.4,0,0.9-0.1,1-0.7c0.4-1.5,0.7-3,1.1-4.5c0.3-1.2,0.8-2.6,0.8-3.8c0-0.3-0.2-0.7-0.5-0.9
		c-0.9-0.4-1.8-0.4-2.8-0.3c-0.2,0-0.4,0.1-0.5,0.2c-1.1-0.6-2.6-0.4-2.8,1.1c-0.7,4.4-1.3,8.9-2,13.4l-0.8,3.4
		c-0.1,0.1-0.1,0.1-0.2,0.2c-0.7,1.4-1.3,2.9-1.8,4.4c-0.1,0.4,0,0.6,0.2,0.9c-0.6,1.3-1.5,2.6-2.6,3.4c0,0,0,0-0.1,0
		c-1.1-0.3-2.6-0.9-2.7-2.2c0-0.2-0.1-0.3-0.2-0.5c0.5-2.1,0.9-4.5,1.1-6.8c0-0.1,0-0.2,0-0.4c0-0.1,0-0.1,0-0.2
		c0.4-1.6,0.5-3.4-0.2-4.9c-0.5-1-1.3-1.6-2.2-2c-1.1-0.6-2.5-0.8-4.5-0.3c-0.6,0.1-1,0.5-1.2,0.9c-0.3,0.2-0.6,0.5-0.9,0.8
		c0,0.1-0.1,0.1-0.1,0.2c-0.4,0.3-0.9,0.5-1.2,0.9c0.1-0.4,0.1-0.7,0.2-1.1c0.2-1.3-0.1-2.4-1.4-2.5c-1.1-0.8-3.2-0.3-3.4,1.6
		c-0.5,4.9-1.3,9.7-2.4,14.5c-0.4,0-0.7,0.2-0.9,0.7c-0.2,0.7-0.7,2.3-0.7,3.7c-0.3,0.3-0.5,0.7-0.3,1.1c0,0.3,0.1,0.5,0.3,0.7
		c0.2,0.2,0.6,0.3,1,0.2c0.1,0,0.3,0.1,0.4,0.1c0.7,0.5,1.8,0.5,2.4-0.1c0.5,0.3,1.3,0.2,1.4-0.6c0.4-2,0.5-4.1,0.7-6.1
		c0.1-0.1,0.2-0.3,0.2-0.5c0.1-0.5,0.2-1.1,0.2-1.6c0.2-0.1,0.5-0.3,0.5-0.6l0.8-3.3c0.1-0.2,0-0.4-0.1-0.6c0.1-0.3,0.1-0.5,0.2-0.8
		c0.2-0.1,0.4-0.3,0.4-0.6c0.3-1.5,1.7-2.8,3.1-3.5c0.4,0.4,1.1,0.6,1.8,0.5c0.3-0.1,0.5-0.1,0.7,0c0.5,1.8,0.6,3.7,0.2,5.5
		c0,0.2,0,0.4,0,0.5c-1,2.8-2,5.9-1,8.3c1.3,3.2,4.7,5,7.8,3.4c0.4-0.2,0.7-0.5,0.8-0.9c0.3,0,0.6-0.1,0.8-0.5c0,0,0,0,0,0
		c0,0,0,0.1,0,0.1c-0.4,0.6-0.2,1.6,0.8,1.7c0.6,0,1.1,0,1.6-0.1c0.2,0.6,1,0.9,1.7,0.4c0.1-0.1,0.2-0.2,0.2-0.2
		c0.6,0.2,1.4-0.1,1.4-0.9v-1.7c0-0.3-0.1-0.4-0.2-0.6c0,0,0,0,0,0c0.3-2.4,0.6-4.8,1-7.2c0.1-0.1,0.1-0.3,0.2-0.5
		c0-0.1,0-0.2,0.1-0.3c0.5,0.1,1-0.1,1.5-0.6c1.4-1.5,5.5-2.3,6.3,0.1c0.7,2.1-0.8,4.5-0.8,6.6c-0.3,0.6-0.4,1.2-0.4,1.9
		c0,0.4,0.2,0.6,0.4,0.8c0,0,0,0.1,0,0.1c0.2,0.5,0.5,0.9,0.9,1.1c0.6,1.4,2.2,1.3,3,0c0,0,0,0,0-0.1c0.9-0.2,1.9-0.9,2.5-2
		C110,31.4,109,30.1,107.8,29.9z"/>
	<path class="st0" d="M141.3,14.7c-0.2-1.7-2.3-1.5-3.6-1.4c-0.3,0-0.5,0.1-0.6,0.3c-0.5-0.2-1.1,0-1.1,0.6
		c-0.4,2.8-0.5,5.8-1.4,8.5c-0.1,0.1-0.2,0.2-0.2,0.4c-0.1,0.2-0.1,0.4-0.2,0.6c-0.1,0.1-0.2,0.2-0.3,0.3c-0.8,1.2-1.4,2.5-2,3.8
		c-0.7,1.5-1.7,2.7-2.9,3.8c0,0,0,0.1-0.1,0.1c-0.1,0.1-0.3,0.2-0.4,0.2c-0.1-0.2-0.3-0.3-0.5-0.4c-0.3-0.2-0.7-0.3-1.1-0.5
		c0-0.2,0-0.4,0-0.6c0-0.3-0.1-0.6-0.1-0.9c0.4-1.8,0.7-3.6,0.9-5.4c0.2-0.1,0.3-0.3,0.4-0.6c0.1-0.5,0.2-1,0.3-1.5
		c0.2-0.1,0.4-0.3,0.4-0.6c0.2-1.3,0.4-2.6,0.5-3.9c0.1-1.1,0.4-2.2,0.2-3.2c-0.1-0.6-0.7-0.8-1.2-0.7c-0.3-0.2-0.6-0.3-1-0.4
		c-0.4-0.2-0.8-0.3-1.2-0.2c-0.2,0-0.4-0.1-0.5-0.1c-0.5-0.1-1,0.2-1.1,0.6c-0.2,0.1-0.3,0.3-0.3,0.6c-0.4,2.8-1,5.5-1.7,8.2
		c-0.1,0.4,0,0.7,0.2,0.9c0,0.1,0,0.2,0,0.4c-0.9,2.1-1.3,4.4-1.1,6.7c0.3,2.6,2.2,3.6,4.4,4.7c1.2,0.7,2.3,0,2.8-1
		c0.5-0.1,1-0.4,1.4-0.7c0.1-0.1,0.2-0.2,0.3-0.3c0,0,0,0,0,0c0.4-0.3,0.7-0.7,1-1c-0.3,0.6-0.5,1.3-0.8,1.9c-0.2,0.6,0,1.3,0.4,1.8
		c0,0,0,0.1-0.1,0.1c-0.1,0-0.2,0-0.3,0.1c-0.2-0.3-0.6-0.4-1-0.3c-1.5,0.4-2.9,1.1-4,2.1c-0.2,0-0.5,0.1-0.7,0.3
		c-1.4,1.2-2.7,3.9-1.6,5.6c0.5,0.7,1.2,1.3,2,1.7c0.1,0.1,0.3,0.3,0.5,0.3c0.2,0.1,0.5,0.1,0.7,0.1c1,0.3,2,0.3,2.9,0
		c0.1,0,0.1-0.1,0.1-0.1c0.3,0,0.5-0.1,0.8-0.3c0.1,0,0.1-0.1,0.2-0.1c0.2,0.1,0.3,0.1,0.6,0c4.5-1.3,6.2-7.7,6.1-11.8
		c0-0.1,0-0.2-0.1-0.3c0.2-1.5,0.4-3.1,0.6-4.6c0-0.2,0-0.4-0.1-0.5c0.5-2.1,1-4.3,1.6-6.4c0.4-0.1,0.9-0.4,0.9-0.9
		c0.1-1.2,0.3-2.3,0.7-3.5C140.8,16.5,141.4,15.6,141.3,14.7z M129.4,40.4c0,0.1,0,0.3,0,0.4c-0.4,0.4-0.8,0.8-1.3,1.2
		c-0.6,0.4-0.9,1-1,1.7c-0.1,0-0.3,0.1-0.5,0.1c-0.7-0.2-1.4-0.7-1.7-1.2c-0.5-0.8,0.1-1.9,0.8-2.7c0.2,0,0.5-0.1,0.7-0.3
		c0.6-0.6,1.2-1,1.9-1.4c0.2,0.1,0.5,0.2,0.8,0.1c0.3-0.1,0.6-0.2,0.9-0.3C129.8,38.8,129.6,39.6,129.4,40.4z"/>
	<path class="st0" d="M159.7,18.4c0-0.6-0.2-1.1-0.6-1.4c-0.1-1.1-0.2-2.1-0.9-3c-0.4-0.5-0.9-0.8-1.5-0.9c-0.2-0.3-0.4-0.4-0.8-0.4
		c-0.1,0-0.3,0-0.4,0.1c-0.1-0.1-0.3-0.1-0.4-0.2c-0.5-0.2-0.9,0.1-1.1,0.5c0,0,0,0,0,0c-0.2-0.3-0.6-0.5-1.1-0.4
		c-0.8,0.3-1.6,0.5-2.3,0.8c-0.5,0.2-0.7,0.6-0.7,1c-0.3,0.1-0.7,0.2-1,0.5c-1,0.9-1.9,2-2.6,3c-0.3,0.2-0.6,0.6-0.8,1
		c-0.8,2.2-1.9,5-2.3,7.7c-0.3,0-0.7,0.2-0.7,0.7c-0.3,2.1-0.4,4.8,1.5,6.2c2.4,1.7,4.9,2,7.7,1.2c0.3-0.1,0.5-0.3,0.6-0.6
		c0.2,0,0.4-0.1,0.6-0.3c0.4-0.3,0.8-0.7,1.2-1.1c0.7,0,1.3-0.2,1.7-1c1.9-3.3,3.1-6.8,3.6-10.5c0.1-0.2,0.1-0.4,0.1-0.5
		c0,0,0,0,0,0C159.6,20,159.7,19.2,159.7,18.4z M155.7,18.4c0,0.5-0.1,1-0.1,1.5c-0.2,0.3-0.3,0.6-0.3,1c0,0.2,0,0.3,0.1,0.5
		c-0.5,3-1.5,5.8-3,8.5c-0.2,0.3-0.3,0.7-0.3,1c-0.7,0.7-1.5,1.2-2.4,1.4c-0.1-0.5-0.4-0.9-1-1.2c-0.8-0.4-1.2-0.9-1.4-1.6
		c0-0.1,0-0.1,0-0.2c0.3-4.5,0.9-8.3,4.4-11.5c0.6-0.6,0.7-1.2,0.5-1.9c0.8-0.6,1.8-1,2.8-1.2c0.2,0.2,0.4,0.3,0.7,0.3
		c0.5,0.4,0.9,1,1.1,1.6C156.2,17,155.8,17.5,155.7,18.4z"/>
	<path class="st0" d="M181.1,18.2c0.2-0.5,0.4-0.9,0.6-1.4c0.3-0.8,0.9-1.8,0.9-2.6c0.1-2-3-1.4-4.2-1.3c-0.6,0-0.9,0.5-1,1
		c-0.5,0.2-1,0.6-1.1,1.3c-0.5,2.6-0.9,5.2-1.3,7.9c-0.4,0-0.8,0.2-0.9,0.7c-0.3,1.3-0.5,2.7-0.6,4c-0.2,0.1-0.4,0.2-0.5,0.5
		c-0.3,0.6-0.7,1.2-1,1.7c-0.8,0.8-1.7,1.2-2.7,1.3c-0.2-0.2-0.4-0.4-0.7-0.5c-0.6-1.1-0.3-2.7-0.3-3.8c0-1,0-1.9-0.1-2.8
		c0.2-0.7,0.4-1.2,0.5-1.5c0.1-0.1,0.2-0.2,0.3-0.4c0.8-2.2,1.5-4.5,2.1-6.8c0,0,0-0.1,0-0.1c0.2-0.2,0.3-0.4,0.3-0.7
		c0-0.6-0.2-0.9-0.7-1.3c-0.3-0.2-0.7-0.2-1,0c-0.1,0.1-0.2,0.1-0.3,0.2c-0.4-0.1-0.9-0.1-1.3,0c-0.7-0.3-1.4-0.2-2,0.2
		c-0.6-0.1-1.3,0.2-1.3,0.9c-0.1,1.2-0.2,2.4-0.2,3.6c-0.9,1.9-1.3,3.9-1.2,5.9c-0.4,1.7-0.7,3.3-0.5,5c-0.1,0.6-0.2,1.3-0.4,1.9
		c-0.1,0.6,0,1.2,0.3,1.6c0,0.8,0.3,1.5,1,2c0.9,0.7,2.1,0.7,2.9,0c0.1,0,0.2,0,0.3,0c0.2,0,0.5,0,0.7,0c0.4,0,0.7-0.2,1-0.4
		c0.1,0.1,0.3,0.1,0.5,0.1c1.8-0.1,3.2-1.5,4.2-3.1c0,0.3,0.2,0.6,0.5,0.7c0,0.6,0.2,1,0.5,1.3c0.5,1.8,2.1,2.5,5,2.4
		c1.3,0,2-1.1,1.9-2.2c0.3-0.6,0-1.5-0.8-1.6c0,0,0,0,0,0c-0.2-0.1-0.4-0.2-0.6-0.2c-1.1-0.8-0.9-3.2-0.8-4.3c0-0.3,0-0.5-0.1-0.7
		c0.1-0.5,0.2-1,0.3-1.5C179.9,22.9,180.5,20.5,181.1,18.2z"/>
	<path class="st0" d="M208.2,3.9c-0.1-0.9-0.7-1.9-1.9-2c-9.3-1.2-10.4,10.2-11.1,17.3c-0.3,0.2-0.5,0.6-0.4,1c0,0.2,0,0.4,0.1,0.6
		c-0.5,2.1-1,4.2-1.3,6.4c0,0,0,0,0,0c-1.3,4.7-2.4,9.5-3.3,14.4c-0.6,0.7-1.3,1.3-2.1,1.6c-0.2,0.1-0.3,0.2-0.5,0.3
		c-0.1-0.2-0.2-0.4-0.5-0.5c-1.3-0.6-1.8-1.8-1.3-3.1c0.5-1.2-1.5-1.7-1.9-0.5c-0.2,0.5-0.3,0.9-0.3,1.4c-0.2,0.2-0.3,0.4-0.3,0.7
		c0,0.1,0,0.2,0,0.3c-0.2,0.2-0.4,0.5-0.3,0.7c0.3,2.2,1.7,4,3.8,4.7c0.4,0.1,0.7,0,1-0.3c0.4,0.2,0.9,0.3,1.3,0.1
		c1.6-0.6,3-1.6,4.1-2.9c0.3-0.2,0.5-0.5,0.6-0.9c0.2-0.2,0.3-0.5,0.4-0.7c0.2-0.4,0.3-0.9,0.2-1.3c0.3-0.1,0.5-0.3,0.6-0.6
		c0.3-0.9,0.5-1.8,0.7-2.6c0.2-0.1,0.4-0.3,0.4-0.6c1.4-5.2,2.2-10.5,2.5-15.9c0-0.1,0.1-0.2,0.1-0.4c0-0.3,0.1-0.6,0.1-0.9
		c0.4-1.6,0.9-3.3,1.4-4.9c0.6,0.1,1.2,0,1.8-0.2c0.6-0.3,1.2-0.8,1.9-0.9c1.3-0.1,1.3-2.1,0-2c-0.7,0.1-1.2,0.3-1.8,0.6
		c-0.4,0.2-0.9,0.5-1.4,0.6c0.6-2,1.3-4,2.1-6c0.1-0.3,0.2-0.6,0.1-0.9c0.8-0.5,1.8-0.8,3.1-0.6c0.2,0,0.4,0,0.5,0
		c0.4,0.3,0.7,0.8,0.6,1.3c-0.1,0.4,0,0.9,0.5,1.1c1.3,0.6,2.2-1,2.1-2.1C210,5.2,209.2,4.3,208.2,3.9z"/>
	<path class="st0" d="M240.7,13.6c-0.5-0.9-1.9-1.3-2.7-0.7c-0.2,0.1-0.4,0.3-0.5,0.5c-1.3,0-2.9,0.8-3.9,1.6c0,0-0.1,0-0.1,0.1
		c-0.2,0.2-0.4,0.3-0.6,0.5c0-0.1,0-0.2,0-0.3c0.7-0.4,0.9-1.6-0.1-1.8c-1.4-0.3-2.8-0.5-4.2-0.4c-0.7,0-1,0.7-0.9,1.2
		c-0.2,0.2-0.4,0.5-0.5,0.9c-0.4,1.3-0.8,2.6-1.1,3.9c-0.1,0-0.2,0-0.3,0c-1.3,0.4-2.6,0.5-3.8,0.9c0,0,0-0.1,0-0.1
		c1.1-5.1-3.8-8.7-8.6-7.8c-3.6,0.6-5.7,4.2-7,7.8c-1,1.5-1.8,3.2-2,5.2c-0.3,2.4,0.4,5.9,2.3,7.9c0.1,0.3,0.3,0.5,0.5,0.7
		c0,0.3,0.1,0.6,0.5,0.8c1.5,1,3.4,1.3,5.1,0.8c0.2-0.1,0.4-0.2,0.5-0.3c0.5,0,0.9-0.1,1.4-0.4c0.2-0.1,0.4-0.3,0.4-0.5
		c0.2-0.2,0.4-0.4,0.6-0.6c0.2,0,0.4-0.1,0.5-0.3c0.5-0.5,0.9-1.1,1.3-1.7c0.3-0.3,0.5-0.6,0.8-0.9c0.1-0.1,0.1-0.2,0.1-0.4
		c0.9-1.1,1.6-2.3,2-3.7c0-0.1,0-0.2,0.1-0.3c0.2-0.1,0.4-0.3,0.5-0.6c0.2-1,0.3-2,0.4-3c0,0,0,0,0,0c1.1-0.9,2.7-0.9,4.1-1.2
		c-0.8,3.4-1.5,6.7-2,10.2c0,0.3,0,0.7,0.1,0.9l-0.3,0.7c-0.1,0.2-0.1,0.4-0.1,0.6c-0.2,0.2-0.3,0.4-0.3,0.6c0,0.5,0.5,1,1,1
		c0.8-0.1,1.6-0.1,2.4-0.2c0.2,0,0.5-0.1,0.6-0.3c0.2,0,0.5,0,0.7-0.1c0.5,0,1.1-0.3,1.2-0.9c0.3-3,0.9-6,1.9-8.8
		c0.1-0.1,0.2-0.2,0.3-0.4c0.7-2.2,1.2-4.4,1.6-6.7c0.4,0.1,0.8,0,1.1-0.2l0.3-0.3c0.1,0,0.2-0.1,0.4-0.2c0.1-0.1,0.6-0.5,1.1-0.8
		c0.2,0.4,0.6,0.7,1.1,0.6c0,0,0.1,0,0.1,0c0,0.6,0.2,1.2,0.5,1.8c0.8,1.3,2.7,1.3,3.5,0C241.5,17,241.5,15.2,240.7,13.6z M218,21.7
		c0.2,2.7-0.7,6.1-2.3,8.5c-0.8,0.9-1.6,1.8-2.4,2.6c-1.7,0.6-2.7-2-3.1-3.2c0-0.1-0.1-0.1-0.1-0.1c0-0.1,0.1-0.3,0-0.5
		c-0.2-0.8-0.3-1.7-0.3-2.5c0-0.3-0.1-0.5-0.2-0.7c0-0.2,0.1-0.4,0.1-0.7c0.2-0.2,0.3-0.4,0.3-0.7c0-0.2,0-0.5,0.1-0.7
		c0.4-1.2,1-2.4,1.8-3.5c0.4-0.4,0.5-0.9,0.5-1.4c0.8-0.7,1.6-1.4,2.4-2c0.3-0.3,0.5-0.5,0.6-0.8c1.4,0.2,2.9,1.2,2.6,2.8
		c-0.1,0.4-0.1,0.7,0,1C217.7,20.3,217.7,21.1,218,21.7z"/>
	<path class="st0" d="M277.8,3.9c-1.2-0.3-2.6,0.4-2.9,1.7c0,0.1,0,0.1,0,0.2c-0.2,0.2-0.4,0.5-0.6,0.8c-0.4,1-0.3,2.1,0.5,2.9
		c1.4,1.4,4,1,4.8-0.9C280.4,7,280,4.4,277.8,3.9z"/>
	<path class="st0" d="M309.8,5.3c-0.1-0.9-0.4-1.8-1.2-2.3c-0.8-0.5-2-0.4-2.7,0.3c-0.2,0.3-0.4,0.6-0.5,1c-0.4,0-0.9,0.2-1.2,0.6
		c-1,1.1-1,2.8,0.1,4c1.2,1.2,3,1.1,4.2,0C309.5,8,309.9,6.6,309.8,5.3z"/>
	<path class="st0" d="M332.8,6.3c0-1.4-1.2-2.5-2.7-2.4c-1.4,0.1-2.6,1.2-2.6,2.7c0,1.4,1,2.6,2.4,2.6c0.9,0,1.8-0.6,2.2-1.4
		C332.6,7.4,332.8,6.9,332.8,6.3z"/>
	<g>
		<path class="st0" d="M276.7,32C276.7,32,276.7,32,276.7,32C276.7,32,276.6,32,276.7,32C276.6,32,276.6,32,276.7,32
			C276.7,32,276.7,32,276.7,32z"/>
		<path class="st0" d="M277.6,13.4c-0.4,0.1-0.8,0.2-1.1,0.2c-0.4-0.2-0.9-0.2-1.4-0.1c-0.5-0.7-1.8-0.5-1.8,0.6c0,0,0,0,0,0.1
			c-0.4,0.3-0.6,0.8-0.6,1.4c0,0.1,0,0.1,0,0.2c-0.7,1.8-1.1,3.7-1.3,5.6c-0.3,1.2-0.4,2.4-0.5,3.6c-0.4,1.6-0.8,3.2-0.9,4.8
			c0,0.5,0.1,0.8,0.3,1.1c-0.2,1.5-0.2,3.1,0.6,4.2c1.1,1.5,3,1.5,4.6,0.9c0,0,0.1,0,0.1,0c0,0,0,0,0,0c1,0.3,2.2-0.4,2.5-1.4
			c0.2-1.1-0.3-2.1-1.4-2.5c0,0,0,0,0.1,0c0,0,0,0-0.1-0.1c-0.1,0-0.1,0-0.1,0c0,0-0.1,0-0.1,0c-0.1,0-0.2-0.1-0.2-0.1c0,0,0,0,0,0
			c-0.1-0.1-0.1-0.1-0.2-0.2c0,0-0.1-0.1-0.1-0.1c0,0,0,0,0,0c-0.1-0.1-0.1-0.2-0.2-0.3c0-0.1-0.1-0.1-0.1-0.2
			c0.1-0.2,0.2-0.5,0.2-0.8c0.3-4.8,1.2-9.4,2.6-13.9c0.1-0.3,0.1-0.5,0.1-0.7c0.1-0.3,0.2-0.5,0.2-0.8
			C279,13.9,278.3,13.2,277.6,13.4z"/>
	</g>
	<path class="st0" d="M268.4,16.8c-0.1-0.3-0.1-0.6-0.2-1c-0.1-0.4-0.4-0.7-0.8-0.7c0-0.1,0-0.2-0.1-0.3c-0.1-0.3-0.7-0.9-0.7-1
		c-0.1-0.9-1.1-1.2-1.7-0.8c-0.2,0-0.3-0.1-0.5-0.1c-2.6,0-2.6,4,0,4c0.5,0,0.9-0.1,1.2-0.4c0.2,1.2,0.3,2.5,0.4,3.7
		c0,0.1-0.1,0.1-0.1,0.2c-0.7,4.3-2.8,8.1-6.2,10.9c0,0,0,0,0,0.1c-0.2-0.1-0.4-0.1-0.6,0c-0.6-0.2-1.2-0.3-1.8-0.4
		c0.4-5,1.2-9.9,2.2-14.8c0.4-2-1.8-3-3.1-2.2c-1-0.6-2.6-0.4-3,1.1c-1.5,4.6-2.4,9.4-2.7,14.2c-0.2,0.1-0.3,0.2-0.4,0.4
		c-0.5,1.2-0.4,2.5,0.3,3.5c0.1,0.8,0.7,1.3,1.3,1.4c1.1,0.9,2.6,1.7,4,1.4c1.5,0.2,3,0,4.4-0.9c0.6-0.4,0.8-0.9,0.9-1.4
		c0.1,0,0.1,0,0.2-0.1c0.6-0.4,1.1-0.9,1.5-1.4c0.4,0.1,0.7-0.1,1-0.5c0.5-1,1.1-2,1.7-2.9c0.3-0.4,0.2-0.8-0.1-1.1
		c1.1-1.9,1.9-3.9,2.3-6c0.2-0.2,0.3-0.4,0.3-0.8c0-1-0.1-2-0.2-3C268.3,17.8,268.5,17.3,268.4,16.8z"/>
	<path class="st0" d="M308.8,29.2c-0.3,0.4-0.7,0.8-1,1.1c-0.2,0-0.4,0-0.6,0.1c-0.4,0.3-0.8,0.6-1.2,0.9c-0.2-0.2-0.4-0.3-0.7-0.4
		c-0.5-0.2-1.5-0.5-2.2-0.9c0.8-0.5,1.3-1.6,0.8-2.7c-0.1-0.2-0.1-0.4-0.2-0.5c0-0.1,0-0.3,0-0.4c0.1-0.4,0.2-0.7,0.4-1.1
		c0.2-0.1,0.4-0.3,0.5-0.5c1-3,1.3-6.1,2.6-9c0.1-0.2,0.1-0.4,0.1-0.6c0.2-0.3,0.3-0.6,0.3-1c-0.2-0.6-0.7-0.8-1.2-0.7
		c-0.2,0-0.5,0-0.7,0c-0.4-0.2-0.8-0.3-1.2-0.2c-1-0.4-2.2,0-2.6,1.3c-0.4,1.3-0.7,2.6-0.9,4c-0.7,1.9-1.2,3.9-1.3,5.8
		c-0.3,0.1-0.5,0.3-0.6,0.7c-0.1,0.7-0.3,1.5-0.5,2.2c-1.2,0.8-2.4,1.6-3.6,2.4c0.1-0.6,0.2-1.2,0.2-1.8c0-0.6-0.3-1.3-0.9-1.6
		c0.1-1.8,0.1-3.6,0-5.4c0.1-0.1,0.1-0.3,0.1-0.5c-0.3-2.6-0.4-5.3-0.5-8c0-1.1-1.5-1.3-1.9-0.4c-1.3,0.1-2.5,0.2-3.7,0.5
		c-0.8,0.2-0.9,0.9-0.6,1.4c-0.1,0.1-0.1,0.2-0.2,0.3c-0.2,0.5-0.3,1-0.3,1.5c-2,3-3.5,6.3-4.5,9.8c0,0,0,0,0,0
		c-0.6,0.1-1.1,0.3-1.5,0.7c-0.3,0.4-0.5,0.9-0.6,1.4c-0.4,0.1-0.7,0.3-0.8,0.7c-0.2,0.4-0.3,0.9-0.5,1.3c-0.1,0-0.2,0.1-0.4,0.2
		l-2,1.9c-0.5,0.4-0.3,1,0,1.4c0,0.3,0.1,0.5,0.3,0.7c0.3,0.4,1.1,0.4,1.4,0c0.6-0.7,1.1-1.4,1.7-2c0.2,0.7,0.6,1.4,1.2,2
		c1,0.9,2.3,1.4,3.6,1.2c0.1,0.1,0.2,0.2,0.4,0.2c1.1,0.2,2.3,0,3.3-0.5c0.7,0.3,1.5,0.3,2.2-0.3c0.6-0.5,1-1.1,1.4-1.7
		c0.8,0.1,1.5-0.3,1.9-0.9c0.3,0.2,0.6,0.2,1,0c0.9-0.6,1.8-1.2,2.7-1.9c-0.3,1.8-0.1,3.6,1.6,4.7c0,0,0,0,0.1,0
		c0.9,1.3,2.4,2,4.1,1.5c0.7-0.2,1.2-0.7,1.3-1.3c0.3-0.1,0.6-0.2,0.8-0.4c0.2,0.1,0.5,0,0.7-0.1c0.7-0.4,1.2-1.1,1.8-1.8
		c0.6-0.7,1.2-1.3,1.8-2C311.1,29.7,309.7,28.2,308.8,29.2z M288.6,31.2c-0.2,0-0.3,0.1-0.5,0.2c-0.7,0.6-1.4,1-2.2,1.4
		c0,0-0.1,0.1-0.1,0.1c-0.2,0-0.3-0.1-0.5,0c-2.2,0.7-3.2-1.5-3.2-3.3c0.7,0.4,1.6,0.4,2.3-0.1c0.7-0.5,1.2-1.4,0.9-2.3
		c-0.2-0.5-0.4-0.8-0.8-1.2c0,0,0-0.1,0-0.1c0.7-2.8,1.8-5.3,3.3-7.8c0.1,0.2,0.2,0.4,0.3,0.6c1.3,2.4,1.8,4.8,1.4,7.5
		c-0.1,0.5,0,0.9,0.2,1.3C289.7,29,289.5,30.3,288.6,31.2z"/>
	<path class="st0" d="M322.1,12.4c-0.8-0.1-1.5-0.1-2.3,0.1c0,0,0,0-0.1,0c0.1-0.6,0.2-1.1,0.3-1.7c0.1-0.5,0-1-0.2-1.3
		c0.5-0.2,0.7-0.7,0.6-1.2c0-0.1,0.1-0.1,0.1-0.2c0.5-1-0.6-1.8-1.4-1.4c-1.2-0.1-2.4,0-3.6,0.4c-0.4,0.2-0.6,0.5-0.7,0.9
		c-0.2,0.3-0.2,0.7,0,1c-0.4,0.9-0.7,1.9-0.9,3c-0.3,0.2-0.6,0.4-1,0.4c-0.5,0.1-0.8,0.8-0.7,1.2c0,0,0,0.1,0,0.1
		c-0.1,0.2-0.1,0.4,0,0.6c0,0,0,0.1,0.1,0.1c-0.2,0.6,0.1,1.3,0.9,1.3c0,0,0.1,0,0.1,0c0,0,0,0.1,0,0.1c-0.1,0.1-0.2,0.2-0.3,0.4
		c-1.7,4.8-3.1,10.4-2,15.5c0.1,0.6,0.2,1.2,0.6,1.8c1.5,2.3,4.1,2,6.1,0.6c0.9-0.6,1.3-1.8,0.7-2.7c-0.4-0.7-1.3-1.1-2-1
		c0.8-5.5,1.7-11,2.8-16.4c0.2,0.2,0.5,0.4,0.9,0.3c0.4-0.1,0.8-0.2,1.2-0.1c0.5,0.1,1.1-0.1,1.2-0.7
		C322.9,13.2,322.6,12.5,322.1,12.4z"/>
	<path class="st0" d="M377.6,13.4c-0.9-0.5-2.2-0.6-3.2-0.6c-0.9,0-1.8,0.2-2.3,1c-0.3,0.5-0.1,0.9,0.2,1.2
		c-0.1,0.2-0.1,0.4-0.2,0.6c-1.7-2.6-4.3-2.6-7.1-1.8c-0.1,0-0.2,0.1-0.3,0.2c-0.5-0.1-1.1,0.1-1.6,0.6c-1,1.1-1.7,2.2-2.3,3.5
		c-0.3,0.1-0.5,0.4-0.7,0.7c-1.1,1.7-1.8,3.5-2.1,5.4c-0.6,1.4-1.2,2.9-1.5,4.4c0,0.1,0,0.2,0,0.3c-0.2,0.4-0.4,0.8-0.7,1.2
		c-0.1,0.1-0.2,0.3-0.2,0.4c-0.4,0.3-0.8,0.6-1.2,0.8c-0.5,0.1-0.9,0.2-1.4,0.2c-0.5,0-1-0.2-1.5-0.5c0.1-0.4,0-0.9-0.2-1.3
		c-0.2-0.3-0.3-0.8-0.4-1.2c0.4-3.7,1.2-9.2,1.2-10.2c0-0.5-0.2-0.9-0.5-1.2c-0.3-0.8-0.9-1.6-1.6-2.2c-0.5-0.6-1.2-1-2.1-1.1
		c0,0,0,0,0,0c-0.6-0.1-1.2-0.2-1.8-0.1c-0.2,0-0.4,0.1-0.5,0.1c-0.8,0.1-1.6,0.3-2.3,0.7c-0.5-1-1.9-1.4-2.8-0.9
		c-0.4-0.2-0.9-0.2-1.4-0.2c-0.5,0-0.9,0.2-1,0.7c0,0.1-0.1,0.2-0.1,0.3c0,0.5-0.1,1-0.1,1.5c-0.9,1.7-0.9,3.8-1.2,5.7
		c-0.1,0.9-0.3,1.8-0.4,2.8c-0.2,0.6-0.5,1.1-0.7,1.7c-0.1,0.2-0.1,0.4,0,0.6c-0.6,1-1.2,2-1.8,3.1c-0.1,0.1-0.1,0.3-0.1,0.4
		c-0.9,0.6-1.9,1.1-3,1.5c0,0-0.1-0.1-0.1-0.1c-1-0.4-1.9-1.1-2.5-2c0,0,0,0,0,0c0.4-2.5,0.8-4.9,1.1-7.4c0.5-1.7,1.1-3.4,1.7-5
		c0.1-0.2,0.1-0.5,0.1-0.7c0.2-0.7,0.5-1.5,0.7-2.3c0.2-0.6-0.3-1.3-1-1.3c-0.6,0-1.1,0.1-1.7,0.2c0,0-0.1,0-0.1,0
		c-0.7-0.3-1.4-0.3-1.9,0.1c-0.5,0.1-0.8,0.5-0.8,1c-0.1,1-0.3,2-0.6,3c-0.1,0.4,0,0.7,0.2,0.9c-0.2,1-0.3,2-0.5,3
		c0,0.1-0.1,0.2-0.1,0.3c-0.5,1.3-1.1,2.5-1.3,3.8c0,0.2,0,0.3,0,0.5c-0.4,0.8-0.8,1.5-1.3,2.3c-0.1,0.1-0.1,0.2-0.1,0.3
		c-0.2,0-0.3,0.1-0.4,0.2c-1.1,0.8-2.1,1.7-3.2,2.5c-0.3,0.2-0.3,0.7-0.2,1.1c-0.2,0.1-0.3,0.2-0.5,0.2c-1.2,0.4-0.7,2.3,0.5,1.9
		c0.9-0.3,1.6-0.8,2.2-1.4c0,0,0,0,0,0c0.7-0.4,1.3-0.9,1.9-1.5c0.1,0.8,0.3,1.5,0.8,2.2c0.1,0.1,0.1,0.2,0.2,0.3
		c0.3,0.6,0.9,0.9,1.5,1c0.2,0.1,0.5,0.2,0.7,0.2c1.1,0.6,2.3,0.8,3.5,0.4c0.8-0.2,1.4-1,1.4-1.8c0,0,0,0,0.1,0
		c0.8-0.3,1.6-0.7,2.4-1.1c-0.2,0.7-0.3,1.4-0.4,2.2c-0.1,0.9,0.8,1.1,1.5,0.8c0.4,0.5,1.1,0.7,1.8,0.7c1,0.4,2.3,0.1,2.7-1.2
		c0.1-0.5,0.3-1,0.4-1.4c0.1-0.2,0.2-0.4,0.2-0.6c0.1-0.5,0.2-1,0.3-1.6c0.6-2.3,1.1-4.6,1.6-7c0.4-1.9,0.9-3.9,1.3-5.8c0,0,0,0,0,0
		c0.5-0.3,1-0.6,1.5-0.8c0.2-0.1,0.4-0.2,0.7-0.4c0.3,0.1,0.6,0.2,1,0.2c2.5-0.2,1.2,5.6,1.1,7.1c-0.1,1.3-0.2,2.6-0.2,3.8
		c0,0.5-0.1,0.9-0.1,1.4c-0.1,2.6,0.3,4.9,2.9,5.9c1.4,0.5,2.3-0.5,2.4-1.6c1.1-0.2,2.1-0.6,3.1-1.2c0.3-0.1,0.7-0.2,1-0.3
		c0.4-0.2,0.6-0.5,0.7-0.8c0.1,0,0.1-0.1,0.2-0.1c0,0,0,0,0-0.1c0,0,0,0,0,0c0.3,0.5,0.4,1.1,0.8,1.5c0.4,0.5,0.9,0.9,1.5,1
		c1.5,1.2,3.5,1.6,5.2,0.6c0,0,0,0,0,0c0.1,0,0.2,0,0.3-0.1c0.9-0.4,1.9-0.8,2.8-1.3c0,0.3,0,0.6,0,0.9c-0.2-0.1-0.4-0.1-0.6,0
		c-2.4,0.7-4.9,1.5-6.5,3.5c-1.3,1.7-1.7,4-0.5,5.9c0.7,1.1,1.6,1.7,2.7,1.9c0.1,0.2,0.3,0.3,0.5,0.4c0.6,0.2,1.1,0.3,1.7,0.3
		c0.2,0.2,0.5,0.2,0.8,0.1c1.8-0.6,3.5-1.7,4.8-3.1c0.1-0.1,0.2-0.2,0.3-0.3c0.1-0.1,0.1-0.1,0.2-0.2c0.2-0.2,0.2-0.4,0.2-0.6
		c1.8-4.2,3-8.6,3.5-13.1c0.1-0.2,0.2-0.4,0.3-0.7c0.6-3.5,1.4-6.8,2.4-10.2c0.1-0.5,0.1-0.9-0.1-1.3c0.1-0.4,0.3-0.8,0.4-1.2
		C378.2,14.9,378.6,13.9,377.6,13.4z M366.6,41c0,0.1-0.1,0.2-0.1,0.3c0,0,0,0-0.1,0c-0.9,0.8-1.9,1.6-2.8,2.3
		c-0.9-0.1-1.7-0.5-2-1.5c-1.1-3.5,3.8-5.1,6.2-5.8c0.1,0,0.1-0.1,0.2-0.1c0,0.4,0,0.9,0,1.3C367.5,38.7,367.1,39.9,366.6,41z
		 M370.8,25.9c0,0.1-0.1,0.1-0.1,0.2c-0.7,2.3-2.6,4-4.9,4.7c-0.1-0.1-0.1-0.2-0.2-0.3c-0.4-0.4-0.8-0.5-1.3-0.5
		c0-0.1-0.1-0.1-0.1-0.1c-0.1-0.1-0.1-0.2-0.2-0.2c-0.3-0.6-1-0.9-1.7-1c0.3-1.6,0.4-3.2,0.7-4.7c0-0.1,0.1-0.1,0.1-0.2
		c0.5-0.5,0.6-1.1,0.5-1.6c0.4-0.7,0.7-1.5,1.1-2.2c0.2-0.4,0.3-0.8,0.2-1.1c0.3,0,0.6-0.1,0.8-0.5c0.7-1.5,1.9-2.7,3.7-1.9
		c1,0.5,1.7,1.4,2.2,2.3C371.6,21.1,371.3,23.5,370.8,25.9z"/>
</g>
<g id="Layer_2">
	<g>
		<g>
			<g>
				<g>
					<path d="M5.3,17.5c-0.5-1.8-0.8-3.6-0.6-5.6C5.3,10.1,6.4,8.3,8,7.3c1.6-1,3.7-1.2,5.4-0.3c-1.7-0.7-3.6-0.2-4.9,0.9
						C7.1,9,6.4,10.6,6.1,12.3C5.5,13.8,5.3,15.7,5.3,17.5z"/>
				</g>
			</g>
		</g>
		<g>
			<g>
				<g>
					<path d="M14.4,5.9c-0.7,3.2-1.3,6.4-1.9,9.7c-1.7,6.3-3.1,12.7-4.1,19.2c0.5-6.5,1.4-13.1,2.7-19.5C12.1,12.1,13.2,9,14.4,5.9z
						"/>
				</g>
			</g>
		</g>
		<g>
			<g>
				<g>
					<path d="M7.1,35.3c0.9-0.2,1.9-0.4,2.8-0.6c1.8,0.2,3.7,0.4,5.5,0.4c-1.8,0.4-3.7,0.7-5.5,1C9,35.8,8,35.6,7.1,35.3z"/>
				</g>
			</g>
		</g>
		<g>
			<g>
				<g>
					<polygon points="14.4,34.8 15.6,25.1 20.2,6.3 17,25.4 					"/>
				</g>
			</g>
		</g>
		<g>
			<g>
				<g>
					<path d="M20.4,6.1c0.7-0.3,1.5-0.6,2.3-0.8c1.6,0.3,3.1,1,4.3,1.8c-1.5-0.4-3-0.6-4.4-0.4C21.9,6.5,21.2,6.2,20.4,6.1z"/>
				</g>
			</g>
		</g>
		<g>
			<g>
				<g>
					<polygon points="26.2,7.4 25.1,16.3 20.9,33.8 23.7,16 					"/>
				</g>
			</g>
		</g>
		<g>
			<g>
				<g>
					<path d="M19.9,35.3c0.8-0.4,1.6-0.8,2.4-1.1c1.7,0.1,3.4,0.3,5.1,0.7c-1.7,0.1-3.3,0.3-4.9,0.7C21.6,35.5,20.7,35.4,19.9,35.3z
						"/>
				</g>
			</g>
		</g>
		<g>
			<g>
				<g>
					<path d="M26.6,35.1c-0.2-2.2-0.5-4.5-0.4-6.7c0-2.3,0.4-4.6,1.3-6.8c0.5-1.1,1.2-2,2-2.9c0.4-0.4,0.9-0.8,1.5-1.1
						c0.6-0.3,1.3-0.4,2-0.3c0.7,0.1,1.3,0.5,1.7,1.1c0.4,0.6,0.4,1.3,0.4,1.9c-0.1,1.2-0.4,2.3-0.6,3.4l-1.3,6.6
						c-0.2,1.1-0.5,2.2-0.3,3.3c0.1,1,1,2.1,2.2,2.1c-1.2,0.1-2.2-0.9-2.4-2c-0.2-1.1,0-2.3,0.2-3.4l0.9-6.6
						c0.1-1.1,0.4-2.2,0.4-3.3c0-0.5-0.1-1-0.3-1.3c-0.2-0.4-0.6-0.6-1-0.6c-0.9-0.1-1.8,0.4-2.4,1.2c-0.7,0.8-1.2,1.7-1.6,2.7
						c-1,1.9-1.6,4-1.9,6.2C26.6,30.6,26.6,32.8,26.6,35.1z"/>
				</g>
			</g>
		</g>
		<g>
			<g>
				<g>
					<path d="M5.5,17.9c-1.8-0.5-3.2-2-4-3.7c-0.8-1.7-0.9-3.8-0.3-5.7c0.7-1.8,2-3.4,3.5-4.5C6.2,2.9,8,2.1,9.8,1.7
						c3.6-0.9,7.3-0.7,10.9-0.5c-3.6,0-7.3,0.1-10.7,1.2C8.3,2.9,6.7,3.7,5.4,4.9C4.1,6,3,7.4,2.5,9c-0.7,1.5-0.9,3.3-0.4,5
						C2.7,15.7,3.8,17.2,5.5,17.9z"/>
				</g>
			</g>
		</g>
		<g>
			<g>
				<g>
					<path d="M17.3,1.1c1.9-0.6,4-0.5,6-0.2c1.9,0.6,3.7,1.4,5.5,1.7C30.7,3,32.7,3,34.4,2c-1.6,1.2-3.7,1.6-5.7,1.4
						c-2-0.1-4-0.7-5.8-1.1C21.1,1.6,19.3,1,17.3,1.1z"/>
				</g>
			</g>
		</g>
		<g>
			<g>
				<g>
					<path d="M33.6,2.4c-0.3,1.5-0.7,2.9-1,4.4c-1.3,2.7-2.4,5.4-3.5,8.1c0.6-2.9,1.4-5.8,2.2-8.6C32.1,5,32.8,3.7,33.6,2.4z"/>
				</g>
			</g>
		</g>
		<g>
			<g>
				<g>
					<path d="M29.8,15.8c1-1.4,2.3-2.8,4.1-3.5c0.9-0.3,1.9-0.5,2.9-0.3c1,0.2,1.9,0.8,2.6,1.5c1.2,1.7,1.4,3.7,1,5.6
						c-0.3,1.8-1.1,3.5-1.7,5.1c-0.6,1.6-1.2,3.3-1.1,5c0.1,0.8,0.2,1.8,0.9,2.3c0.3,0.3,0.8,0.3,1.2,0.1c0.4-0.2,0.7-0.6,0.6-1
						c0.1,0.4-0.2,0.9-0.6,1.1c-0.4,0.2-0.9,0.2-1.3-0.1c-0.8-0.5-1-1.5-1.2-2.4c-0.2-1.8,0.2-3.6,0.7-5.3c0.5-1.7,1.2-3.4,1.4-5
						c0.2-1.6-0.1-3.3-1.1-4.5c-0.4-0.6-1-1.1-1.7-1.4c-0.7-0.3-1.6-0.3-2.4-0.1C32.5,13.4,31,14.6,29.8,15.8z"/>
				</g>
			</g>
		</g>
		<g>
			<g>
				<g>
					<path d="M39.9,32c1.3-1.1,2.2-2.4,2.9-3.9c0.7-1.5,1.2-3,1.6-4.6c0.6-1.5,1.2-3.1,2-4.6c0.8-1.5,1.7-2.9,3-4.1
						c1.3-1.2,2.9-2,4.6-2.1c1.7-0.1,3.5,0.4,4.6,1.6c-1.2-1.1-3-1.5-4.6-1.3c-1.6,0.2-3,1.1-4.1,2.2c-2.2,2.3-3.2,5.5-4.1,8.7
						c-0.7,1.5-1.4,3.1-2.3,4.5C42.5,29.8,41.3,31.1,39.9,32z"/>
				</g>
			</g>
		</g>
		<g>
			<g>
				<g>
					<path d="M34,35.5c2.4,0.5,4.9-0.2,6.8-1.6c1-0.5,1.9-1.3,2.6-2.2l0.5-0.7l0.4,0.7c0.8,1.5,2.3,2.7,4.1,3.1
						c1.7,0.4,3.7,0.1,5.2-0.9c-1.5,1.2-3.4,1.7-5.3,1.4c-1.9-0.3-3.7-1.4-4.9-3.1l0.9,0c-0.7,1.1-1.6,2.1-2.7,2.8
						C39.1,36.3,36.3,36.4,34,35.5z"/>
				</g>
			</g>
		</g>
		<g>
			<g>
				<g>
					<path d="M58.3,15.3l0.4-2l0-0.1l0.2-0.1c1.2-0.3,2.4-0.6,3.6-0.8c1.1,0,2.3,0,3.4,0.1l0.6,0l-0.1,0.5c-0.6,2.6-1.3,5.2-2.2,7.7
						c0.6-2.6,1-5.2,1.2-7.8l0.5,0.6c-1.1,0.1-2.2,0.2-3.3,0.3c-1.2-0.1-2.4-0.1-3.6-0.1l0.2-0.2L58.3,15.3z"/>
				</g>
			</g>
		</g>
		<g>
			<g>
				<g>
					<path d="M63.9,20.2c-0.7,3.2-1,6.4-0.8,9.6c0,0.4,0,0.8,0,1c0.1,0.2,0.1,0.3,0.4,0.5c0.5,0.2,1.1,0,1.7-0.4
						c1.2-0.9,2.1-2.3,2.7-3.7c1.3-2.9,1.4-6.2,1.4-9.4c0.1,3.2,0.3,6.5-0.8,9.7c-0.5,1.6-1.4,3.1-2.7,4.3c-0.3,0.3-0.7,0.6-1.2,0.7
						c-0.5,0.2-1.1,0.2-1.6,0c-0.5-0.2-1.1-0.7-1.2-1.3c-0.2-0.5-0.1-1-0.1-1.4C61.9,26.5,62.7,23.3,63.9,20.2z"/>
				</g>
			</g>
		</g>
		<g>
			<g>
				<g>
					<path d="M58,16.9c-0.5-1-1.7-1.3-2.7-1.1c-1,0.1-1.8,0.8-2.4,1.6c-0.6,0.8-0.9,1.8-1.2,2.7c-0.3,1-0.5,2-0.6,3
						c-0.4,2-0.4,4.1-0.1,6c0.2,0.9,0.8,1.3,1.6,0.8c0.4-0.2,0.8-0.5,1.1-0.9c0.4-0.4,0.7-0.7,1-1.1c2.6-3.2,3.8-7.5,3.3-11.7
						c0.8,4.1-0.2,8.6-2.7,12.2c-0.3,0.4-0.6,0.9-1,1.3c-0.3,0.4-0.7,0.8-1.3,1.1c-0.5,0.3-1.2,0.6-1.9,0.2c-0.7-0.3-1-1-1.2-1.6
						c-0.5-2.2-0.6-4.4-0.3-6.5c0.2-1.1,0.6-2.1,1-3.1c0.4-1,0.9-2,1.7-2.8c0.7-0.8,1.8-1.5,2.9-1.5C56.4,15.4,57.5,15.9,58,16.9z"
						/>
				</g>
			</g>
		</g>
		<g>
			<g>
				<g>
					<path d="M54.1,34l1.7-2.7l0.4-0.6l0.4,0.8c0.3,0.6,0.6,1.2,0.9,1.7c0.3,0.7,0.7,1.4,1.3,1.8c0.6,0.4,1.4,0.5,2.2,0.4
						c1.6-0.2,3-1.4,4.3-2.5c-1.1,1.3-2.3,2.7-4.2,3.2c-0.9,0.3-1.9,0.3-2.9-0.2c-0.9-0.5-1.6-1.3-2-2.1c-0.2-0.7-0.4-1.4-0.5-2
						l0.8,0.2L54.1,34z"/>
				</g>
			</g>
		</g>
		<g>
			<g>
				<g>
					<polygon points="66.4,32.9 66.4,35.5 65.8,34.8 66.4,34.7 72.6,35.7 66.3,36.2 65.8,36 65,35.8 65.2,35.3 					"/>
				</g>
			</g>
		</g>
		<g>
			<g>
				<g>
					<path d="M70,17l0.2-4.1l0-0.4l0.5-0.1l0.7-0.1c1.8,0.1,3.7,0.3,5.4,0.7l0.4,0.1l-0.1,0.3l-1.5,3.9l0.9-4.1l0.3,0.4
						c-1.8-0.1-3.6-0.1-5.3,0.1l-0.7-0.1l0.6-0.5L70,17z"/>
				</g>
			</g>
		</g>
		<g>
			<g>
				<g>
					<path d="M71.9,36.2c0.1-3.1,0.3-6.1,0.7-9.2c0.4-1.5,0.9-3,1.4-4.4c0.3-0.7,0.6-1.4,1-2.1c0.3-0.7,0.7-1.4,1.3-2
						c0.5-0.6,1.3-1.1,2.2-1.1c0.9,0,1.7,0.6,2,1.3c0.4,0.7,0.4,1.6,0.3,2.3c-0.1,0.8-0.4,1.5-0.7,2.2c0.2-0.7,0.5-1.5,0.5-2.2
						c0.1-0.7,0-1.5-0.4-2.1c-0.4-0.6-1-1-1.7-1c-0.7,0-1.2,0.5-1.7,1.1c-0.4,0.6-0.8,1.2-1,1.9c-0.3,0.7-0.5,1.4-0.8,2.1
						c-0.4,1.4-0.8,2.9-1.1,4.4C73.1,30.2,72.5,33.2,71.9,36.2z"/>
				</g>
			</g>
		</g>
		<g>
			<g>
				<g>
					<path d="M80.1,23c-0.7,2.5-1.5,5-1.1,7.4c0,1.2,0.3,2.4,0.9,3.4c0.6,1,1.5,1.8,2.7,2.1c1.2,0.3,2.5,0.2,3.6-0.2
						c1.2-0.4,2.3-1.1,3.4-1.8c-1,0.8-2.1,1.6-3.3,2.1c-1.2,0.5-2.6,0.8-3.9,0.6c-1.4-0.2-2.6-1.1-3.4-2.2c-0.8-1.1-1.3-2.5-1.5-3.9
						C77.7,27.7,79,25.3,80.1,23z"/>
				</g>
			</g>
		</g>
		<g>
			<g>
				<g>
					<path d="M76.4,16.4c0.1-0.7,0.5-1.4,1-1.9c0.5-0.5,1.2-0.9,1.8-1.2c0.7-0.3,1.4-0.5,2.1-0.6c0.7-0.1,1.5-0.2,2.3,0
						c1.6,0.5,2.7,2,3.1,3.4c0.5,1.5,0.3,3,0,4.4c-0.7,2.8-2.1,5.2-2.1,8.1c-0.3-2.8,1-5.5,1.4-8.2c0.2-1.3,0.2-2.7-0.3-3.9
						c-0.5-1.2-1.4-2.1-2.5-2.4c-1.1-0.4-2.5-0.4-3.8-0.1C78.2,14.3,76.8,15,76.4,16.4z"/>
				</g>
			</g>
		</g>
		<g>
			<g>
				<g>
					<path d="M84.8,27.5c-0.1,0.9-0.2,1.9,0.2,2.7c0.2,0.4,0.6,0.6,0.9,0.7c0.4,0.1,0.8,0,1.2-0.2c0.8-0.3,1.2-1.1,1.5-1.9
						c0.3-0.8,0.4-1.7,0.6-2.7c2-7.2,3.9-14.5,5.5-21.8c-1.2,7.4-2.5,14.8-4.1,22.1c-0.3,0.9-0.5,1.8-1,2.7
						c-0.2,0.5-0.5,0.9-0.9,1.3c-0.4,0.4-0.9,0.7-1.4,0.8c-0.5,0.2-1.1,0.2-1.6,0c-0.5-0.2-0.9-0.6-1.1-1.1
						C84.4,29.3,84.6,28.4,84.8,27.5z"/>
				</g>
			</g>
		</g>
		<g>
			<g>
				<g>
					<path d="M94.4,5.2c0.8-0.4,1.6-0.7,2.5-1c1.7,0.1,3.5,0.3,5.1,0.7c-1.7,0.1-3.4,0.4-5,0.7C96.1,5.5,95.3,5.3,94.4,5.2z"/>
				</g>
			</g>
		</g>
		<g>
			<g>
				<g>
					<polygon points="101.1,4.7 100.7,9.8 97.9,19.5 99.3,9.5 					"/>
				</g>
			</g>
		</g>
		<g>
			<g>
				<g>
					<polygon points="98.2,19.6 98.8,19.2 98.5,19.9 97.8,20.2 					"/>
				</g>
			</g>
		</g>
		<g>
			<g>
				<g>
					<polygon points="98.3,19.8 100.6,17.3 106.5,14 101.4,18.5 					"/>
				</g>
			</g>
		</g>
		<g>
			<g>
				<g>
					<path d="M106.5,12.9c0.6-0.2,1.2-0.4,1.9-0.6c1.2,0.4,2.4,0.9,3.4,1.4c-1.2-0.1-2.4-0.2-3.6,0
						C107.7,13.4,107.1,13.2,106.5,12.9z"/>
				</g>
			</g>
		</g>
		<g>
			<g>
				<g>
					<path d="M102.6,18.9c0.8-1,1.7-2.1,2.6-3c2.3-1.3,4.7-2.4,7.2-3.2c-2.3,1.2-4.4,2.6-6.4,4.3C104.9,17.6,103.7,18.2,102.6,18.9z
						"/>
				</g>
			</g>
		</g>
		<g>
			<g>
				<g>
					<path d="M102.7,19.5c1-0.1,2.1-0.1,3.2,0.1c1.1,0.2,2.2,0.9,2.9,1.9c0.5,1.1,0.7,2.3,0.6,3.4c-0.1,1.1-0.4,2.2-0.7,3.2
						c-0.3,1-0.5,2,0.2,2.8c0.3,0.4,0.8,0.6,1.3,0.5c0.5-0.1,0.9-0.5,0.9-1.1c0.1,0.5-0.3,1.1-0.8,1.2c-0.5,0.2-1.2,0-1.6-0.4
						c-0.4-0.4-0.6-1-0.7-1.5c-0.1-0.6,0-1.1,0.1-1.7c0.2-1,0.4-2,0.4-3c0-1-0.3-1.9-0.8-2.7c-0.3-0.8-1-1.5-1.9-1.9
						C104.8,19.9,103.7,19.7,102.7,19.5z"/>
				</g>
			</g>
		</g>
		<g>
			<g>
				<g>
					<path d="M88.6,34.1c0.3,0.5,0.4,1.2,0.3,1.9l-0.3-0.6c0.4,0,0.7,0,1.1,0c1.8,0.6,3.7,0.9,5.6,0.9c-1.9,0.5-3.8,0.6-5.8,0.5
						c-0.4-0.2-0.7-0.3-1-0.5L87.8,36l0.3-0.3C88.4,35.3,88.6,34.7,88.6,34.1z"/>
				</g>
			</g>
		</g>
		<g>
			<g>
				<g>
					<path d="M94.4,35.5c-0.1-1.2-0.1-2.5-0.1-3.7c0.7-2.4,1.6-4.7,2.6-6.9c-0.6,2.4-1,4.8-1.2,7.2C95.2,33.2,94.8,34.3,94.4,35.5z"
						/>
				</g>
			</g>
		</g>
		<g>
			<g>
				<g>
					<path d="M97.7,24.7c0.5-0.6,1-1.2,1.7-1.7c0.7-0.5,1.6-0.7,2.5-0.5c0.4,0.1,0.9,0.4,1.2,0.8c0.3,0.4,0.4,0.9,0.5,1.3
						c0.1,0.9,0,1.7-0.1,2.5c-0.3,1.5-0.7,3.1-0.9,4.5c-0.1,0.7-0.1,1.5,0.1,2.1c0.2,0.7,0.6,1.3,1.2,1.5c0.6,0.3,1.3,0.2,2,0
						c0.7-0.3,1.3-0.7,1.8-1.3c1.1-1.1,1.9-2.5,3.3-3.2c-1.3,0.9-2.1,2.3-3.1,3.5c-0.5,0.6-1.1,1.1-1.9,1.5
						c-0.7,0.4-1.7,0.5-2.5,0.2c-0.9-0.3-1.5-1.1-1.8-1.9c-0.3-0.8-0.3-1.7-0.3-2.5c0.2-1.6,0.4-3.1,0.6-4.7
						c0.2-0.8,0.4-1.5,0.4-2.2c0-0.7-0.2-1.2-0.8-1.5c-0.6-0.3-1.4-0.2-2,0.1C98.9,23.6,98.3,24.2,97.7,24.7z"/>
				</g>
			</g>
		</g>
		<g>
			<g>
				<g>
					<path d="M124.5,12.7c0.7-0.1,1.3-0.3,2-0.4c1.2,0.4,2.5,0.7,3.7,0.9c-1.3,0.2-2.6,0.4-3.9,0.5C125.7,13.4,125.1,13,124.5,12.7z
						"/>
				</g>
			</g>
		</g>
		<g>
			<g>
				<g>
					<path d="M129.6,14.2c0.1,1.6,0.2,3.2,0.2,4.8c-0.7,3.1-1.6,6.2-2.7,9.2c0.7-3.1,1.1-6.2,1.3-9.4
						C128.8,17.3,129.2,15.7,129.6,14.2z"/>
				</g>
			</g>
		</g>
		<g>
			<g>
				<g>
					<path d="M127,27.7c-0.1,0.7-0.2,1.4-0.1,2c0.1,0.6,0.5,1.2,1,1.4c0.5,0.2,1.1,0,1.5-0.4c0.4-0.4,0.7-0.9,0.9-1.5
						c2.5-4.9,4.3-10.2,5.3-15.7c-0.6,5.6-1.9,11.1-4,16.3c-0.4,0.6-0.9,1.3-1.6,1.8c-0.7,0.4-1.7,0.6-2.4,0.1c-0.8-0.5-1-1.3-1-2
						C126.5,29.1,126.7,28.4,127,27.7z"/>
				</g>
			</g>
		</g>
		<g>
			<g>
				<g>
					<path d="M135.7,13.5c0.6-0.3,1.3-0.5,2-0.7c1.3,0.3,2.6,0.7,3.9,1.1c-1.3,0-2.6,0.1-3.9,0.3C137,13.9,136.3,13.7,135.7,13.5z"
						/>
				</g>
			</g>
		</g>
		<g>
			<g>
				<g>
					<path d="M123.9,13c-0.2,1.8-0.4,3.6-0.6,5.4c-1,3.5-1.9,7-2.7,10.5c0.3-3.6,0.7-7.2,1.3-10.9C122.6,16.4,123.3,14.7,123.9,13z"
						/>
				</g>
			</g>
		</g>
		<g>
			<g>
				<g>
					<path d="M120.8,28.4c0,1.7,0.7,3.4,1.7,4.5c0.7,1.3,2,2.6,3.5,2.2c1.6-0.4,2.8-1.9,4.5-2.2c-1.7,0.6-2.6,2.2-4.3,2.9
						c-0.9,0.4-2,0.3-2.9-0.2c-0.9-0.5-1.5-1.2-2.1-1.9C120.5,32,120.3,30.1,120.8,28.4z"/>
				</g>
			</g>
		</g>
		<g>
			<g>
				<g>
					<polygon points="130.4,33.6 130.9,34.7 130,36.6 129.5,34.5 					"/>
				</g>
			</g>
		</g>
		<g>
			<g>
				<g>
					<path d="M129.3,38.2c-0.7,0.4-1.5,0.7-2.1,1.2c-0.6,0.5-1.1,1.1-1.3,1.7c-0.3,0.5-0.4,1.1,0,1.4c0.2,0.1,0.4,0.2,0.7,0.1
						c0.3-0.1,0.6-0.4,0.8-0.7c1-1.3,1.9-2.7,2.6-4.1c-0.5,1.6-1.1,3.1-2,4.6c-0.2,0.4-0.5,0.7-0.9,1c-0.4,0.3-1.1,0.4-1.7,0.1
						c-0.5-0.3-0.9-0.8-1-1.4c-0.1-0.6,0-1.1,0.2-1.6c0.6-0.9,1.4-1.4,2.2-1.7C127.7,38.5,128.5,38.4,129.3,38.2z"/>
				</g>
			</g>
		</g>
		<g>
			<g>
				<g>
					<path d="M129.7,35.7c-0.9,0.5-1.6,1-2.3,1.7c-1.7,0.7-3.2,1.8-4.4,3.3c0.8-1.8,2.1-3.4,3.7-4.6
						C127.7,35.9,128.8,35.8,129.7,35.7z"/>
				</g>
			</g>
		</g>
		<g>
			<g>
				<g>
					<path d="M123.1,40.6c-0.4,1.2,0,2.5,0.7,3.4c0.7,0.9,1.8,1.4,2.9,1.6c2.1,0.7,4.6-0.3,6.4-1.9c1.8-1.6,3.1-3.9,3.4-6.4
						c-0.1,2.5-1.1,5-2.9,6.9c-0.9,0.9-2,1.7-3.2,2.3c-1.2,0.5-2.7,0.8-4,0.5c-1.3-0.4-2.5-1.3-3.2-2.6
						C122.5,43.2,122.5,41.7,123.1,40.6z"/>
				</g>
			</g>
		</g>
		<g>
			<g>
				<g>
					<path d="M136.1,37.7c-0.3-1,0.2-2.2,1-3c1-0.5,1.9-0.7,2.8-1.1c0.8-0.4,1.7-0.9,2-1.9c-0.1,1-0.8,1.9-1.6,2.5
						c-0.8,0.6-1.7,1.1-2.3,1.7C137.2,36.1,136.3,36.7,136.1,37.7z"/>
				</g>
			</g>
		</g>
		<g>
			<g>
				<g>
					<path d="M141.2,13.9c-0.4,2.3-0.7,4.5-1,6.8c-1.2,4.4-2.2,8.9-3,13.4c0.3-4.6,0.8-9.1,1.6-13.7
						C139.6,18.3,140.4,16.1,141.2,13.9z"/>
				</g>
			</g>
		</g>
		<g>
			<g>
				<g>
					<path d="M137.5,33.8c0.7-0.5,1.2-1.1,1.7-1.7c1.3-0.7,2.4-2,2.9-3.5c-0.1,1.6-0.8,3.3-2,4.6C139.2,33.6,138.3,33.8,137.5,33.8z
						"/>
				</g>
			</g>
		</g>
		<g>
			<g>
				<g>
					<path d="M156.5,18c-0.3,0.6-0.5,1.2-0.5,1.7c-0.3,0.4-0.6,0.8-0.6,1.3c0,0.5,0.3,1.1,0.9,1.3c-0.6,0.1-1.3-0.4-1.5-1.1
						c-0.1-0.3-0.2-0.7-0.2-1.1c0-0.4,0.1-0.7,0.2-1.1C155.3,18.5,155.9,18.3,156.5,18z"/>
				</g>
			</g>
		</g>
		<g>
			<g>
				<g>
					<path d="M156.3,17.8c0-0.9-0.1-2-0.9-2.5c-0.3-0.3-0.8-0.3-1.1-0.1c-0.4,0.2-0.7,0.5-1,0.8c-1.1,1.5-2,3.2-2.6,4.9
						c-0.8,1.7-1.3,3.5-1.5,5.3c-0.1,0.9-0.1,1.9-0.1,2.8c0,0.5,0,0.9,0.1,1.4c0.1,0.4,0.3,0.8,0.5,1c0.3,0.2,0.7,0.2,1,0
						c0.3-0.2,0.7-0.6,0.9-0.9c0.5-0.8,1-1.6,1.5-2.4c0.9-1.7,1.8-3.4,2.6-5.1c-0.6,1.8-1.4,3.6-2.2,5.3c-0.4,0.9-0.9,1.7-1.4,2.6
						c-0.3,0.4-0.6,0.8-1,1.2c-0.4,0.3-1.2,0.5-1.7,0.1c-0.6-0.3-0.8-0.9-1-1.4c-0.2-0.5-0.2-1-0.2-1.5c-0.1-1-0.1-2-0.1-3
						c0.1-2,0.5-3.9,1.2-5.8c0.9-1.8,2-3.4,3.4-4.8c0.4-0.4,0.8-0.7,1.3-0.9c0.5-0.2,1.2,0,1.6,0.3c0.4,0.4,0.6,0.9,0.7,1.3
						C156.4,16.9,156.4,17.4,156.3,17.8z"/>
				</g>
			</g>
		</g>
		<g>
			<g>
				<g>
					<path d="M142.5,28.6c-0.1-2.9,0.1-5.8,1.1-8.7c1.3-2.7,3.4-5.1,6.1-6.4c2.7-1.3,6-1.4,8.5,0.1c-2.6-1.3-5.8-0.9-8.2,0.5
						c-2.4,1.4-4.2,3.8-5.2,6.3C143.6,22.9,142.9,25.7,142.5,28.6z"/>
				</g>
			</g>
		</g>
		<g>
			<g>
				<path class="st1" d="M142.2,32.4"/>
			</g>
		</g>
		<g>
			<g>
				<g>
					<path d="M157.4,13.7c1.1,0.5,2.1,1.4,2.8,2.6c0.2,0.7,0.3,1.3,0.3,2c0,0.6-0.1,1.2,0.2,1.4c0.3,0.3,1,0.1,1.5,0
						c0.6-0.1,1.2-0.3,1.7-0.5c-0.5,0.3-1.1,0.6-1.6,0.8c-0.3,0.1-0.6,0.2-0.9,0.3c-0.3,0.1-0.7,0.1-1.1,0c-0.4-0.2-0.6-0.6-0.7-1
						c-0.1-0.4-0.1-0.7-0.2-1c-0.1-0.5-0.3-1.1-0.5-1.6C158.7,15.7,158.2,14.6,157.4,13.7z"/>
				</g>
			</g>
		</g>
		<g>
			<g>
				<g>
					<path d="M142.9,32.9c2.1,1.7,4.9,2,7.3,1.3c1.2-0.1,2.4-0.6,3.5-1.2c1.1-0.7,2.1-1.5,2.9-2.5c1.6-2,2.6-4.5,3.1-7.2
						c-0.2,2.6-1,5.3-2.5,7.6c-0.7,1.1-1.7,2.2-2.8,3c-1.1,0.8-2.5,1.4-3.8,1.7C147.6,35.9,144.7,35,142.9,32.9z"/>
				</g>
			</g>
		</g>
		<g>
			<g>
				<g>
					<path d="M160,22c1.2-0.1,2.4-0.6,3.2-1.4l0.6-0.5l0,0.9l-0.1,2.9l-0.6,3.2c-0.2,1.1-0.5,2.1-0.6,3.2c-0.1,1,0,2.1,0.5,3
						c0.5,0.9,1.5,1.6,2.6,1.5c-1.1,0.2-2.2-0.4-2.9-1.3c-0.7-0.9-0.9-2.1-0.9-3.2c0-1.1,0.1-2.2,0.2-3.3l0.3-3.2L163,21l0.6,0.4
						C162.5,21.9,161.2,22.2,160,22z"/>
				</g>
			</g>
		</g>
		<g>
			<g>
				<g>
					<path d="M164.1,34.5c1,0.1,2,0,2.9-0.3c1.8,0.2,3.8-0.3,5.4-1.4c-1.3,1.5-3.2,2.5-5.3,2.8C165.9,35.4,164.9,35,164.1,34.5z"/>
				</g>
			</g>
		</g>
		<g>
			<g>
				<g>
					<path d="M172.1,33.2l0.8-1.8l0.3-0.6l0.3,0.7c0.3,0.7,0.7,1.3,1.2,1.7c0.7,1,1.9,1.8,3.2,1.8c1.3,0.1,2.7-0.4,3.7-1.5
						c-0.8,1.2-2.2,2-3.7,2.2c-1.5,0.2-3.2-0.5-4.3-1.6c-0.5-0.8-0.7-1.6-0.8-2.5l0.6,0.1L172.1,33.2z"/>
				</g>
			</g>
		</g>
		<g>
			<g>
				<g>
					<path d="M171.8,13.6c-0.3,1.7-0.6,3.5-0.8,5.2c-1,3.3-1.8,6.8-2.2,10.3c0-3.5,0.2-7.1,0.8-10.6C170.3,16.8,171,15.2,171.8,13.6
						z"/>
				</g>
			</g>
		</g>
		<g>
			<g>
				<g>
					<path d="M164.6,18.7l-0.4-3.8l0.2-0.9c0-0.2,0.1-0.4,0.3-0.7c0.2-0.3,0.5-0.4,0.7-0.4c0.5-0.1,0.7,0,1,0l0.9,0.1l3.7,0.3
						l-3.7,0.4l-0.9,0.1c-0.3,0-0.7,0.1-0.8,0.1c-0.1,0-0.1,0.1,0,0c0,0,0,0,0,0.2l0,0.9L164.6,18.7z"/>
				</g>
			</g>
		</g>
		<g>
			<g>
				<g>
					<path d="M168.6,28.3c0,0.6,0,1.2,0.2,1.8c0.2,0.5,0.6,0.9,1.1,0.9c1,0,1.7-0.9,2-2c2-4.3,2.7-9.2,3.4-14
						c-0.2,4.8-0.5,9.8-2.1,14.5c-0.3,0.6-0.7,1.2-1.3,1.6c-0.6,0.5-1.4,0.7-2.1,0.5c-0.8-0.1-1.3-0.9-1.3-1.5
						C168.3,29.5,168.4,28.9,168.6,28.3z"/>
				</g>
			</g>
		</g>
		<g>
			<g>
				<g>
					<path d="M175,15.3c0.1-0.9,0.7-1.9,1.5-2.6c1-0.4,2.1-0.4,3-0.3c1,0.1,1.9,0.4,2.8,0.7c-1.8-0.1-3.8-0.1-5.1,0.9
						C176.4,14.1,175.6,14.6,175,15.3z"/>
				</g>
			</g>
		</g>
		<g>
			<g>
				<g>
					<path d="M182.4,13.6c-0.4,2.3-0.7,4.6-0.8,6.9c-0.5,2.2-0.9,4.5-1.2,6.8l-0.2,1.7c-0.1,0.6-0.1,1.1,0.1,1.6
						c0.2,0.5,0.6,0.9,1.2,0.9c0.5,0,1.1-0.5,0.9-1.1c0.2,0.6-0.3,1.2-0.9,1.3c-0.6,0.1-1.2-0.4-1.5-1c-0.3-0.6-0.3-1.2-0.3-1.8
						l0-1.7c0.1-2.3,0.3-4.6,0.6-6.9C180.8,18,181.5,15.8,182.4,13.6z"/>
				</g>
			</g>
		</g>
		<g>
			<g>
				<g>
					<path d="M182.4,31.8c0.2,0.4,0.3,0.9,0.4,1.4c-0.6,0.7-1.3,1.2-2.1,1.4c0.5-0.6,0.8-1.3,0.8-1.9
						C181.8,32.4,182.1,32.2,182.4,31.8z"/>
				</g>
			</g>
		</g>
		<g>
			<g>
				<g>
					<path d="M202.3,12.7c-0.3-1.3-0.2-2.8,0.2-4.2c0.4-0.6,0.9-1.2,1.4-1.7c0.5-0.5,1.2-1,1.9-1.1c0.4-0.1,0.8-0.1,1.2,0.1
						c0.4,0.2,0.6,0.5,0.8,0.9c0.2,0.7,0.1,1.4,0,2.1c0-0.7,0-1.4-0.3-1.9c-0.3-0.5-0.9-0.7-1.4-0.5c-1.1,0.5-1.8,1.7-2.2,2.8
						C203,10.1,202.4,11.3,202.3,12.7z"/>
				</g>
			</g>
		</g>
		<g>
			<g>
				<g>
					<path d="M207.6,8.3c0.7,0.4,1.4,0,1.8-0.6c0.3-0.5,0.3-1.3,0-1.8c-0.5-1.2-1.6-2.2-2.7-2.7c-2.1-1.4-5.3-1-7.2,1
						c-0.9,1-1.6,2.3-2,3.6c-0.4,1.3-0.7,2.8-0.9,4.2c0.1-1.4,0.2-2.9,0.6-4.3c0.3-1.4,0.9-2.8,1.8-4c1.8-2.4,5.6-3.3,8.4-1.8
						c1.3,0.9,2.3,2.2,2.7,3.7c0.2,0.7,0.1,1.6-0.4,2.3C209.2,8.6,208.2,8.8,207.6,8.3z"/>
				</g>
			</g>
		</g>
		<g>
			<g>
				<g>
					<path d="M196.3,10.9c-0.1,2.6-0.2,5.2-0.4,7.8c-1.1,5.1-2.6,10.1-4.5,14.9c1.4-5,2.4-10.1,3.1-15.1
						C195.1,16,195.7,13.4,196.3,10.9z"/>
				</g>
			</g>
		</g>
		<g>
			<g>
				<g>
					<path d="M190.7,35.4c-2,0.3-4,1.3-5.2,2.8c-1.2,1.5-1.7,3.6-1.1,5.3c0.4,1.7,2,3.2,3.8,3.3c1.8,0.1,3.6-1.3,4.8-2.8
						c2.6-3,4.2-7.1,4.1-11.2c0.3,4.1-1,8.3-3.6,11.7c-0.6,0.8-1.4,1.6-2.3,2.3c-0.9,0.6-2,1.1-3.1,1.1c-2.4,0-4.5-1.7-5.2-4
						c-0.5-2.3,0.4-4.6,2-6.1C186.5,36.3,188.6,35.5,190.7,35.4z"/>
				</g>
			</g>
		</g>
		<g>
			<g>
				<g>
					<polygon points="197.1,34.6 197.8,28 201.3,15.1 199.2,28.3 					"/>
				</g>
			</g>
		</g>
		<g>
			<g>
				<g>
					<polygon points="201.3,15.2 202.8,14.4 206.1,14.8 202.9,15.8 					"/>
				</g>
			</g>
		</g>
		<g>
			<g>
				<g>
					<path d="M201.9,13c0.5-0.4,1-0.8,1.6-1c0.3,0,0.7,0.2,1,0.3c0.3,0.2,0.6,0.4,0.8,0.7c0.4,0.5,0.5,1.3,0,1.8
						c0.2-0.6-0.2-1.1-0.6-1.3c-0.2-0.1-0.4-0.2-0.6-0.2c-0.2,0-0.4,0-0.7,0.1C203.1,13.1,202.5,13.1,201.9,13z"/>
				</g>
			</g>
		</g>
		<g>
			<g>
				<g>
					<path d="M190.1,36.9c-0.9,0.4-1.7,0.8-2.4,1.4c-0.7,0.6-1.1,1.3-1.2,2.1c-0.1,0.3-0.1,0.7-0.1,1c0.1,0.3,0.3,0.6,0.6,0.8
						c0.3,0.2,0.6,0.3,0.9,0.2c0.3-0.1,0.7-0.3,0.9-0.6c0.5-0.7,0.9-1.6,1.2-2.4c0.3-0.9,0.6-1.8,0.8-2.7c-0.1,0.9-0.3,1.9-0.5,2.8
						c-0.3,0.9-0.5,1.8-1,2.7c-0.3,0.4-0.7,0.9-1.2,1.1c-0.6,0.2-1.3,0.1-1.8-0.2c-0.5-0.3-0.9-0.7-1.2-1.3
						c-0.3-0.6-0.3-1.2-0.2-1.8c0.4-1.1,1.3-1.9,2.2-2.3C188.3,37.3,189.2,37.1,190.1,36.9z"/>
				</g>
			</g>
		</g>
		<g>
			<g>
				<g>
					<path d="M218,18c-0.1,0.7-0.2,1.3-0.1,1.9c-0.3,0.5-0.4,0.9-0.3,1.5c0.1,0.5,0.5,1.1,1.1,1.2c-0.6,0.1-1.3-0.3-1.7-0.9
						c-0.2-0.3-0.3-0.7-0.4-1c-0.1-0.4-0.1-0.8,0-1.1C216.9,18.9,217.4,18.5,218,18z"/>
				</g>
			</g>
		</g>
		<g>
			<g>
				<g>
					<path d="M218.1,22.7c-0.4,2-0.9,3.9-1.7,5.8c-0.4,1-0.7,1.9-1.3,2.8c-0.3,0.5-0.6,0.9-1.1,1.3c-0.5,0.4-1.3,0.6-2,0.4
						c-0.7-0.2-1.2-0.8-1.5-1.3c-0.3-0.5-0.5-1.1-0.6-1.6c-0.2-1.1-0.2-2.1-0.1-3.1c0.1-2.1,0.7-4.1,1.6-5.9
						c0.9-1.8,2.2-3.5,3.8-4.8c0.4-0.3,0.8-0.7,1.4-0.7c0.6,0,1,0.4,1.3,0.9c0.3,0.5,0.3,1,0.1,1.5c-0.1,0.5-0.3,1-0.5,1.4
						c0.2-0.5,0.4-0.9,0.5-1.4c0.1-0.5,0-1-0.2-1.4c-0.2-0.4-0.7-0.7-1.1-0.7c-0.4,0-0.8,0.4-1.2,0.7c-1.5,1.3-2.6,3-3.4,4.8
						c-0.8,1.8-1.2,3.7-1.2,5.7c0,1,0.1,1.9,0.3,2.8c0.2,0.9,0.7,1.7,1.2,1.8c0.3,0.1,0.6,0.1,0.9-0.1c0.3-0.2,0.6-0.5,0.9-0.9
						c0.5-0.8,1-1.7,1.5-2.5C216.7,26.5,217.5,24.6,218.1,22.7z"/>
				</g>
			</g>
		</g>
		<g>
			<g>
				<g>
					<path d="M222,19.7c0.5-0.3,0.9-0.5,1.4-0.9c1,0.1,2,0,3-0.2c-0.8,0.6-1.7,1.2-2.7,1.6C223,20.1,222.5,19.9,222,19.7z"/>
				</g>
			</g>
		</g>
		<g>
			<g>
				<g>
					<path d="M210.2,36.1c2-0.7,3.8-1.9,5.2-3.3c3.3-2.2,5.6-6.1,6.1-10.2c0,4.2-1.9,8.5-5.2,11.3C214.4,35.1,212.3,35.8,210.2,36.1
						z"/>
				</g>
			</g>
		</g>
		<g>
			<g>
				<g>
					<polygon points="221.6,22 222.9,21.1 225.7,21.5 223.1,22.5 					"/>
				</g>
			</g>
		</g>
		<g>
			<g>
				<g>
					<path d="M210.8,35.6c-1.2,0.1-2.4-0.2-3.4-0.9c-1-0.6-1.9-1.6-2.5-2.6c-1.3-2.2-1.5-4.8-1.1-7.2c0.6-2.4,1.6-4.6,2.8-6.7
						c1.3-2.1,3-4,5.2-5c1.1-0.5,2.3-0.8,3.6-0.8c1.2,0,2.5,0.3,3.5,1c1,0.7,1.8,1.6,2.3,2.8c0.5,1.1,0.5,2.4,0.1,3.5
						c0.4-1.1,0.2-2.4-0.3-3.4c-0.5-1.1-1.3-1.9-2.3-2.5c-1-0.6-2.2-0.8-3.3-0.7c-1.1,0.1-2.3,0.4-3.3,0.9c-2,1.1-3.5,2.9-4.6,4.9
						c-1.1,2-1.9,4.3-2.3,6.5c-0.6,2.2-0.7,4.6,0.3,6.6C206.4,33.7,208.4,35.5,210.8,35.6z"/>
				</g>
			</g>
		</g>
		<g>
			<g>
				<g>
					<path d="M226.2,18.8c-0.1-0.8-0.1-1.6-0.2-2.4c0.5-1.5,0.9-3,1.3-4.5c0.1,1.6,0.2,3.1,0.1,4.7C227,17.3,226.6,18,226.2,18.8z"
						/>
				</g>
			</g>
		</g>
		<g>
			<g>
				<g>
					<polygon points="227.3,12.7 229.5,12.1 233.7,13.1 229.4,13.5 					"/>
				</g>
			</g>
		</g>
		<g>
			<g>
				<g>
					<polygon points="233.6,13.3 234.1,14.2 233.2,15.7 232.8,14 					"/>
				</g>
			</g>
		</g>
		<g>
			<g>
				<g>
					<path d="M232.9,15.7c1.5-1.7,3.7-3,6.1-3.3c0.6,0,1.4,0.1,2,0.5c0.6,0.5,0.9,1.2,1.1,1.8c0.3,1.2,0.1,2.6-0.6,3.6
						c-0.7,1-2.1,1.6-3.3,1.3c-1.2-0.4-1.9-1.8-1.4-2.8c-0.4,1.1,0.4,2.3,1.5,2.5c1,0.2,2.1-0.4,2.6-1.3c0.5-0.9,0.5-2,0.2-3
						c-0.2-0.5-0.4-0.9-0.7-1c-0.3-0.2-0.8-0.2-1.3-0.2C237,13.6,234.7,14.3,232.9,15.7z"/>
				</g>
			</g>
		</g>
		<g>
			<g>
				<g>
					<path d="M225.2,21.7c0,1.7,0,3.3,0,5c-0.8,3.2-1.7,6.4-2.7,9.5c0.6-3.2,1-6.5,1.3-9.7C224.2,24.9,224.7,23.3,225.2,21.7z"/>
				</g>
			</g>
		</g>
		<g>
			<g>
				<g>
					<path d="M223,35.2c0.7-0.2,1.4-0.5,2.1-0.8c1.4,0.2,2.9,0.3,4.4,0.3c-1.4,0.4-2.8,0.8-4.3,1.1C224.4,35.6,223.7,35.4,223,35.2z
						"/>
				</g>
			</g>
		</g>
		<g>
			<g>
				<g>
					<polygon points="229.4,34.7 229.9,28.7 232.7,17.6 232.8,17.5 232.8,17.6 232.9,18.2 232.7,17.6 232.8,17.6 231.3,29 					"/>
				</g>
			</g>
		</g>
		<g>
			<g>
				<g>
					<path d="M232.8,18.4c0.2-0.7,0.4-1.3,0.9-2c0.7-0.3,1.6-0.4,2.3,0c0.7,0.4,1,1.3,0.6,1.9c0.1-0.7-0.5-1.2-0.9-1.2
						c-0.5-0.1-1,0.2-1.3,0.5C233.9,17.7,233.3,18.1,232.8,18.4z"/>
				</g>
			</g>
		</g>
		<g>
			<g>
				<g>
					<polygon points="253.8,13 255.9,12.4 260,13.3 255.9,13.8 					"/>
				</g>
			</g>
		</g>
		<g>
			<g>
				<g>
					<path d="M260,13.7l-1,7.2c-0.7,2.3-1.4,4.6-2,6.9c-0.1,0.6-0.2,1.1-0.2,1.7c0.1,0.5,0.3,1.1,0.7,1.4c0.9,0.7,2.4,0.4,3-0.7
						c-0.5,1.1-2.1,1.6-3.2,0.9c-0.6-0.4-0.9-1-1-1.6c-0.1-0.6-0.1-1.3,0-1.9c0.4-2.4,0.9-4.7,1.3-7.1L260,13.7z"/>
				</g>
			</g>
		</g>
		<g>
			<g>
				<g>
					<path d="M266.2,16.6c-0.4,0.2-0.9,0.3-1.4,0.4c-0.5,0.1-1.1-0.1-1.5-0.4c-0.4-0.3-0.8-0.8-0.9-1.4c-0.2-0.6-0.1-1.3,0.2-1.8
						c0.7-1,2-1.5,3.1-1.3c1.1,0.3,1.9,1.1,2.4,2.1c0.5,0.9,0.5,2,0.4,2.9c-0.1,1-0.4,1.9-0.7,2.8c0.2-0.9,0.4-1.9,0.4-2.8
						c0-0.9-0.2-1.9-0.6-2.6c-0.5-0.7-1.2-1.3-2-1.4c-0.7-0.1-1.5,0.4-1.7,0.9c-0.5,0.5-0.5,1.3,0,2c0.2,0.3,0.6,0.5,1.1,0.6
						C265.3,16.7,265.8,16.6,266.2,16.6z"/>
				</g>
			</g>
		</g>
		<g>
			<g>
				<g>
					<path d="M266.1,17.1c0.3,1.9,0.3,3.9-0.1,5.9c-1.4,3.7-4,6.9-7.2,9c2.9-2.5,5-5.9,5.9-9.4C265.4,20.9,265.9,19,266.1,17.1z"/>
				</g>
			</g>
		</g>
		<g>
			<g>
				<g>
					<polygon points="253.7,13.8 253.2,19.6 250.3,30.7 251.9,19.3 					"/>
				</g>
			</g>
		</g>
		<g>
			<g>
				<g>
					<path d="M250.1,30.3c-0.2,1.8,0.8,3.6,2.3,4.4c1.5,0.9,3.3,0.9,4.9,0.4c1.6-0.3,3.2-1.2,4.5-2.3c1.4-1.1,2.5-2.5,3.5-4
						c1.9-3,2.9-6.6,2.7-10.3c0.4,3.6-0.3,7.4-2.1,10.6c-0.9,1.6-2,3.1-3.4,4.4c-1.4,1.3-3,2.4-4.9,2.9c-1.9,0.3-4,0-5.6-1.2
						C250.5,34.1,249.6,32.1,250.1,30.3z"/>
				</g>
			</g>
		</g>
		<g>
			<g>
				<g>
					<path d="M277.6,3.6c-0.2-0.2-0.6-0.3-0.9-0.2c-0.3,0.1-0.5,0.2-0.8,0.4c-0.5,0.4-1,0.8-1.3,1.3c-0.7,0.9-0.7,2.1-0.2,3
						c0.3,0.9,1.3,1.6,2.4,1.6c1.1,0.1,2.2-0.6,2.8-1.5c0.6-1,0.7-2.3,0.1-3.3c-0.6-1-2.1-1.5-3.2-0.9c1-0.8,2.7-0.4,3.5,0.7
						c0.8,1.1,0.9,2.6,0.3,3.9c-0.6,1.2-1.9,2.2-3.4,2.3c-1.4,0.1-3-0.7-3.7-2.1c-0.3-0.7-0.3-1.5-0.1-2.2c0.2-0.7,0.6-1.4,1.1-1.8
						c0.5-0.5,1.1-0.8,1.6-1.1c0.3-0.1,0.6-0.3,0.9-0.3C277,3.2,277.4,3.3,277.6,3.6z"/>
				</g>
			</g>
		</g>
		<g>
			<g>
				<g>
					<polygon points="272.3,12.7 274.7,12.3 279.3,13.6 274.5,13.7 					"/>
				</g>
			</g>
		</g>
		<g>
			<g>
				<g>
					<path d="M278.8,13.6c-0.3,1.8-0.5,3.6-0.6,5.3c-1,3.4-1.8,6.9-2.3,10.4c0.1-3.6,0.4-7.2,1-10.7
						C277.4,16.9,278.1,15.2,278.8,13.6z"/>
				</g>
			</g>
		</g>
		<g>
			<g>
				<g>
					<path d="M276,27.3c-0.1,0.9-0.2,1.8,0.2,2.4c0,0.6,0.3,1.2,1,1.4c0.7,0.2,1.5-0.2,2.1-0.8c-0.4,0.7-1.1,1.5-2.2,1.5
						c-0.5,0-1.1-0.1-1.5-0.5c-0.5-0.4-0.7-0.9-0.9-1.4C274.9,28.7,275.5,28,276,27.3z"/>
				</g>
			</g>
		</g>
		<g>
			<g>
				<g>
					<path d="M280.2,30.4c-0.4-0.6-0.7-1.4-0.8-2.2c0.6-1.5,1.8-2.6,3.2-2.9c-1.2,0.8-1.8,2.1-1.8,3.2
						C280.4,29,280.2,29.6,280.2,30.4z"/>
				</g>
			</g>
		</g>
		<g>
			<g>
				<g>
					<path d="M282.3,25.6c0.5-1.5,0.9-3,1.3-4.5c1.5-2.7,2.8-5.6,4-8.4c-0.8,3-1.7,6-2.7,9C284.1,23,283.2,24.3,282.3,25.6z"/>
				</g>
			</g>
		</g>
		<g>
			<g>
				<g>
					<path d="M288,12.9l-0.3,0.1l-0.4,0.1l0.4-0.3c0.5-0.4,1.1-0.8,1.7-1.2c1.6-0.2,3.2-0.2,4.7,0c-1.5,0.3-3,0.7-4.3,1.4
						c-0.6,0-1.3,0-2,0.1l0-0.2L288,12.9z"/>
				</g>
			</g>
		</g>
		<g>
			<g>
				<g>
					<path d="M294,11.6c0.4,1.9,0.8,3.9,1.2,5.9c0,4-0.2,7.9-0.5,11.9c-0.2-4-0.5-7.9-0.9-11.8C293.9,15.6,294,13.6,294,11.6z"/>
				</g>
			</g>
		</g>
		<g>
			<g>
				<g>
					<path d="M284.6,25.8c0-0.9,0.1-1.7,0.1-2.6c0.8-1.5,1.8-2.8,2.9-4.1c-0.7,1.5-1.2,3.1-1.6,4.6C285.5,24.4,285,25.1,284.6,25.8z
						"/>
				</g>
			</g>
		</g>
		<g>
			<g>
				<g>
					<path d="M282.5,29.7c0.9,0.1,1.6-0.5,1.8-1c0.5-0.3,0.9-0.9,0.8-1.6c-0.1-0.7-0.6-1.4-1.3-1.7c0.8,0.1,1.6,0.7,2,1.5
						c0.2,0.4,0.3,0.9,0.2,1.5c-0.1,0.5-0.4,1-0.7,1.4C284.3,30.3,283.2,30.2,282.5,29.7z"/>
				</g>
			</g>
		</g>
		<g>
			<g>
				<g>
					<path d="M282.6,29.4c-0.3,1.3,0.7,2.5,1.8,2.8c1.1,0.3,2.2-0.3,2.9-1.1c0.8-0.7,1.3-1.7,1.6-2.8c0.2-1.1,0.3-2.4,0.2-3.6
						c-0.1-2.4-0.6-4.9-1.5-7.2l0,0l-0.1,0.4l0.1-0.4l0-0.1l0,0.1c1.1,2.2,1.9,4.6,2.2,7.1c0.2,1.3,0.2,2.5,0.1,3.8
						c-0.2,1.3-0.6,2.7-1.7,3.7c-1.1,0.9-2.8,1.4-4.1,0.7c-0.7-0.3-1.1-0.9-1.4-1.5C282.4,30.7,282.3,30,282.6,29.4z"/>
				</g>
			</g>
		</g>
		<g>
			<g>
				<g>
					<path d="M272.5,13.3c-0.8,3.7-1.6,7.4-2,11.1c-0.4,1.8-0.8,3.7-0.9,5.5c-0.1,1.8,0.2,3.7,1.6,4.8c1.4,1.1,3.4,1.2,5.1,0.6
						c1.7-0.7,3.2-1.9,4.5-3.3c-1.2,1.5-2.5,2.9-4.3,3.7c-1.8,0.8-4,0.8-5.7-0.3c-0.9-0.6-1.5-1.5-1.8-2.5c-0.3-1-0.4-2-0.4-2.9
						c0-2,0.3-3.8,0.6-5.7C270,20.4,271.2,16.8,272.5,13.3z"/>
				</g>
			</g>
		</g>
		<g>
			<g>
				<g>
					<path d="M280.4,32.9c1.7,1.6,4.1,2.1,6.2,1.8c2.2,0.1,4.3-0.6,6.3-1.7c2-1.1,3.8-2.6,5.5-4c-1.6,1.6-3.2,3.3-5.2,4.6
						c-1,0.7-2,1.3-3.1,1.7c-1.1,0.4-2.3,0.7-3.5,0.8C284.2,36,281.7,34.9,280.4,32.9z"/>
				</g>
			</g>
		</g>
		<g>
			<g>
				<g>
					<polygon points="295.2,29.5 295.8,28.2 298.2,27.4 296.6,29.3 					"/>
				</g>
			</g>
		</g>
		<g>
			<g>
				<g>
					<path d="M306.3,4.4C305.7,4,305,4,304.4,4.2c-0.6,0.2-1.1,0.7-1.3,1.2c-0.5,1.1,0,2.4,0.9,3.1c0.7,0.8,2,1.2,3.2,0.9
						c1.2-0.2,2.1-1.2,2.3-2.5c0.2-1.2-0.3-2.6-1.4-3.2c-1.1-0.6-2.8-0.5-3.7,0.6c0.9-1.1,2.5-1.4,3.8-0.9c0.7,0.3,1.3,0.8,1.6,1.5
						c0.3,0.7,0.5,1.4,0.4,2.2c-0.1,0.7-0.3,1.5-0.8,2.1c-0.5,0.6-1.2,1-1.9,1.3c-1.5,0.5-3.2,0.2-4.5-0.9c-0.5-0.6-0.9-1.4-1-2.2
						c-0.1-0.8,0.1-1.6,0.5-2.3c0.4-0.7,1.1-1.1,1.9-1.2C305,3.7,305.8,3.9,306.3,4.4z"/>
				</g>
			</g>
		</g>
		<g>
			<g>
				<g>
					<path d="M330.1,3.4c-1.2,0.3-2.2,1.2-2.6,2.2c-0.4,1-0.1,2.2,0.5,3c0.5,0.9,1.4,1.4,2.5,1.3c1-0.1,2.1-0.7,2.4-1.8
						c0.4-1,0.1-2.3-0.8-3.1c-0.9-0.7-2.3-0.9-3.4-0.3c1-0.7,2.5-0.7,3.6,0c1.1,0.7,1.6,2.2,1.2,3.5c-0.2,0.7-0.5,1.3-1.1,1.8
						c-0.5,0.5-1.2,0.8-1.9,0.9c-0.7,0.1-1.4,0.1-2.1-0.2c-0.7-0.3-1.3-0.8-1.7-1.4c-0.7-1.3-0.7-2.9,0-4.1
						C327.6,4.1,328.8,3.4,330.1,3.4z"/>
				</g>
			</g>
		</g>
		<g>
			<g>
				<g>
					<polygon points="302.1,13.1 304.3,12.6 308.5,13.6 304.2,14 					"/>
				</g>
			</g>
		</g>
		<g>
			<g>
				<g>
					<path d="M301,13.3c0.2,1.6,0.3,3.3,0.3,5c-0.7,3.3-1.7,6.4-3.1,9.4c0.9-3.1,1.5-6.3,1.7-9.5C300.4,16.6,300.7,15,301,13.3z"/>
				</g>
			</g>
		</g>
		<g>
			<g>
				<g>
					<path d="M307.4,14.3c-0.7,2.7-1.2,5.5-1.6,8.3c-0.4,1.3-0.7,2.7-1,4.1c-0.1,0.7-0.3,1.4-0.4,2.1c-0.1,0.7-0.2,1.4-0.1,1.9
						c0.2,0.5,0.8,0.7,1.4,0.5c0.6-0.2,1.2-0.6,1.8-0.9l3.6-2.3l-3.4,2.5c-0.6,0.4-1.1,0.9-1.8,1.2c-0.4,0.1-0.8,0.2-1.2,0.1
						c-0.4-0.1-0.8-0.5-1-0.9c-0.3-0.8-0.2-1.6-0.2-2.3c0.1-0.7,0.1-1.4,0.2-2.1c0.2-1.4,0.4-2.8,0.6-4.2
						C305.3,19.6,306.3,16.9,307.4,14.3z"/>
				</g>
			</g>
		</g>
		<g>
			<g>
				<g>
					<path d="M298,29.9c0,1.9,1.2,3.6,2.7,4.3c1.3,1,3.3,1.2,5,0.6c1.7-0.6,3.1-2,3.9-3.8c-0.5,1.8-1.8,3.5-3.6,4.4
						c-1.8,0.9-4.1,1-6-0.1C298.2,34,297.5,31.8,298,29.9z"/>
				</g>
			</g>
		</g>
		<g>
			<g>
				<g>
					<path d="M309.9,28l0.1,1l-0.3,0c0.2-1.4,0.4-2.8,0.5-4.2c1-3.3,1.8-6.6,2.4-10c-0.1,3.4-0.5,6.9-1.1,10.3
						c-0.5,1.3-1.1,2.6-1.7,3.9l-0.4,0.8l0.1-0.9L309.9,28z"/>
				</g>
			</g>
		</g>
		<g>
			<g>
				<g>
					<path d="M312.3,13.4c0,0.5,0.1,1,0.3,1.5c-0.1,0.3-0.3,0.6-0.4,0.9l-0.3-0.4c0.4,0.3,1,0.4,1.6,0.2c-0.4,0.4-1.1,0.7-1.8,0.6
						l-0.2,0l-0.1-0.4c-0.1-0.4-0.1-0.8-0.1-1.2C311.5,14.2,311.9,13.8,312.3,13.4z"/>
				</g>
			</g>
		</g>
		<g>
			<g>
				<g>
					<polygon points="311.8,12.7 312.6,12 313.9,12.9 312.4,13.4 					"/>
				</g>
			</g>
		</g>
		<g>
			<g>
				<g>
					<polygon points="313.4,12.6 313.1,10.7 314.7,7.6 314.5,11.1 					"/>
				</g>
			</g>
		</g>
		<g>
			<g>
				<g>
					<polygon points="314.8,7.2 316.9,6.4 321.3,6.9 317,7.8 					"/>
				</g>
			</g>
		</g>
		<g>
			<g>
				<g>
					<path d="M321.2,6.4c0.1,0.8,0.2,1.6,0.2,2.4c-0.6,1.5-1.3,2.9-2,4.2c0.3-1.5,0.5-3,0.7-4.6C320.4,7.8,320.8,7.1,321.2,6.4z"/>
				</g>
			</g>
		</g>
		<g>
			<g>
				<g>
					<polygon points="319.5,12.8 320.6,12.1 322.8,12.9 320.6,13.5 					"/>
				</g>
			</g>
		</g>
		<g>
			<g>
				<g>
					<polygon points="322.7,13 323.1,14.8 323,15 322.7,15.7 322.3,15.6 319.3,14.6 322.4,14.3 321.7,14.8 321.7,14.5 					"/>
				</g>
			</g>
		</g>
		<g>
			<g>
				<g>
					<path d="M319.3,15.3l-0.8,7.5c-0.6,2.4-1.5,4.9-1.1,7.2c0.1,0.5,0.4,1.1,0.9,1c0.5,0,0.9-0.5,1.4-0.9l2.8-2.5l-2.6,2.7
						c-0.2,0.2-0.4,0.5-0.7,0.7c-0.2,0.2-0.5,0.4-1,0.5c-0.4,0.1-0.8-0.2-1.1-0.4c-0.3-0.3-0.4-0.6-0.5-0.9
						c-0.3-1.3-0.3-2.6-0.1-3.9c0.2-1.3,0.4-2.5,0.6-3.7L319.3,15.3z"/>
				</g>
			</g>
		</g>
		<g>
			<g>
				<g>
					<path d="M310.2,32c0.9,1.6,2.6,2.4,4.2,2.5c1.5,0.4,3.3,0.2,4.9-0.5c1.6-0.7,3-1.8,4.2-3.1c-1.1,1.4-2.3,2.7-3.9,3.7
						c-1.6,1-3.5,1.6-5.5,1.3C312.2,35.2,310.6,33.7,310.2,32z"/>
				</g>
			</g>
		</g>
		<g>
			<g>
				<g>
					<path d="M322.2,28.1c0.4-1.7,0.6-3.4,0.8-5.1c1.1-3.2,1.8-6.5,2.2-9.9c0,3.4-0.2,6.9-0.9,10.3C323.8,25,323,26.6,322.2,28.1z"
						/>
				</g>
			</g>
		</g>
		<g>
			<g>
				<g>
					<polygon points="325.2,13.2 327.3,12.5 331.6,13.2 327.3,13.9 					"/>
				</g>
			</g>
		</g>
		<g>
			<g>
				<g>
					<polygon points="331.5,13.7 331,19.3 327.9,30.1 329.6,19 					"/>
				</g>
			</g>
		</g>
		<g>
			<g>
				<g>
					<path d="M322.2,32.2c0.3,1.5,1.7,2.4,2.9,2.6c1.2,0.5,2.7,0.4,4,0c1.4-0.5,2.7-1.3,3.9-2.1c-1.1,1-2.3,2-3.6,2.7
						c-1.4,0.7-3,1.1-4.7,0.7C323.1,35.3,322.1,33.7,322.2,32.2z"/>
				</g>
			</g>
		</g>
		<g>
			<g>
				<g>
					<path d="M328.2,28.3c-0.1,0.5,0,1.1,0.2,1.5c0.2,0.4,0.5,0.7,0.8,0.8c0.2,0.2,0.5,0.4,0.9,0.3c0.4-0.1,0.9-0.3,1.4-0.5
						c1-0.4,1.9-0.9,2.8-1.5c-0.7,0.7-1.6,1.4-2.4,2.1c-0.4,0.3-0.9,0.6-1.4,0.9c-0.3,0.1-0.6,0.2-1,0.2c-0.4,0-0.7-0.2-1.1-0.4
						c-0.5-0.5-0.7-1.2-0.7-1.8C327.7,29.3,327.9,28.8,328.2,28.3z"/>
				</g>
			</g>
		</g>
		<g>
			<g>
				<g>
					<path d="M334.3,29.4c0.3-1.9,0.6-3.8,0.8-5.7c1.1-3.7,2-7.4,2.7-11.2c-0.2,3.8-0.6,7.7-1.3,11.5
						C335.8,25.8,335.1,27.6,334.3,29.4z"/>
				</g>
			</g>
		</g>
		<g>
			<g>
				<g>
					<path d="M337.7,13.3c0.6-0.3,1.3-0.5,2-0.8c1.4,0.3,2.7,0.7,3.9,1.2c-1.3-0.1-2.6,0-3.9,0.2C339,13.7,338.3,13.5,337.7,13.3z"
						/>
				</g>
			</g>
		</g>
		<g>
			<g>
				<g>
					<path d="M343.3,13.1c0.1,0.4,0.2,0.7,0.4,1.1c-0.4,0.5-0.7,1-0.9,1.7c-0.2-0.6-0.4-1.3-0.5-2C342.6,13.5,342.9,13.3,343.3,13.1
						z"/>
				</g>
			</g>
		</g>
		<g>
			<g>
				<g>
					<path d="M342.9,15.7c0.6-1.3,1.8-2.3,3.2-2.8c1.4-0.5,3.1-0.3,4.5,0.4c1.3,0.9,2.2,2.3,2.5,3.8c0.3,1.5,0.2,3-0.1,4.4
						c-0.6,2.8-1.8,5.3-1.9,8.2c-0.2-2.8,0.9-5.6,1.2-8.3c0.2-1.4,0.1-2.7-0.3-4c-0.4-1.2-1.2-2.3-2.2-2.9c-1-0.8-2.3-1.1-3.6-0.9
						C345,13.8,343.7,14.6,342.9,15.7z"/>
				</g>
			</g>
		</g>
		<g>
			<g>
				<g>
					<path d="M332.8,33l0,2.8l-0.6-0.8l0.3,0c2,0.4,4,0.5,6.1,0.5c-2,0.5-4.1,0.9-6.2,0.9l-0.3-0.1l-0.8-0.2l0.2-0.5L332.8,33z"/>
				</g>
			</g>
		</g>
		<g>
			<g>
				<g>
					<path d="M338.9,35.1c0-1.7,0.1-3.5,0.2-5.2c0.9-3.3,1.9-6.6,3-9.9c-0.6,3.4-1.1,6.8-1.6,10.2C339.9,31.8,339.4,33.5,338.9,35.1
						z"/>
				</g>
			</g>
		</g>
		<g>
			<g>
				<g>
					<path d="M342.2,20.5c0.2-0.9,0.7-1.7,1.3-2.4c0.6-0.7,1.4-1.3,2.6-1.5c0.6,0,1.2,0.2,1.7,0.7c0.5,0.5,0.5,1.2,0.5,1.7
						c0,0.5-0.2,0.9-0.3,1.4l-0.3,1.3l-1.2,5.2l0.5-5.3l0.1-1.3c0-0.4,0.1-0.9,0.1-1.3c0-0.8-0.4-1-1-0.9c-0.6-0.1-1.5,0.2-2.2,0.7
						C343.3,19.1,342.7,19.8,342.2,20.5z"/>
				</g>
			</g>
		</g>
		<g>
			<g>
				<g>
					<path d="M346.8,25.3c-0.3,2.1-0.4,4.2,0.2,6.1c0.1,0.9,0.5,1.9,1,2.6c0.5,0.7,1.4,1.2,2.4,1.1c2-0.1,3.6-1.7,5.6-2.4
						c-1,0.4-1.8,1.1-2.6,1.7c-0.8,0.6-1.8,1.2-2.9,1.4c-0.6,0.1-1.2,0.1-1.7-0.1c-0.6-0.2-1.1-0.6-1.5-1c-0.8-0.9-1.3-1.9-1.6-3
						C345.4,29.3,346,27.2,346.8,25.3z"/>
				</g>
			</g>
		</g>
		<g>
			<g>
				<g>
					<path d="M351,29.1c-0.1,0.8,0.7,1.4,1.1,1.2c0.4,0.3,1.1,0.2,1.7-0.1c0.6-0.3,1.2-1,1.7-1.6c-0.3,0.7-0.6,1.5-1.2,2.1
						c-0.6,0.6-1.5,1.1-2.7,0.9C350.6,31,350.4,29.7,351,29.1z"/>
				</g>
			</g>
		</g>
		<g>
			<g>
				<g>
					<path d="M356.2,28.5c0.2-2.9,0.9-5.8,2.2-8.5c0.8-1.3,1.7-2.5,2.7-3.6c1-1.1,2.2-2.1,3.5-2.8c0.7-0.3,1.4-0.6,2.2-0.7
						c0.8-0.1,1.5-0.1,2.2,0.1c1.4,0.3,2.8,1.3,3.3,2.7c-0.6-1.3-2-2.1-3.4-2.3c-0.7-0.1-1.4-0.1-2.1,0.1c-0.7,0.2-1.3,0.4-1.9,0.8
						c-2.4,1.5-4,4-5.3,6.4C358,23,356.9,25.7,356.2,28.5z"/>
				</g>
			</g>
		</g>
		<g>
			<g>
				<g>
					<path d="M371.2,15.1c0.4-0.4,0-0.9,0-1.5c0-0.3,0.1-0.8,0.4-1.1c0.3-0.3,0.7-0.4,1-0.5c0.7,0,1.2,0.2,1.7,0.2l1.6,0.3l3.1,0.6
						l-3.2,0.1l-1.6,0.1c-0.5,0-1.1,0-1.5,0.1c-0.4,0-0.6-0.1-0.8,0.3c-0.1,0.2-0.1,0.5-0.2,0.8C371.6,14.7,371.5,15,371.2,15.1z"/>
				</g>
			</g>
		</g>
		<g>
			<g>
				<g>
					<path d="M356.8,32.2c0.9,1.3,2.2,2.1,3.6,2.3c1.2,0.5,2.7,0.5,4.2,0.1c1.4-0.4,2.8-1.1,4.2-1.7c-1.2,0.9-2.5,1.8-4,2.4
						c-1.4,0.6-3.1,1-4.8,0.5C358.3,35.1,357.2,33.7,356.8,32.2z"/>
				</g>
			</g>
		</g>
		<g>
			<g>
				<g>
					<path d="M367.2,33.9l0.1,1.2l0,0.1l-0.2,0.1c-1.1,0.4-2.1,0.9-3,1.4c-1.4,0.4-2.6,1.2-3.3,2.5c-0.7,1.3-0.9,2.9-0.3,4.3
						c-0.8-1.3-0.9-3.1-0.3-4.6c0.6-1.6,2-2.8,3.4-3.5c1.2-0.3,2.3-0.4,3.5-0.5l-0.1,0.2L367.2,33.9z"/>
				</g>
			</g>
		</g>
		<g>
			<g>
				<g>
					<path d="M360,42.7c0.6,1.4,1.8,2.4,3.2,2.7c1.4,0.4,2.8,0.2,4-0.5c1.3-0.5,2.4-1.3,3.4-2.4c0.9-1.1,1.6-2.4,2.2-3.7
						c1.1-2.7,1.6-5.7,2.7-8.5c-0.8,2.9-1.1,5.9-2,8.8c-0.5,1.4-1.1,2.9-2,4.1c-0.9,1.3-2.2,2.4-3.7,3c-1.5,0.5-3.3,0.5-4.8-0.2
						C361.5,45.5,360.4,44.2,360,42.7z"/>
				</g>
			</g>
		</g>
		<g>
			<g>
				<g>
					<path d="M366.9,36.8c-1.8,0.6-3.3,2.1-3.9,3.7c-0.4,0.6-0.3,1.4,0.3,1.6c0.6,0.3,1.5-0.2,2.1-0.8c1.3-1.3,1.9-3.3,2.4-5.2
						c-0.3,1.9-0.6,3.9-1.8,5.6c-0.3,0.4-0.7,0.8-1.2,1.1c-0.5,0.3-1.1,0.5-1.8,0.3c-0.7-0.1-1.2-0.7-1.4-1.4
						c-0.2-0.6-0.1-1.3,0.1-1.9C363,38,365,37,366.9,36.8z"/>
				</g>
			</g>
		</g>
		<g>
			<g>
				<g>
					<path d="M378.3,13.2c-0.4,2.4-0.8,4.9-1.2,7.4c-1.4,4.7-2.5,9.6-3.4,14.4c0.5-4.9,1.1-9.9,2-14.8
						C376.5,17.9,377.4,15.6,378.3,13.2z"/>
				</g>
			</g>
		</g>
		<g>
			<g>
				<g>
					<path d="M370,21.8c-0.1-1.2,0.4-2.3,0.5-3.4c0-0.6-0.1-1.1-0.4-1.5c-0.3-0.4-0.7-0.7-1.2-0.6c-0.5,0-0.9,0.3-1.3,0.7
						c-0.4,0.4-0.7,0.8-1,1.3c-0.6,1-1.1,2-1.5,3c-0.9,2-1.4,4.3-1.4,6.5c0,1.1,0.4,2.1,1.3,2.5c0.9,0.4,2,0.2,2.9-0.5
						c0.9-0.6,1.4-1.7,1.7-2.7c0.3-1.1,0.5-2.3,0.7-3.4l1.2-6.9l-0.9,7c-0.2,1.2-0.2,2.3-0.5,3.5c-0.3,1.1-0.8,2.3-1.8,3.2
						c-1,0.8-2.4,1.2-3.7,0.7c-0.6-0.3-1.2-0.8-1.5-1.4c-0.3-0.6-0.4-1.2-0.5-1.9c-0.2-2.5,0.2-4.9,1.1-7.2c0.5-1.1,1.2-2.1,1.9-3.1
						c0.4-0.5,0.8-1,1.3-1.3c0.5-0.4,1.1-0.7,1.8-0.7c0.7,0,1.4,0.5,1.7,1.1c0.3,0.6,0.4,1.2,0.3,1.8C370.7,19.6,370,20.6,370,21.8z
						"/>
				</g>
			</g>
		</g>
	</g>
</g>
</svg>
