<?xml version="1.0" encoding="utf-8"?>
<!-- Generator: Adobe Illustrator 21.0.0, SVG Export Plug-In . SVG Version: 6.00 Build 0)  -->
<svg version="1.1" id="Layer_1" xmlns="http://www.w3.org/2000/svg" xmlns:xlink="http://www.w3.org/1999/xlink" x="0px" y="0px"
	 viewBox="0 0 331 221" style="enable-background:new 0 0 331 221;" xml:space="preserve">
<style type="text/css">
	.st0{fill:#17A3A6;}
	.st1{fill:#E31D3D;}
	.st2{fill:#E5843C;}
	.st3{fill:#4693D3;}
	.st4{fill:#C1C1C1;}
	.st5{fill:#EFBB60;}
	.st6{fill:#FFE655;}
	.st7{fill:#FFE892;}
	.st8{fill:#FEA100;}
	.st9{fill:#FECE00;}
	.st10{fill:#F56C00;}
	.st11{fill:#FFC000;}
	.st12{fill:#EDEDED;}
</style>
<path class="st0" d="M188.5,122.6c-12.4-10.5-29.4-5.8-39.5,5.2c2,0.2,2.6,2.5,1.8,3.9v0.2c0,1.4-1.1,2.4-2.5,2.5
	c-1.3,0.1-2.5-1.2-2.5-2.5c-0.3,0.4-0.5,0.8-0.8,1.2c-1.2,2-2.4,4.4-3.3,6.9c0.2-0.1,0.3-0.3,0.5-0.4c1.2-0.7,2.7-0.2,3.4,0.9
	c0.5,0.8,0.4,1.8-0.1,2.6c0,0.6-0.1,1.3-0.6,1.9c-0.9,1.2-2.4,1.3-3.7,1c-0.4-0.1-0.7-0.3-1-0.5c-0.7,4.1-0.6,8.2,1.1,11.6
	c4.3,9.1,16.6,9.3,24.9,6.2c4.3-1.6,7.2-5.8,5.9-10.5c-1.1-4.1-6.1-7.5-10.5-5.9c-1.4,0.5-3.3,1.2-5,1.2c0.4-3.7,4.6-8.9,6.5-10.5
	c3-2.6,9.6-6,13.3-2.8C184.8,141.7,196.8,129.7,188.5,122.6z M148.4,159.1c-1.4,0.4-2.7-0.3-3.3-1.5c-0.4-0.2-0.7-0.6-0.9-0.9
	c-0.4-0.6-0.4-1.2-0.3-1.9c0.3-1.8,2.1-3.2,3.9-3.1c1.9,0.1,3.5,1.5,3.5,3.4C151.3,156.7,150,158.6,148.4,159.1z M164.9,150.1
	c1.1-0.9,2.5-1,3.5,0c0.8,0.8,1,2.3,0.3,3.2c0,0.8-0.1,1.5-0.5,2.2c-0.7,1.2-2,1.9-3.4,1.7c-1.3-0.1-2.6-1.1-2.5-2.5
	C162.4,152.9,163.4,151.3,164.9,150.1z M163.5,125.4c-0.4,0.4-1,0.7-1.8,0.7c-2.9,0-3.2-4-0.9-4.8c0.5-0.5,1.1-0.8,1.8-0.8h0.2
	c1.4,0,2.4,1.1,2.5,2.5C165.3,124.1,164.5,125,163.5,125.4z M175.8,126.4h-0.2c-0.1,0-0.2,0-0.3,0c-0.9,0.4-2,0.1-2.7-0.5
	c-0.5-0.5-0.7-1.1-0.7-1.7c-0.1-0.3-0.2-0.5-0.2-0.8c0-0.9,0.5-1.7,1.2-2.1c0.3-0.8,1.1-1.5,2.2-1.5c1.6,0,2.4,1.2,2.4,2.5
	c0.4,0.5,0.7,1.1,0.7,1.7C178.3,125.2,177.1,126.4,175.8,126.4z"/>
<path class="st0" d="M108.2,148.3c-4-3.4-7.6-7.3-11-11.3c0.9-1.1,1.3-2.8,0.2-4.2c-4.2-5.3-9.5-9.9-14.6-14.5c-1-1.4-2.1-2.7-3.1-4
	c-1.7-2.2-4.4-0.6-4.9,1.6c-0.7,1-0.8,2.5,0.4,3.6c1.1,1,2.2,2,3.3,3c7.9,10.4,15.6,21.7,25.4,30.1
	C106.8,155,111.1,150.8,108.2,148.3z"/>
<path class="st0" d="M110.7,165c-7.7-8.5-16-16.6-25.5-23.1c-0.7-1.1-1.6-2-2.7-2.8c-5.3-3.8-10-8.5-13.8-13.8
	c-2.7-3.7-7.4-5.5-11.6-3c-3,1.8-5,6-4,9.5c-2.1,1.1-3.9,3-5,6c-0.2,0.5-0.3,0.9-0.3,1.4c-4.6,1.2-5.1,9.2-4.6,12.9
	c0.1,0.7,0.6,1.3,1.2,1.6c0.2,0.4,0.6,0.7,1.1,0.9c4,1.3,8,2.5,12.1,3.7c2.5,0.7,3.5-3.1,1.1-3.9c-0.9-0.3-1.8-0.5-2.7-0.8
	c0.3-0.4,0.6-0.8,1-1.1c0.9-0.8,1.7-1.7,2-2.9c0,0,0-0.1,0-0.1c2.3-0.3,5.2-0.5,6.6,1.7c0.2,0.3,0.4,0.5,0.6,0.6
	c-0.3,0.4-0.6,0.8-0.8,1.1c-0.5,0.7-1,1.4-1.4,2.1c-0.2,0.3-0.4,0.6-0.6,0.9c-0.1,0-0.1-0.1-0.2-0.1c-2.1-1.5-4.1,2-2,3.5
	c1,0.7,1.9,1.5,3.1,1.2c1-0.2,1.5-0.9,2-1.7c0.6-1,1.1-1.9,1.8-2.9c0.4-0.6,1.2-2.2,2-2.3c0.6-0.1,1-0.4,1.2-0.7
	c1.1,0.7,2.3,1.3,3.4,2c-0.3,0.2-0.5,0.4-0.7,0.7c-0.5,0.8-1.1,1.6-1.6,2.3c-0.3,0.4-0.3,1-0.2,1.5c-0.3-0.2-0.5-0.3-0.8-0.5
	c-2.2-1.4-4.2,2.1-2,3.5c3.4,2.2,6.9,4.4,10.3,6.6c2.1,1.3,4-1.7,2.3-3.2c0.9-0.9,1.7-1.7,2.5-2.7c0.1-0.2,0.2-0.3,0.3-0.5
	c0.8,0.7,1.6,1.5,2.4,2.2c0,0.2,0,0.5,0,0.7c0.2,1-0.2,2-0.7,2.9c-0.2,0.4-0.6,1.3-1,1.5c-0.3,0.2-0.7,0.1-1.1,0
	c-2.6-0.2-2.6,3.8,0,4c0.7,0.1,1.3,0,1.8-0.1c-0.9,0.9-0.9,2.9,0.8,3.5c0.6,0.2,1.2,0.5,1.9,0.7c1.7,2.4,3.7,4.5,6,6.4
	c1.7,1.5,4.1,4.3,6.6,3.5c2.4-0.8,1.4-4.6-1.1-3.9c0,0-0.1-0.2-0.3-0.3c0.7-0.4,1.3-1,1.9-1.6c1-1.1,1.9-1.8,3.4-1.4
	c1.4,0.4,2.4-0.7,2.5-1.9C112.3,176.7,115.3,170.1,110.7,165z M54.9,148.6c-0.2,0.8-1.3,1.5-1.8,2.1c-0.5,0.6-0.9,1.2-1.2,1.8
	c-1-0.3-2-0.6-3-0.9c0-0.3,0-0.7,0-1c-0.2-1.2,0-3.7,0.7-5.2c1.1,1.4,2.7,2.5,4.3,3c0.3,0.1,0.7,0.2,1,0.2
	C54.9,148.6,54.9,148.6,54.9,148.6z M81.3,160.4c-1,1.1-2,2.2-3.1,3.3c-1.4-0.9-2.7-1.7-4.1-2.6c0.5-0.1,1-0.4,1.3-0.9l1.6-2.3
	c0.1-0.2,0.2-0.5,0.3-0.7c0.6,0.4,1.2,0.8,1.7,1.3c0.8,0.6,1.6,1.2,2.4,1.9C81.4,160.3,81.4,160.3,81.3,160.4z M91.6,174.6
	c-1.2,0.2-2.7-0.6-3.7-1c-0.2-0.1-0.5-0.1-0.7-0.1c0.9-0.5,1.6-1.4,2.2-2.5c0.5-0.8,0.9-1.7,1.2-2.6c1.4,1.4,2.8,2.9,4.2,4.3
	c0,0-0.1,0-0.1,0.1C93.9,173.5,92.6,174.4,91.6,174.6z M97.4,180.6c-0.3,0.1-0.5,0.3-0.7,0.4c-0.2-0.2-0.4-0.3-0.6-0.5
	c-0.9-0.8-1.7-1.6-2.4-2.5c1.4-0.6,2.7-1.5,3.8-2.4c0.4,0.4,0.8,0.9,1.2,1.3c0.4,0.5,0.9,0.9,1.4,1.3
	C99.2,179.1,98.5,180.3,97.4,180.6z"/>
<path class="st0" d="M60.7,45.7c-1.8,2.5-3.1,5.2-4.2,8c-0.9,2.4,2.9,3.4,3.9,1.1c1-2.5,2.3-4.9,3.8-7.1
	C65.6,45.6,62.2,43.6,60.7,45.7z"/>
<path class="st0" d="M72.2,36.4c-3.8,4.3-6.8,9-9,14.2c-1,2.3,2.4,4.4,3.5,2c2.1-4.9,4.9-9.4,8.4-13.4
	C76.8,37.3,73.9,34.5,72.2,36.4z"/>
<path class="st0" d="M76.4,47.2c-0.4,0.5-0.8,1-1.2,1.4c1.2-1.7,2.5-3.5,4.1-4.5c2.2-1.4,0.2-4.8-2-3.5c-2.3,1.4-3.7,3.7-5.4,5.7
	c-2,2.5-4,5-5.9,7.5c-1.5,1.9,1.1,4.7,2.7,3c0.2,0.5,0.6,0.8,1.3,1c2.3,0.5,3.5-1.3,4.9-2.8c1.5-1.7,3-3.4,4.5-5.1
	C81,48.1,78.1,45.3,76.4,47.2z"/>
<path class="st0" d="M284.4,113.6c-1.8-5.2-4.4-10.2-9.4-12.9c-1.6-0.8-3,0.6-3,1.9c-0.7,0.2-1.2,0.8-1.1,1.8
	c1,7.9,2.1,15.8,6.3,22.7c0.7,1.2,2.1,1.1,2.9,0.5c0.7,0.2,1.5,0,2-1c1-2,2.7-3.8,3.3-6C286,118.4,285.2,115.9,284.4,113.6z
	 M281,120.6c-0.4,0.9-0.9,1.7-1.5,2.6c-2.7-5.5-3.7-11.5-4.5-17.5c2.7,2.3,4.3,5.7,5.5,9.1C281.2,116.7,281.8,118.6,281,120.6z"/>
<path class="st0" d="M273.4,129.6c-5.3-6.5-10.7-13-16-19.5c-0.4-0.5-0.9-0.7-1.4-0.7c-0.7-1.5-3.6-1.1-3.8,1
	c-0.8,7.7-0.7,14.7,5.2,20.4c3.3,3.2,9.8,8.4,13.1,2.4c0.1-0.2,0.2-0.5,0.2-0.7C272.3,134.3,275,131.5,273.4,129.6z M266.9,131.1
	c-1.3,2.3-6.5-2.8-7.3-3.7c-1.5-1.6-2.7-3.3-3.3-5.4c-0.7-2.5-0.7-5-0.6-7.6c4.3,5.2,8.6,10.5,12.9,15.7
	C268,130.1,267.4,130.3,266.9,131.1z"/>
<path class="st0" d="M295.2,95.8c-0.1-0.8-0.6-1.6-1.4-1.8c-1-0.2-2.2,0.3-2.5,1.4c-0.2,1-0.6,2.1-0.4,3c0.3,1.3,1.7,2.1,3,1.7
	c1.1-0.3,2-1.3,2-2.5C295.9,97,295.7,96.3,295.2,95.8z"/>
<path class="st1" d="M84.4,90.2c0.4,0.1,0.8,0.1,1.1,0c0,0,0,0,0,0c0.1,0.1,0.1,0.2,0.2,0.3c0.5,0.9,1.9,1.3,2.7,0.7
	c1-0.6,1.2-1.7,0.7-2.7c-0.1-0.1-0.1-0.2-0.2-0.3c-0.4-0.8-1.5-1.2-2.3-0.9c-0.2-0.4-0.6-0.7-1.2-0.9c-4-1-7.6,2.6-8.2,6.4
	c-0.3,1.9,0.4,3.6,1.8,4.8c1.9,1.5,4.2,1.3,6.3,2.2c2.3,1.1,4.3-2.4,2-3.5c-1-0.5-1.9-0.8-3-1c-0.8-0.2-2.3-0.3-2.9-1
	C80.4,92.9,82.8,89.8,84.4,90.2z"/>
<path class="st1" d="M97.7,79.3c-3.8-5-10.2-11.1-17-10.5c-0.3-0.2-0.7-0.4-1.3-0.3c-3,0.4-5.4,1.4-7.4,2.8
	c-1.2,0.3-2.3,0.7-3.1,1.3c-0.8-0.2-1.7,0-2.2,0.8c-2,3.2-2.8,6.7-2.7,10.3c-0.7,0.2-1.3,0.8-1.2,1.8c1.3,12.3,6.9,23.9,19.1,28.4
	c0.7,0.2,1.2,0.1,1.6-0.2c1.4,0.6,2.8,0.7,4.4,0.8c2.2,0.1,4.7,0.4,6.9,0c1.2-0.3,2.4-1,3-2.1c0.3-0.1,0.5-0.2,0.8-0.2
	c1.5-0.2,2.9-2.2,1.4-3.4c-2.5-2.1-5.3-3.7-8.5-4.6c-0.1,0-0.3-0.1-0.4-0.1c0.4-1.8-1.9-3.6-3.3-1.9c-1.7,1.9-3.9,3.3-6.5,3.2
	c-0.6,0-1,0.2-1.3,0.5c-1.2-0.8-2.3-1.9-3.2-3c-0.2-0.3-0.5-0.5-0.8-0.6c0-0.9-0.5-1.8-1.6-1.9c-1.1-1.6-2.2-3.3-3.1-5.1
	c-0.4-1.3-0.6-2.5-0.8-3.8c0.9-0.1,1.9-0.7,1.9-1.9c0.3-4.9,2.8-9.4,6.8-12.3c0.3-0.2,0.6-0.5,0.7-0.9c3.8,0.7,7,2.4,9.5,5.3
	c0.6,0.7,1.4,0.8,2.1,0.5c0,0.1,0.1,0.1,0.1,0.2c0.4,0.5,1,0.7,1.5,0.6c2.5,3.9,5.5,8.6,3.1,13.3c-0.2,0.3-0.2,0.7-0.2,1
	c-0.7,0.4-0.9,1-1,1.8c-0.1,1,1,2,2,2c0.3,0,0.6-0.1,0.8-0.2c0.1,0,0.2,0,0.2-0.1c0.6-0.2,1.1-0.7,1.3-1.3c0.3,0.4,0.8,0.7,1.5,0.6
	l0.4,0c0.7-0.1,1.4-0.3,1.7-1C105.8,93.2,101.2,84,97.7,79.3z"/>
<path class="st2" d="M218.1,52.9c1.4-2.1-2-4.1-3.5-2c-6.4,9.1-16.5,17-20,27.9c-0.8,2.5,3.1,3.5,3.9,1.1c0.7-2.2,1.7-4.2,3-6.1
	c0.5,0.2,1.1,0.2,1.7-0.2c1.1-0.7,2.3-0.8,3.4-0.3c-1.6,3.5-2.9,7-3.7,10.7c-0.5,2.5,3.3,3.6,3.9,1.1c2.3-10.7,9.2-19.6,12-30.1
	C219,54,218.7,53.3,218.1,52.9z M208.3,69.6c-1-0.5-2.1-0.7-3.2-0.7c1-1.2,2.1-2.4,3.2-3.7c1.6-1.8,3.1-3.6,4.5-5.4
	C211.5,63.2,209.9,66.4,208.3,69.6z"/>
<path class="st2" d="M218,74.5c-2.2,4-4.7,7.9-7.3,11.7c-1.5,2.1,2,4.1,3.5,2c2.7-3.8,5.1-7.6,7.3-11.7
	C222.7,74.2,219.2,72.2,218,74.5z"/>
<path class="st2" d="M224.9,63.6h-0.2c-1,0-2,0.9-2,2c0,1.1,0.9,2,2,2h0.2c1,0,2-0.9,2-2C226.9,64.5,226,63.6,224.9,63.6z"/>
<path class="st2" d="M247.5,53.3c-0.8,0.8-1.6,1.6-2.5,2.5c-6-11.8-16.5-20.5-29.2-24.4c-1.2-0.4-2.1,0.4-2.4,1.4
	c-0.9-0.6-2-0.5-2.6,0.7C204.4,48.5,196.8,63,188,76.8c-0.1,0.1-0.1,0.2-0.2,0.3c-1.3,0.4-2.2,2.1-1,3.3c2.8,2.6,5.5,5.4,8,8.3
	c1.7,2,4.5-0.9,2.8-2.8c-2-2.4-4.2-4.6-6.4-6.8c0.1-0.1,0.2-0.2,0.2-0.3c8.8-13.8,16.5-28.3,22.9-43.4c0.1-0.1,0.1-0.2,0.1-0.4
	c0.1,0,0.2,0.1,0.3,0.1c12.1,3.7,21.8,12.2,27.3,23.6c-8.7,9.2-16.3,19.3-22.9,30.1c-1.3,2.2,2.1,4.2,3.5,2
	c7.7-12.8,17-24.4,27.7-34.8C252.2,54.3,249.3,51.5,247.5,53.3z"/>
<path class="st3" d="M120.7,85.8c-1.9-3.7-3.8-7.5-5.7-11.2c0.4-0.1,0.8-0.3,1.2-0.8c2.5-3.3,6.2-9,3.1-13
	c-2.9-3.8-8.5-2.8-11.8-0.2c0,0,0,0-0.1,0.1c-1.4-0.6-3.4,1.1-2.5,2.9c4.1,8.1,8.2,16.1,12.3,24.2C118.5,90.1,121.9,88,120.7,85.8z
	 M116.3,65.3c-0.4,2.1-1.7,4-3,5.7c-1.2-2.4-2.5-4.8-3.7-7.3c0.3-0.1,0.5-0.2,0.8-0.4C112.5,61.7,117.1,61.6,116.3,65.3z"/>
<path class="st3" d="M141.6,80.8c-1.6-2.5-3.1-5.1-4.4-7.9c-1-2.2-1.6-5.1-3.1-7c-2.1-2.6-4.3-1-5.5,1.3c-1.8-4.1-3.5-8.2-5.3-12.3
	c-1-2.4-4.5-0.3-3.5,2c3.6,8.4,7.2,16.8,10.8,25.2c1,2.4,4.5,0.3,3.5-2c-1-2.3-2-4.7-3-7c0.4-0.3,0.6-0.8,0.5-1.5
	c-0.1-0.6-0.1-1.2,0-1.8c0.1,0.3,0.2,0.5,0.3,0.8c0.5,1.3,1,2.6,1.6,3.8c1.3,2.9,2.8,5.7,4.6,8.3C139.6,85,143.1,83,141.6,80.8z"/>
<path class="st3" d="M149.7,84.4c-8.6-14.7-13.2-31.1-13.6-48.2c0-0.6-0.3-1.1-0.7-1.5c1.7-0.6,1.5-3.8-0.8-3.9
	c-8.9-0.4-17.6,1.8-25.4,6c-5.8,3.1-13.7,7.8-18,13.6c-1.7,0.2-3,1.4-3.6,3.1c-0.6,2,0.1,4.1,0.5,6c0.3,1.4,1.7,1.7,2.7,1.2
	c9.3,9.6,15.9,21,19.5,33.9c0.7,2.5,4.6,1.4,3.9-1.1c-3.8-13.6-11-25.9-20.9-36c-0.5-0.5-1.1-0.7-1.7-0.6c-0.1-0.3-0.1-0.5-0.1-0.8
	c0.5-0.1,1-0.3,1.4-1c3.2-6.4,12.2-11.6,18.3-14.9c6.7-3.6,13.9-5.5,21.4-5.5c-0.3,0.3-0.5,0.8-0.5,1.4c0.4,17.7,5.2,34.8,14.1,50.2
	C147.5,88.6,151,86.6,149.7,84.4z"/>
<path class="st4" d="M309.7,95.1c-6.9,11.8-11.7,24.6-14.2,38c-0.4,2.3,2.8,3.4,3.7,1.6c1,0.3,2.1,0,2.4-1.3
	c2-10.4,4.2-21.2,11.1-29.6c1.1-1.4,0.1-3.2-1.2-3.5c0.6-1.1,1.2-2.2,1.8-3.2C314.5,94.9,311,92.9,309.7,95.1z"/>
<path class="st5" d="M290.6,101.2c-0.6,10.5-1.6,20.9-3,31.3c-0.3,2.5,3.5,3.6,3.9,1.1c1.4-10.8,2.5-21.6,3.1-32.4
	C294.7,98.6,290.7,98.6,290.6,101.2z"/>
<path class="st1" d="M295.3,89.5c-1.3-0.7-2.9-0.3-3.6,0.9c-0.7,1.1-0.6,2.5,0.3,3.4c0.2,0.2,0.4,0.3,0.7,0.4
	c0.2,0.3,0.6,0.5,0.9,0.6c1.5,0.5,2.9-0.6,3.2-2C297.2,91.5,296.4,90.1,295.3,89.5z"/>
<path class="st6" d="M62,41.8c-0.2-0.1-0.4-0.2-0.6-0.3c0.9-0.8,1.2-2.4-0.2-3.2c-3.5-1.9-7.1-3.8-10.4-6.2
	c-4.1-2.9-6.2-6.4-9.3-10.2c-2.9-3.6-7-3.8-10.6-1.4c-1.2,0.2-2.4,0.9-3.5,2.2c-1,1.2-1.5,2.6-1.5,3.9c-1.3,2.9-1.8,6.3-0.8,9.2
	c2.5,7.6,10.8,3.5,15.9,7.6c0.8,0.6,1.7,0.6,2.4,0.2c4.4,1.4,9.1,2.2,13.4,3.2c0.5,0.1,0.9,0.1,1.2-0.1c0,0,0.1,0.1,0.1,0.1
	c1.4,1.6,3.4,0,3.3-1.6C63,44.8,63.8,42.6,62,41.8z M39.1,31.1c-0.6-0.9-1.3-1.7-1.9-2.6c-0.1-0.1-0.2-0.2-0.3-0.3
	c-0.2-0.3-0.4-0.6-0.6-0.9c1.1,1.1,2.2,2.3,3.3,3.4C39.4,30.8,39.3,30.9,39.1,31.1z"/>
<path class="st7" d="M179.1,37.2c-0.7-3.5-1.2-7.3-2.3-10.7c-0.7-2.2-2.6-3-4.7-2c-2.4,1.1-4.6,3.3-6.2,5.4
	c-1.3,1.7-3.2,4.1-2.8,6.4c0.1,0.3,0.2,0.5,0.4,0.8c-0.7,0.6-1.1,1.5-0.7,2.6c1,2.2,4.2,1.7,6.2,1.6c3-0.2,5.9-0.7,8.7-1.6
	C178.8,39.3,179.3,38.3,179.1,37.2z"/>
<path class="st8" d="M195.2,41.5c-0.7-3.5-1.5-7.1-2.4-10.6c-0.5-2-0.7-5-3.2-5.4c-2.4-0.4-3.7,2-4.6,3.8c-1.6,2.8-2.8,5.8-3.9,8.8
	c-0.6,1.7,1.1,2.7,2.4,2.4c0,0.3,0.1,0.5,0.2,0.7c0.5,1.2,1.3,1.6,2.6,1.8c2.2,0.3,4.2,0.3,6.4,0.9
	C194.3,44.4,195.5,42.9,195.2,41.5z"/>
<path class="st8" d="M155.8,37.2l0-3.8c0-1.9-2.8-2.8-3.7-1c-0.9,1.8-1.8,3.6-2.7,5.4c-0.4,0.8-0.7,1.6-0.7,2.3
	c-0.7,0.9-0.3,2,0.6,2.6c0.8,1.2,2.4,0.9,3.1-0.2c0.5,0.1,1.2,0.2,1.5,0.1c0.9-0.3,1.6-1.1,1.8-2C155.9,39.6,155.8,38.3,155.8,37.2z
	"/>
<path class="st9" d="M167,20.9c-2.5,0.5-5.1,0.8-7.7,0.9c-1.2,0-1.8,0.9-1.9,1.8c-0.4,0.3-0.6,0.8-0.5,1.5c0.3,2.6,0.3,5.2,0.1,7.8
	c-0.2,2.6,3.7,2.5,4,0c0.4-4.2,3.2-6.6,7-8C170.5,23.8,169.6,20.3,167,20.9z"/>
<path class="st9" d="M187.1,22.6c-2.3-0.4-4.2-1.5-5.5-3.4c-0.6-0.8-1.4-1-2.2-0.8c-1.3-1.2-3.9,0.6-3,2.7c0.7,1.8,1.8,3.3,2.3,5.1
	c0.6,1.9,0.9,3.8,1.2,5.7c0.3,2,3.4,1.8,3.9,0c0.6-2,1.2-4.7,3.4-5.5C188.8,25.8,189.2,23,187.1,22.6z"/>
<path class="st10" d="M192.3,45.4c-2.6-0.8-6.7-3.1-9.5-2c-2.6,1-5.2,6.1-6.5,8.4c-4.5,7.4-7.4,15.5-8.8,24
	c-0.4,2.3,2.8,3.4,3.7,1.6c0.5,0,1.1-0.3,1.4-1c5.1-10,9.8-21.8,20.2-27.3C194.4,48.3,193.9,45.9,192.3,45.4z"/>
<path class="st11" d="M174.2,41.8c-3.5,0-7,0-10.5-0.1c-1.6,0-2.2,1.5-1.8,2.7c-0.6,0.5-1,1.3-0.7,2.1c2.3,5.7,3.5,11.5,3.8,17.7
	c0.1,2.3,3.2,2.6,3.9,0.5c2.4-6.7,3.2-13.7,7-19.9C176.7,43.5,175.7,41.8,174.2,41.8z"/>
<path class="st10" d="M159.7,50.5c-1.7-5.4-1.5-7.4-7.3-7.2c-1.2,0-1.9,1-1.9,2c-0.2,0.5-0.2,1.1,0.1,1.7c4.1,7.2,8.6,13.8,9.2,22.3
	c0.2,2.5,3.9,2.6,4,0C163.9,62.7,161.6,56.6,159.7,50.5z"/>
<path class="st12" d="M248.8,188.4c-8.7-2-17.4-4.1-26-6.1c-1-0.2-1.8,0.3-2.2,1c-9.5-1.5-19-2.5-28.6-2.9c0-0.8-0.4-1.6-1.4-1.9
	c-5.4-1.6-10.9-2-16.5-2.4c-1-0.1-1.6,0.5-1.8,1.2c-16.4-0.9-32.8-0.3-49.1,1.8c-0.7,0.1-1.2,0.5-1.5,1c-1.4,0-2.7-0.1-4.1-0.1
	c-0.2-3.5-0.3-7.1-0.5-10.6c-0.1-7.2-0.3-14.4-0.7-21.7c0.2-0.4,0.3-0.8,0.2-1.3c0-0.1,0-0.2,0-0.2c0.2-0.4,0.3-0.9,0.2-1.4
	c-0.2-1.1-0.5-2.3-0.7-3.4c-0.1-1.2-0.1-2.4-0.2-3.6c0-0.8-0.5-1.4-1.1-1.7c-0.3-1.1-0.6-2.2-0.9-3.3c-0.6-2.7-1.3-5.4-2-8
	c-1.7-6.2-4.8-12.5-5.7-19c23.2-5.5,47-8.2,70.9-8.1c0.3,0.5,0.8,0.9,1.6,0.9c8.7,0.3,17.3,1,25.9,2c5.8,2,11.6,3.9,17.8,4.5
	c1.1,0.1,1.7-0.6,1.9-1.4c0.1,0,0.3,0.1,0.4,0.1c-6.1,9.5-7.1,20.9-10,31.6c-0.2,0.7-0.4,1.4-0.6,2.1c0,0.1,0,0.1-0.1,0.2
	c0,0.1,0,0.1,0,0.2c0,0,0,0.1,0,0.1c0,0,0,0.1,0,0.1c-0.9,4.1-1,8.6-1.6,12.5c-0.3,1.8-0.5,3.5-0.8,5.3c-0.8,0.2-1.4,0.8-1.4,1.9
	c0,2.5,0,5,0.1,7.6l-1.3,8.8c-0.3,2.4,3.1,3.5,3.8,1.4c0.8-0.2,1.6-0.8,1.6-1.9l-0.1-8.2c0.2-1.2,0.3-2.3,0.5-3.5
	c0.1-0.1,0.1-0.2,0.1-0.4c2.5-8.5,3.3-17.4,4.8-26.1c0.1-0.1,0.2-0.3,0.2-0.5c2.6-7.1,5.2-14.3,7.8-21.4c1.9-2.9,4.6-5.7,5.8-8.9
	c1.1-2.8,0.8-4.9-0.4-6.4c0.2-1.3-1.1-2.1-2.3-2c-1.4-0.8-3-1.3-4.7-1.7c-0.1-0.1-0.3-0.1-0.4-0.2c-15.5-3.3-31.1-5.3-46.9-6.1
	c-1,0-1.6,0.5-1.8,1.2c-12.3-1.3-24.6-0.8-36.9,0.9c-6.6,0.9-13.1,2.1-19.6,3.5c-6.2,1.3-13.1,2.2-18.7,5.2
	c-1.1,0.6-1.2,1.8-0.7,2.6c-1.3-0.6-3.4,0.4-2.9,2.3c1.9,7,5.9,13.2,8.5,19.9c0.2,0.5,0.4,1.1,0.6,1.6c-0.9,0.3-1.7,1.2-1.4,2.4
	c2.3,11.9,4.3,23.8,5.8,35.7c0.1,0.9,0.7,1.5,1.4,1.7c-0.1,0.2-0.1,0.4-0.1,0.6c0,0.9,0.1,1.8,0.1,2.8c0,2.5,0.1,5,0.1,7.4
	c0,0.4,0.1,0.7,0.3,1c0,1,0.1,2,0.1,2.9c-1.9,0.6-1.8,3.9,0.6,3.9c5.4,0,10.8,0.2,16.2,0.4c-9.3,0.7-18.4,2.1-27.5,4.3
	c-0.3-0.2-0.7-0.4-1.2-0.3c-12.6,1.2-25,3.2-37.3,6c-1.7,0.4-1.8,2.4-0.8,3.4c-0.7,0.7-0.8,1.9-0.4,2.7c-1,1.1-0.5,3.4,1.4,3.4
	c3.7-0.1,7.2-1,10.4-2.8c4.8-1.2,9.7-2.4,14.6-3.5c2.3-0.4,4.6-0.8,6.9-1.3c0.4-0.1,0.6-0.2,0.8-0.4c20.1-4.2,40.4-7.2,60.8-9
	c0.2,0.7,0.8,1.3,1.8,1.2c21.6-0.7,43.1-0.2,64.6,1.7c6.9,1.6,13.7,3.5,20.5,5.8c1.9,0.6,2.9-1.5,2.2-2.9c0.3-0.1,0.5-0.2,0.7-0.4
	C250.2,192.7,251.3,188.9,248.8,188.4z M137.2,185c-0.1-0.1-0.1-0.2-0.2-0.3c0.6,0,1.2,0.1,1.8,0.1
	C138.2,184.8,137.7,184.9,137.2,185z M158.5,182.7c-4.9-0.6-9.7-1.1-14.6-1.5c2.5-0.1,5-0.2,7.5-0.3c0.3,0.2,0.7,0.4,1.2,0.4
	c6.1,0,12.1,0.2,18.2,0.5C166.6,182.1,162.5,182.4,158.5,182.7z M176.5,183.7c0-0.5-0.1-1.1-0.4-1.5c1.1,0.1,2.2,0.2,3.2,0.3
	c0.1,0.5,0.3,0.9,0.7,1.2C178.9,183.7,177.7,183.7,176.5,183.7z"/>
<path class="st12" d="M286.6,98.8c-0.6-0.9-1.6-1-2.4-0.7c-0.5-0.7-0.9-1.4-1.4-2.1c-0.2-0.4-0.5-0.8-0.8-1.1
	c-0.8-1.1-1.7-2.1-2.6-3.2c-0.6-1.2-1.3-2.3-2.3-3.1c-0.3-0.2-0.6-0.4-0.9-0.4c-5.6-5.7-11.9-10.8-17.6-15.9
	c-1.9-1.7-4.7,1.1-2.8,2.8c6.6,6,14.3,12,20.4,18.9c0.4,0.8,0.7,1.7,1.1,2.4c0.9,2,1.7,4.2,2.4,6.3c0.4,1.3,1.7,1.6,2.7,1.2
	c0.4,1.8,1.1,3.6,2,5.2c0.5,1.1,2.4,1.4,3.1,0.4C290.1,106.1,289,102.1,286.6,98.8z"/>
<path class="st12" d="M258.8,133.5c-4.2,4.4-10.3,7.1-15.1,10.8c-4.8,3.6-9.2,7.5-13.4,11.8c-1.8,1.8,1,4.7,2.8,2.8
	c4.7-4.8,9.8-9.3,15.3-13.2c4.4-3.1,9.4-5.4,13.1-9.4C263.4,134.4,260.5,131.6,258.8,133.5z"/>
<path class="st1" d="M299.8,143.5c0-0.2-0.1-0.4-0.1-0.6c0-1-0.7-2-1.9-2.1c-1.4-0.2-2.8-0.3-4.2-0.4c-5.5-1.1-11-1.2-16.5-0.4
	c-0.4,0.1-0.7,0.2-1,0.4c-0.7,0.1-1.4,0.1-2,0.2c-0.3-1.2-1.5-2.2-2.9-1.3c-3.3,2.2-5.2,5.5-5.6,9.4c-0.2,2.6,3.8,2.5,4,0
	c0.1-1.2,0.5-2.4,1.2-3.4c0.1,0,0.1,0,0.2,0c0.5-0.1,1.1-0.2,1.6-0.4c-1.8,2.2-3.2,4.7-4.3,7.4c-0.8,2,1.8,3.1,3.2,1.9
	c-0.3,0.5-0.5,0.9-0.7,1.4c-1.1,2.3,2.3,4.3,3.5,2c0.8-1.6,1.7-3.1,2.7-4.5c-1,1.7-2,3.4-3,5c0,0.1-0.1,0.1-0.1,0.2
	c-0.8,1.3-1.5,2.6-2.3,3.8c-1.2,2,1.4,3.7,2.9,2.6c0,0,0.1,0,0.1,0c-2.2,3.5-4,7.2-5.5,11.2c-0.8,2.1,2,3.1,3.4,1.8
	c0.1,0.7,0.7,1.4,1.4,1.6c-2.3,2.6-4.4,5.2-6.4,8.1c-0.7,0.9-0.3,1.9,0.4,2.4c-1.8,1.4,0.1,4.5,2.3,3.3c0.2-0.1,0.5-0.3,0.7-0.4
	c-1.8,1.1-0.8,4.4,1.5,3.6c2.3-0.8,4.7-1.6,7.1-2.2c6.1-1.2,12.5-0.9,18.6-2.3c1-0.2,1.4-0.9,1.4-1.7c1.5-1,1.3-3.9-0.9-3.7
	c-1.1,0.1-2.1,0.3-3.1,0.4c0.8-1.2,0.2-3-1-3.2c0.2,0,0.4-0.1,0.6-0.1c1.9-0.4,1.7-2.8,0.4-3.6c0.5-0.8,0.2-1.9-0.5-2.5
	c0-0.1,0-0.2,0-0.2c0.4-0.6,0.4-1.3,0-2c0-0.1,0-0.2,0-0.3c0.4-0.2,0.9-0.5,1.3-0.7c2.2-1,0.5-4.2-1.6-3.6c0,0,0,0,0,0
	c0.5-0.3,1.1-0.7,1.6-1c2-1.2,0.5-4.2-1.4-3.7c0.5-0.3,1-0.6,1.5-0.9c2.3-1.2,0.2-4.7-2-3.5c-2.2,1.2-4.3,2.6-6.4,4.1
	c4-3.3,8.4-6,12.8-8.7c1.7-1,0.9-3.3-0.5-3.7c0.1-0.1,0.2-0.2,0.4-0.3c2-1.6-0.8-4.4-2.8-2.8c-2.4,1.9-5,3.5-7.6,5.1
	c3.5-3.1,7.2-5.8,11.2-8.2C303.1,146,301.7,143.1,299.8,143.5z M273.7,191.6c-0.3,0.1-0.5,0.3-0.7,0.4c-0.6,0.2-1.3,0.4-1.9,0.6
	c-0.1,0-0.2,0.1-0.3,0.1c1.4-0.8,2.8-1.5,4.1-2.1c0.1,0.2,0.2,0.3,0.3,0.4C274.7,191.3,274.2,191.4,273.7,191.6z M275.6,185.9
	c-1.1,0.5-2.2,1-3.4,1.6c0.7-1,1.5-1.9,2.3-2.9c0.2,0.5,0.7,0.9,1.3,1.1C275.8,185.8,275.7,185.9,275.6,185.9z M278.2,145.8
	c-2.2,2-4.2,4.3-5.8,6.8c1.4-3.2,3.5-5.9,6.2-8.1c0.1-0.1,0.2-0.2,0.3-0.3c0.3,0.4,0.8,0.6,1.5,0.5c0,0,0.1,0,0.1,0
	c0,0.3,0,0.7,0.1,1C279.9,145.2,279,145.1,278.2,145.8z M288.6,151.3c0-0.2,0-0.3,0-0.5c0.9-0.6,1.9-1.3,2.9-1.8
	C290.5,149.7,289.5,150.5,288.6,151.3z"/>
<g>
	<g>
		<g>
			<g>
				<path d="M141.6,127.1c3.2-5.2,8-9.5,13.6-12.2c2.8-1.3,5.9-2.2,9-2.6c3.1-0.4,6.3-0.5,9.4-0.3c3.1,0.4,6.2,1.2,9.2,2.4
					c2.9,1.2,5.7,2.9,8,5.2c0.3,0.3,0.6,0.6,0.8,0.9l0.7,1c0.5,0.6,0.9,1.3,1.3,2c0.8,1.4,1.3,3,1.5,4.6c0.2,1.6,0.2,3.3-0.3,4.9
					c-0.4,1.6-1.3,3.1-2.5,4.2c-1.2,1.2-2.6,2-4.2,2.5c-1.6,0.5-3.4,0.3-4.8-0.3c-1.5-0.6-2.8-1.4-4.1-2.1c-1.3-0.7-2.7-1.2-4.1-1.1
					c-1.4,0.1-2.7,1.1-3.4,2.3c-0.8,1.2-1.1,2.8-1,4.2c0.2,1.5,0.7,2.9,1.5,4.2c0.8,1.3,1.7,2.5,2.8,3.6c-1.1-1.1-2.1-2.3-2.9-3.5
					c-0.8-1.3-1.5-2.7-1.7-4.3c-0.2-1.6,0.1-3.2,0.9-4.6c0.8-1.4,2.1-2.5,3.8-2.7c1.6-0.3,3.2,0.3,4.6,1c1.4,0.7,2.7,1.4,4.1,1.9
					c2.7,1,5.8-0.1,7.7-2.2c2-2.1,2.5-5.1,2-7.9c-0.3-1.4-0.8-2.7-1.5-4c-0.4-0.6-0.8-1.2-1.2-1.7l-0.7-0.8
					c-0.2-0.3-0.5-0.5-0.8-0.7c-2.1-2-4.7-3.4-7.4-4.4c-2.7-1-5.7-1.6-8.6-1.9c-5.8-0.9-11.9-0.7-17.5,1.4
					C150.2,118.4,145.2,122.2,141.6,127.1z"/>
			</g>
		</g>
	</g>
	<g>
		<g>
			<g>
				<path d="M138.5,157.5c-1.9-3.3-3.3-6.9-3.9-10.8c0-7.8,2.8-15.5,7.7-21.2c-4.1,6.3-5.7,13.9-4.9,21
					C137.1,150.1,137.5,153.8,138.5,157.5z"/>
			</g>
		</g>
	</g>
	<g>
		<g>
			<g>
				<path d="M171.7,161.9c-3.8,1.9-7.6,3.8-11.8,5.1c-2.2,0.3-4.4,0.3-6.6,0.1c-2.2-0.2-4.4-0.8-6.4-1.7c-2-0.9-3.8-2.1-5.4-3.6
					c-1.5-1.5-2.7-3.4-3.3-5.4c1.6,3.9,5.3,6.6,9.1,7.8c1.9,0.6,4,0.9,5.9,0.9c2,0,4-0.3,6-0.8C163.4,163.9,167.6,162.9,171.7,161.9
					z"/>
			</g>
		</g>
	</g>
	<g>
		<g>
			<g>
				<path d="M171.5,146.9c1.2-0.3,2.6,0.1,3.7,0.8c1.1,0.7,2.1,1.9,2.6,3.3c0.2,1.5-0.1,2.9-0.5,4.1c-0.5,1.3-1.1,2.4-1.9,3.4
					c-1.6,2-3.7,3.4-5.9,4.3c2.1-1.3,3.7-3,4.8-5.1c1.1-2,1.5-4.3,0.9-6.1C175.2,149.7,173.9,147.3,171.5,146.9z"/>
			</g>
		</g>
	</g>
	<g>
		<g>
			<g>
				<path d="M148,126.4c1.1,0.4,2.1,1.1,3,2.1c0.8,1,1.4,2.5,1.1,4.1c-0.3,0.7-0.8,1.4-1.4,1.9c-0.7,0.5-1.5,0.8-2.3,0.8
					c-0.8,0-1.6-0.2-2.2-0.7c-0.7-0.5-1.1-1.3-1.2-2c-0.2-1.5,0.6-2.7,1.6-3.5c1-0.8,2.1-1.1,3.2-1.5c-1,0.6-2,1.2-2.7,2
					c-0.7,0.8-1,1.9-0.7,2.7c0.3,0.8,1.1,1,1.8,0.8c0.4-0.1,0.7-0.3,0.8-0.5c0.2-0.3,0.3-0.6,0.4-0.9c0.4-0.6,0.6-1.6,0.4-2.6
					C149.4,128.2,148.8,127.3,148,126.4z"/>
			</g>
		</g>
	</g>
	<g>
		<g>
			<g>
				<path d="M159.3,122.7c0,1.1,0.6,2.1,1.3,2.6c0.8,0.5,1.6,0.4,2.1,0c0.7,0,1.3-0.4,1.7-1c0.3-0.6,0.3-1.6-0.1-2.3
					c-0.8-1.5-3.7-1.6-5,0.2c0.4-1,1.4-1.8,2.6-2.1c1.1-0.3,2.6,0,3.5,1c0.9,1,1.3,2.4,1,3.9c-0.3,1.5-1.6,2.7-3.1,3.1
					c-0.8,0-1.5-0.1-2.2-0.4c-0.7-0.3-1.2-0.8-1.6-1.4C158.9,125.1,158.8,123.7,159.3,122.7z"/>
			</g>
		</g>
	</g>
	<g>
		<g>
			<g>
				<path d="M174.2,119.6c1.5-0.3,3.3,0.2,4.4,1.6c1.1,1.4,1.4,3.6,0.4,5.4c-0.6,0.8-1.6,1.4-2.5,1.7c-1,0.3-2,0.2-2.9-0.1
					c-0.9-0.3-1.8-1-2.2-1.8c-0.5-0.8-0.7-1.7-0.6-2.6c0-0.9,0.3-1.7,0.8-2.4c0.5-0.7,1.1-1.3,1.8-1.6c1.4-0.7,3.1-0.8,4.5-0.3
					c-1.5-0.2-3,0.1-4.1,0.9c-1.2,0.8-1.7,2.2-1.5,3.4c0.1,1.3,1,2.3,2,2.4c1.1,0.2,2.2-0.4,2.5-1.2c0.7-0.6,1.1-1.9,0.7-3.1
					C177,120.8,175.7,119.8,174.2,119.6z"/>
			</g>
		</g>
	</g>
	<g>
		<g>
			<g>
				<path d="M141.7,139c1.2-0.4,2.7-0.2,3.8,0.8c0.6,0.4,1.1,1.1,1.4,1.9c0.3,0.8,0.3,1.7,0.1,2.5c-0.7,1.5-2.1,2.7-3.8,2.8
					c-1.7,0.1-3.2-0.9-3.9-2.1c-0.4-0.6-0.5-1.4-0.5-2.1c0.1-0.7,0.4-1.4,0.9-1.9c0.9-1,2.4-1.4,3.5-0.9c-1.2-0.3-2.4,0.4-3,1.4
					c-0.3,0.5-0.4,1-0.4,1.5c0.1,0.5,0.3,0.9,0.6,1.3c0.6,0.7,1.7,1.1,2.4,0.8c0.7-0.2,1.3-1,1.5-1.7c0.2-0.3,0.4-0.7,0.4-1.1
					c0-0.4-0.1-0.9-0.3-1.3C144,139.8,142.9,139.1,141.7,139z"/>
			</g>
		</g>
	</g>
	<g>
		<g>
			<g>
				<path d="M144.3,151.1c-0.6,1.4-0.6,3-0.1,4.2c0.5,1.2,1.6,2,2.7,2.1c1,0.5,2.2,0.6,3.1,0c0.9-0.6,1.5-1.9,1.3-3.1
					c-0.2-1.2-1.3-2.3-2.7-2.4c-1.4-0.2-2.9,0.5-3.7,1.8c0.6-1.4,2-2.5,3.7-2.5c1.6,0,3.4,1,4,2.8c0.6,1.8,0.1,3.7-1.3,5.1
					c-1.5,1.4-3.7,1.7-5.5,1.1c-0.9-0.5-1.6-1.1-2.1-1.9c-0.5-0.8-0.8-1.7-0.9-2.5C142.7,153.9,143.2,152.3,144.3,151.1z"/>
			</g>
		</g>
	</g>
	<g>
		<g>
			<g>
				<path d="M164.9,150.1c-1,0.9-1.9,2-2.3,3c-0.2,0.5-0.2,1,0,1.4c0.1,0.4,0.4,0.7,0.8,0.8c0.2,0.3,0.6,0.6,1,0.7
					c0.4,0.1,0.8,0.2,1.3,0c0.9-0.3,1.8-1.1,2.2-2.1c0.4-1.1,0.4-2.4,0-3.6c-0.2-0.6-0.5-1.2-1-1.4c-0.5-0.2-1.3,0-1.5,0.6
					c0-0.7,0.9-1.2,1.6-1c0.7,0.2,1.2,0.9,1.5,1.5c0.6,1.2,1,2.7,0.7,4.2c-0.3,1.5-1.2,2.9-2.8,3.7c-0.7,0.4-1.7,0.6-2.6,0.4
					c-0.9-0.1-1.8-0.5-2.5-1.1c-0.6-0.7-0.9-1.7-0.9-2.7c0-0.9,0.4-1.7,0.9-2.3C162.4,151.2,163.7,150.6,164.9,150.1z"/>
			</g>
		</g>
	</g>
</g>
<g>
	<g>
		<g>
			<g>
				<path d="M203.1,41.1c-5.3,4.4-10.2,9.1-14.4,14.4c-9.6,9.5-17.2,21.1-22.1,33.9c4.1-13.1,10.9-25.4,20.1-35.8
					C191.6,48.8,197.2,44.7,203.1,41.1z"/>
			</g>
		</g>
	</g>
	<g>
		<g>
			<g>
				<path d="M194.9,43.1c-5.2-1-10.5-1.5-15.8-1.6c-10.3-1.5-21-1.1-31.4,1.2c10.1-3.2,20.9-4.6,31.7-4
					C184.7,39.7,189.9,41.2,194.9,43.1z"/>
			</g>
		</g>
	</g>
	<g>
		<g>
			<g>
				<path d="M154.6,26.2c-0.6,2-1.2,3.9-1.9,5.8c-2.1,3.5-4.4,6.9-7,10c2.2-3.4,4.1-7,5.7-10.7C152.5,29.8,153.6,28,154.6,26.2z"/>
			</g>
		</g>
	</g>
	<g>
		<g>
			<g>
				<path d="M177.4,15.9c-2.5,1-5,2.1-7.5,3.2c-5.2,1.6-10.3,3.3-15.4,5.3c4.9-2.4,9.9-4.6,14.9-6.6C172,17.2,174.7,16.5,177.4,15.9
					z"/>
			</g>
		</g>
	</g>
	<g>
		<g>
			<g>
				<path d="M193.2,21.7c-1.8-0.2-3.7-0.4-5.5-0.7c-3.5-1.2-6.8-2.6-10.2-4.2c3.5,1.1,7,2,10.6,2.8C189.8,20.3,191.5,21,193.2,21.7z
					"/>
			</g>
		</g>
	</g>
	<g>
		<g>
			<g>
				<path d="M198.2,42.3l-0.6,0.8l-0.1,0.1l-0.1-0.1c-1.2-1.6-2.3-3.3-3.2-5.1c-1.6-4.4-2.6-9.1-2.8-13.8c0.7,4.6,2.1,9.1,4.1,13.2
					c0.6,1.9,1.3,3.7,2.1,5.5l-0.2,0L198.2,42.3z"/>
			</g>
		</g>
	</g>
	<g>
		<g>
			<g>
				<path d="M157.3,39.3c-0.2-1.7-0.5-3.3-0.9-4.9c0-3.3-0.4-6.5-1.2-9.8c1.2,3.1,2.1,6.3,2.6,9.6C157.7,36,157.5,37.6,157.3,39.3z"
					/>
			</g>
		</g>
	</g>
	<g>
		<g>
			<g>
				<path d="M174.6,21.4c-2.3,1.3-4.4,3-6.2,4.9c-4.1,3.2-7.2,7.7-8.8,12.8c1.2-5.2,4-10.1,7.9-13.9
					C169.6,23.6,172.1,22.3,174.6,21.4z"/>
			</g>
		</g>
	</g>
	<g>
		<g>
			<g>
				<path d="M180.3,38.6c-0.6-2.4-1.2-4.8-2-7.2c-0.4-2.4-1-4.8-1.7-7.2c-0.3-1.2-0.7-2.4-1.1-3.5c-0.4-1.1-1-2.2-2-3.1
					c1,0.7,1.8,1.8,2.3,2.9c0.6,1.1,1,2.3,1.5,3.4c0.9,2.3,1.7,4.7,2.4,7.1C180,33.6,180.2,36.1,180.3,38.6z"/>
			</g>
		</g>
	</g>
	<g>
		<g>
			<g>
				<path d="M193.2,22.7c-1.8,1.3-3.4,2.8-4.7,4.5c-3.2,2.9-5.6,6.7-6.9,11c0.8-4.4,2.9-8.6,5.9-12
					C189.2,24.8,191.2,23.6,193.2,22.7z"/>
			</g>
		</g>
	</g>
	<g>
		<g>
			<g>
				<path d="M182,40.4c-2.8,4.6-5.2,9.4-6.9,14.4c-4.9,9.3-7.8,19.8-8.5,30.5c-0.2-10.7,1.8-21.6,6-31.7
					C175.2,48.8,178.5,44.4,182,40.4z"/>
			</g>
		</g>
	</g>
	<g>
		<g>
			<g>
				<path d="M160.5,43.6c1.5,4.1,3,8.3,4.2,12.6c1.1,8.8,1.6,17.6,1.4,26.4c-0.8-8.7-2.2-17.4-4.2-25.9
					C161.6,52.3,161.1,48,160.5,43.6z"/>
			</g>
		</g>
	</g>
	<g>
		<g>
			<g>
				<path d="M166.2,86.7c-1.8-5-3.9-9.8-6.1-14.5c-3.2-10-7.3-19.6-12.3-28.9c5.8,8.8,10.8,18.1,15,27.9
					C164.2,76.3,165.3,81.5,166.2,86.7z"/>
			</g>
		</g>
	</g>
</g>
<g>
	<g>
		<g>
			<g>
				<path d="M307.3,141.4l-0.9,2l-0.5,1l-0.4,1l-0.8,2l-0.7,2.1l-0.3,1l-0.3,1.1l-0.5,2.1l-0.4,2.1l-0.2,1.1l-0.1,1.1l-0.6,2.1
					l-0.4,2.1l-0.2,1.1l-0.2,1.1l-0.3,2.1l-0.2,2.2l-0.1,1.1l0,1.1l-0.1,2.2l0,2.2l0,1.1l0.1,1.1l0.2,2.2l0.3,2.2l0.2,1.1l0.2,1.1
					l0.4,2.2l0.6,2.1l0.3,1.1l0.3,1l0.7,2.1c-4.8-10.8-6.3-23.2-4-35l0.3-1.1l0.4-1.1l0.8-2.1l0.9-2.1l0.5-1l0.5-1l1-2l1.1-1.9
					l0.6-1l0.6-0.9L307.3,141.4z"/>
			</g>
		</g>
	</g>
	<g>
		<g>
			<g>
				<path d="M304.7,141.3c-1.7-1.6-4-2.2-6.2-2.4c-2.2-0.2-4.5,0-6.8,0.1c-9-0.8-18.3-0.2-27.3,1.9c8.7-3,18-4.6,27.4-4.7
					c2.3,0.4,4.6,0.7,7,1.3C301,138.2,303.4,139.4,304.7,141.3z"/>
			</g>
		</g>
	</g>
	<g>
		<g>
			<g>
				<path d="M264.7,193.6c1.7-5.6,2.8-11.3,2.9-17c1.8-11.2,0.3-23.1-4.3-33.7c5.4,10.3,8,22.2,7.1,34
					C269.3,182.8,267.3,188.4,264.7,193.6z"/>
			</g>
		</g>
	</g>
	<g>
		<g>
			<g>
				<path d="M301.3,192.1c-3.7,2-7.6,3.6-11.7,4.8c-8.5,0.9-17-0.2-24.8-3c8.1,2,16.5,2,24.4,0.2
					C293.2,193.9,297.3,193.2,301.3,192.1z"/>
			</g>
		</g>
	</g>
	<g>
		<g>
			<g>
				<path d="M297.1,164.5c-3.4,1-6.6,2.4-9.5,4.1c-6.2,2.9-11.8,7.4-15.9,13c3.8-5.9,9-10.9,15.3-14.3
					C290.2,166,293.7,165.1,297.1,164.5z"/>
			</g>
		</g>
	</g>
	<g>
		<g>
			<g>
				<path d="M298.4,170.8c-3.8,0.3-7.4,1.5-10.6,3.4c-3.4,1.5-6.5,3.7-9.4,6.1c-2.9,2.4-5.6,5.1-8.2,7.8c2.5-2.9,5-5.7,7.7-8.4
					c2.7-2.6,5.8-5,9.2-6.9C290.8,171.5,294.6,170.6,298.4,170.8z"/>
			</g>
		</g>
	</g>
	<g>
		<g>
			<g>
				<path d="M298.4,179.2c-3.4,0.7-6.7,1.7-9.8,3.3c-6.4,2.4-12.2,6.6-16.4,12.1c3.9-5.8,9.4-10.5,15.9-13.4
					C291.4,180,294.9,179.4,298.4,179.2z"/>
			</g>
		</g>
	</g>
	<g>
		<g>
			<g>
				<path d="M301.6,182.9c-2.3,1-4.6,2.2-6.8,3.6c-4.6,2-8.9,4.8-12.8,8.2c3.5-3.7,7.6-6.9,12.2-9.4
					C296.7,184.3,299.1,183.5,301.6,182.9z"/>
			</g>
		</g>
	</g>
	<g>
		<g>
			<g>
				<path d="M304,148.2c-4.1,1.6-8.1,3.5-11.8,5.8c-7.8,3.9-14.9,9.3-20.9,15.8c5.6-6.8,12.4-12.6,20.2-17
					C295.6,150.9,299.8,149.4,304,148.2z"/>
			</g>
		</g>
	</g>
	<g>
		<g>
			<g>
				<path d="M299.2,142.5c-3.6,1.3-7.1,2.9-10.4,4.8c-6.9,3.1-13.3,7.5-18.7,12.9c5.1-5.7,11.2-10.6,18.1-14.2
					C291.7,144.5,295.4,143.3,299.2,142.5z"/>
			</g>
		</g>
	</g>
	<g>
		<g>
			<g>
				<path d="M291.2,139.6c-2.8,1-5.5,2.3-7.9,3.8c-5.3,2.4-10.2,5.9-14.2,10.2c3.7-4.6,8.3-8.6,13.6-11.5
					C285.4,140.9,288.3,140.1,291.2,139.6z"/>
			</g>
		</g>
	</g>
	<g>
		<g>
			<g>
				<path d="M277.8,140.6c-1.6,0.8-3.2,1.7-4.7,2.7c-3.3,1.4-6.3,3.4-9,5.8c2.3-2.8,5.2-5.2,8.3-7.1
					C274.2,141.4,276,140.9,277.8,140.6z"/>
			</g>
		</g>
	</g>
	<g>
		<g>
			<g>
				<path d="M272.4,166.8c2.4,2.1,4.7,4.5,6.7,7c3.6,5.5,6.1,11.5,7.7,17.7c-2-6.1-5-11.9-8.9-16.9
					C276.4,171.9,274.5,169.3,272.4,166.8z"/>
			</g>
		</g>
	</g>
	<g>
		<g>
			<g>
				<path d="M271.9,179.3c1.4,1.3,2.8,2.8,3.9,4.4c1.8,3.6,2.8,7.5,3.1,11.3c-0.8-3.8-2.2-7.5-4.3-10.6
					C273.9,182.7,273,181,271.9,179.3z"/>
			</g>
		</g>
	</g>
	<g>
		<g>
			<g>
				<path d="M294.5,190.8c-1.5-4.5-3.4-8.9-5.8-13.1c-4-8.6-9.8-16.4-16.9-22.8c7.4,6,13.7,13.6,18.2,22.1
					C292,181.5,293.5,186.1,294.5,190.8z"/>
			</g>
		</g>
	</g>
	<g>
		<g>
			<g>
				<path d="M298.2,181.8c-2.3-4.9-4.9-9.7-7.7-14.3c-4.9-9.1-10.8-17.7-17.6-25.5l0,0l1,0.9l-1-0.9l0,0
					c7.1,7.5,13.5,15.9,18.8,24.9C294.1,171.7,296.3,176.7,298.2,181.8z"/>
			</g>
		</g>
	</g>
	<g>
		<g>
			<g>
				<path d="M298.5,162.5c-1.6-2.9-3.3-5.6-5.2-8.2c-3.2-5.6-7.2-10.8-11.9-15.3c5,4.2,9.4,9.1,13.1,14.6
					C296.1,156.4,297.4,159.4,298.5,162.5z"/>
			</g>
		</g>
	</g>
	<g>
		<g>
			<g>
				<path d="M300.8,153.1c-1-1.6-2.1-3.1-3.3-4.5c-1.7-3.3-3.7-6.5-5.9-9.5c2.6,2.7,5,5.6,7.1,8.7
					C299.5,149.6,300.2,151.3,300.8,153.1z"/>
			</g>
		</g>
	</g>
	<g>
		<g>
			<g>
				<path d="M313.2,93.2c-0.6-0.4-1.3-0.4-1.9-0.3c-0.7,0.2-1.2,0.6-1.7,1c-0.9,1-1.4,2.3-2.1,3.5c-1.3,2.4-2.4,4.9-3.5,7.4
					c-4.8,9.8-8.1,20.4-9.4,31.4c0.9-11,3.6-21.8,8.1-32c1.3-2.5,2.7-4.9,4.1-7.2c0.8-1.1,1.4-2.4,2.5-3.4c0.5-0.5,1.2-0.8,1.9-1
					C311.9,92.6,312.6,92.7,313.2,93.2z"/>
			</g>
		</g>
	</g>
	<g>
		<g>
			<g>
				<path d="M303.5,136.1l3.7-14.6l4.7-14.2c0.8-2.4,1.7-4.7,2-7.2c0.3-2.4-0.1-5.1-1.8-7c1.8,1.8,2.4,4.5,2.1,7
					c-0.2,2.5-1.1,4.9-1.7,7.3l-4,14.4L303.5,136.1z"/>
			</g>
		</g>
	</g>
	<g>
		<g>
			<g>
				<path d="M299.9,135.3c0.8,0,1.5-0.6,1.7-1.2c0.2-0.7,0-1.2-0.5-1.5c-0.4-0.4-0.9-0.7-1.5-0.4c-0.3,0.1-0.7,0.4-1.2,0.5
					c-0.5,0.1-1.1-0.1-1.4-0.5c-0.7-0.7-0.8-1.8-0.4-2.5c0.3-0.8,0.9-1.4,1.5-1.9c-0.5,0.6-1,1.3-1.2,2c-0.2,0.7,0,1.5,0.6,1.9
					c0.3,0.2,0.5,0.2,0.8,0.1c0.3-0.1,0.5-0.3,0.9-0.6c0.4-0.2,1-0.4,1.5-0.3c0.5,0.1,1,0.3,1.4,0.6c0.3,0.4,0.6,0.9,0.6,1.5
					c0,0.5-0.2,1-0.5,1.4C301.6,135.2,300.6,135.5,299.9,135.3z"/>
			</g>
		</g>
	</g>
	<g>
		<g>
			<g>
				<path d="M303.9,123c0.5,0.5,1,1,1.3,1.7c0.3,0.7,0.2,1.6-0.6,2.2c-0.4,0.3-0.9,0.3-1.3,0.2c-0.4-0.1-0.8-0.3-1.1-0.6
					c-0.6-0.5-1-1.1-1.5-1.3c-0.2-0.2-0.4-0.2-0.5-0.2l0.6-1l2.6,5.4l-0.7,0.4c-1.2-2.2-2.6-4.2-4.3-6.1l0.2-0.1l0.3,2.2l-0.5-2.1
					l-0.1-0.3l0.2,0.2c1.9,1.7,3.5,3.7,4.9,5.8l-0.7,0.4l-3.1-5.2l-0.6-0.9l1.1,0c0.5,0,1,0.2,1.3,0.4c0.7,0.6,1,1.3,1.4,1.7
					c0.4,0.5,0.9,0.8,1.3,0.6c0.5-0.2,0.7-0.9,0.6-1.5C304.7,124.2,304.3,123.6,303.9,123z"/>
			</g>
		</g>
	</g>
	<g>
		<g>
			<g>
				<path d="M305,115.5c1.3,0.9,2.2,2.5,2.1,4.3c-0.1,0.4-0.3,1-0.8,1.3c-0.5,0.3-1.1,0.3-1.6,0.1c-0.5-0.2-0.9-0.5-1.2-0.9
					c-0.3-0.4-0.5-0.9-0.6-1.3c-0.1-0.3-0.1-0.5-0.1-0.8l-0.2-1.6l1.3,0.9c1.1,0.8,1.9,1.8,2.4,3c0.2,0.6,0.5,1.2,0.4,2
					c-0.1,0.4-0.3,0.8-0.7,1c-0.3,0.2-0.7,0.3-1.1,0.3c-0.8-0.1-1.3-0.5-1.8-1c-0.4-0.5-0.7-1-0.9-1.6c-0.4-1.2-0.4-2.5,0-3.6
					l0.3,0.1c-0.6,1.3-0.4,2.9,0.4,4.1c-0.9-1.1-1.2-2.7-0.7-4.2l0.3,0.1c-0.3,1.1-0.2,2.3,0.3,3.3c0.2,0.5,0.5,1,0.9,1.4
					c0.4,0.4,0.8,0.7,1.3,0.7c0.4,0,0.8-0.3,0.8-0.6c0-0.4-0.2-0.9-0.4-1.4c-0.5-1-1.2-1.8-2.1-2.3l1-0.7c0.1,0.2,0.1,0.5,0.2,0.7
					c0.1,0.7,0.3,1.3,0.8,1.6c0.5,0.3,1.1,0.1,1.3-0.5C306.8,118.3,306.2,116.6,305,115.5z"/>
			</g>
		</g>
	</g>
	<g>
		<g>
			<g>
				<path d="M309,112.4c0.4,0.4,0.3,1.2-0.1,1.6c-0.4,0.5-1.1,0.7-1.8,0.5c-0.6-0.2-1.2-0.6-1.6-1.1c-0.4-0.6-0.6-1.2-0.7-1.8
					c0-0.5,0-0.9,0-1.4l0.9,0.6c-0.8,0.2-1.3,1.5-1,2.5c0.3,1.1,1.1,2,2,2.9l-0.3,0.3l-3.1-3.1l3.4,2.8l-0.3,0.3
					c-0.9-0.8-2-1.7-2.5-3c-0.3-0.7-0.3-1.4-0.1-2.2c0.2-0.7,0.7-1.5,1.4-1.8l0.8-0.4l0.1,1c0,0.4,0.1,0.8,0.1,1.2
					c0,0.5,0,1,0.2,1.4c0.2,0.4,0.5,0.8,0.9,1c0.4,0.2,0.9,0.2,1.3-0.1C309,113.5,309.2,112.9,309,112.4z"/>
			</g>
		</g>
	</g>
	<g>
		<g>
			<g>
				<path d="M307.5,108c0.3,0.6,1.1,0.6,1.5,0.3c0.5-0.3,0.5-0.9,0.3-1.3c-0.4-1-1.6-1-2.6-0.7l-0.1,0l0.6-0.7
					c-0.1,2.3,0.8,4.7,2.5,6.4l-0.5,0.4c-1-2.1-2.4-4-3.9-5.8c1.7,1.6,3.2,3.4,4.5,5.4l1.2,1.8l-1.7-1.4c-2-1.7-3.3-4.2-3.4-6.9
					l0-0.5l0.6-0.1l0.2,0c0.7-0.1,1.4,0,2.1,0.3c0.7,0.3,1.3,0.9,1.4,1.6c0.2,0.7-0.1,1.6-0.8,1.8
					C308.6,108.9,307.7,108.7,307.5,108z"/>
			</g>
		</g>
	</g>
	<g>
		<g>
			<g>
				<path d="M312.3,98.6c0.5,0.5,0.7,1.2,0.6,2c-0.1,0.7-0.8,1.4-1.6,1.6c-0.8,0.2-1.7,0.1-2.3-0.4c-0.7-0.5-1.1-1.3-1.2-2.2
					c0-0.4,0.1-0.8,0.3-1.2c0.2-0.4,0.5-0.7,1-0.9c0.2-0.1,0.6-0.1,0.9,0c0.3,0.1,0.5,0.3,0.7,0.5c0.2,0.4,0.3,0.7,0.4,1l0.5,1.8
					c0.2,0.6,0.4,1.2,0.5,1.8c0.1,0.6,0.1,1.5-0.5,2c-0.6,0.6-1.4,0.6-2,0.4c-0.7-0.2-1.1-0.8-1.4-1.3c-0.3-0.6-0.5-1.2-0.6-1.8
					l0.1,0l-0.3,1.7l0.2-1.7l0-0.3l0.1,0.3c0.2,0.6,0.4,1.1,0.8,1.6c0.3,0.5,0.8,0.9,1.3,1c0.5,0.1,1.1,0,1.4-0.3
					c0.3-0.4,0.3-0.9,0.2-1.5c-0.1-0.5-0.4-1.1-0.6-1.7l-0.7-1.7c-0.1-0.3-0.2-0.6-0.3-0.7c0-0.1,0,0,0-0.1c0,0,0,0,0,0c0,0,0,0,0,0
					c0,0,0,0,0,0c-0.1,0-0.2,0.2-0.3,0.4c-0.1,0.1-0.1,0.4-0.1,0.6c-0.1,0.5,0.1,1,0.4,1.4c0.3,0.4,0.9,0.6,1.5,0.5
					c0.6-0.1,1.1-0.4,1.4-1C312.8,99.8,312.8,99.1,312.3,98.6z"/>
			</g>
		</g>
	</g>
	<g>
		<g>
			<g>
				<path d="M280.4,138.9c-1.2-0.4-2.4-0.9-3.6-1.5c-2-1.7-3.6-3.7-5-5.9c1.7,1.9,3.7,3.5,5.8,4.7
					C278.4,137.2,279.4,138.1,280.4,138.9z"/>
			</g>
		</g>
	</g>
	<g>
		<g>
			<g>
				<polygon points="274.1,137.9 272.3,137.2 270.2,134.3 273.3,136.2 				"/>
			</g>
		</g>
	</g>
	<g>
		<g>
			<g>
				<path d="M278.4,136.4c0-0.7-0.1-1.5-0.2-2.2c0.5-1.3,0.8-2.6,1-4.1c0.3,1.4,0.5,2.8,0.4,4.3
					C279.2,135.2,278.8,135.8,278.4,136.4z"/>
			</g>
		</g>
	</g>
	<g>
		<g>
			<g>
				<path d="M281,138.8c0.2-1.1,0.3-2.1,0.2-3.2c0.6-1.9,0.9-4,0.7-6.1c0.6,2,0.9,4.2,0.7,6.4C282.1,136.9,281.6,137.9,281,138.8z"
					/>
			</g>
		</g>
	</g>
	<g>
		<g>
			<g>
				<path d="M278.5,122.7l-0.4,0.6l-0.1,0.1l-0.1-0.2c-0.6-1.7-1.2-3.5-1.8-5.2c-0.6-4.1-1-8.2-1.2-12.3c0.7,4.1,1.6,8.1,2.6,12
					c0.1,1.8,0.3,3.6,0.5,5.4l-0.1,0L278.5,122.7z"/>
			</g>
		</g>
	</g>
	<g>
		<g>
			<g>
				<path d="M274.1,106.5c1.3,0.1,2.4,0.9,3.4,1.7c1,0.8,1.9,1.8,2.6,2.9c1.2,2.3,1.8,4.9,1.7,7.5c0,1.3-0.2,2.6-0.9,3.7
					c-0.4,0.5-1,0.9-1.6,1.1c-0.6,0.2-1.3,0.1-1.8-0.4c0.5,0.4,1.2,0.4,1.8,0.2c0.6-0.2,1.1-0.6,1.3-1.1c0.6-1,0.6-2.3,0.5-3.5
					c-0.2-2.4-1-4.8-2.3-6.8c-0.5-1.1-1.1-2.1-1.9-3.1C276.2,107.8,275.3,106.8,274.1,106.5z"/>
			</g>
		</g>
	</g>
	<g>
		<g>
			<g>
				<path d="M284,127.2c1.7-3.8,2.1-8.1,1.4-12.1c-0.4-4-2.1-7.9-4.8-11c-1.3-1.6-2.9-2.9-4.7-4c-0.9-0.5-1.8-1-2.8-1.1
					c-1,0-2.1,0.5-2.5,1.5c0.3-1,1.4-1.7,2.5-1.7c1.1,0,2.1,0.4,3,0.9c1.9,1,3.6,2.3,5.1,3.8c3,3,5.1,7,5.7,11.3
					C287.1,119.2,286.1,123.6,284,127.2z"/>
			</g>
		</g>
	</g>
	<g>
		<g>
			<g>
				<path d="M278.3,130.8c-1.9-3.1-3.6-6.3-5-9.7c-2.1-7-2.9-14.3-2.5-21.5c0,7.2,1.3,14.4,3.8,21.1
					C275.5,124.2,276.8,127.6,278.3,130.8z"/>
			</g>
		</g>
	</g>
	<g>
		<g>
			<g>
				<path d="M284.1,129.1c-0.8,0.1-1.6,0.3-2.3,0.7c-1.5-0.1-3,0.2-4.4,0.9c1.1-1.1,2.6-1.9,4.3-2.4
					C282.5,128.4,283.3,128.7,284.1,129.1z"/>
			</g>
		</g>
	</g>
	<g>
		<g>
			<g>
				<polygon points="283,128.9 282.8,127.3 284.5,125 284.2,127.9 				"/>
			</g>
		</g>
	</g>
	<g>
		<g>
			<g>
				<polygon points="272.9,131.2 272.1,133.3 269.3,135.7 269.2,135.5 269.9,135.4 269.3,135.7 268.9,135.9 269.1,135.5 271,132.4 
									"/>
			</g>
		</g>
	</g>
	<g>
		<g>
			<g>
				<path d="M251.9,113.2c0-1-0.1-2,0.2-3c0.3-1,1-1.9,2.2-2.2c0.6-0.1,1.2,0,1.7,0.2c0.5,0.3,0.9,0.7,1.3,1.1
					c0.7,0.8,1.2,1.5,1.9,2.3l12.9,19.7l-14.1-18.9c-0.5-0.8-1-1.7-1.5-2.5c-0.5-0.8-1.2-1.4-2-1.3c-0.8,0.1-1.6,0.8-2,1.6
					C252,111.2,252,112.2,251.9,113.2z"/>
			</g>
		</g>
	</g>
	<g>
		<g>
			<g>
				<path d="M271.4,135.8c-4,0.5-8.3-0.4-11.9-2.5c-1.7-1.2-3.3-2.7-4.5-4.3c-1.2-1.7-2.2-3.6-2.8-5.5c-1.3-3.9-1.2-8.2,0.1-12.1
					c-1.1,3.9-0.8,8.1,0.6,11.8c0.7,1.9,1.7,3.6,3,5.1c1.3,1.5,2.8,2.8,4.5,3.8C263.4,134.5,267.3,135.8,271.4,135.8z"/>
			</g>
		</g>
	</g>
	<g>
		<g>
			<g>
				<path d="M265.6,130.3c-2.3,0.5-4.8-0.5-6.7-2.1c-0.8-0.9-1.5-2-2-3.1c-0.5-1.1-0.8-2.3-1-3.4c-0.4-2.3-0.4-4.7-0.4-7
					c0.2,2.3,0.5,4.6,1.1,6.8c0.6,2.2,1.7,4.2,3.3,5.7C261.2,128.9,263.3,130.2,265.6,130.3z"/>
			</g>
		</g>
	</g>
	<g>
		<g>
			<g>
				<path d="M259.9,129.6c2.7,0.8,5.5,0.9,8.1,0.3l-0.3,1.1l-0.9-0.8c-4.3-4.8-8.1-10-11.1-15.6c3.4,5.4,7.5,10.3,12.1,14.6l0.8,0.9
					l0.8,1l-1.2,0.1C265.3,131.3,262.4,130.8,259.9,129.6z"/>
			</g>
		</g>
	</g>
	<g>
		<g>
			<g>
				<polygon points="295.2,96 293.6,95.9 291.4,93.9 294.3,94.7 				"/>
			</g>
		</g>
	</g>
	<g>
		<g>
			<g>
				<path d="M290.1,136.3c0.7-4.3,1.3-8.6,1.8-13c1.8-8.5,3.2-17.1,4.3-25.8c-0.7,8.7-1.6,17.4-2.9,26
					C292.3,127.8,291.3,132,290.1,136.3z"/>
			</g>
		</g>
	</g>
	<g>
		<g>
			<g>
				<polygon points="286.3,134.5 287.1,121.5 290.8,95.6 288.5,121.7 				"/>
			</g>
		</g>
	</g>
	<g>
		<g>
			<g>
				<polygon points="288.4,135.5 289,124.1 292.4,101.5 290.5,124.2 				"/>
			</g>
		</g>
	</g>
	<g>
		<g>
			<g>
				<polygon points="294.8,98.5 293.3,98.6 291.1,96.9 293.9,97.3 				"/>
			</g>
		</g>
	</g>
	<g>
		<g>
			<g>
				<polygon points="295.2,102.1 293,101.3 290.1,97.9 293.9,100.2 				"/>
			</g>
		</g>
	</g>
	<g>
		<g>
			<g>
				<path d="M290.7,96.2l0.3-6.8c0.1-0.3,0.1-0.6,0.3-1c0.2-0.4,0.4-0.7,0.8-0.9c0.7-0.4,1.5-0.4,2.1-0.3c0.6,0.1,1.2,0.3,1.7,0.6
					c0.5,0.2,1.2,0.6,1.4,1.3c0.2,0.7,0,1.3-0.1,1.9l-0.3,1.7l-0.6,3.4l0.3-3.4l0.1-1.7c0-0.6,0.1-1.1-0.1-1.5
					c-0.2-0.4-0.6-0.6-1.1-0.8c-0.5-0.2-1-0.3-1.5-0.4c-0.5,0-1,0-1.2,0.2c-0.2,0.2-0.3,0.5-0.4,1.1L290.7,96.2z"/>
			</g>
		</g>
	</g>
</g>
<g>
	<g>
		<g>
			<g>
				<path d="M49.1,21.8c0.2-1.3-0.4-2.5-1.3-3.3c-0.9-0.9-2-1.5-3.1-1.9c-2.3-0.9-4.8-1.3-7.2-1.2c-2.4,0.1-4.8,0.6-7,1.6
					c-2.1,1-4.1,2.4-5.6,4.2c-1.6,1.6-3,3.5-3.8,5.6c-0.8,2.1-1.1,4.4-0.7,6.6c0.4,2.2,1.7,4.2,3.3,5.8c1.7,1.6,3.8,2.7,6.1,3.4
					c4.6,1.5,9.5,1.6,14.4,2.4c2.4,0.4,4.9,1,7.2,2c2.3,1,4.3,2.5,5.8,4.5l-0.1,0L57,49.8l0.2,1.6l0,0.1l-0.1-0.1
					c-1.6-1.9-3.7-3.3-5.9-4.2c-2.3-0.9-4.7-1.4-7.1-1.7c-4.8-0.6-9.8-0.3-14.8-1.7c-2.4-0.7-4.8-1.8-6.8-3.5c-2-1.7-3.6-4-4.2-6.6
					c-0.7-2.6-0.4-5.4,0.4-7.9c0.9-2.5,2.3-4.8,4.1-6.7c2-1.9,4.3-3.3,6.9-4.2c2.5-0.9,5.2-1.2,7.8-1c2.6,0.2,5.2,0.8,7.5,2
					c1.2,0.6,2.2,1.3,3.1,2.3C48.9,19.2,49.5,20.6,49.1,21.8z"/>
			</g>
		</g>
	</g>
	<g>
		<g>
			<g>
				<path d="M47.9,17.2c1.4,2.8,3.1,5.4,5.2,7.6c2.8,5.3,7.1,9.9,12.4,13.2c-5.7-2.5-10.9-6.5-14.8-11.7
					C49.3,23.4,48.4,20.3,47.9,17.2z"/>
			</g>
		</g>
	</g>
	<g>
		<g>
			<g>
				<path d="M67.5,41.2c1.3-1.2,2.2-2.8,2.6-4.5c0.1-0.4,0.1-0.7,0-1c0-0.1-0.1-0.2-0.1-0.2c0,0,0,0.1,0,0.1c0.1,0,0.1,0,0.1,0.1
					L69.9,36c-0.2,0.2-0.3,0.5-0.5,0.9L55.4,53.4L67,35.2c0.3-0.3,0.7-0.7,1.2-1.1c0.3-0.2,0.5-0.4,0.9-0.5c0.4-0.1,0.9-0.2,1.4,0
					c0.5,0.1,0.9,0.5,1.1,0.9c0.2,0.4,0.2,0.8,0.2,1.1c0,0.6-0.3,1.2-0.5,1.6C70.5,38.9,69.1,40.3,67.5,41.2z"/>
			</g>
		</g>
	</g>
	<g>
		<g>
			<g>
				<path d="M73.6,40.6c0.6-0.7,1.2-1.6,1.3-2.4c0-0.4-0.1-0.8-0.3-1.1c-0.2-0.2-0.5-0.3-0.8-0.2c-0.6,0.1-1.3,0.7-1.9,1.3
					c-0.6,0.6-1.2,1.3-1.6,2.1c-2.5,2.5-4.1,6-6.2,9.4c-1,1.7-2.1,3.3-3.6,4.7c-0.7,0.7-1.7,1.2-2.8,1.1c-0.5-0.1-1-0.3-1.4-0.7
					c-0.4-0.3-0.6-0.8-0.5-1.3c0,1,1,1.6,1.9,1.6c0.9,0,1.7-0.6,2.3-1.3c1.2-1.4,2.1-3.1,2.9-4.8c1.6-3.4,2.7-7.2,5.3-10.6
					c0.8-0.7,1.6-1.4,2.5-1.9c0.5-0.3,0.9-0.5,1.4-0.7c0.5-0.2,1.1-0.4,1.8-0.3c0.7,0,1.4,0.5,1.7,1.1c0.3,0.6,0.3,1.2,0.1,1.7
					C75.2,39.4,74.4,40,73.6,40.6z"/>
			</g>
		</g>
	</g>
	<g>
		<g>
			<g>
				<path d="M77.3,44c0.8-0.5,1.7-1.1,2.1-1.9c0.2-0.4,0.3-0.8,0.2-1.2c-0.1-0.4-0.3-0.6-0.5-0.8c-0.3-0.1-0.6-0.2-1-0.1
					c-0.3,0-0.6,0.2-0.9,0.4c-0.6,0.4-1.1,1.2-1.6,2c-2.6,2.7-4.5,6.3-6.9,9.5c-1.2,1.6-2.5,3.2-4.1,4.5c-0.8,0.6-1.8,1.2-2.9,1.1
					c-0.5-0.1-1-0.3-1.4-0.7c-0.4-0.4-0.6-0.9-0.5-1.4c0,1,1,1.7,1.9,1.7c0.9,0,1.8-0.6,2.4-1.2c1.3-1.4,2.4-3,3.4-4.7
					c1.9-3.4,3.3-7.2,5.9-10.6c0.8-0.7,1.6-1.5,2.8-2c0.3-0.1,0.6-0.2,0.9-0.3c0.3-0.1,0.7-0.1,1,0c0.7,0.1,1.3,0.3,1.8,0.8
					c0.5,0.5,0.8,1.2,0.7,1.8c-0.1,0.6-0.3,1.2-0.7,1.6C79.2,43.3,78.2,43.6,77.3,44z"/>
			</g>
		</g>
	</g>
	<g>
		<g>
			<g>
				<path d="M69.9,57.6c2-1.6,4-3.2,5.8-5c1.8-1.8,3.4-3.7,4.6-5.8c0.3-0.4,0.6-0.8,0.7-1.2c0.1-0.3,0-0.7-0.1-0.9
					c-0.1-0.2-0.2-0.3-0.4-0.2c-0.3,0-0.7,0.3-1.1,0.6c-0.4,0.3-0.8,0.8-1.2,1.3L76.9,48l-2.5,2.9l-5,5.9l-1.3,1.5
					c-0.4,0.5-0.9,1-1.5,1.3c-0.3,0.2-0.6,0.3-1,0.3c-0.4,0-0.7-0.1-1-0.3c-0.3-0.2-0.5-0.5-0.6-0.8c-0.1-0.3,0-0.7,0.2-0.9
					c-0.4,0.6,0,1.3,0.5,1.6c0.5,0.4,1.2,0.2,1.7-0.1c1-0.7,1.6-1.9,2.4-2.9l4.4-6.3l2.2-3.1l1.1-1.6c0.4-0.5,0.7-1.1,1.2-1.6
					c0.5-0.5,1.1-1.1,2.1-1.4c0.5-0.1,1.1-0.1,1.6,0.1c0.5,0.2,1,0.5,1.3,1c0.6,0.8,0.8,1.9,0.7,2.8c-0.1,0.9-0.5,1.7-0.9,2.3
					C79.1,52.7,74.4,55.2,69.9,57.6z"/>
			</g>
		</g>
	</g>
	<g>
		<g>
			<g>
				<path d="M65,41.5l-15.2-6.3l-7.6-3.1c-0.6-0.3-1.3-0.5-2-1c-0.7-0.4-1.4-1-1.9-1.8c-0.5-0.8-0.7-1.8-0.4-2.9
					c0.1-0.5,0.4-1.1,0.9-1.5c0.4-0.4,1-0.7,1.6-0.8c1.2-0.2,2.1,0.1,2.8,0.5c0.8,0.4,1.4,0.8,2,1.3c1.1,0.9,2.2,1.8,3.2,2.9
					c1,1.1,1.8,2.5,2.2,4.1c0.4,1.5,0.2,3.4-0.7,4.8C48.9,39,47.5,40,46,40.5c-1.5,0.5-3.1,0.6-4.6,0.2c-3-0.8-5.2-2.9-6.9-5.2
					c-0.4-0.6-0.9-1.3-1-2.1c-0.1-0.4,0-1,0.3-1.5c0.3-0.4,0.8-0.7,1.3-0.8c0.9-0.1,1.6,0.3,2.3,0.5l1.9,0.8c2.5,1.1,5,2.3,7.5,3.6
					c4.9,2.5,9.6,5.4,14,8.6c-4.6-3-9.4-5.7-14.3-8c-2.5-1.2-5-2.2-7.5-3.2L37,32.8c-0.6-0.2-1.3-0.4-1.7-0.4
					c-0.2,0-0.3,0.1-0.4,0.2c-0.1,0.1-0.1,0.3-0.1,0.5c0.1,0.5,0.4,1,0.8,1.5c1.6,2.1,3.7,3.8,6.2,4.3c2.3,0.5,5-0.5,6.1-2.4
					c0.5-0.9,0.6-2.1,0.3-3.1c-0.3-1.1-1-2.1-1.8-3c-0.8-0.9-1.9-1.7-3-2.5c-0.5-0.4-1-0.7-1.5-0.9c-0.5-0.2-1-0.3-1.1-0.2
					c-0.1,0-0.2,0-0.3,0.1c-0.1,0-0.1,0.1-0.2,0.2c-0.1,0.2-0.1,0.7,0.1,1.1c0.3,0.7,1.4,1.4,2.6,2l7.3,3.8L65,41.5z"/>
			</g>
		</g>
	</g>
</g>
<g>
	<g>
		<g>
			<g>
				<path d="M96.6,100.5c3.8,8.1,7.2,16.5,9.9,25.2c4.2,17.6,5.8,35.8,5.1,53.8c-0.2-18-2.8-35.9-7.8-53
					C102,117.6,99.6,109,96.6,100.5z"/>
			</g>
		</g>
	</g>
	<g>
		<g>
			<g>
				<path d="M213.7,179.1c0.6-9.6,1.6-19.2,3.3-28.7c4.6-18.8,11.4-36.9,20-54.1c-7.7,17.6-13.6,35.9-17.2,54.7
					C217.2,160.2,215.3,169.6,213.7,179.1z"/>
			</g>
		</g>
	</g>
	<g>
		<g>
			<g>
				<polygon points="94.3,101 99.9,99 102.8,97.9 105.6,97 111.4,95.2 117.2,93.6 120.1,92.8 123,92.1 128.8,90.8 134.8,89.6 
					137.7,89 140.7,88.6 146.7,87.9 152.7,87.4 155.7,87.2 158.7,87.1 164.7,86.8 170.8,86.8 173.8,86.8 176.8,86.9 182.8,87.1 
					188.8,87.5 191.8,87.8 194.8,88.1 200.8,88.7 206.7,89.6 209.7,90 212.6,90.6 218.6,91.7 224.4,93 227.3,93.6 230.2,94.4 
					236,95.9 230.2,94.6 227.3,93.9 224.3,93.3 218.5,92.2 212.5,91.3 209.6,90.8 206.6,90.5 200.7,89.8 194.7,89.3 191.7,89.1 
					188.7,89 182.7,88.7 176.8,88.7 173.8,88.7 170.8,88.8 164.8,89 158.9,89.4 155.9,89.6 152.9,89.9 147,90.5 141.1,91.4 
					138.1,91.7 135.2,92.1 129.2,92.9 123.3,93.9 120.4,94.4 117.5,95 111.6,96.3 105.8,97.7 102.9,98.5 100,99.3 				"/>
			</g>
		</g>
	</g>
	<g>
		<g>
			<g>
				<path d="M109.6,105.5c12.3-2.4,24.7-4.8,37.2-6.6c12.6-1.1,25.2-1.6,37.8-0.9c12.6,0.7,25.1,2.6,37.2,6.1
					c-12.2-3.1-24.7-4.5-37.2-4.7c-12.5-0.2-25,0.8-37.4,2.3C134.6,102.6,122.1,104.1,109.6,105.5z"/>
			</g>
		</g>
	</g>
	<g>
		<g>
			<g>
				<path d="M117.6,177.5c0.3-8.1,0-16.1-1.1-24c-0.7-15.9-4.2-31.8-10.3-46.8c7,14.5,11.5,30.3,13.1,46.5
					C119.5,161.4,118.8,169.5,117.6,177.5z"/>
			</g>
		</g>
	</g>
	<g>
		<g>
			<g>
				<path d="M208.8,176.5c-1.1-8.2-1.6-16.6-1.3-25c2-16.7,7.2-32.9,15-47.6c-6.9,15.1-11.1,31.4-12.2,47.8
					C209,159.9,208.6,168.2,208.8,176.5z"/>
			</g>
		</g>
	</g>
	<g>
		<g>
			<g>
				<path d="M117.7,179.2c10-1.9,20.2-3.4,30.4-4.4c20.5-0.6,41,0.8,61.1,4.1c-20.3-2.3-40.7-2.8-61-1.3
					C138.1,177.7,127.9,178.2,117.7,179.2z"/>
			</g>
		</g>
	</g>
	<g>
		<g>
			<g>
				<path d="M252.6,185.9l-8.1-1.3l-4-0.6l-4.1-0.5l-8.1-0.9l-8.1-0.6l-4.1-0.3l-4.1-0.2l-8.1-0.3l-8.1-0.1l-4.1,0l-4.1,0.1
					l-8.1-0.1l-8.1,0.1l-4.1,0.1l-4.1,0.2l-8.1,0.3c-10.8,0.6-21.7,1.4-32.5,2.6c-21.7,2.1-43.2,5.2-64.8,8.2
					c21.5-3.5,43-7,64.6-9.6c10.8-1.4,21.7-2.4,32.5-3.3l8.2-0.5l4.1-0.3l4.1-0.2l8.2-0.3l8.2-0.1l4.1,0.1l4.1,0.2l8.2,0.4l8.2,0.7
					l4.1,0.3l4.1,0.5l8.1,1l8.1,1.3l4,0.6l4,0.8L252.6,185.9z"/>
			</g>
		</g>
	</g>
	<g>
		<g>
			<g>
				<polygon points="72.8,202.4 79.8,200.4 83.3,199.4 86.8,198.5 93.8,196.6 100.9,195 104.4,194.2 108,193.5 115.1,192.1 
					122.3,190.9 125.9,190.3 129.5,189.8 136.7,189.1 144,188.6 147.6,188.3 151.2,188.2 158.5,187.9 165.7,187.8 169.4,187.7 
					173,187.8 180.3,187.9 187.5,188.3 191.1,188.4 194.8,188.7 202,189.2 209.2,190 212.8,190.4 216.4,190.8 223.6,191.8 
					230.7,193 234.3,193.6 237.9,194.3 245,195.6 237.8,194.4 234.3,193.8 230.7,193.3 223.5,192.3 216.3,191.5 212.7,191.2 
					209.1,190.9 201.9,190.3 194.7,189.9 191.1,189.7 187.5,189.7 180.2,189.5 173,189.6 169.4,189.6 165.8,189.7 158.6,190 
					151.4,190.5 147.7,190.7 144.2,191.1 137,191.7 129.8,192.6 126.2,193 122.6,193.4 115.4,194.2 108.3,195.3 104.7,195.8 
					101.2,196.4 94,197.7 87,199.1 83.4,199.9 79.9,200.7 				"/>
			</g>
		</g>
	</g>
	<g>
		<g>
			<g>
				<path d="M76,202.9c-1.4,0.4-2.7,1.2-4,1.9c-1.3,0.7-2.6,1.5-4.4,1.9c-1.7,0-3.4-0.3-4.9-1.4c-0.7-0.5-1.3-1.3-1.7-2.1
					c-0.4-0.8-0.4-1.7-0.4-2.5c0-1.6,0.3-3,0.5-4.5l0.6-4.4l0.2,4.4c0.1,1.5,0,3,0.2,4.3c0.2,1.4,0.8,2.4,1.9,2.9
					c1,0.5,2.3,0.6,3.5,0.4C70,204.1,73.1,202.8,76,202.9z"/>
			</g>
		</g>
	</g>
	<g>
		<g>
			<g>
				<path d="M255.2,186.1c-0.1,2.1-0.7,4.4-2.1,6.4c-1.8,1.5-4,2.4-6.2,2.7c-2.2,0.3-4.4,0-6.4-0.9c4.1,0.8,8.4-0.9,10.6-3.8
					C252.7,189.5,254.2,188,255.2,186.1z"/>
			</g>
		</g>
	</g>
</g>
<g>
	<g>
		<g>
			<g>
				<path d="M231.4,93.5c1.3-2.6,2.5-5.3,3.7-7.9c3.5-4.5,6.8-9.3,9.9-14.2c-2.3,5.3-4.8,10.6-7.5,15.7
					C235.5,89.4,233.4,91.5,231.4,93.5z"/>
			</g>
		</g>
	</g>
	<g>
		<g>
			<g>
				<path d="M222.4,163.3c3.6-4,7.3-8,11.1-11.9c8.5-6.8,17.2-13.2,26.1-19.3c-8.3,6.9-16.4,14-24.3,21.5
					C231,156.7,226.7,159.9,222.4,163.3z"/>
			</g>
		</g>
	</g>
	<g>
		<g>
			<g>
				<polygon points="224.2,163.4 221.4,163.5 217.8,159.8 222.8,161 				"/>
			</g>
		</g>
	</g>
	<g>
		<g>
			<g>
				<path d="M279.3,102.7c-2.8-4.3-6-8.3-9.6-11.9c-6.1-8.1-13.9-14.9-22.9-19.8c9.4,4.1,18,10.3,25.1,18
					C274.8,93.4,277.3,98,279.3,102.7z"/>
			</g>
		</g>
	</g>
	<g>
		<g>
			<g>
				<polygon points="255.3,70.6 255.1,72.8 251.7,74.2 253.1,70.8 				"/>
			</g>
		</g>
	</g>
	<g>
		<g>
			<g>
				<path d="M288.9,102.8c-3.2-4-6.5-7.7-10.2-11c-6.3-7.7-13.9-14.4-22.4-19.8c9,4.5,17.4,10.6,24.5,17.9
					C283.9,93.9,286.6,98.3,288.9,102.8z"/>
			</g>
		</g>
	</g>
	<g>
		<g>
			<g>
				<path d="M233,158.3c2.9-3.3,5.9-6.5,9-9.6c7-5.2,14.3-10,21.8-14.5c-6.9,5.3-13.6,10.8-20,16.7
					C240.2,153.2,236.6,155.7,233,158.3z"/>
			</g>
		</g>
	</g>
	<g>
		<g>
			<g>
				<polygon points="271.1,129.4 272,127.1 276.2,126.2 273.5,129.5 				"/>
			</g>
		</g>
	</g>
	<g>
		<g>
			<g>
				<path d="M227.6,159c1-0.2,1.7-0.7,2.2-1.3c1.3,0.2,3-0.2,4.1-1.5c-0.3,1.7-1.6,3.5-3.6,4.3C229.2,160.3,228.3,159.7,227.6,159z"
					/>
			</g>
		</g>
	</g>
</g>
<g>
	<g>
		<g>
			<g>
				<path d="M110.4,147.5c-3.9-2.6-7.8-5.4-11.5-8.6c-1.5-1.9-3-3.8-4.3-5.8c-1.3-2-2.5-4.1-3.6-6.2c-2.2-4.2-4.1-8.6-6-12.9
					c2.3,4.1,4.6,8.2,7.2,12.2c1.3,2,2.7,3.8,4.1,5.6c1.5,1.8,3.1,3.5,4.7,5.1C103.9,140.6,107.1,144.1,110.4,147.5z"/>
			</g>
		</g>
	</g>
	<g>
		<g>
			<g>
				<path d="M76.3,111.1l-2,1.1l-1,0.5l-0.9,0.6l-1.9,1.2l-1.8,1.3l-0.9,0.6l-0.9,0.7l-1.7,1.4l-1.6,1.5l-0.8,0.7l-0.8,0.8l-1.7,1.4
					l-1.6,1.4l-0.8,0.7l-0.8,0.8l-1.6,1.5l-1.5,1.6l-0.7,0.8l-0.7,0.9l-1.4,1.7l-1.3,1.8l-0.6,0.9l-0.6,0.9l-1.2,1.9l-1.1,1.9
					l-0.5,1l-0.5,1l-1,2l-0.9,2.1l-0.4,1l-0.4,1.1l-0.7,2.1c2.7-11.6,9.1-22.5,18.1-30.7l0.9-0.7l1-0.6l1.9-1.2l2-1.1l1-0.6l1-0.5
					l2-1l2.1-0.9l1-0.4l1.1-0.4L76.3,111.1z"/>
			</g>
		</g>
	</g>
	<g>
		<g>
			<g>
				<path d="M50,144.4c1.9-0.1,4.1,1.2,4.7,3.8c-0.1,0.7-0.3,1.3-0.6,1.8c-0.3,0.5-0.8,1.1-1.4,1.4c-0.6,0.3-1.4,0.4-2.1,0.1
					c-0.7-0.3-1.1-0.7-1.4-1.2c-0.3-0.5-0.4-1-0.4-1.6c0-0.6,0.1-1.1,0.3-1.5c0.4-0.9,1.1-1.6,1.7-2.2c-0.4,0.8-0.9,1.6-1,2.4
					c-0.2,0.8,0.1,1.6,0.6,2.1c0.5,0.5,1,0.4,1.2,0.1c0.3-0.3,0.4-1,0.3-1.4C52.3,147.2,51.7,145.2,50,144.4z"/>
			</g>
		</g>
	</g>
	<g>
		<g>
			<g>
				<path d="M59.3,150.4c0.4-1.1,1.8-1.7,3.1-1.4c0.7,0.1,1.4,0.6,1.8,1.2c0.5,0.6,0.7,1.4,0.8,2.1c-0.1,0.8-0.4,1.5-0.9,2.1
					c-0.5,0.6-1.1,1-1.7,1.3c-1.3,0.5-2.7,0.4-3.8-0.1c-1.1-0.5-2.1-1.5-2.2-2.8c-0.1-1.3,0.8-2.5,2-2.4c-1.1,0.2-1.6,1.5-1.3,2.3
					c0.3,0.9,1.2,1.4,2,1.6c0.9,0.2,1.8,0,2.4-0.5c0.6-0.4,0.8-1.1,0.7-1.7c0.3-0.6,0.3-1.3-0.3-1.8
					C61.3,149.8,60.1,149.6,59.3,150.4z"/>
			</g>
		</g>
	</g>
	<g>
		<g>
			<g>
				<path d="M68.3,155.5c0.5-0.7,1.6-1.1,2.7-0.9c0.6,0.1,1.1,0.4,1.6,0.9c0.5,0.5,0.8,1.1,0.9,1.8c-0.1,1.3-0.8,2.5-2,3.1
					c-1.2,0.6-2.4,0.4-3.3-0.2c-0.5-0.3-0.9-0.7-1.1-1.1c-0.2-0.5-0.4-1-0.4-1.5c0-1,0.5-1.9,1.2-2.4c-0.5,0.7-0.7,1.6-0.5,2.3
					c0.2,0.8,0.7,1.2,1.4,1.4c0.6,0.2,1.3,0,1.6-0.4c0.3-0.3,0.4-0.9,0.3-1.3c0.2-0.4,0.3-0.9-0.2-1.4
					C69.9,155.4,69.1,155.1,68.3,155.5z"/>
			</g>
		</g>
	</g>
	<g>
		<g>
			<g>
				<path d="M75.9,158.1c1-0.1,2.1,0.1,3.1,0.8c0.5,0.4,0.9,0.8,1.2,1.4c0.3,0.6,0.5,1.3,0.5,2c-0.4,1.4-1.3,2.5-2.6,3.1
					c-0.6,0.3-1.4,0.3-2.1,0.1c-0.6-0.2-1.2-0.5-1.6-1c-0.4-0.4-0.7-1-0.9-1.6c-0.1-0.6,0-1.2,0.3-1.7c0.6-1,1.5-1.5,2.3-2
					c-0.7,0.6-1.5,1.4-1.7,2.3c-0.3,0.9,0.1,1.6,0.8,2c0.7,0.4,1.4,0.4,1.9,0c0.5-0.3,0.8-1,0.7-1.6c0.2-0.3,0.3-0.6,0.3-0.9
					c0-0.4-0.1-0.7-0.3-1.1C77.6,159.2,76.8,158.5,75.9,158.1z"/>
			</g>
		</g>
	</g>
	<g>
		<g>
			<g>
				<path d="M83.3,163.6c1-0.4,2.4-0.1,3.3,0.9c0.5,0.5,0.8,1.2,0.8,2c0.1,0.8-0.1,1.5-0.5,2.2c-0.5,0.6-1.3,1.1-2.1,1.2
					c-0.8,0.1-1.6,0-2.3-0.3c-0.7-0.3-1.2-0.9-1.6-1.5c-0.3-0.7-0.4-1.4-0.2-2.1c0.3-1.3,1.2-2.3,2.2-2.8c1-0.6,2.1-0.8,3.1-1
					c-1,0.5-1.9,0.9-2.7,1.6c-0.7,0.7-1.2,1.6-1.2,2.4c0,0.8,0.5,1.3,1.2,1.5c0.3,0.1,0.6,0,0.9-0.1c0.2-0.1,0.4-0.3,0.5-0.5
					c0.5-0.3,0.9-1,0.7-1.7C85.2,164.5,84.4,163.7,83.3,163.6z"/>
			</g>
		</g>
	</g>
	<g>
		<g>
			<g>
				<path d="M89.6,167.9c1-0.3,2.1-0.2,3.2,0.4c1.1,0.6,1.9,1.9,1.9,3.3c-0.1,0.7-0.5,1.4-1,1.9c-0.5,0.6-1.2,0.9-1.9,1
					c-0.7,0.1-1.4,0.1-2-0.2c-0.6-0.3-1.2-0.8-1.4-1.4c-0.6-1.2-0.4-2.4,0.1-3.3c0.5-0.9,1.3-1.6,2.1-2.1c-0.7,0.7-1.3,1.5-1.5,2.4
					c-0.2,0.8-0.1,1.8,0.4,2.3c0.5,0.5,1.1,0.5,1.7,0.3c0.5-0.3,0.7-0.7,0.7-1.3c0.3-0.5,0.4-1.2,0-1.9
					C91.4,168.6,90.6,168.1,89.6,167.9z"/>
			</g>
		</g>
	</g>
	<g>
		<g>
			<g>
				<path d="M94.9,175.3c1.1-0.3,2.4-0.5,3.7,0.1c0.6,0.3,1.3,0.7,1.7,1.5c0.4,0.7,0.6,1.7,0.4,2.5c-0.3,0.8-0.9,1.4-1.5,1.9
					c-0.7,0.5-1.5,0.8-2.3,0.7c-1.7-0.1-2.9-1.3-3.3-2.6c-0.2-0.7-0.3-1.4-0.1-2c0.2-0.7,0.5-1.2,1-1.7c0.9-0.9,2.2-1.2,3.3-0.9
					c-1.1-0.1-2.2,0.5-2.8,1.4c-0.6,0.8-0.6,1.9-0.1,2.6c0.5,0.8,1.4,1.2,2,1c0.6-0.1,1.1-0.8,1.2-1.4c0.2-0.2,0.3-0.5,0.3-0.8
					c0-0.4-0.2-0.7-0.5-1.1C97.2,175.9,96.1,175.4,94.9,175.3z"/>
			</g>
		</g>
	</g>
	<g>
		<g>
			<g>
				<path d="M101.3,182.1c1-0.5,2.1-1,3.6-0.7c0.7,0.2,1.4,0.6,1.8,1.4c0.4,0.9,0.4,1.9,0,2.7c-0.5,0.7-1.2,1.2-1.9,1.5
					c-0.7,0.3-1.2,0.4-1.9,0.5c-0.7,0.1-1.3,0.1-2.1-0.1c-0.7-0.2-1.5-0.7-1.8-1.4c-0.4-0.7-0.3-1.5-0.1-2.1
					c0.2-0.6,0.6-1.2,1.2-1.5c1-0.7,2.2-0.9,3.3-1.1c-1,0.4-2.1,0.8-2.8,1.6c-0.7,0.7-0.8,1.9-0.3,2.4c0.4,0.5,1.3,0.4,2.2,0.1
					c0.4-0.2,0.9-0.4,1.2-0.6c0.3-0.2,0.5-0.5,0.6-0.7c0.2-0.2,0.4-0.3,0.4-0.5c0.1-0.2-0.1-0.6-0.4-0.9
					C103.6,182.1,102.4,182,101.3,182.1z"/>
			</g>
		</g>
	</g>
	<g>
		<g>
			<g>
				<path d="M50.9,147.6c-0.3,1.2-0.7,2.4-0.9,3.6c-1.2,2.1-2.2,4.3-3.1,6.6c0.4-2.4,1-4.8,1.8-7.1
					C49.3,149.6,50.1,148.6,50.9,147.6z"/>
			</g>
		</g>
	</g>
	<g>
		<g>
			<g>
				<path d="M51.8,148.9c-0.2,1-0.3,2-0.5,3c-0.9,1.8-1.8,3.6-2.5,5.5c0.3-2,0.7-4,1.2-6C50.6,150.6,51.2,149.7,51.8,148.9z"/>
			</g>
		</g>
	</g>
	<g>
		<g>
			<g>
				<polygon points="61.3,152 59.7,155.2 54.8,160.4 58.6,154.3 				"/>
			</g>
		</g>
	</g>
	<g>
		<g>
			<g>
				<path d="M63.4,152.1c-0.7,1.1-1.4,2.1-2.1,3.3c-1.8,1.7-3.5,3.6-5.1,5.6c1.2-2.3,2.5-4.5,4-6.6
					C61.3,153.6,62.3,152.8,63.4,152.1z"/>
			</g>
		</g>
	</g>
	<g>
		<g>
			<g>
				<polygon points="68.5,157.2 67.1,160.4 62.6,165.6 65.9,159.6 				"/>
			</g>
		</g>
	</g>
	<g>
		<g>
			<g>
				<polygon points="70.7,156.9 69.3,160.1 64.8,165.2 68.2,159.3 				"/>
			</g>
		</g>
	</g>
	<g>
		<g>
			<g>
				<path d="M76.2,161.7c-0.6,0.9-1.2,1.7-1.7,2.7c-1.5,1.3-2.9,2.9-4.1,4.6c0.8-1.9,1.8-3.8,3-5.5
					C74.4,162.8,75.3,162.2,76.2,161.7z"/>
			</g>
		</g>
	</g>
	<g>
		<g>
			<g>
				<path d="M79.3,161.1c-0.7,1-1.3,2.1-1.9,3.1c-1.7,1.7-3.3,3.5-4.8,5.4c1.1-2.2,2.3-4.3,3.7-6.3
					C77.3,162.5,78.3,161.8,79.3,161.1z"/>
			</g>
		</g>
	</g>
	<g>
		<g>
			<g>
				<polygon points="82.6,166.3 81.3,168.8 77,172.5 80.2,167.9 				"/>
			</g>
		</g>
	</g>
	<g>
		<g>
			<g>
				<polygon points="84.3,167.1 82.9,169.7 78.4,173.3 81.8,168.7 				"/>
			</g>
		</g>
	</g>
	<g>
		<g>
			<g>
				<polygon points="90.1,170.6 88.3,173.1 83.4,176.4 87.4,172 				"/>
			</g>
		</g>
	</g>
	<g>
		<g>
			<g>
				<path d="M92.4,171.5c-0.7,0.8-1.5,1.7-2.2,2.5c-1.9,1.1-3.7,2.3-5.5,3.6c1.5-1.6,3-3.2,4.6-4.7C90.4,172.4,91.4,172,92.4,171.5z
					"/>
			</g>
		</g>
	</g>
	<g>
		<g>
			<g>
				<path d="M97.2,176.9c-0.9,0.6-1.8,1.2-2.7,1.9c-2,0.7-3.8,1.8-5.5,3.2c1.4-1.7,3-3.2,4.9-4.4C95,177.2,96.1,177,97.2,176.9z"/>
			</g>
		</g>
	</g>
	<g>
		<g>
			<g>
				<path d="M97.6,178.8c-0.8,0.6-1.6,1.3-2.4,1.9c-1.8,0.8-3.6,1.7-5.3,2.9c1.4-1.5,2.9-2.9,4.6-4.1
					C95.6,179.2,96.6,179,97.6,178.8z"/>
			</g>
		</g>
	</g>
	<g>
		<g>
			<g>
				<path d="M101.5,184.8c-0.3,0.5-0.7,1-1,1.5c-1,0.4-2,0.9-3,1.4c0.7-0.9,1.4-1.7,2.2-2.6C100.3,185,100.9,184.9,101.5,184.8z"/>
			</g>
		</g>
	</g>
	<g>
		<g>
			<g>
				<path d="M104.3,185.3c-0.3,0.4-0.6,0.9-0.9,1.3c-0.9,0.3-1.9,0.6-2.8,0.9c0.7-0.7,1.4-1.5,2.1-2.1
					C103.2,185.3,103.7,185.3,104.3,185.3z"/>
			</g>
		</g>
	</g>
	<g>
		<g>
			<g>
				<polygon points="96.4,187.9 94.7,185.8 93.9,184.7 93,183.7 91.3,181.7 89.4,179.8 88.5,178.9 87.5,178 85.6,176.2 83.6,174.5 
					82.6,173.6 81.5,172.8 79.5,171.1 77.4,169.5 76.4,168.7 75.3,167.9 73.1,166.4 70.9,165 69.8,164.3 68.6,163.7 66.3,162.4 
					63.9,161.2 62.7,160.6 61.5,160.1 59.1,159 56.6,158.1 55.4,157.6 54.1,157.2 51.6,156.4 49,155.7 47.7,155.4 46.4,155.1 
					43.8,154.6 46.4,155 47.7,155.3 49,155.6 51.6,156.2 54.2,156.9 55.5,157.3 56.7,157.7 59.3,158.5 61.8,159.5 63,160 
					64.2,160.6 66.6,161.7 69,162.9 70.2,163.5 71.4,164.2 73.7,165.5 75.9,167 77.1,167.7 78.2,168.5 80.3,170.1 82.4,171.7 
					83.5,172.6 84.4,173.5 86.3,175.4 88.2,177.4 89.1,178.3 90,179.4 91.7,181.4 93.3,183.5 94.1,184.6 94.9,185.7 				"/>
			</g>
		</g>
	</g>
	<g>
		<g>
			<g>
				<path d="M44.8,144.1c-0.6,1.2-0.9,2.5-1,3.7c-0.8,2.3-0.5,5.1,0.9,7.3c-1.8-2-2.7-4.8-2.3-7.6C43,146.2,43.8,145,44.8,144.1z"/>
			</g>
		</g>
	</g>
	<g>
		<g>
			<g>
				<path d="M111.8,164.1c-5.9-4.4-11.8-8.7-17.5-13.3c-5.5-4.9-10.8-9.9-15.6-15.5c-4.8-5.5-9-11.6-12.3-18.2
					c3.5,6.4,7.9,12.4,12.8,17.7c4.9,5.4,10.4,10.3,16,14.9C100.6,154.6,106.2,159.3,111.8,164.1z"/>
			</g>
		</g>
	</g>
	<g>
		<g>
			<g>
				<path d="M111,156.7c-5.2-4-10.3-8.2-15.3-12.6c-9.4-9.3-18.2-19.2-26.2-29.7c8.4,10.2,17.5,19.8,27.2,28.7
					C101.3,147.8,106.1,152.3,111,156.7z"/>
			</g>
		</g>
	</g>
	<g>
		<g>
			<g>
				<path d="M58.4,123.7c-0.2,2.5-0.2,5.1-0.1,7.6c-0.4,5,0,10.1,1.1,15c-1.6-4.8-2.5-9.9-2.5-15.1
					C57.2,128.7,57.7,126.2,58.4,123.7z"/>
			</g>
		</g>
	</g>
	<g>
		<g>
			<g>
				<path d="M67.7,120.8c-0.3,3.6-0.4,7.1-0.3,10.7c-0.6,7.1-0.3,14.2,0.6,21.3c-1.4-7-2.1-14.2-2-21.3
					C66.4,127.9,67,124.3,67.7,120.8z"/>
			</g>
		</g>
	</g>
	<g>
		<g>
			<g>
				<path d="M74.6,135.8c0,2.4,0,4.9,0.1,7.3c-0.5,4.8-0.6,9.7-0.5,14.6c-0.6-4.8-0.9-9.7-0.9-14.7
					C73.6,140.6,74.1,138.2,74.6,135.8z"/>
			</g>
		</g>
	</g>
	<g>
		<g>
			<g>
				<path d="M82.9,136.7c-0.2,2.7-0.3,5.3-0.3,8c-0.7,5.3-1.1,10.6-1,15.9c-0.5-5.3-0.7-10.7-0.4-16.1
					C81.6,141.9,82.2,139.3,82.9,136.7z"/>
			</g>
		</g>
	</g>
	<g>
		<g>
			<g>
				<path d="M89.4,149.3c0.1,2,0.2,3.9,0.3,5.9c-0.4,3.9-0.5,7.8-0.4,11.7c-0.6-3.9-0.9-7.8-1-11.7C88.6,153.2,89,151.2,89.4,149.3z
					"/>
			</g>
		</g>
	</g>
	<g>
		<g>
			<g>
				<path d="M100,155.3l0-0.4l0.1,0c-0.5,2.3-0.9,4.6-1.2,6.9c-1.1,4.3-1.9,8.7-2.2,13.1l-0.1,0l0.1-1.4l0,1.4l-0.1,0
					c-0.1-4.5,0.1-9,0.9-13.4c0.7-2.3,1.6-4.5,2.5-6.6l0.1-0.3l0,0.3L100,155.3z"/>
			</g>
		</g>
	</g>
	<g>
		<g>
			<g>
				<path d="M106.8,161c-0.2,2.3-0.4,4.7-0.5,7c-1,4.6-1.8,9.2-2.4,13.8c0.2-4.7,0.5-9.4,1-14C105.4,165.5,106.1,163.2,106.8,161z"
					/>
			</g>
		</g>
	</g>
	<g>
		<g>
			<g>
				<path d="M93.6,132.2c-0.2,0.8-0.3,1.6-0.3,2.3c-0.7,1.3-1.1,2.8-1.1,4.4c-0.4-1.5-0.5-3.2-0.2-4.9
					C92.5,133.3,93,132.7,93.6,132.2z"/>
			</g>
		</g>
	</g>
	<g>
		<g>
			<g>
				<polygon points="85.8,120.5 85.9,123.6 84.1,129.4 84.5,123.3 				"/>
			</g>
		</g>
	</g>
	<g>
		<g>
			<g>
				<path d="M78.5,111.5c-0.3,0.9-0.5,1.9-0.5,2.8c-0.7,1.6-1,3.6-1.7,5.4c0.2-1.9,0-3.8,0.3-5.8C77.2,113,77.8,112.2,78.5,111.5z"
					/>
			</g>
		</g>
	</g>
	<g>
		<g>
			<g>
				<polygon points="102.4,142.2 102.8,143.7 101.5,146.2 101.4,143.4 				"/>
			</g>
		</g>
	</g>
	<g>
		<g>
			<g>
				<polygon points="110,148.2 110.2,150.2 108.4,153.6 108.8,149.8 				"/>
			</g>
		</g>
	</g>
	<g>
		<g>
			<g>
				<polygon points="90.1,176 90.6,176.8 89.6,178 89.3,176.4 				"/>
			</g>
		</g>
	</g>
	<g>
		<g>
			<g>
				<polygon points="62.4,157.5 63.3,158 62.9,159.5 61.9,158.4 				"/>
			</g>
		</g>
	</g>
	<g>
		<g>
			<g>
				<polygon points="52.2,134.3 53.1,137.7 52.9,144.6 51.7,137.8 				"/>
			</g>
		</g>
	</g>
	<g>
		<g>
			<g>
				<path d="M54.2,150.9c0.2,0.7,0.4,1.3,0.8,1.9c-0.1,1.3,0,2.6,0.3,3.9c-0.8-1.1-1.4-2.4-1.8-3.8
					C53.7,152.3,53.9,151.6,54.2,150.9z"/>
			</g>
		</g>
	</g>
</g>
<g>
	<g>
		<g>
			<g>
				<path d="M136.3,37.4c1.1,5.5,2.5,10.9,4.3,16.1c2.2,10.8,5.8,21.4,10.7,31.4c-5.7-9.6-10.3-19.9-13.5-30.7
					C137,48.6,136.5,43,136.3,37.4z"/>
			</g>
		</g>
	</g>
	<g>
		<g>
			<g>
				<path d="M133.5,30.9c-5.9,0.9-11.7,2.6-17,5C105.3,39.4,95,46.1,87,55c7.2-9.5,17.2-17.2,28.6-21.7
					C121.5,31.6,127.6,30.9,133.5,30.9z"/>
			</g>
		</g>
	</g>
	<g>
		<g>
			<g>
				<path d="M132.4,37.1c-4.9,1.5-9.7,3.3-14.3,5.5c-9.6,3-18.8,7.6-27.2,13.5c7.8-6.7,16.6-12.2,26.2-16.2
					C122.2,38.6,127.3,37.7,132.4,37.1z"/>
			</g>
		</g>
	</g>
	<g>
		<g>
			<g>
				<path d="M136.3,40.8c-0.9-1.1-1.2-2.7-1.6-4c0.3-1.2,0.6-2.3,0.3-3.3c-0.3-0.9-1.4-2-2.7-1.5c0.5-0.5,1.3-0.6,2-0.4
					c0.7,0.2,1.4,0.6,1.9,1.2c1,1.3,1.2,2.9,1.3,4.2C137,38.4,136.4,39.4,136.3,40.8z"/>
			</g>
		</g>
	</g>
	<g>
		<g>
			<g>
				<path d="M113.5,92.3c-1.9-4.3-4.1-8.5-6.6-12.5c-3.7-8.5-8.9-16.5-15.2-23.5c7,6.4,13,13.9,17.8,22.3
					C111.2,83,112.5,87.6,113.5,92.3z"/>
			</g>
		</g>
	</g>
	<g>
		<g>
			<g>
				<polygon points="144.5,84 142.7,86.9 136.8,88.9 141.2,84.5 				"/>
			</g>
		</g>
	</g>
	<g>
		<g>
			<g>
				<path d="M145.7,84c-3.7-4.2-7.1-8.9-9.8-13.9c-4.3-10.6-6-22.2-5.2-33.4c0.1,11.2,2.8,22.4,7.8,32.2
					C140.2,74.1,142.7,79.2,145.7,84z"/>
			</g>
		</g>
	</g>
	<g>
		<g>
			<g>
				<path d="M108,96.5c-1.6-5-3.5-9.9-5.9-14.5c-1.3-3.6-3-7.2-5-10.5c-2-3.3-4.5-6.4-7.3-9.2l-0.1-0.1l0,0
					c-0.5-1.2-1.2-2.3-1.5-3.6c-0.2-0.6-0.3-1.3-0.2-2c0.1-0.7,0.4-1.3,0.8-1.7c-0.4,0.5-0.6,1.1-0.7,1.8c0,0.6,0.1,1.3,0.3,1.9
					c0.4,1.2,1.1,2.3,1.8,3.4l-0.1-0.1c3.1,2.5,5.9,5.5,8.3,8.7c2.4,3.2,4.4,6.8,6.2,10.4C106.3,86,107.3,91.2,108,96.5z"/>
			</g>
		</g>
	</g>
	<g>
		<g>
			<g>
				<path d="M148.8,88.9c0.8-0.6,1.1-1.4,1-2.1c0.5-0.2,0.9-0.6,1-1.3c0.2-0.7,0-1.5-0.5-2.2c0.8,0.3,1.5,1,1.9,2
					c0.4,0.9,0.3,2.2-0.2,3.3C150.9,89.2,149.6,89.3,148.8,88.9z"/>
			</g>
		</g>
	</g>
	<g>
		<g>
			<g>
				<path d="M136.2,83.2l-3.4-9.2c-0.2-1.5-1.8-2.1-1.9-0.6c-0.1,0.7,0.1,1.5,0.2,2.3c0.2,0.8,0.4,1.5,0.7,2.3
					c0.3,0.7,0.7,1.4,1.1,2.2c0.4,0.7,0.8,1.5,0.9,2.3c0.1,0.8,0,1.8-0.5,2.4c-0.6,0.6-1.5,0.9-2.3,0.5c0.8,0.4,1.7,0,2.1-0.6
					c0.5-0.6,0.5-1.5,0.3-2.2c-0.4-1.5-1.6-2.7-2.3-4.3c-0.4-0.8-0.7-1.5-0.9-2.3c-0.2-0.8-0.4-1.6-0.4-2.6c0-0.5,0.1-1.1,0.6-1.5
					c0.5-0.4,1.2-0.5,1.7-0.4c0.5,0.1,1,0.5,1.3,0.9c0.3,0.4,0.5,0.9,0.7,1.3L136.2,83.2z"/>
			</g>
		</g>
	</g>
	<g>
		<g>
			<g>
				<path d="M138.9,80.6c-1.3-0.6-2.2-1.7-2.9-3c-0.6-1.3-1-2.7-1.2-4.1c0-1.4,0.1-2.8,0.1-4.1c0-1.3,0-2.7-0.5-3.9
					c-0.2-0.6-0.6-1.1-1.1-1.4c-0.5-0.3-1.2-0.3-1.8-0.1c-1.3,0.4-2.1,1.6-2.5,2.9c0.3-1.3,1-2.7,2.4-3.2c0.7-0.3,1.5-0.3,2.2,0
					c0.7,0.3,1.2,0.9,1.5,1.6c0.7,1.3,0.8,2.8,0.9,4.1c0.1,1.4,0.1,2.8,0.2,4.1c-0.1,1.3,0,2.6,0.4,3.9
					C137,78.6,137.7,79.8,138.9,80.6z"/>
			</g>
		</g>
	</g>
	<g>
		<g>
			<g>
				<polygon points="140,81.4 139,82.7 135.9,83.4 138.3,81.4 				"/>
			</g>
		</g>
	</g>
	<g>
		<g>
			<g>
				<path d="M128.9,66.5c0.3,0.5-0.1,1.2-0.7,1.5c-0.6,0.2-1.3,0-1.8-0.5c-0.5-0.5-0.8-1.1-0.9-1.6l-0.5-1.6l-0.8-6.7
					c-0.1-0.6-0.1-1.1-0.3-1.6c-0.1-0.5-0.4-1-0.8-1.2c-0.4-0.3-1-0.2-1.5-0.1c-0.5,0.2-1,0.5-1.5,0.8c0.4-0.4,0.9-0.7,1.4-0.9
					c0.5-0.2,1.2-0.4,1.7-0.1c0.6,0.3,1,0.8,1.2,1.4c0.2,0.5,0.3,1.1,0.5,1.7l1.5,6.5c0.1,1.1,0,2.3,0.6,3c0.3,0.4,0.7,0.7,1.2,0.6
					C128.6,67.6,129.1,67.1,128.9,66.5z"/>
			</g>
		</g>
	</g>
	<g>
		<g>
			<g>
				<polygon points="130.5,85.5 126.4,76.1 120.1,56.7 127.7,75.6 				"/>
			</g>
		</g>
	</g>
	<g>
		<g>
			<g>
				<path d="M117.6,89.1c-1.6-3.2-3.3-6.3-5-9.4c-2.9-6.5-6.2-12.8-9.8-18.9c4,5.9,7.8,12,11.1,18.3
					C115.2,82.4,116.5,85.8,117.6,89.1z"/>
			</g>
		</g>
	</g>
	<g>
		<g>
			<g>
				<path d="M122.5,90.3c-0.5,0.2-1,0.5-1.4,0.9c-1,0-2,0.3-2.9,0.9c0.6-0.9,1.5-1.8,2.5-2.3C121.4,89.9,122,90,122.5,90.3z"/>
			</g>
		</g>
	</g>
	<g>
		<g>
			<g>
				<path d="M116.2,74.2c0.2,1.8,0.8,3.5,1.7,5.1c1,3.4,2.8,6.8,3.3,10.5c-1-3.6-3.1-6.5-4.6-10C116.1,77.9,115.9,76,116.2,74.2z"/>
			</g>
		</g>
	</g>
	<g>
		<g>
			<g>
				<path d="M105.4,62c0.5-1.7,1.5-3.3,3.1-4.4c1.5-1.1,3.5-1.6,5.4-1.4c1.9,0.3,3.7,1.5,4.8,3c1.2,1.5,1.7,3.5,1.6,5.3
					c0,1.8-0.6,3.6-1.4,5.2c-0.8,1.6-1.8,3.1-2.9,4.5c1-1.5,1.9-3,2.5-4.7c0.7-1.6,1.1-3.4,1-5.1c-0.1-1.7-0.6-3.4-1.7-4.6
					c-1.1-1.2-2.6-2.1-4.2-2.2c-1.6-0.4-3.3-0.2-4.8,0.6C107.3,59,106.1,60.4,105.4,62z"/>
			</g>
		</g>
	</g>
	<g>
		<g>
			<g>
				<path d="M108,63.8c0.7-1.3,2.1-2.3,3.7-2.5c1.6-0.2,3.4,0.5,4.4,1.8c0.5,0.7,0.8,1.5,0.9,2.4c0.1,0.9-0.1,1.7-0.4,2.5
					c-0.7,1.5-2,2.7-3.7,3c-0.4,0-0.9,0-1.3-0.3c-0.4-0.3-0.6-0.6-0.8-1c-0.3-0.7-0.5-1.4-0.8-2.1l-1.6-4.2l1.9,4
					c0.3,0.7,0.6,1.4,1,2c0.3,0.7,0.9,0.9,1.5,0.8c1.3-0.3,2.4-1.4,2.8-2.7c0.4-1.3,0.2-2.6-0.7-3.6c-0.7-1.1-1.9-1.9-3.3-1.9
					C110.3,61.9,108.8,62.6,108,63.8z"/>
			</g>
		</g>
	</g>
</g>
<g>
	<g>
		<g>
			<g>
				<path d="M249,55.5c-3.8-3.9-8-7.5-12.5-10.4c-8.1-7.1-17.9-12.4-28.4-15.5c10.8,2.1,21.2,6.6,30.2,13.2
					C242.3,46.7,245.9,51,249,55.5z"/>
			</g>
		</g>
	</g>
	<g>
		<g>
			<g>
				<path d="M191.8,88.9c-1.3-0.5-2.6-1.2-3.9-1.9c-1.5-2.4-2.6-5-3.3-7.6c1.5,2.2,3.4,4.1,5.4,5.7
					C190.6,86.4,191.2,87.6,191.8,88.9z"/>
			</g>
		</g>
	</g>
	<g>
		<g>
			<g>
				<path d="M222.4,92.4c1.7-4.8,3.8-9.4,6.2-13.9c6.1-8.2,13.4-15.4,21.6-21.3c-7.6,6.6-14.2,14.3-19.3,22.9
					C227.8,83.9,225,88,222.4,92.4z"/>
			</g>
		</g>
	</g>
	<g>
		<g>
			<g>
				<path d="M184.6,76.9c3.3-4.7,6.4-9.6,9.1-14.7c6.6-9.3,12-19.6,16-30.4c-3.2,11.1-7.7,21.9-13.6,31.9
					C192.5,68.4,188.6,72.8,184.6,76.9z"/>
			</g>
		</g>
	</g>
	<g>
		<g>
			<g>
				<path d="M244,57.8c-2.9-3.5-6.2-6.7-9.8-9.3c-6.2-6.4-14.1-11.2-22.8-14c8.9,1.8,17.5,5.9,24.7,11.9
					C239.3,49.8,241.9,53.7,244,57.8z"/>
			</g>
		</g>
	</g>
	<g>
		<g>
			<g>
				<path d="M217.3,91.7c1.8-4.5,3.8-9,6.1-13.4c5.8-7.9,12.6-15.1,20.1-21.3c-6.8,6.9-12.8,14.6-17.7,22.8
					C222.8,83.6,220,87.6,217.3,91.7z"/>
			</g>
		</g>
	</g>
	<g>
		<g>
			<g>
				<path d="M199.4,88.9c-1.6-0.5-3.1-1.1-4.7-1.8c-2.2-2.5-4-5.2-5.5-8c2.3,2.3,4.7,4.2,7.4,5.9C197.4,86.3,198.3,87.6,199.4,88.9z
					"/>
			</g>
		</g>
	</g>
	<g>
		<g>
			<g>
				<path d="M190.9,78.5c2.8-4.6,5.5-9.3,7.8-14.2c6-8.9,11.1-18.4,15.4-28.4c-3.4,10.3-7.7,20.3-12.9,29.9
					C198,70.2,194.5,74.4,190.9,78.5z"/>
			</g>
		</g>
	</g>
	<g>
		<g>
			<g>
				<path d="M200.2,84.1c2.2-2.6,3.9-5.5,5.2-8.4c0.2-0.3,0.3-0.7,0.3-0.9c0-0.3,0-0.5-0.2-0.6c-0.1-0.1-0.4-0.2-0.7-0.2
					c-0.3,0-0.6,0.2-0.8,0.4c-0.5,0.4-1,1.2-1.6,1.8c-0.6,0.7-1.2,1.3-1.8,1.8c-0.6,0.6-1.3,1.1-2,1.6c-0.7,0.5-1.5,0.9-2.4,1
					c-0.9,0.1-1.8-0.4-2.3-1c-0.5-0.7-0.8-1.5-1.1-2.3c0.3,0.8,0.7,1.6,1.2,2.2c0.5,0.6,1.3,1,2.1,0.8c0.8-0.1,1.5-0.6,2.1-1.1
					c0.6-0.5,1.2-1.1,1.8-1.7c0.6-0.6,1.1-1.2,1.6-1.9c0.5-0.6,0.9-1.4,1.6-2.1c0.7-0.7,2-1.2,3.1-0.4c0.5,0.4,0.7,1.1,0.7,1.7
					c0,0.6-0.2,1-0.4,1.5C204.9,79.3,202.7,81.9,200.2,84.1z"/>
			</g>
		</g>
	</g>
	<g>
		<g>
			<g>
				<path d="M206.9,84.7l-0.5,1.3l-0.1-0.1c1.3-4.1,2.8-8.3,4.3-12.3c1-2.2,2-4.4,3.1-6.5l1.6-3.2c0.5-1.1,1.2-2.1,1.8-3.2
					c0.6-1,1.3-2,1.8-3.1c0.5-1.1,0.9-2.2,0.9-3.3c0-1.2-0.8-2.2-1.7-2.9c-0.9-0.8-2-1.4-3-2c1.1,0.5,2.2,1.1,3.1,1.8
					c0.9,0.7,1.9,1.7,1.9,3c0.1,1.3-0.3,2.5-0.8,3.6c-0.5,1.1-1.1,2.2-1.7,3.2c-0.6,1.1-1.2,2.1-1.6,3.2l-1.4,3.3
					c-0.9,2.2-1.9,4.4-2.8,6.6c-1.9,3.9-3.7,7.8-5.5,11.8l-0.1-0.1L206.9,84.7z"/>
			</g>
		</g>
	</g>
	<g>
		<g>
			<g>
				<path d="M205.7,86c-0.6,0.1-1.2,0.1-1.9,0.1c-1-0.7-1.9-1.4-2.7-2.3c1.1,0.5,2.1,0.8,3.2,1C204.8,85.3,205.2,85.7,205.7,86z"/>
			</g>
		</g>
	</g>
	<g>
		<g>
			<g>
				<path d="M193.4,78.9c2.5-3,4.8-6.1,7.1-9.3c5-5.9,9.5-12.2,13.5-18.9c-3.6,6.9-7.7,13.5-12.4,19.8
					C199,73.5,196.3,76.2,193.4,78.9z"/>
			</g>
		</g>
	</g>
	<g>
		<g>
			<g>
				<path d="M208.7,71.4c0-1.3,0.4-2.6,1-3.7c0.6-1.2,1.3-2.3,1.9-3.3c0.8-1.1,1.5-2.2,1.8-3.4l0.8,0.5c-2.9,2.2-5.6,4.9-7.8,7.9
					c1.9-3.2,4.4-6.1,7.1-8.7l1-1l-0.2,1.4c-0.2,1.5-0.9,2.8-1.6,4c-0.8,1-1.7,1.9-2.5,2.9C209.5,69,208.9,70.1,208.7,71.4z"/>
			</g>
		</g>
	</g>
	<g>
		<g>
			<g>
				<polygon points="208.1,70.5 206.8,70.7 205.6,69.4 205.3,69.1 205.6,69.1 206.2,69.1 205.7,69.4 205.8,69.1 207.5,69.4 				"/>
			</g>
		</g>
	</g>
	<g>
		<g>
			<g>
				<path d="M226.3,63.1c0.4-0.3,1-0.1,1.4,0.2c0.2,0.2,0.4,0.4,0.5,0.7c0.1,0.3,0.1,0.6,0.1,0.9c0,0.6-0.3,1.1-0.5,1.5
					c-0.3,0.5-0.5,0.9-0.9,1.3c-0.4,0.3-0.9,0.7-1.5,0.9c-0.6,0.2-1.4,0.1-1.9-0.4c-1-0.9-0.9-2.3-0.3-3.2c0.3-0.5,0.6-0.8,1-1.2
					c0.4-0.3,0.8-0.6,1.3-0.8c1-0.4,2.3,0.2,2.3,1.3c-0.1-0.5-0.5-0.9-0.9-1c-0.4-0.2-0.9-0.1-1.3,0.1c-0.8,0.4-1.4,1.2-1.8,2
					c-0.2,0.4-0.2,0.8-0.2,1.2c0.1,0.4,0.3,0.7,0.5,0.9c0.5,0.3,1.2,0,1.8-0.7c0.7-0.5,1.4-1.2,1.7-1.9c0.1-0.4,0.1-0.8-0.2-1.2
					C227.2,63.2,226.8,62.9,226.3,63.1z"/>
			</g>
		</g>
	</g>
	<g>
		<g>
			<g>
				<path d="M213.4,90.2c1-2.3,2.2-4.6,3.4-6.8c0.8-1,1.6-2,2.4-3c0.8-1,1.7-1.9,2.4-2.9c0.7-1,1.1-2.2,0.7-3.4
					c-0.2-0.6-0.6-1-1.2-1.3c-0.6-0.2-1.3-0.2-1.8,0.2c1-0.9,2.8-0.3,3.3,1c0.6,1.3,0.2,2.7-0.4,3.9c-0.7,1.2-1.4,2.1-2.1,3.2
					c-0.7,1-1.4,2.1-2,3.2C216.4,86.1,214.9,88.2,213.4,90.2z"/>
			</g>
		</g>
	</g>
	<g>
		<g>
			<g>
				<path d="M210.3,86.1c1-1.5,1.9-3,2.8-4.5c2.3-2.6,4.4-5.5,6.2-8.5c-1.4,3.2-3.1,6.4-5.1,9.4C213,83.7,211.7,85,210.3,86.1z"/>
			</g>
		</g>
	</g>
	<g>
		<g>
			<g>
				<polygon points="213.5,90.2 211.6,89.9 209.1,87.3 212.4,88.7 				"/>
			</g>
		</g>
	</g>
</g>
<g>
	<g>
		<g>
			<g>
				<path d="M71.5,91c-0.7-2.7-0.5-5.7,0.9-8.3c0.7-1.3,1.6-2.5,2.8-3.4c1.2-1,2.5-1.7,4-2.2c3.1-0.6,6.2,0,8.8,1.3
					c1.3,0.7,2.6,1.5,3.6,2.4c0.6,0.5,1,1,1.5,1.5c0.4,0.6,0.9,1.1,1.3,1.7c1.6,2.4,2.5,5.2,2.5,8c0,1.4-0.1,2.8-0.7,4.1
					c-0.3,0.6-0.8,1.2-1.5,1.5c-0.2,0.1-0.3,0.1-0.5,0.2c-0.2,0-0.4,0.1-0.5,0c-0.2-0.1-0.3-0.2-0.2-0.4c0.1-0.1,0.2-0.1,0.3,0
					c0.1,0,0.2,0.1,0.1,0.2c0.1-0.2-0.2-0.3-0.3-0.2c-0.1,0.1,0.1,0.3,0.2,0.3c0.3,0.1,0.7-0.1,0.9-0.2c0.6-0.3,1-0.9,1.2-1.5
					c0.5-1.2,0.5-2.6,0.4-3.9c-0.3-2.7-1.3-5.2-3-7.3c-0.4-0.5-0.9-1-1.3-1.5c-0.5-0.4-0.9-0.9-1.5-1.3c-1-0.8-2.2-1.4-3.4-1.9
					c-2.4-0.9-5-1.2-7.3-0.5c-1.2,0.1-2.4,0.5-3.4,1.2c-1.1,0.6-2.1,1.4-2.8,2.4C72,85.5,71.2,88.2,71.5,91z"/>
			</g>
		</g>
	</g>
	<g>
		<g>
			<g>
				<path d="M90.7,94.8L87.6,93c-1-0.6-2-1.2-2.9-1.3c-0.6-0.5-1.6-0.6-2-0.3c-0.2,0.1-0.4,0.4-0.4,0.8c0,0.4,0.1,0.9,0.3,1.3
					c0.5,0.9,1.4,1.6,2.4,2.2c1,0.6,2,1.2,2.9,2.1c-1-0.7-2.1-1-3.2-1.5c-1.1-0.4-2.3-1-3.2-2c-0.5-0.5-0.8-1.2-0.9-2
					c-0.1-0.7,0-1.7,0.7-2.5c0.7-0.7,1.5-1,2.3-1.1c0.8-0.1,1.6,0.1,2.3,0.3c1.2,0.9,2,1.9,2.7,2.9L90.7,94.8z"/>
			</g>
		</g>
	</g>
	<g>
		<g>
			<g>
				<path d="M77.7,93.2c-0.7-1.2-1.1-2.7-0.9-4.2c0.2-1.5,1-3.2,2.5-4.2c3.2-1.5,6.8-0.4,8.8,1.8c1,1.1,1.7,2.5,1.9,3.9
					c0.1,0.7,0.1,1.4,0,2.2c-0.1,0.3-0.3,0.8-0.8,0.8c-0.4,0-0.8-0.2-0.8-0.6c0,0.4,0.5,0.5,0.8,0.4c0.3-0.1,0.4-0.4,0.4-0.7
					c0-0.6-0.1-1.3-0.3-1.9c-0.4-1.2-1.2-2.3-2.2-3.1c-1-0.8-2.1-1.2-3.3-1.3c-1.2-0.1-2.3,0.3-3.1,0.9c-1,0.3-1.9,1-2.5,2.1
					C77.6,90.4,77.4,91.8,77.7,93.2z"/>
			</g>
		</g>
	</g>
	<g>
		<g>
			<g>
				<path d="M84.5,101.4c-1.8-0.2-3.7-0.5-5.5-1.4c-1.4-1.4-2.5-3.2-2.7-5.2c-0.3-1.9,0.1-4,1.5-5.2c-1,1.5-0.8,3.3-0.2,4.8
					c0.7,1.5,1.8,2.6,3.2,3.4C81.7,99.2,83,100.4,84.5,101.4z"/>
			</g>
		</g>
	</g>
	<g>
		<g>
			<g>
				<path d="M83.4,101.4c0.9-0.4,1.8-0.9,2.9-0.7c0.5,0.1,1.1,0.3,1.5,0.8c0.4,0.4,0.7,1.2,0.6,1.9c-0.2,0.7-0.7,1.3-1.2,1.6
					c-0.5,0.4-1.1,0.6-1.6,0.8c-1.1,0.3-2.2,0.5-3.3,0.4c-4.3-1-7.7-4-9.5-7.7c-1.8-3.7-2-7.8-1.3-11.6c-0.2,3.9,0.5,7.8,2.5,10.9
					c1.9,3.1,5.3,5.3,8.7,5.6c0.8,0.2,1.6,0.3,2.5,0.3c0.8,0,1.6-0.3,1.8-0.7c0.1-0.2,0.1-0.5,0-0.8c-0.2-0.3-0.5-0.6-0.9-0.8
					C85.3,101,84.3,101.2,83.4,101.4z"/>
			</g>
		</g>
	</g>
	<g>
		<g>
			<g>
				<path d="M96.2,105.3c-1.3-0.6-2.5-1.2-3.8-1.7c-1.6-2.1-3.3-4.1-5-6.1c2.4,1.2,4.7,2.6,7,4C95,102.8,95.6,104.1,96.2,105.3z"/>
			</g>
		</g>
	</g>
	<g>
		<g>
			<g>
				<path d="M76.9,110.9c2.5,1.5,5.3,2.4,8,2.6c5.1,1.9,11.2,1.3,16.1-1.7c-4.4,3.8-10.7,5.6-16.9,4.4
					C81.3,115.1,78.8,113.1,76.9,110.9z"/>
			</g>
		</g>
	</g>
	<g>
		<g>
			<g>
				<path d="M71,70.5c-2.3,1.5-4,3.6-5.2,6c-0.6,1.2-1,2.4-1.3,3.7c-0.3,1.2-0.4,2.5-0.5,3.8c-0.9,5,0.4,10.3,2.9,15
					c2.5,4.7,6.2,8.8,10.5,12.1c-4.6-2.9-8.7-6.7-11.7-11.3c-1.5-2.3-2.8-4.8-3.6-7.6c-0.8-2.7-1.2-5.6-0.9-8.5
					c0.3-1.4,0.7-2.8,1.3-4.1c0.5-1.3,1.3-2.6,2.1-3.7C66.3,73.4,68.5,71.6,71,70.5z"/>
			</g>
		</g>
	</g>
	<g>
		<g>
			<g>
				<path d="M96.5,101c-0.6,0.1-1.2,0.2-1.8,0.3c-0.3-0.9-0.8-1.7-1.3-2.5c1,0,2,0.1,3,0.3C96.5,99.8,96.5,100.4,96.5,101z"/>
			</g>
		</g>
	</g>
	<g>
		<g>
			<g>
				<path d="M101.1,83.2c1.2,1.2,2.4,2.3,3.5,3.6c1.1,3.1,1.9,6.4,2,9.6c-1.1-3.1-2.7-5.8-4.5-8.4C101.9,86.4,101.5,84.8,101.1,83.2
					z"/>
			</g>
		</g>
	</g>
	<g>
		<g>
			<g>
				<path d="M101.5,84.9c-1.4-4.2-4.2-7.7-7.6-10.1c-2.9-3-6.8-5-11-5.7c-4.2-0.6-8.7,0-12.5,2.4c3.5-2.8,8.1-4,12.6-3.8
					c4.6,0.2,9.1,2,12.7,5C99,76.2,101,80.5,101.5,84.9z"/>
			</g>
		</g>
	</g>
</g>
</svg>
